<?xml version="1.0" encoding="utf-8" standalone="no"?>
<!DOCTYPE svg PUBLIC "-//W3C//DTD SVG 1.1//EN"
  "http://www.w3.org/Graphics/SVG/1.1/DTD/svg11.dtd">
<!-- Created with matplotlib (https://matplotlib.org/) -->
<svg height="2304pt" version="1.1" viewBox="0 0 2304 2304" width="2304pt" xmlns="http://www.w3.org/2000/svg" xmlns:xlink="http://www.w3.org/1999/xlink">
 <metadata>
  <rdf:RDF xmlns:cc="http://creativecommons.org/ns#" xmlns:dc="http://purl.org/dc/elements/1.1/" xmlns:rdf="http://www.w3.org/1999/02/22-rdf-syntax-ns#">
   <cc:Work>
    <dc:type rdf:resource="http://purl.org/dc/dcmitype/StillImage"/>
    <dc:date>2021-02-13T22:37:18.927372</dc:date>
    <dc:format>image/svg+xml</dc:format>
    <dc:creator>
     <cc:Agent>
      <dc:title>Matplotlib v3.3.4, https://matplotlib.org/</dc:title>
     </cc:Agent>
    </dc:creator>
   </cc:Work>
  </rdf:RDF>
 </metadata>
 <defs>
  <style type="text/css">*{stroke-linecap:butt;stroke-linejoin:round;}</style>
 </defs>
 <g id="figure_1">
  <g id="patch_1">
   <path d="M 0 2304 
L 2304 2304 
L 2304 0 
L 0 0 
z
" style="fill:#ffffff;"/>
  </g>
  <g id="axes_1">
   <g id="PolyCollection_1">
    <path clip-path="url(#p6497d25cb9)" d="M 838.275863 1357.714374 
L 823.248128 1359.692813 
L 519.091161 1478.057715 
L 505.087541 1483.858204 
L 493.06236 1493.08545 
L 483.835114 1505.110631 
L 478.034624 1519.114251 
L 476.056186 1534.141987 
L 478.034624 1549.169722 
L 483.835114 1563.173342 
L 493.06236 1575.198523 
L 505.087541 1584.425769 
L 519.091161 1590.226258 
L 998.938622 1767.529292 
L 1013.966357 1769.507731 
L 1028.994092 1767.529292 
L 1042.997712 1761.728803 
L 1055.022894 1752.501557 
L 1064.250139 1740.476376 
L 1070.050629 1726.472756 
L 1072.029068 1711.44502 
L 1070.050629 1696.417285 
L 1064.250139 1682.413665 
L 888.559645 1386.74573 
L 879.332399 1374.720548 
L 867.307218 1365.493303 
L 853.303598 1359.692813 
z
" style="fill:none;stroke:#1f77b4;"/>
    <path clip-path="url(#p6497d25cb9)" d="M 1649.505999 922.689371 
L 1651.484437 937.717107 
L 1796.830374 1378.477637 
L 1802.630863 1392.481257 
L 1811.858109 1404.506438 
L 1823.88329 1413.733684 
L 1837.88691 1419.534174 
L 1852.914646 1421.512613 
L 1867.942381 1419.534174 
L 1881.946001 1413.733684 
L 1893.971182 1404.506438 
L 1903.198428 1392.481257 
L 1908.998917 1378.477637 
L 1910.977356 1363.449902 
L 1968.061248 823.995022 
L 1966.082809 808.967286 
L 1960.28232 794.963666 
L 1951.055074 782.938485 
L 1939.029893 773.711239 
L 1925.026273 767.91075 
L 1909.998538 765.932311 
L 1894.970802 767.91075 
L 1880.967182 773.711239 
L 1678.537354 872.405589 
L 1666.512173 881.632835 
L 1657.284927 893.658016 
L 1651.484437 907.661636 
z
" style="fill:none;stroke:#ff7f0e;"/>
    <path clip-path="url(#p6497d25cb9)" d="M 1365.763518 1313.425052 
L 1058.047252 1863.471697 
L 1052.246763 1877.475317 
L 1050.268324 1892.503053 
L 1052.246763 1907.530788 
L 1058.047252 1921.534408 
L 1067.274498 1933.559589 
L 1079.299679 1942.786835 
L 1093.303299 1948.587324 
L 1108.331035 1950.565763 
L 1123.35877 1948.587324 
L 1137.36239 1942.786835 
L 1149.387571 1933.559589 
L 1527.321244 1609.293464 
L 1536.54849 1597.268283 
L 1542.348979 1583.264663 
L 1544.327418 1568.236927 
L 1542.348979 1553.209192 
L 1472.131572 1327.428672 
L 1466.331083 1313.425052 
L 1457.103837 1301.399871 
L 1445.078656 1292.172625 
L 1431.075036 1286.372135 
L 1416.0473 1284.393696 
L 1401.019565 1286.372135 
L 1387.015945 1292.172625 
L 1374.990764 1301.399871 
z
" style="fill:none;stroke:#2ca02c;"/>
    <path clip-path="url(#p6497d25cb9)" d="M 1949.68583 1363.449902 
L 2006.769722 823.995022 
L 2003.472324 798.948796 
L 1993.804842 775.609429 
L 1978.426098 755.567461 
L 1834.852186 620.092427 
L 1814.810218 604.713683 
L 1791.470851 595.046201 
L 1766.424625 591.748803 
L 1272.918999 567.361113 
L 1252.882019 569.999032 
L 1234.210526 577.733018 
L 1218.176951 590.036012 
L 1205.873956 606.069587 
L 1198.13997 624.74108 
L 1195.502052 644.778061 
L 1207.318171 761.543365 
L 1210.615569 786.58959 
L 1322.573514 1367.502633 
L 1411.485678 1588.273908 
L 1419.219664 1606.945401 
L 1431.522659 1622.978976 
L 1447.556234 1635.28197 
L 1466.227727 1643.015956 
L 1486.264707 1645.653875 
L 1506.301688 1643.015956 
L 1733.083362 1562.118165 
L 1751.754855 1554.384179 
L 1901.300238 1447.256206 
L 1921.342206 1431.877463 
L 1936.72095 1411.835494 
L 1946.388432 1388.496128 
z
" style="fill:none;stroke:#d62728;"/>
    <path clip-path="url(#p6497d25cb9)" d="M 904.687113 1237.386058 
L 902.708674 1222.358323 
L 896.908185 1208.354703 
L 763.106516 890.481295 
L 753.87927 878.456114 
L 741.854089 869.228868 
L 602.90835 793.255028 
L 588.90473 787.454539 
L 573.876994 785.4761 
L 558.849259 787.454539 
L 544.845639 793.255028 
L 532.820458 802.482274 
L 523.593212 814.507455 
L 517.792723 828.511075 
L 395.517191 1304.667317 
L 393.538752 1319.695052 
L 395.517191 1334.722788 
L 401.31768 1348.726408 
L 410.544926 1360.751589 
L 422.570107 1369.978835 
L 436.573727 1375.779324 
L 451.601462 1377.757763 
L 466.629198 1375.779324 
L 861.652138 1293.47033 
L 875.655758 1287.669841 
L 887.680939 1278.442595 
L 896.908185 1266.417414 
L 902.708674 1252.413794 
z
" style="fill:none;stroke:#9467bd;"/>
    <path clip-path="url(#p6497d25cb9)" d="M 1501.762574 1755.394066 
L 1872.815897 1226.111557 
L 1880.549882 1207.440064 
L 1883.187801 1187.403083 
L 1880.549882 1167.366103 
L 1872.815897 1148.69461 
L 1860.512902 1132.661035 
L 1844.479327 1120.35804 
L 1825.807834 1112.624054 
L 1805.770854 1109.986136 
L 1593.522036 1110.752989 
L 846.624403 1159.969111 
L 826.587422 1162.607029 
L 807.915929 1170.341015 
L 791.882354 1182.64401 
L 779.579359 1198.677585 
L 771.845374 1217.349078 
L 769.207455 1237.386058 
L 771.845374 1257.423039 
L 823.650493 1614.945544 
L 831.384479 1633.617037 
L 843.687474 1649.650612 
L 859.721049 1661.953606 
L 878.392542 1669.687592 
L 1436.451057 1782.446982 
L 1451.478792 1784.425421 
L 1466.506527 1782.446982 
L 1480.510147 1776.646493 
L 1492.535328 1767.419247 
z
" style="fill:none;stroke:#8c564b;"/>
    <path clip-path="url(#p6497d25cb9)" d="M 1036.839661 506.900244 
L 658.080685 864.770602 
L 645.77769 880.804177 
L 608.749709 963.62994 
L 602.94922 977.63356 
L 600.970781 992.661296 
L 602.94922 1007.689031 
L 608.749709 1021.692651 
L 617.976955 1033.717832 
L 630.002136 1042.945078 
L 644.005756 1048.745567 
L 659.033492 1050.724006 
L 674.061227 1048.745567 
L 1319.117091 817.627636 
L 1333.120711 811.827147 
L 1345.145892 802.599901 
L 1354.373138 790.57472 
L 1360.173627 776.5711 
L 1362.152066 761.543365 
L 1360.173627 746.515629 
L 1329.003271 629.750326 
L 1323.202782 615.746706 
L 1313.975536 603.721524 
L 1301.950355 594.494278 
L 1106.927553 497.672998 
L 1092.923933 491.872509 
L 1077.896198 489.89407 
L 1062.868462 491.872509 
L 1048.864843 497.672998 
z
" style="fill:none;stroke:#e377c2;"/>
    <path clip-path="url(#p6497d25cb9)" d="M 1725.368089 729.576524 
L 1855.256489 878.73707 
L 1871.290064 891.040065 
L 1889.961557 898.774051 
L 1909.998538 901.411969 
L 1930.035518 898.774051 
L 1948.707011 891.040065 
L 1964.740586 878.73707 
L 1977.043581 862.703495 
L 1984.777567 844.032002 
L 1987.415485 823.995022 
L 1984.777567 803.958041 
L 1977.043581 785.286548 
L 1964.740586 769.252973 
L 1807.481162 647.463451 
L 1795.455981 638.236205 
L 1781.452361 632.435716 
L 1766.424625 630.457277 
L 1751.39689 632.435716 
L 1737.39327 638.236205 
L 1725.368089 647.463451 
L 1716.140843 659.488632 
L 1710.340354 673.492252 
L 1708.361915 688.519987 
L 1710.340354 703.547723 
L 1716.140843 717.551343 
z
" style="fill:none;stroke:#7f7f7f;"/>
    <path clip-path="url(#p6497d25cb9)" d="M 1841.203654 708.556968 
L 1843.841573 688.519987 
L 1841.203654 668.483007 
L 1833.469669 649.811514 
L 1821.166674 633.777939 
L 1805.133099 621.474944 
L 1786.461606 613.740958 
L 1766.424625 611.10304 
L 1746.387645 613.740958 
L 1284.052375 686.764336 
L 1265.380882 694.498321 
L 1249.347307 706.801316 
L 1237.044312 722.834891 
L 1229.310326 741.506384 
L 1226.672408 761.543365 
L 1229.310326 781.580345 
L 1341.268271 1362.493387 
L 1349.002257 1381.164881 
L 1361.305252 1397.198456 
L 1377.338827 1409.50145 
L 1396.01032 1417.235436 
L 1416.0473 1419.873354 
L 1436.084281 1417.235436 
L 1454.755774 1409.50145 
L 1470.789349 1397.198456 
L 1648.264085 1223.557748 
L 1660.56708 1207.524173 
L 1668.301065 1188.85268 
z
" style="fill:none;stroke:#bcbd22;"/>
    <path clip-path="url(#p6497d25cb9)" d="M 490.07069 795.153218 
L 480.403208 818.492585 
L 358.127676 1294.648827 
L 354.830278 1319.695052 
L 358.127676 1344.741278 
L 440.64511 1559.188212 
L 450.312592 1582.527579 
L 465.691335 1602.569547 
L 485.733304 1617.948291 
L 509.072671 1627.615773 
L 988.920132 1804.918806 
L 1013.966357 1808.216205 
L 1039.012583 1804.918806 
L 1062.351949 1795.251324 
L 1195.787841 1699.713784 
L 1211.821416 1687.41079 
L 1224.12441 1671.377215 
L 1231.858396 1652.705721 
L 1234.496315 1632.668741 
L 1231.858396 1612.631761 
L 1224.12441 1593.960267 
L 804.48122 732.623809 
L 792.178225 716.590235 
L 776.144651 704.28724 
L 757.473157 696.553254 
L 737.436177 693.915336 
L 717.399197 696.553254 
L 548.830769 750.065024 
L 525.491402 759.732507 
L 505.449434 775.11125 
z
" style="fill:none;stroke:#17becf;"/>
    <path clip-path="url(#p6497d25cb9)" d="M 876.984337 1482.822128 
L 1746.277183 989.734415 
L 1762.310758 977.43142 
L 1774.613752 961.397845 
L 1782.347738 942.726352 
L 1784.985657 922.689371 
L 1782.347738 902.652391 
L 1774.613752 883.980898 
L 1762.310758 867.947323 
L 1451.726283 589.771084 
L 1439.701102 580.543838 
L 1425.697482 574.743349 
L 1410.669747 572.76491 
L 1395.642012 574.743349 
L 1381.638392 580.543838 
L 1369.613211 589.771084 
L 819.592347 1020.559288 
L 810.365101 1032.58447 
L 804.564611 1046.58809 
L 802.586172 1061.615825 
L 760.858916 1415.777085 
L 763.496834 1435.814065 
L 771.23082 1454.485559 
L 783.533815 1470.519133 
L 799.567389 1482.822128 
L 818.238883 1490.556114 
L 838.275863 1493.194032 
L 858.312843 1490.556114 
z
" style="fill:none;stroke:#1f77b4;"/>
    <path clip-path="url(#p6497d25cb9)" d="M 909.513994 393.480411 
L 519.134946 788.796762 
L 506.831951 804.830337 
L 499.097965 823.50183 
L 496.460047 843.538811 
L 499.097965 863.575791 
L 506.831951 882.247284 
L 519.134946 898.280859 
L 535.168521 910.583854 
L 553.840014 918.317839 
L 573.876994 920.955758 
L 593.913975 918.317839 
L 612.585468 910.583854 
L 766.467532 821.616065 
L 778.492713 812.388819 
L 787.719959 800.363638 
L 1000.854313 463.568303 
L 1006.654802 449.564683 
L 1008.633241 434.536947 
L 1006.654802 419.509212 
L 1000.854313 405.505592 
L 991.627067 393.480411 
L 979.601886 384.253165 
L 965.598266 378.452676 
L 950.57053 376.474237 
L 935.542795 378.452676 
L 921.539175 384.253165 
z
" style="fill:none;stroke:#ff7f0e;"/>
    <path clip-path="url(#p6497d25cb9)" d="M 374.184515 1319.695052 
L 376.822433 1339.732033 
L 459.339867 1554.178967 
L 467.073853 1572.85046 
L 479.376848 1588.884035 
L 495.410422 1601.18703 
L 514.081916 1608.921016 
L 534.118896 1611.558934 
L 554.155877 1608.921016 
L 572.82737 1601.18703 
L 588.860945 1588.884035 
L 601.163939 1572.85046 
L 608.897925 1554.178967 
L 611.535844 1534.141987 
L 608.897925 1514.105006 
L 526.380491 1299.658072 
L 518.646505 1280.986579 
L 506.343511 1264.953004 
L 490.309936 1252.650009 
L 471.638443 1244.916024 
L 451.601462 1242.278105 
L 431.564482 1244.916024 
L 412.892989 1252.650009 
L 396.859414 1264.953004 
L 384.556419 1280.986579 
L 376.822433 1299.658072 
z
" style="fill:none;stroke:#2ca02c;"/>
    <path clip-path="url(#p6497d25cb9)" d="M 1013.966357 1788.861968 
L 1742.769727 1745.978762 
L 1757.797462 1744.000324 
L 1771.801082 1738.199834 
L 1783.826263 1728.972588 
L 1793.053509 1716.947407 
L 1798.853998 1702.943787 
L 1927.693674 1383.486882 
L 1930.331593 1363.449902 
L 1927.693674 1343.412922 
L 1919.959689 1324.741428 
L 1907.656694 1308.707854 
L 1891.623119 1296.404859 
L 1872.951626 1288.670873 
L 1852.914646 1286.032955 
L 1832.877665 1288.670873 
L 1814.206172 1296.404859 
L 975.257883 1644.399977 
L 959.224309 1656.702972 
L 946.921314 1672.736547 
L 939.187328 1691.40804 
L 936.54941 1711.44502 
L 939.187328 1731.482001 
L 946.921314 1750.153494 
L 959.224309 1766.187069 
L 975.257883 1778.490064 
L 993.929377 1786.224049 
z
" style="fill:none;stroke:#d62728;"/>
    <path clip-path="url(#p6497d25cb9)" d="M 473.30943 785.4761 
L 461.708451 813.48334 
L 339.432919 1289.639582 
L 335.476041 1319.695052 
L 339.432919 1349.750523 
L 421.950353 1564.197457 
L 433.551331 1592.204697 
L 452.005823 1616.255059 
L 476.056186 1634.709551 
L 1069.622561 1959.548096 
L 1088.294054 1967.282081 
L 1108.331035 1969.92 
L 1128.368015 1967.282081 
L 1762.806707 1762.695081 
L 1781.4782 1754.961095 
L 1797.511775 1742.6581 
L 1809.81477 1726.624526 
L 1953.48221 1421.512613 
L 1965.083189 1393.505373 
L 1969.040067 1363.449902 
L 2026.123959 823.995022 
L 2022.167081 793.939551 
L 2010.566102 765.932311 
L 1992.11161 741.881949 
L 1848.537698 606.406915 
L 1824.487336 587.952423 
L 1796.480096 576.351444 
L 970.607511 359.757919 
L 950.57053 357.12 
L 930.53355 359.757919 
L 911.862057 367.491904 
L 895.828482 379.794899 
L 491.763922 761.425738 
z
" style="fill:none;stroke:#9467bd;"/>
   </g>
   <g id="PolyCollection_2">
    <path clip-path="url(#p6497d25cb9)" d="M 1033.320594 1711.44502 
L 1032.661114 1706.435775 
L 1030.727618 1701.767902 
L 1027.651869 1697.759508 
L 1023.643476 1694.68376 
L 1018.975602 1692.750263 
L 1013.966357 1692.090783 
L 1008.957112 1692.750263 
L 1004.289239 1694.68376 
L 1000.280845 1697.759508 
L 997.205096 1701.767902 
L 995.2716 1706.435775 
L 994.61212 1711.44502 
L 995.2716 1716.454265 
L 997.205096 1721.122139 
L 1000.280845 1725.130532 
L 1004.289239 1728.206281 
L 1008.957112 1730.139778 
L 1013.966357 1730.799257 
L 1018.975602 1730.139778 
L 1023.643476 1728.206281 
L 1027.651869 1725.130532 
L 1030.727618 1721.122139 
L 1032.661114 1716.454265 
z
"/>
    <path clip-path="url(#p6497d25cb9)" d="M 553.473133 1534.141987 
L 552.813653 1529.132742 
L 550.880157 1524.464868 
L 547.804408 1520.456475 
L 543.796015 1517.380726 
L 539.128141 1515.447229 
L 534.118896 1514.78775 
L 529.109651 1515.447229 
L 524.441778 1517.380726 
L 520.433384 1520.456475 
L 517.357635 1524.464868 
L 515.424139 1529.132742 
L 514.764659 1534.141987 
L 515.424139 1539.151232 
L 517.357635 1543.819105 
L 520.433384 1547.827499 
L 524.441778 1550.903247 
L 529.109651 1552.836744 
L 534.118896 1553.496224 
L 539.128141 1552.836744 
L 543.796015 1550.903247 
L 547.804408 1547.827499 
L 550.880157 1543.819105 
L 552.813653 1539.151232 
z
"/>
    <path clip-path="url(#p6497d25cb9)" d="M 917.783759 1594.908563 
L 917.124279 1589.899318 
L 915.190783 1585.231445 
L 912.115034 1581.223051 
L 908.106641 1578.147302 
L 903.438767 1576.213806 
L 898.429522 1575.554326 
L 893.420277 1576.213806 
L 888.752404 1578.147302 
L 884.74401 1581.223051 
L 881.668261 1585.231445 
L 879.734765 1589.899318 
L 879.075285 1594.908563 
L 879.734765 1599.917808 
L 881.668261 1604.585682 
L 884.74401 1608.594075 
L 888.752404 1611.669824 
L 893.420277 1613.60332 
L 898.429522 1614.2628 
L 903.438767 1613.60332 
L 908.106641 1611.669824 
L 912.115034 1608.594075 
L 915.190783 1604.585682 
L 917.124279 1599.917808 
z
"/>
    <path clip-path="url(#p6497d25cb9)" d="M 857.6301 1415.777085 
L 856.97062 1410.76784 
L 855.037124 1406.099966 
L 851.961375 1402.091573 
L 847.952981 1399.015824 
L 843.285108 1397.082328 
L 838.275863 1396.422848 
L 833.266618 1397.082328 
L 828.598745 1399.015824 
L 824.590351 1402.091573 
L 821.514602 1406.099966 
L 819.581106 1410.76784 
L 818.921626 1415.777085 
L 819.581106 1420.78633 
L 821.514602 1425.454203 
L 824.590351 1429.462597 
L 828.598745 1432.538346 
L 833.266618 1434.471842 
L 838.275863 1435.131322 
L 843.285108 1434.471842 
L 847.952981 1432.538346 
L 851.961375 1429.462597 
L 855.037124 1425.454203 
L 856.97062 1420.78633 
z
"/>
    <path clip-path="url(#p6497d25cb9)" d="M 1929.352775 823.995022 
L 1928.693295 818.985777 
L 1926.759798 814.317903 
L 1923.68405 810.309509 
L 1919.675656 807.233761 
L 1915.007783 805.300264 
L 1909.998538 804.640785 
L 1904.989293 805.300264 
L 1900.321419 807.233761 
L 1896.313026 810.309509 
L 1893.237277 814.317903 
L 1891.30378 818.985777 
L 1890.644301 823.995022 
L 1891.30378 829.004267 
L 1893.237277 833.67214 
L 1896.313026 837.680534 
L 1900.321419 840.756282 
L 1904.989293 842.689779 
L 1909.998538 843.349258 
L 1915.007783 842.689779 
L 1919.675656 840.756282 
L 1923.68405 837.680534 
L 1926.759798 833.67214 
L 1928.693295 829.004267 
z
"/>
    <path clip-path="url(#p6497d25cb9)" d="M 1726.922946 922.689371 
L 1726.263466 917.680126 
L 1724.32997 913.012253 
L 1721.254221 909.003859 
L 1717.245828 905.928111 
L 1712.577954 903.994614 
L 1707.568709 903.335134 
L 1702.559464 903.994614 
L 1697.891591 905.928111 
L 1693.883197 909.003859 
L 1690.807448 913.012253 
L 1688.873952 917.680126 
L 1688.214472 922.689371 
L 1688.873952 927.698616 
L 1690.807448 932.36649 
L 1693.883197 936.374883 
L 1697.891591 939.450632 
L 1702.559464 941.384129 
L 1707.568709 942.043608 
L 1712.577954 941.384129 
L 1717.245828 939.450632 
L 1721.254221 936.374883 
L 1724.32997 932.36649 
L 1726.263466 927.698616 
z
"/>
    <path clip-path="url(#p6497d25cb9)" d="M 1872.268882 1363.449902 
L 1871.609403 1358.440657 
L 1869.675906 1353.772784 
L 1866.600158 1349.76439 
L 1862.591764 1346.688641 
L 1857.923891 1344.755145 
L 1852.914646 1344.095665 
L 1847.9054 1344.755145 
L 1843.237527 1346.688641 
L 1839.229133 1349.76439 
L 1836.153385 1353.772784 
L 1834.219888 1358.440657 
L 1833.560409 1363.449902 
L 1834.219888 1368.459147 
L 1836.153385 1373.12702 
L 1839.229133 1377.135414 
L 1843.237527 1380.211163 
L 1847.9054 1382.144659 
L 1852.914646 1382.804139 
L 1857.923891 1382.144659 
L 1862.591764 1380.211163 
L 1866.600158 1377.135414 
L 1869.675906 1373.12702 
L 1871.609403 1368.459147 
z
"/>
    <path clip-path="url(#p6497d25cb9)" d="M 1825.12509 1187.403083 
L 1824.465611 1182.393838 
L 1822.532114 1177.725965 
L 1819.456366 1173.717571 
L 1815.447972 1170.641823 
L 1810.780099 1168.708326 
L 1805.770854 1168.048846 
L 1800.761608 1168.708326 
L 1796.093735 1170.641823 
L 1792.085341 1173.717571 
L 1789.009593 1177.725965 
L 1787.076096 1182.393838 
L 1786.416617 1187.403083 
L 1787.076096 1192.412328 
L 1789.009593 1197.080202 
L 1792.085341 1201.088595 
L 1796.093735 1204.164344 
L 1800.761608 1206.097841 
L 1805.770854 1206.75732 
L 1810.780099 1206.097841 
L 1815.447972 1204.164344 
L 1819.456366 1201.088595 
L 1822.532114 1197.080202 
L 1824.465611 1192.412328 
z
"/>
    <path clip-path="url(#p6497d25cb9)" d="M 1127.685271 1892.503053 
L 1127.025792 1887.493807 
L 1125.092295 1882.825934 
L 1122.016547 1878.81754 
L 1118.008153 1875.741792 
L 1113.34028 1873.808295 
L 1108.331035 1873.148816 
L 1103.32179 1873.808295 
L 1098.653916 1875.741792 
L 1094.645522 1878.81754 
L 1091.569774 1882.825934 
L 1089.636277 1887.493807 
L 1088.976798 1892.503053 
L 1089.636277 1897.512298 
L 1091.569774 1902.180171 
L 1094.645522 1906.188565 
L 1098.653916 1909.264313 
L 1103.32179 1911.19781 
L 1108.331035 1911.857289 
L 1113.34028 1911.19781 
L 1118.008153 1909.264313 
L 1122.016547 1906.188565 
L 1125.092295 1902.180171 
L 1127.025792 1897.512298 
z
"/>
    <path clip-path="url(#p6497d25cb9)" d="M 1435.401537 1342.456407 
L 1434.742057 1337.447162 
L 1432.808561 1332.779289 
L 1429.732812 1328.770895 
L 1425.724419 1325.695146 
L 1421.056545 1323.76165 
L 1416.0473 1323.10217 
L 1411.038055 1323.76165 
L 1406.370182 1325.695146 
L 1402.361788 1328.770895 
L 1399.286039 1332.779289 
L 1397.352543 1337.447162 
L 1396.693063 1342.456407 
L 1397.352543 1347.465652 
L 1399.286039 1352.133525 
L 1402.361788 1356.141919 
L 1406.370182 1359.217668 
L 1411.038055 1361.151164 
L 1416.0473 1361.810644 
L 1421.056545 1361.151164 
L 1425.724419 1359.217668 
L 1429.732812 1356.141919 
L 1432.808561 1352.133525 
L 1434.742057 1347.465652 
z
"/>
    <path clip-path="url(#p6497d25cb9)" d="M 1505.618944 1568.236927 
L 1504.959465 1563.227682 
L 1503.025968 1558.559809 
L 1499.95022 1554.551415 
L 1495.941826 1551.475667 
L 1491.273952 1549.54217 
L 1486.264707 1548.88269 
L 1481.255462 1549.54217 
L 1476.587589 1551.475667 
L 1472.579195 1554.551415 
L 1469.503447 1558.559809 
L 1467.56995 1563.227682 
L 1466.910471 1568.236927 
L 1467.56995 1573.246172 
L 1469.503447 1577.914046 
L 1472.579195 1581.922439 
L 1476.587589 1584.998188 
L 1481.255462 1586.931685 
L 1486.264707 1587.591164 
L 1491.273952 1586.931685 
L 1495.941826 1584.998188 
L 1499.95022 1581.922439 
L 1503.025968 1577.914046 
L 1504.959465 1573.246172 
z
"/>
    <path clip-path="url(#p6497d25cb9)" d="M 1292.273236 644.778061 
L 1291.613757 639.768816 
L 1289.68026 635.100942 
L 1286.604512 631.092549 
L 1282.596118 628.0168 
L 1277.928244 626.083304 
L 1272.918999 625.423824 
L 1267.909754 626.083304 
L 1263.241881 628.0168 
L 1259.233487 631.092549 
L 1256.157739 635.100942 
L 1254.224242 639.768816 
L 1253.564763 644.778061 
L 1254.224242 649.787306 
L 1256.157739 654.455179 
L 1259.233487 658.463573 
L 1263.241881 661.539322 
L 1267.909754 663.472818 
L 1272.918999 664.132298 
L 1277.928244 663.472818 
L 1282.596118 661.539322 
L 1286.604512 658.463573 
L 1289.68026 654.455179 
L 1291.613757 649.787306 
z
"/>
    <path clip-path="url(#p6497d25cb9)" d="M 1732.400618 1487.339136 
L 1731.741139 1482.329891 
L 1729.807642 1477.662017 
L 1726.731894 1473.653624 
L 1722.7235 1470.577875 
L 1718.055627 1468.644379 
L 1713.046381 1467.984899 
L 1708.037136 1468.644379 
L 1703.369263 1470.577875 
L 1699.360869 1473.653624 
L 1696.285121 1477.662017 
L 1694.351624 1482.329891 
L 1693.692145 1487.339136 
L 1694.351624 1492.348381 
L 1696.285121 1497.016254 
L 1699.360869 1501.024648 
L 1703.369263 1504.100397 
L 1708.037136 1506.033893 
L 1713.046381 1506.693373 
L 1718.055627 1506.033893 
L 1722.7235 1504.100397 
L 1726.731894 1501.024648 
L 1729.807642 1497.016254 
L 1731.741139 1492.348381 
z
"/>
    <path clip-path="url(#p6497d25cb9)" d="M 1670.37451 1335.733777 
L 1669.715031 1330.724531 
L 1667.781534 1326.056658 
L 1664.705786 1322.048264 
L 1660.697392 1318.972516 
L 1656.029519 1317.039019 
L 1651.020274 1316.37954 
L 1646.011028 1317.039019 
L 1641.343155 1318.972516 
L 1637.334761 1322.048264 
L 1634.259013 1326.056658 
L 1632.325516 1330.724531 
L 1631.666037 1335.733777 
L 1632.325516 1340.743022 
L 1634.259013 1345.410895 
L 1637.334761 1349.419289 
L 1641.343155 1352.495037 
L 1646.011028 1354.428534 
L 1651.020274 1355.088013 
L 1656.029519 1354.428534 
L 1660.697392 1352.495037 
L 1664.705786 1349.419289 
L 1667.781534 1345.410895 
L 1669.715031 1340.743022 
z
"/>
    <path clip-path="url(#p6497d25cb9)" d="M 1429.911691 996.12308 
L 1429.252212 991.113835 
L 1427.318715 986.445962 
L 1424.242967 982.437568 
L 1420.234573 979.36182 
L 1415.5667 977.428323 
L 1410.557454 976.768844 
L 1405.548209 977.428323 
L 1400.880336 979.36182 
L 1396.871942 982.437568 
L 1393.796194 986.445962 
L 1391.862697 991.113835 
L 1391.203218 996.12308 
L 1391.862697 1001.132326 
L 1393.796194 1005.800199 
L 1396.871942 1009.808593 
L 1400.880336 1012.884341 
L 1405.548209 1014.817838 
L 1410.557454 1015.477317 
L 1415.5667 1014.817838 
L 1420.234573 1012.884341 
L 1424.242967 1009.808593 
L 1427.318715 1005.800199 
L 1429.252212 1001.132326 
z
"/>
    <path clip-path="url(#p6497d25cb9)" d="M 1785.778862 688.519987 
L 1785.119383 683.510742 
L 1783.185886 678.842869 
L 1780.110138 674.834475 
L 1776.101744 671.758727 
L 1771.433871 669.82523 
L 1766.424625 669.165751 
L 1761.41538 669.82523 
L 1756.747507 671.758727 
L 1752.739113 674.834475 
L 1749.663365 678.842869 
L 1747.729868 683.510742 
L 1747.070389 688.519987 
L 1747.729868 693.529232 
L 1749.663365 698.197106 
L 1752.739113 702.2055 
L 1756.747507 705.281248 
L 1761.41538 707.214745 
L 1766.424625 707.874224 
L 1771.433871 707.214745 
L 1776.101744 705.281248 
L 1780.110138 702.2055 
L 1783.185886 698.197106 
L 1785.119383 693.529232 
z
"/>
    <path clip-path="url(#p6497d25cb9)" d="M 1323.443592 761.543365 
L 1322.784112 756.534119 
L 1320.850616 751.866246 
L 1317.774867 747.857852 
L 1313.766474 744.782104 
L 1309.0986 742.848607 
L 1304.089355 742.189128 
L 1299.08011 742.848607 
L 1294.412237 744.782104 
L 1290.403843 747.857852 
L 1287.328094 751.866246 
L 1285.394598 756.534119 
L 1284.735118 761.543365 
L 1285.394598 766.55261 
L 1287.328094 771.220483 
L 1290.403843 775.228877 
L 1294.412237 778.304625 
L 1299.08011 780.238122 
L 1304.089355 780.897601 
L 1309.0986 780.238122 
L 1313.766474 778.304625 
L 1317.774867 775.228877 
L 1320.850616 771.220483 
L 1322.784112 766.55261 
z
"/>
    <path clip-path="url(#p6497d25cb9)" d="M 1612.876273 1168.815699 
L 1612.216794 1163.806454 
L 1610.283297 1159.138581 
L 1607.207549 1155.130187 
L 1603.199155 1152.054438 
L 1598.531282 1150.120942 
L 1593.522036 1149.461462 
L 1588.512791 1150.120942 
L 1583.844918 1152.054438 
L 1579.836524 1155.130187 
L 1576.760776 1159.138581 
L 1574.827279 1163.806454 
L 1574.1678 1168.815699 
L 1574.827279 1173.824944 
L 1576.760776 1178.492818 
L 1579.836524 1182.501211 
L 1583.844918 1185.57696 
L 1588.512791 1187.510456 
L 1593.522036 1188.169936 
L 1598.531282 1187.510456 
L 1603.199155 1185.57696 
L 1607.207549 1182.501211 
L 1610.283297 1178.492818 
L 1612.216794 1173.824944 
z
"/>
    <path clip-path="url(#p6497d25cb9)" d="M 732.17697 919.512651 
L 731.517491 914.503406 
L 729.583994 909.835532 
L 726.508245 905.827139 
L 722.499852 902.75139 
L 717.831978 900.817894 
L 712.822733 900.158414 
L 707.813488 900.817894 
L 703.145615 902.75139 
L 699.137221 905.827139 
L 696.061472 909.835532 
L 694.127976 914.503406 
L 693.468496 919.512651 
L 694.127976 924.521896 
L 696.061472 929.189769 
L 699.137221 933.198163 
L 703.145615 936.273912 
L 707.813488 938.207408 
L 712.822733 938.866888 
L 717.831978 938.207408 
L 722.499852 936.273912 
L 726.508245 933.198163 
L 729.583994 929.189769 
L 731.517491 924.521896 
z
"/>
    <path clip-path="url(#p6497d25cb9)" d="M 865.978639 1237.386058 
L 865.31916 1232.376813 
L 863.385663 1227.70894 
L 860.309915 1223.700546 
L 856.301521 1220.624797 
L 851.633648 1218.691301 
L 846.624403 1218.031821 
L 841.615157 1218.691301 
L 836.947284 1220.624797 
L 832.93889 1223.700546 
L 829.863142 1227.70894 
L 827.929645 1232.376813 
L 827.270166 1237.386058 
L 827.929645 1242.395303 
L 829.863142 1247.063177 
L 832.93889 1251.07157 
L 836.947284 1254.147319 
L 841.615157 1256.080815 
L 846.624403 1256.740295 
L 851.633648 1256.080815 
L 856.301521 1254.147319 
L 860.309915 1251.07157 
L 863.385663 1247.063177 
L 865.31916 1242.395303 
z
"/>
    <path clip-path="url(#p6497d25cb9)" d="M 593.231231 843.538811 
L 592.571752 838.529565 
L 590.638255 833.861692 
L 587.562506 829.853298 
L 583.554113 826.77755 
L 578.886239 824.844053 
L 573.876994 824.184574 
L 568.867749 824.844053 
L 564.199876 826.77755 
L 560.191482 829.853298 
L 557.115733 833.861692 
L 555.182237 838.529565 
L 554.522757 843.538811 
L 555.182237 848.548056 
L 557.115733 853.215929 
L 560.191482 857.224323 
L 564.199876 860.300071 
L 568.867749 862.233568 
L 573.876994 862.893047 
L 578.886239 862.233568 
L 583.554113 860.300071 
L 587.562506 857.224323 
L 590.638255 853.215929 
L 592.571752 848.548056 
z
"/>
    <path clip-path="url(#p6497d25cb9)" d="M 470.955699 1319.695052 
L 470.29622 1314.685807 
L 468.362723 1310.017934 
L 465.286974 1306.00954 
L 461.278581 1302.933792 
L 456.610707 1301.000295 
L 451.601462 1300.340816 
L 446.592217 1301.000295 
L 441.924344 1302.933792 
L 437.91595 1306.00954 
L 434.840202 1310.017934 
L 432.906705 1314.685807 
L 432.247225 1319.695052 
L 432.906705 1324.704298 
L 434.840202 1329.372171 
L 437.91595 1333.380565 
L 441.924344 1336.456313 
L 446.592217 1338.38981 
L 451.601462 1339.049289 
L 456.610707 1338.38981 
L 461.278581 1336.456313 
L 465.286974 1333.380565 
L 468.362723 1329.372171 
L 470.29622 1324.704298 
z
"/>
    <path clip-path="url(#p6497d25cb9)" d="M 1046.387196 1447.289726 
L 1045.727717 1442.280481 
L 1043.79422 1437.612608 
L 1040.718471 1433.604214 
L 1036.710078 1430.528466 
L 1032.042204 1428.594969 
L 1027.032959 1427.93549 
L 1022.023714 1428.594969 
L 1017.355841 1430.528466 
L 1013.347447 1433.604214 
L 1010.271698 1437.612608 
L 1008.338202 1442.280481 
L 1007.678722 1447.289726 
L 1008.338202 1452.298972 
L 1010.271698 1456.966845 
L 1013.347447 1460.975239 
L 1017.355841 1464.050987 
L 1022.023714 1465.984484 
L 1027.032959 1466.643963 
L 1032.042204 1465.984484 
L 1036.710078 1464.050987 
L 1040.718471 1460.975239 
L 1043.79422 1456.966845 
L 1045.727717 1452.298972 
z
"/>
    <path clip-path="url(#p6497d25cb9)" d="M 1470.833029 1726.362711 
L 1470.173549 1721.353466 
L 1468.240053 1716.685592 
L 1465.164304 1712.677199 
L 1461.155911 1709.60145 
L 1456.488037 1707.667953 
L 1451.478792 1707.008474 
L 1446.469547 1707.667953 
L 1441.801674 1709.60145 
L 1437.79328 1712.677199 
L 1434.717531 1716.685592 
L 1432.784035 1721.353466 
L 1432.124555 1726.362711 
L 1432.784035 1731.371956 
L 1434.717531 1736.039829 
L 1437.79328 1740.048223 
L 1441.801674 1743.123971 
L 1446.469547 1745.057468 
L 1451.478792 1745.716947 
L 1456.488037 1745.057468 
L 1461.155911 1743.123971 
L 1465.164304 1740.048223 
L 1468.240053 1736.039829 
L 1470.173549 1731.371956 
z
"/>
    <path clip-path="url(#p6497d25cb9)" d="M 1097.250435 547.95678 
L 1096.590955 542.947535 
L 1094.657459 538.279662 
L 1091.58171 534.271268 
L 1087.573316 531.19552 
L 1082.905443 529.262023 
L 1077.896198 528.602544 
L 1072.886953 529.262023 
L 1068.219079 531.19552 
L 1064.210686 534.271268 
L 1061.134937 538.279662 
L 1059.201441 542.947535 
L 1058.541961 547.95678 
L 1059.201441 552.966026 
L 1061.134937 557.633899 
L 1064.210686 561.642293 
L 1068.219079 564.718041 
L 1072.886953 566.651538 
L 1077.896198 567.311017 
L 1082.905443 566.651538 
L 1087.573316 564.718041 
L 1091.58171 561.642293 
L 1094.657459 557.633899 
L 1096.590955 552.966026 
z
"/>
    <path clip-path="url(#p6497d25cb9)" d="M 678.387728 992.661296 
L 677.728249 987.65205 
L 675.794752 982.984177 
L 672.719004 978.975783 
L 668.71061 975.900035 
L 664.042737 973.966538 
L 659.033492 973.307059 
L 654.024247 973.966538 
L 649.356373 975.900035 
L 645.347979 978.975783 
L 642.272231 982.984177 
L 640.338734 987.65205 
L 639.679255 992.661296 
L 640.338734 997.670541 
L 642.272231 1002.338414 
L 645.347979 1006.346808 
L 649.356373 1009.422556 
L 654.024247 1011.356053 
L 659.033492 1012.015532 
L 664.042737 1011.356053 
L 668.71061 1009.422556 
L 672.719004 1006.346808 
L 675.794752 1002.338414 
L 677.728249 997.670541 
z
"/>
    <path clip-path="url(#p6497d25cb9)" d="M 1176.433604 1632.668741 
L 1175.774124 1627.659496 
L 1173.840628 1622.991623 
L 1170.764879 1618.983229 
L 1166.756486 1615.90748 
L 1162.088612 1613.973984 
L 1157.079367 1613.314504 
L 1152.070122 1613.973984 
L 1147.402249 1615.90748 
L 1143.393855 1618.983229 
L 1140.318106 1622.991623 
L 1138.38461 1627.659496 
L 1137.72513 1632.668741 
L 1138.38461 1637.677986 
L 1140.318106 1642.345859 
L 1143.393855 1646.354253 
L 1147.402249 1649.430002 
L 1152.070122 1651.363498 
L 1157.079367 1652.022978 
L 1162.088612 1651.363498 
L 1166.756486 1649.430002 
L 1170.764879 1646.354253 
L 1173.840628 1642.345859 
L 1175.774124 1637.677986 
z
"/>
    <path clip-path="url(#p6497d25cb9)" d="M 756.790414 771.332283 
L 756.130934 766.323038 
L 754.197438 761.655165 
L 751.121689 757.646771 
L 747.113295 754.571022 
L 742.445422 752.637526 
L 737.436177 751.978046 
L 732.426932 752.637526 
L 727.759058 754.571022 
L 723.750665 757.646771 
L 720.674916 761.655165 
L 718.74142 766.323038 
L 718.08194 771.332283 
L 718.74142 776.341528 
L 720.674916 781.009401 
L 723.750665 785.017795 
L 727.759058 788.093544 
L 732.426932 790.02704 
L 737.436177 790.68652 
L 742.445422 790.02704 
L 747.113295 788.093544 
L 751.121689 785.017795 
L 754.197438 781.009401 
L 756.130934 776.341528 
z
"/>
    <path clip-path="url(#p6497d25cb9)" d="M 880.00312 1061.615825 
L 879.34364 1056.60658 
L 877.410144 1051.938706 
L 874.334395 1047.930313 
L 870.326002 1044.854564 
L 865.658128 1042.921068 
L 860.648883 1042.261588 
L 855.639638 1042.921068 
L 850.971765 1044.854564 
L 846.963371 1047.930313 
L 843.887622 1051.938706 
L 841.954126 1056.60658 
L 841.294646 1061.615825 
L 841.954126 1066.62507 
L 843.887622 1071.292943 
L 846.963371 1075.301337 
L 850.971765 1078.377086 
L 855.639638 1080.310582 
L 860.648883 1080.970062 
L 865.658128 1080.310582 
L 870.326002 1078.377086 
L 874.334395 1075.301337 
L 877.410144 1071.292943 
L 879.34364 1066.62507 
z
"/>
    <path clip-path="url(#p6497d25cb9)" d="M 1430.023984 630.827621 
L 1429.364504 625.818376 
L 1427.431008 621.150502 
L 1424.355259 617.142109 
L 1420.346865 614.06636 
L 1415.678992 612.132864 
L 1410.669747 611.473384 
L 1405.660502 612.132864 
L 1400.992629 614.06636 
L 1396.984235 617.142109 
L 1393.908486 621.150502 
L 1391.97499 625.818376 
L 1391.31551 630.827621 
L 1391.97499 635.836866 
L 1393.908486 640.504739 
L 1396.984235 644.513133 
L 1400.992629 647.588882 
L 1405.660502 649.522378 
L 1410.669747 650.181858 
L 1415.678992 649.522378 
L 1420.346865 647.588882 
L 1424.355259 644.513133 
L 1427.431008 640.504739 
L 1429.364504 635.836866 
z
"/>
    <path clip-path="url(#p6497d25cb9)" d="M 969.924767 434.536947 
L 969.265288 429.527702 
L 967.331791 424.859829 
L 964.256043 420.851435 
L 960.247649 417.775687 
L 955.579775 415.84219 
L 950.57053 415.182711 
L 945.561285 415.84219 
L 940.893412 417.775687 
L 936.885018 420.851435 
L 933.80927 424.859829 
L 931.875773 429.527702 
L 931.216294 434.536947 
L 931.875773 439.546193 
L 933.80927 444.214066 
L 936.885018 448.22246 
L 940.893412 451.298208 
L 945.561285 453.231705 
L 950.57053 453.891184 
L 955.579775 453.231705 
L 960.247649 451.298208 
L 964.256043 448.22246 
L 967.331791 444.214066 
L 969.265288 439.546193 
z
"/>
    <path clip-path="url(#p6497d25cb9)" d="M 1762.123964 1687.916052 
L 1761.464484 1682.906807 
L 1759.530988 1678.238933 
L 1756.455239 1674.23054 
L 1752.446845 1671.154791 
L 1747.778972 1669.221295 
L 1742.769727 1668.561815 
L 1737.760482 1669.221295 
L 1733.092608 1671.154791 
L 1729.084215 1674.23054 
L 1726.008466 1678.238933 
L 1724.07497 1682.906807 
L 1723.41549 1687.916052 
L 1724.07497 1692.925297 
L 1726.008466 1697.59317 
L 1729.084215 1701.601564 
L 1733.092608 1704.677313 
L 1737.760482 1706.610809 
L 1742.769727 1707.270289 
L 1747.778972 1706.610809 
L 1752.446845 1704.677313 
L 1756.455239 1701.601564 
L 1759.530988 1697.59317 
L 1761.464484 1692.925297 
z
"/>
   </g>
   <g id="text_1">
    <g id="patch_2">
     <path d="M 730.302473 1677.691732 
L 781.600155 1696.646161 
L 787.72731 1680.063819 
L 736.429627 1661.109389 
z
" style="fill:#ffffff;fill-opacity:0.35;stroke:#ffffff;stroke-linejoin:miter;stroke-opacity:0.35;"/>
    </g>
    <!-- PFET - e2 -->
    <g style="fill:#1f77b4;" transform="translate(736.161723 1673.375276)rotate(-339.720792)scale(0.1 -0.1)">
     <defs>
      <path d="M 19.671875 64.796875 
L 19.671875 37.40625 
L 32.078125 37.40625 
Q 38.96875 37.40625 42.71875 40.96875 
Q 46.484375 44.53125 46.484375 51.125 
Q 46.484375 57.671875 42.71875 61.234375 
Q 38.96875 64.796875 32.078125 64.796875 
z
M 9.8125 72.90625 
L 32.078125 72.90625 
Q 44.34375 72.90625 50.609375 67.359375 
Q 56.890625 61.8125 56.890625 51.125 
Q 56.890625 40.328125 50.609375 34.8125 
Q 44.34375 29.296875 32.078125 29.296875 
L 19.671875 29.296875 
L 19.671875 0 
L 9.8125 0 
z
" id="DejaVuSans-80"/>
      <path d="M 9.8125 72.90625 
L 51.703125 72.90625 
L 51.703125 64.59375 
L 19.671875 64.59375 
L 19.671875 43.109375 
L 48.578125 43.109375 
L 48.578125 34.8125 
L 19.671875 34.8125 
L 19.671875 0 
L 9.8125 0 
z
" id="DejaVuSans-70"/>
      <path d="M 9.8125 72.90625 
L 55.90625 72.90625 
L 55.90625 64.59375 
L 19.671875 64.59375 
L 19.671875 43.015625 
L 54.390625 43.015625 
L 54.390625 34.71875 
L 19.671875 34.71875 
L 19.671875 8.296875 
L 56.78125 8.296875 
L 56.78125 0 
L 9.8125 0 
z
" id="DejaVuSans-69"/>
      <path d="M -0.296875 72.90625 
L 61.375 72.90625 
L 61.375 64.59375 
L 35.5 64.59375 
L 35.5 0 
L 25.59375 0 
L 25.59375 64.59375 
L -0.296875 64.59375 
z
" id="DejaVuSans-84"/>
      <path id="DejaVuSans-32"/>
      <path d="M 4.890625 31.390625 
L 31.203125 31.390625 
L 31.203125 23.390625 
L 4.890625 23.390625 
z
" id="DejaVuSans-45"/>
      <path d="M 56.203125 29.59375 
L 56.203125 25.203125 
L 14.890625 25.203125 
Q 15.484375 15.921875 20.484375 11.0625 
Q 25.484375 6.203125 34.421875 6.203125 
Q 39.59375 6.203125 44.453125 7.46875 
Q 49.3125 8.734375 54.109375 11.28125 
L 54.109375 2.78125 
Q 49.265625 0.734375 44.1875 -0.34375 
Q 39.109375 -1.421875 33.890625 -1.421875 
Q 20.796875 -1.421875 13.15625 6.1875 
Q 5.515625 13.8125 5.515625 26.8125 
Q 5.515625 40.234375 12.765625 48.109375 
Q 20.015625 56 32.328125 56 
Q 43.359375 56 49.78125 48.890625 
Q 56.203125 41.796875 56.203125 29.59375 
z
M 47.21875 32.234375 
Q 47.125 39.59375 43.09375 43.984375 
Q 39.0625 48.390625 32.421875 48.390625 
Q 24.90625 48.390625 20.390625 44.140625 
Q 15.875 39.890625 15.1875 32.171875 
z
" id="DejaVuSans-101"/>
      <path d="M 19.1875 8.296875 
L 53.609375 8.296875 
L 53.609375 0 
L 7.328125 0 
L 7.328125 8.296875 
Q 12.9375 14.109375 22.625 23.890625 
Q 32.328125 33.6875 34.8125 36.53125 
Q 39.546875 41.84375 41.421875 45.53125 
Q 43.3125 49.21875 43.3125 52.78125 
Q 43.3125 58.59375 39.234375 62.25 
Q 35.15625 65.921875 28.609375 65.921875 
Q 23.96875 65.921875 18.8125 64.3125 
Q 13.671875 62.703125 7.8125 59.421875 
L 7.8125 69.390625 
Q 13.765625 71.78125 18.9375 73 
Q 24.125 74.21875 28.421875 74.21875 
Q 39.75 74.21875 46.484375 68.546875 
Q 53.21875 62.890625 53.21875 53.421875 
Q 53.21875 48.921875 51.53125 44.890625 
Q 49.859375 40.875 45.40625 35.40625 
Q 44.1875 33.984375 37.640625 27.21875 
Q 31.109375 20.453125 19.1875 8.296875 
z
" id="DejaVuSans-50"/>
     </defs>
     <use xlink:href="#DejaVuSans-80"/>
     <use x="60.302734" xlink:href="#DejaVuSans-70"/>
     <use x="117.822266" xlink:href="#DejaVuSans-69"/>
     <use x="181.005859" xlink:href="#DejaVuSans-84"/>
     <use x="242.089844" xlink:href="#DejaVuSans-32"/>
     <use x="273.876953" xlink:href="#DejaVuSans-45"/>
     <use x="309.960938" xlink:href="#DejaVuSans-32"/>
     <use x="341.748047" xlink:href="#DejaVuSans-101"/>
     <use x="403.271484" xlink:href="#DejaVuSans-50"/>
    </g>
   </g>
   <g id="text_2">
    <g id="patch_3">
     <path d="M 1945.097137 1125.00812 
L 1951.521442 1064.297077 
L 1933.941468 1062.436804 
L 1927.517163 1123.147847 
z
" style="fill:#ffffff;fill-opacity:0.35;stroke:#ffffff;stroke-linejoin:miter;stroke-opacity:0.35;"/>
    </g>
    <!-- PFET - e13 -->
    <g style="fill:#ff7f0e;" transform="translate(1939.472125 1120.390562)rotate(-83.959569)scale(0.1 -0.1)">
     <defs>
      <path d="M 12.40625 8.296875 
L 28.515625 8.296875 
L 28.515625 63.921875 
L 10.984375 60.40625 
L 10.984375 69.390625 
L 28.421875 72.90625 
L 38.28125 72.90625 
L 38.28125 8.296875 
L 54.390625 8.296875 
L 54.390625 0 
L 12.40625 0 
z
" id="DejaVuSans-49"/>
      <path d="M 40.578125 39.3125 
Q 47.65625 37.796875 51.625 33 
Q 55.609375 28.21875 55.609375 21.1875 
Q 55.609375 10.40625 48.1875 4.484375 
Q 40.765625 -1.421875 27.09375 -1.421875 
Q 22.515625 -1.421875 17.65625 -0.515625 
Q 12.796875 0.390625 7.625 2.203125 
L 7.625 11.71875 
Q 11.71875 9.328125 16.59375 8.109375 
Q 21.484375 6.890625 26.8125 6.890625 
Q 36.078125 6.890625 40.9375 10.546875 
Q 45.796875 14.203125 45.796875 21.1875 
Q 45.796875 27.640625 41.28125 31.265625 
Q 36.765625 34.90625 28.71875 34.90625 
L 20.21875 34.90625 
L 20.21875 43.015625 
L 29.109375 43.015625 
Q 36.375 43.015625 40.234375 45.921875 
Q 44.09375 48.828125 44.09375 54.296875 
Q 44.09375 59.90625 40.109375 62.90625 
Q 36.140625 65.921875 28.71875 65.921875 
Q 24.65625 65.921875 20.015625 65.03125 
Q 15.375 64.15625 9.8125 62.3125 
L 9.8125 71.09375 
Q 15.4375 72.65625 20.34375 73.4375 
Q 25.25 74.21875 29.59375 74.21875 
Q 40.828125 74.21875 47.359375 69.109375 
Q 53.90625 64.015625 53.90625 55.328125 
Q 53.90625 49.265625 50.4375 45.09375 
Q 46.96875 40.921875 40.578125 39.3125 
z
" id="DejaVuSans-51"/>
     </defs>
     <use xlink:href="#DejaVuSans-80"/>
     <use x="60.302734" xlink:href="#DejaVuSans-70"/>
     <use x="117.822266" xlink:href="#DejaVuSans-69"/>
     <use x="181.005859" xlink:href="#DejaVuSans-84"/>
     <use x="242.089844" xlink:href="#DejaVuSans-32"/>
     <use x="273.876953" xlink:href="#DejaVuSans-45"/>
     <use x="309.960938" xlink:href="#DejaVuSans-32"/>
     <use x="341.748047" xlink:href="#DejaVuSans-101"/>
     <use x="403.271484" xlink:href="#DejaVuSans-49"/>
     <use x="466.894531" xlink:href="#DejaVuSans-51"/>
    </g>
   </g>
   <g id="text_3">
    <g id="patch_4">
     <path d="M 1213.058031 1604.49234 
L 1226.180713 1581.035383 
L 1210.752739 1572.404409 
L 1197.630057 1595.861366 
z
" style="fill:#ffffff;fill-opacity:0.35;stroke:#ffffff;stroke-linejoin:miter;stroke-opacity:0.35;"/>
    </g>
    <!-- e28 -->
    <g style="fill:#2ca02c;" transform="translate(1209.70511 1598.033198)rotate(-60.77575)scale(0.1 -0.1)">
     <defs>
      <path d="M 31.78125 34.625 
Q 24.75 34.625 20.71875 30.859375 
Q 16.703125 27.09375 16.703125 20.515625 
Q 16.703125 13.921875 20.71875 10.15625 
Q 24.75 6.390625 31.78125 6.390625 
Q 38.8125 6.390625 42.859375 10.171875 
Q 46.921875 13.96875 46.921875 20.515625 
Q 46.921875 27.09375 42.890625 30.859375 
Q 38.875 34.625 31.78125 34.625 
z
M 21.921875 38.8125 
Q 15.578125 40.375 12.03125 44.71875 
Q 8.5 49.078125 8.5 55.328125 
Q 8.5 64.0625 14.71875 69.140625 
Q 20.953125 74.21875 31.78125 74.21875 
Q 42.671875 74.21875 48.875 69.140625 
Q 55.078125 64.0625 55.078125 55.328125 
Q 55.078125 49.078125 51.53125 44.71875 
Q 48 40.375 41.703125 38.8125 
Q 48.828125 37.15625 52.796875 32.3125 
Q 56.78125 27.484375 56.78125 20.515625 
Q 56.78125 9.90625 50.3125 4.234375 
Q 43.84375 -1.421875 31.78125 -1.421875 
Q 19.734375 -1.421875 13.25 4.234375 
Q 6.78125 9.90625 6.78125 20.515625 
Q 6.78125 27.484375 10.78125 32.3125 
Q 14.796875 37.15625 21.921875 38.8125 
z
M 18.3125 54.390625 
Q 18.3125 48.734375 21.84375 45.5625 
Q 25.390625 42.390625 31.78125 42.390625 
Q 38.140625 42.390625 41.71875 45.5625 
Q 45.3125 48.734375 45.3125 54.390625 
Q 45.3125 60.0625 41.71875 63.234375 
Q 38.140625 66.40625 31.78125 66.40625 
Q 25.390625 66.40625 21.84375 63.234375 
Q 18.3125 60.0625 18.3125 54.390625 
z
" id="DejaVuSans-56"/>
     </defs>
     <use xlink:href="#DejaVuSans-101"/>
     <use x="61.523438" xlink:href="#DejaVuSans-50"/>
     <use x="125.146484" xlink:href="#DejaVuSans-56"/>
    </g>
   </g>
   <g id="text_4">
    <g id="patch_5">
     <path d="M 1252.318874 1049.681351 
L 1263.51153 1107.756368 
L 1280.870209 1104.410872 
L 1269.677554 1046.335855 
z
" style="fill:#ffffff;fill-opacity:0.35;stroke:#ffffff;stroke-linejoin:miter;stroke-opacity:0.35;"/>
    </g>
    <!-- NOR - e22 -->
    <g style="fill:#d62728;" transform="translate(1259.045681 1052.45852)rotate(-280.908723)scale(0.1 -0.1)">
     <defs>
      <path d="M 9.8125 72.90625 
L 23.09375 72.90625 
L 55.421875 11.921875 
L 55.421875 72.90625 
L 64.984375 72.90625 
L 64.984375 0 
L 51.703125 0 
L 19.390625 60.984375 
L 19.390625 0 
L 9.8125 0 
z
" id="DejaVuSans-78"/>
      <path d="M 39.40625 66.21875 
Q 28.65625 66.21875 22.328125 58.203125 
Q 16.015625 50.203125 16.015625 36.375 
Q 16.015625 22.609375 22.328125 14.59375 
Q 28.65625 6.59375 39.40625 6.59375 
Q 50.140625 6.59375 56.421875 14.59375 
Q 62.703125 22.609375 62.703125 36.375 
Q 62.703125 50.203125 56.421875 58.203125 
Q 50.140625 66.21875 39.40625 66.21875 
z
M 39.40625 74.21875 
Q 54.734375 74.21875 63.90625 63.9375 
Q 73.09375 53.65625 73.09375 36.375 
Q 73.09375 19.140625 63.90625 8.859375 
Q 54.734375 -1.421875 39.40625 -1.421875 
Q 24.03125 -1.421875 14.8125 8.828125 
Q 5.609375 19.09375 5.609375 36.375 
Q 5.609375 53.65625 14.8125 63.9375 
Q 24.03125 74.21875 39.40625 74.21875 
z
" id="DejaVuSans-79"/>
      <path d="M 44.390625 34.1875 
Q 47.5625 33.109375 50.5625 29.59375 
Q 53.5625 26.078125 56.59375 19.921875 
L 66.609375 0 
L 56 0 
L 46.6875 18.703125 
Q 43.0625 26.03125 39.671875 28.421875 
Q 36.28125 30.8125 30.421875 30.8125 
L 19.671875 30.8125 
L 19.671875 0 
L 9.8125 0 
L 9.8125 72.90625 
L 32.078125 72.90625 
Q 44.578125 72.90625 50.734375 67.671875 
Q 56.890625 62.453125 56.890625 51.90625 
Q 56.890625 45.015625 53.6875 40.46875 
Q 50.484375 35.9375 44.390625 34.1875 
z
M 19.671875 64.796875 
L 19.671875 38.921875 
L 32.078125 38.921875 
Q 39.203125 38.921875 42.84375 42.21875 
Q 46.484375 45.515625 46.484375 51.90625 
Q 46.484375 58.296875 42.84375 61.546875 
Q 39.203125 64.796875 32.078125 64.796875 
z
" id="DejaVuSans-82"/>
     </defs>
     <use xlink:href="#DejaVuSans-78"/>
     <use x="74.804688" xlink:href="#DejaVuSans-79"/>
     <use x="153.515625" xlink:href="#DejaVuSans-82"/>
     <use x="222.998047" xlink:href="#DejaVuSans-32"/>
     <use x="254.785156" xlink:href="#DejaVuSans-45"/>
     <use x="290.869141" xlink:href="#DejaVuSans-32"/>
     <use x="322.65625" xlink:href="#DejaVuSans-101"/>
     <use x="384.179688" xlink:href="#DejaVuSans-50"/>
     <use x="447.802734" xlink:href="#DejaVuSans-50"/>
    </g>
   </g>
   <g id="text_5">
    <g id="patch_6">
     <path d="M 458.415114 1095.272145 
L 472.017366 1042.303273 
L 454.894799 1037.906248 
L 441.292548 1090.87512 
z
" style="fill:#ffffff;fill-opacity:0.35;stroke:#ffffff;stroke-linejoin:miter;stroke-opacity:0.35;"/>
    </g>
    <!-- PFET - e1 -->
    <g style="fill:#9467bd;" transform="translate(453.521396 1089.885668)rotate(-75.597811)scale(0.1 -0.1)">
     <use xlink:href="#DejaVuSans-80"/>
     <use x="60.302734" xlink:href="#DejaVuSans-70"/>
     <use x="117.822266" xlink:href="#DejaVuSans-69"/>
     <use x="181.005859" xlink:href="#DejaVuSans-84"/>
     <use x="242.089844" xlink:href="#DejaVuSans-32"/>
     <use x="273.876953" xlink:href="#DejaVuSans-45"/>
     <use x="309.960938" xlink:href="#DejaVuSans-32"/>
     <use x="341.748047" xlink:href="#DejaVuSans-101"/>
     <use x="403.271484" xlink:href="#DejaVuSans-49"/>
    </g>
   </g>
   <g id="text_6">
    <g id="patch_7">
     <path d="M 1207.24442 1145.064623 
L 1234.064382 1143.297347 
L 1232.902019 1125.657477 
L 1206.082057 1127.424753 
z
" style="fill:#ffffff;fill-opacity:0.35;stroke:#ffffff;stroke-linejoin:miter;stroke-opacity:0.35;"/>
    </g>
    <!-- e38 -->
    <g style="fill:#8c564b;" transform="translate(1210.836016 1138.735086)rotate(-3.770002)scale(0.1 -0.1)">
     <use xlink:href="#DejaVuSans-101"/>
     <use x="61.523438" xlink:href="#DejaVuSans-51"/>
     <use x="125.146484" xlink:href="#DejaVuSans-56"/>
    </g>
   </g>
   <g id="text_7">
    <g id="patch_8">
     <path d="M 986.919012 946.040616 
L 1012.222051 936.974756 
L 1006.259306 920.332588 
L 980.956267 929.398447 
z
" style="fill:#ffffff;fill-opacity:0.35;stroke:#ffffff;stroke-linejoin:miter;stroke-opacity:0.35;"/>
    </g>
    <!-- e34 -->
    <g style="fill:#e377c2;" transform="translate(988.633959 938.968024)rotate(-19.712162)scale(0.1 -0.1)">
     <defs>
      <path d="M 37.796875 64.3125 
L 12.890625 25.390625 
L 37.796875 25.390625 
z
M 35.203125 72.90625 
L 47.609375 72.90625 
L 47.609375 25.390625 
L 58.015625 25.390625 
L 58.015625 17.1875 
L 47.609375 17.1875 
L 47.609375 0 
L 37.796875 0 
L 37.796875 17.1875 
L 4.890625 17.1875 
L 4.890625 26.703125 
z
" id="DejaVuSans-52"/>
     </defs>
     <use xlink:href="#DejaVuSans-101"/>
     <use x="61.523438" xlink:href="#DejaVuSans-51"/>
     <use x="125.146484" xlink:href="#DejaVuSans-52"/>
    </g>
   </g>
   <g id="text_8">
    <g id="patch_9">
     <path d="M 1870.07345 707.117866 
L 1891.323985 723.575337 
L 1902.148298 709.598558 
L 1880.897763 693.141087 
z
" style="fill:#ffffff;fill-opacity:0.35;stroke:#ffffff;stroke-linejoin:miter;stroke-opacity:0.35;"/>
    </g>
    <!-- e17 -->
    <g style="fill:#7f7f7f;" transform="translate(1876.958544 704.760308)rotate(-322.244018)scale(0.1 -0.1)">
     <defs>
      <path d="M 8.203125 72.90625 
L 55.078125 72.90625 
L 55.078125 68.703125 
L 28.609375 0 
L 18.3125 0 
L 43.21875 64.59375 
L 8.203125 64.59375 
z
" id="DejaVuSans-55"/>
     </defs>
     <use xlink:href="#DejaVuSans-101"/>
     <use x="61.523438" xlink:href="#DejaVuSans-49"/>
     <use x="125.146484" xlink:href="#DejaVuSans-55"/>
    </g>
   </g>
   <g id="text_9">
    <g id="patch_10">
     <path d="M 1270.833257 1043.736203 
L 1282.386661 1103.683025 
L 1299.745341 1100.337529 
L 1288.191937 1040.390708 
z
" style="fill:#ffffff;fill-opacity:0.35;stroke:#ffffff;stroke-linejoin:miter;stroke-opacity:0.35;"/>
    </g>
    <!-- PFET - e12 -->
    <g style="fill:#bcbd22;" transform="translate(1277.560064 1046.513373)rotate(-280.908723)scale(0.1 -0.1)">
     <use xlink:href="#DejaVuSans-80"/>
     <use x="60.302734" xlink:href="#DejaVuSans-70"/>
     <use x="117.822266" xlink:href="#DejaVuSans-69"/>
     <use x="181.005859" xlink:href="#DejaVuSans-84"/>
     <use x="242.089844" xlink:href="#DejaVuSans-32"/>
     <use x="273.876953" xlink:href="#DejaVuSans-45"/>
     <use x="309.960938" xlink:href="#DejaVuSans-32"/>
     <use x="341.748047" xlink:href="#DejaVuSans-101"/>
     <use x="403.271484" xlink:href="#DejaVuSans-49"/>
     <use x="466.894531" xlink:href="#DejaVuSans-50"/>
    </g>
   </g>
   <g id="text_10">
    <g id="patch_11">
     <path d="M 993.404633 1140.578809 
L 1019.308671 1193.74801 
L 1035.200998 1186.005267 
L 1009.296959 1132.836066 
z
" style="fill:#ffffff;fill-opacity:0.35;stroke:#ffffff;stroke-linejoin:miter;stroke-opacity:0.35;"/>
    </g>
    <!-- NOR - e11 -->
    <g style="fill:#17becf;" transform="translate(1000.622103 1141.511931)rotate(-295.975347)scale(0.1 -0.1)">
     <use xlink:href="#DejaVuSans-78"/>
     <use x="74.804688" xlink:href="#DejaVuSans-79"/>
     <use x="153.515625" xlink:href="#DejaVuSans-82"/>
     <use x="222.998047" xlink:href="#DejaVuSans-32"/>
     <use x="254.785156" xlink:href="#DejaVuSans-45"/>
     <use x="290.869141" xlink:href="#DejaVuSans-32"/>
     <use x="322.65625" xlink:href="#DejaVuSans-101"/>
     <use x="384.179688" xlink:href="#DejaVuSans-49"/>
     <use x="447.802734" xlink:href="#DejaVuSans-49"/>
    </g>
   </g>
   <g id="text_11">
    <g id="patch_12">
     <path d="M 1304.302334 1250.597196 
L 1327.681263 1237.336 
L 1318.959186 1221.959347 
L 1295.580257 1235.220542 
z
" style="fill:#ffffff;fill-opacity:0.35;stroke:#ffffff;stroke-linejoin:miter;stroke-opacity:0.35;"/>
    </g>
    <!-- e42 -->
    <g style="fill:#1f77b4;" transform="translate(1304.781973 1243.335478)rotate(-29.563145)scale(0.1 -0.1)">
     <use xlink:href="#DejaVuSans-101"/>
     <use x="61.523438" xlink:href="#DejaVuSans-52"/>
     <use x="125.146484" xlink:href="#DejaVuSans-50"/>
    </g>
   </g>
   <g id="text_12">
    <g id="patch_13">
     <path d="M 711.170833 606.911728 
L 730.056733 587.78697 
L 717.478107 575.365445 
L 698.592207 594.490203 
z
" style="fill:#ffffff;fill-opacity:0.35;stroke:#ffffff;stroke-linejoin:miter;stroke-opacity:0.35;"/>
    </g>
    <!-- e24 -->
    <g style="fill:#ff7f0e;" transform="translate(709.655513 599.793694)rotate(-45.360041)scale(0.1 -0.1)">
     <use xlink:href="#DejaVuSans-101"/>
     <use x="61.523438" xlink:href="#DejaVuSans-50"/>
     <use x="125.146484" xlink:href="#DejaVuSans-52"/>
    </g>
   </g>
   <g id="text_13">
    <g id="patch_14">
     <path d="M 555.705984 1400.482328 
L 563.073608 1419.629364 
L 579.572432 1413.280751 
L 572.204809 1394.133714 
z
" style="fill:#ffffff;fill-opacity:0.35;stroke:#ffffff;stroke-linejoin:miter;stroke-opacity:0.35;"/>
    </g>
    <!-- e6 -->
    <g style="fill:#2ca02c;" transform="translate(562.816588 1402.032137)rotate(-291.046319)scale(0.1 -0.1)">
     <defs>
      <path d="M 33.015625 40.375 
Q 26.375 40.375 22.484375 35.828125 
Q 18.609375 31.296875 18.609375 23.390625 
Q 18.609375 15.53125 22.484375 10.953125 
Q 26.375 6.390625 33.015625 6.390625 
Q 39.65625 6.390625 43.53125 10.953125 
Q 47.40625 15.53125 47.40625 23.390625 
Q 47.40625 31.296875 43.53125 35.828125 
Q 39.65625 40.375 33.015625 40.375 
z
M 52.59375 71.296875 
L 52.59375 62.3125 
Q 48.875 64.0625 45.09375 64.984375 
Q 41.3125 65.921875 37.59375 65.921875 
Q 27.828125 65.921875 22.671875 59.328125 
Q 17.53125 52.734375 16.796875 39.40625 
Q 19.671875 43.65625 24.015625 45.921875 
Q 28.375 48.1875 33.59375 48.1875 
Q 44.578125 48.1875 50.953125 41.515625 
Q 57.328125 34.859375 57.328125 23.390625 
Q 57.328125 12.15625 50.6875 5.359375 
Q 44.046875 -1.421875 33.015625 -1.421875 
Q 20.359375 -1.421875 13.671875 8.265625 
Q 6.984375 17.96875 6.984375 36.375 
Q 6.984375 53.65625 15.1875 63.9375 
Q 23.390625 74.21875 37.203125 74.21875 
Q 40.921875 74.21875 44.703125 73.484375 
Q 48.484375 72.75 52.59375 71.296875 
z
" id="DejaVuSans-54"/>
     </defs>
     <use xlink:href="#DejaVuSans-101"/>
     <use x="61.523438" xlink:href="#DejaVuSans-54"/>
    </g>
   </g>
   <g id="text_14">
    <g id="patch_15">
     <path d="M 1385.705169 1483.716067 
L 1410.532174 1473.417844 
L 1403.758886 1457.088769 
L 1378.931881 1467.386992 
z
" style="fill:#ffffff;fill-opacity:0.35;stroke:#ffffff;stroke-linejoin:miter;stroke-opacity:0.35;"/>
    </g>
    <!-- e40 -->
    <g style="fill:#d62728;" transform="translate(1387.070519 1476.567751)rotate(-22.528637)scale(0.1 -0.1)">
     <defs>
      <path d="M 31.78125 66.40625 
Q 24.171875 66.40625 20.328125 58.90625 
Q 16.5 51.421875 16.5 36.375 
Q 16.5 21.390625 20.328125 13.890625 
Q 24.171875 6.390625 31.78125 6.390625 
Q 39.453125 6.390625 43.28125 13.890625 
Q 47.125 21.390625 47.125 36.375 
Q 47.125 51.421875 43.28125 58.90625 
Q 39.453125 66.40625 31.78125 66.40625 
z
M 31.78125 74.21875 
Q 44.046875 74.21875 50.515625 64.515625 
Q 56.984375 54.828125 56.984375 36.375 
Q 56.984375 17.96875 50.515625 8.265625 
Q 44.046875 -1.421875 31.78125 -1.421875 
Q 19.53125 -1.421875 13.0625 8.265625 
Q 6.59375 17.96875 6.59375 36.375 
Q 6.59375 54.828125 13.0625 64.515625 
Q 19.53125 74.21875 31.78125 74.21875 
z
" id="DejaVuSans-48"/>
     </defs>
     <use xlink:href="#DejaVuSans-101"/>
     <use x="61.523438" xlink:href="#DejaVuSans-52"/>
     <use x="125.146484" xlink:href="#DejaVuSans-48"/>
    </g>
   </g>
   <g id="text_15">
    <g id="patch_16">
     <path d="M 1350.20395 468.448949 
L 1412.39905 484.76025 
L 1416.883657 467.660413 
L 1354.688557 451.349113 
z
" style="fill:#ffffff;fill-opacity:0.35;stroke:#ffffff;stroke-linejoin:miter;stroke-opacity:0.35;"/>
    </g>
    <!-- Latch - e43 -->
    <g style="fill:#9467bd;" transform="translate(1355.615403 463.582865)rotate(-345.30455)scale(0.1 -0.1)">
     <defs>
      <path d="M 9.8125 72.90625 
L 19.671875 72.90625 
L 19.671875 8.296875 
L 55.171875 8.296875 
L 55.171875 0 
L 9.8125 0 
z
" id="DejaVuSans-76"/>
      <path d="M 34.28125 27.484375 
Q 23.390625 27.484375 19.1875 25 
Q 14.984375 22.515625 14.984375 16.5 
Q 14.984375 11.71875 18.140625 8.90625 
Q 21.296875 6.109375 26.703125 6.109375 
Q 34.1875 6.109375 38.703125 11.40625 
Q 43.21875 16.703125 43.21875 25.484375 
L 43.21875 27.484375 
z
M 52.203125 31.203125 
L 52.203125 0 
L 43.21875 0 
L 43.21875 8.296875 
Q 40.140625 3.328125 35.546875 0.953125 
Q 30.953125 -1.421875 24.3125 -1.421875 
Q 15.921875 -1.421875 10.953125 3.296875 
Q 6 8.015625 6 15.921875 
Q 6 25.140625 12.171875 29.828125 
Q 18.359375 34.515625 30.609375 34.515625 
L 43.21875 34.515625 
L 43.21875 35.40625 
Q 43.21875 41.609375 39.140625 45 
Q 35.0625 48.390625 27.6875 48.390625 
Q 23 48.390625 18.546875 47.265625 
Q 14.109375 46.140625 10.015625 43.890625 
L 10.015625 52.203125 
Q 14.9375 54.109375 19.578125 55.046875 
Q 24.21875 56 28.609375 56 
Q 40.484375 56 46.34375 49.84375 
Q 52.203125 43.703125 52.203125 31.203125 
z
" id="DejaVuSans-97"/>
      <path d="M 18.3125 70.21875 
L 18.3125 54.6875 
L 36.8125 54.6875 
L 36.8125 47.703125 
L 18.3125 47.703125 
L 18.3125 18.015625 
Q 18.3125 11.328125 20.140625 9.421875 
Q 21.96875 7.515625 27.59375 7.515625 
L 36.8125 7.515625 
L 36.8125 0 
L 27.59375 0 
Q 17.1875 0 13.234375 3.875 
Q 9.28125 7.765625 9.28125 18.015625 
L 9.28125 47.703125 
L 2.6875 47.703125 
L 2.6875 54.6875 
L 9.28125 54.6875 
L 9.28125 70.21875 
z
" id="DejaVuSans-116"/>
      <path d="M 48.78125 52.59375 
L 48.78125 44.1875 
Q 44.96875 46.296875 41.140625 47.34375 
Q 37.3125 48.390625 33.40625 48.390625 
Q 24.65625 48.390625 19.8125 42.84375 
Q 14.984375 37.3125 14.984375 27.296875 
Q 14.984375 17.28125 19.8125 11.734375 
Q 24.65625 6.203125 33.40625 6.203125 
Q 37.3125 6.203125 41.140625 7.25 
Q 44.96875 8.296875 48.78125 10.40625 
L 48.78125 2.09375 
Q 45.015625 0.34375 40.984375 -0.53125 
Q 36.96875 -1.421875 32.421875 -1.421875 
Q 20.0625 -1.421875 12.78125 6.34375 
Q 5.515625 14.109375 5.515625 27.296875 
Q 5.515625 40.671875 12.859375 48.328125 
Q 20.21875 56 33.015625 56 
Q 37.15625 56 41.109375 55.140625 
Q 45.0625 54.296875 48.78125 52.59375 
z
" id="DejaVuSans-99"/>
      <path d="M 54.890625 33.015625 
L 54.890625 0 
L 45.90625 0 
L 45.90625 32.71875 
Q 45.90625 40.484375 42.875 44.328125 
Q 39.84375 48.1875 33.796875 48.1875 
Q 26.515625 48.1875 22.3125 43.546875 
Q 18.109375 38.921875 18.109375 30.90625 
L 18.109375 0 
L 9.078125 0 
L 9.078125 75.984375 
L 18.109375 75.984375 
L 18.109375 46.1875 
Q 21.34375 51.125 25.703125 53.5625 
Q 30.078125 56 35.796875 56 
Q 45.21875 56 50.046875 50.171875 
Q 54.890625 44.34375 54.890625 33.015625 
z
" id="DejaVuSans-104"/>
     </defs>
     <use xlink:href="#DejaVuSans-76"/>
     <use x="55.712891" xlink:href="#DejaVuSans-97"/>
     <use x="116.992188" xlink:href="#DejaVuSans-116"/>
     <use x="156.201172" xlink:href="#DejaVuSans-99"/>
     <use x="211.181641" xlink:href="#DejaVuSans-104"/>
     <use x="274.560547" xlink:href="#DejaVuSans-32"/>
     <use x="306.347656" xlink:href="#DejaVuSans-45"/>
     <use x="342.431641" xlink:href="#DejaVuSans-32"/>
     <use x="374.21875" xlink:href="#DejaVuSans-101"/>
     <use x="435.742188" xlink:href="#DejaVuSans-52"/>
     <use x="499.365234" xlink:href="#DejaVuSans-51"/>
    </g>
   </g>
   <g id="text_16">
    <g id="patch_17">
     <path d="M 1034.320594 1720.284083 
L 1104.550281 1720.284083 
L 1104.550281 1702.605958 
L 1034.320594 1702.605958 
z
" style="fill:#ffffff;fill-opacity:0.35;stroke:#ffffff;stroke-linejoin:miter;stroke-opacity:0.35;"/>
    </g>
    <!-- n41 - source -->
    <g transform="translate(1038.320594 1714.204395)scale(0.1 -0.1)">
     <defs>
      <path d="M 54.890625 33.015625 
L 54.890625 0 
L 45.90625 0 
L 45.90625 32.71875 
Q 45.90625 40.484375 42.875 44.328125 
Q 39.84375 48.1875 33.796875 48.1875 
Q 26.515625 48.1875 22.3125 43.546875 
Q 18.109375 38.921875 18.109375 30.90625 
L 18.109375 0 
L 9.078125 0 
L 9.078125 54.6875 
L 18.109375 54.6875 
L 18.109375 46.1875 
Q 21.34375 51.125 25.703125 53.5625 
Q 30.078125 56 35.796875 56 
Q 45.21875 56 50.046875 50.171875 
Q 54.890625 44.34375 54.890625 33.015625 
z
" id="DejaVuSans-110"/>
      <path d="M 44.28125 53.078125 
L 44.28125 44.578125 
Q 40.484375 46.53125 36.375 47.5 
Q 32.28125 48.484375 27.875 48.484375 
Q 21.1875 48.484375 17.84375 46.4375 
Q 14.5 44.390625 14.5 40.28125 
Q 14.5 37.15625 16.890625 35.375 
Q 19.28125 33.59375 26.515625 31.984375 
L 29.59375 31.296875 
Q 39.15625 29.25 43.1875 25.515625 
Q 47.21875 21.78125 47.21875 15.09375 
Q 47.21875 7.46875 41.1875 3.015625 
Q 35.15625 -1.421875 24.609375 -1.421875 
Q 20.21875 -1.421875 15.453125 -0.5625 
Q 10.6875 0.296875 5.421875 2 
L 5.421875 11.28125 
Q 10.40625 8.6875 15.234375 7.390625 
Q 20.0625 6.109375 24.8125 6.109375 
Q 31.15625 6.109375 34.5625 8.28125 
Q 37.984375 10.453125 37.984375 14.40625 
Q 37.984375 18.0625 35.515625 20.015625 
Q 33.0625 21.96875 24.703125 23.78125 
L 21.578125 24.515625 
Q 13.234375 26.265625 9.515625 29.90625 
Q 5.8125 33.546875 5.8125 39.890625 
Q 5.8125 47.609375 11.28125 51.796875 
Q 16.75 56 26.8125 56 
Q 31.78125 56 36.171875 55.265625 
Q 40.578125 54.546875 44.28125 53.078125 
z
" id="DejaVuSans-115"/>
      <path d="M 30.609375 48.390625 
Q 23.390625 48.390625 19.1875 42.75 
Q 14.984375 37.109375 14.984375 27.296875 
Q 14.984375 17.484375 19.15625 11.84375 
Q 23.34375 6.203125 30.609375 6.203125 
Q 37.796875 6.203125 41.984375 11.859375 
Q 46.1875 17.53125 46.1875 27.296875 
Q 46.1875 37.015625 41.984375 42.703125 
Q 37.796875 48.390625 30.609375 48.390625 
z
M 30.609375 56 
Q 42.328125 56 49.015625 48.375 
Q 55.71875 40.765625 55.71875 27.296875 
Q 55.71875 13.875 49.015625 6.21875 
Q 42.328125 -1.421875 30.609375 -1.421875 
Q 18.84375 -1.421875 12.171875 6.21875 
Q 5.515625 13.875 5.515625 27.296875 
Q 5.515625 40.765625 12.171875 48.375 
Q 18.84375 56 30.609375 56 
z
" id="DejaVuSans-111"/>
      <path d="M 8.5 21.578125 
L 8.5 54.6875 
L 17.484375 54.6875 
L 17.484375 21.921875 
Q 17.484375 14.15625 20.5 10.265625 
Q 23.53125 6.390625 29.59375 6.390625 
Q 36.859375 6.390625 41.078125 11.03125 
Q 45.3125 15.671875 45.3125 23.6875 
L 45.3125 54.6875 
L 54.296875 54.6875 
L 54.296875 0 
L 45.3125 0 
L 45.3125 8.40625 
Q 42.046875 3.421875 37.71875 1 
Q 33.40625 -1.421875 27.6875 -1.421875 
Q 18.265625 -1.421875 13.375 4.4375 
Q 8.5 10.296875 8.5 21.578125 
z
M 31.109375 56 
z
" id="DejaVuSans-117"/>
      <path d="M 41.109375 46.296875 
Q 39.59375 47.171875 37.8125 47.578125 
Q 36.03125 48 33.890625 48 
Q 26.265625 48 22.1875 43.046875 
Q 18.109375 38.09375 18.109375 28.8125 
L 18.109375 0 
L 9.078125 0 
L 9.078125 54.6875 
L 18.109375 54.6875 
L 18.109375 46.1875 
Q 20.953125 51.171875 25.484375 53.578125 
Q 30.03125 56 36.53125 56 
Q 37.453125 56 38.578125 55.875 
Q 39.703125 55.765625 41.0625 55.515625 
z
" id="DejaVuSans-114"/>
     </defs>
     <use xlink:href="#DejaVuSans-110"/>
     <use x="63.378906" xlink:href="#DejaVuSans-52"/>
     <use x="127.001953" xlink:href="#DejaVuSans-49"/>
     <use x="190.625" xlink:href="#DejaVuSans-32"/>
     <use x="222.412109" xlink:href="#DejaVuSans-45"/>
     <use x="258.496094" xlink:href="#DejaVuSans-32"/>
     <use x="290.283203" xlink:href="#DejaVuSans-115"/>
     <use x="342.382812" xlink:href="#DejaVuSans-111"/>
     <use x="403.564453" xlink:href="#DejaVuSans-117"/>
     <use x="466.943359" xlink:href="#DejaVuSans-114"/>
     <use x="505.806641" xlink:href="#DejaVuSans-99"/>
     <use x="560.787109" xlink:href="#DejaVuSans-101"/>
    </g>
   </g>
   <g id="text_17">
    <g id="patch_18">
     <path d="M 554.473133 1542.981049 
L 617.20282 1542.981049 
L 617.20282 1525.302924 
L 554.473133 1525.302924 
z
" style="fill:#ffffff;fill-opacity:0.35;stroke:#ffffff;stroke-linejoin:miter;stroke-opacity:0.35;"/>
    </g>
    <!-- n40 - drain -->
    <g transform="translate(558.473133 1536.901362)scale(0.1 -0.1)">
     <defs>
      <path d="M 45.40625 46.390625 
L 45.40625 75.984375 
L 54.390625 75.984375 
L 54.390625 0 
L 45.40625 0 
L 45.40625 8.203125 
Q 42.578125 3.328125 38.25 0.953125 
Q 33.9375 -1.421875 27.875 -1.421875 
Q 17.96875 -1.421875 11.734375 6.484375 
Q 5.515625 14.40625 5.515625 27.296875 
Q 5.515625 40.1875 11.734375 48.09375 
Q 17.96875 56 27.875 56 
Q 33.9375 56 38.25 53.625 
Q 42.578125 51.265625 45.40625 46.390625 
z
M 14.796875 27.296875 
Q 14.796875 17.390625 18.875 11.75 
Q 22.953125 6.109375 30.078125 6.109375 
Q 37.203125 6.109375 41.296875 11.75 
Q 45.40625 17.390625 45.40625 27.296875 
Q 45.40625 37.203125 41.296875 42.84375 
Q 37.203125 48.484375 30.078125 48.484375 
Q 22.953125 48.484375 18.875 42.84375 
Q 14.796875 37.203125 14.796875 27.296875 
z
" id="DejaVuSans-100"/>
      <path d="M 9.421875 54.6875 
L 18.40625 54.6875 
L 18.40625 0 
L 9.421875 0 
z
M 9.421875 75.984375 
L 18.40625 75.984375 
L 18.40625 64.59375 
L 9.421875 64.59375 
z
" id="DejaVuSans-105"/>
     </defs>
     <use xlink:href="#DejaVuSans-110"/>
     <use x="63.378906" xlink:href="#DejaVuSans-52"/>
     <use x="127.001953" xlink:href="#DejaVuSans-48"/>
     <use x="190.625" xlink:href="#DejaVuSans-32"/>
     <use x="222.412109" xlink:href="#DejaVuSans-45"/>
     <use x="258.496094" xlink:href="#DejaVuSans-32"/>
     <use x="290.283203" xlink:href="#DejaVuSans-100"/>
     <use x="353.759766" xlink:href="#DejaVuSans-114"/>
     <use x="394.873047" xlink:href="#DejaVuSans-97"/>
     <use x="456.152344" xlink:href="#DejaVuSans-105"/>
     <use x="483.935547" xlink:href="#DejaVuSans-110"/>
    </g>
   </g>
   <g id="text_18">
    <g id="patch_19">
     <path d="M 918.783759 1603.747626 
L 974.844697 1603.747626 
L 974.844697 1586.069501 
L 918.783759 1586.069501 
z
" style="fill:#ffffff;fill-opacity:0.35;stroke:#ffffff;stroke-linejoin:miter;stroke-opacity:0.35;"/>
    </g>
    <!-- n42 - gnd -->
    <g transform="translate(922.783759 1597.667938)scale(0.1 -0.1)">
     <defs>
      <path d="M 45.40625 27.984375 
Q 45.40625 37.75 41.375 43.109375 
Q 37.359375 48.484375 30.078125 48.484375 
Q 22.859375 48.484375 18.828125 43.109375 
Q 14.796875 37.75 14.796875 27.984375 
Q 14.796875 18.265625 18.828125 12.890625 
Q 22.859375 7.515625 30.078125 7.515625 
Q 37.359375 7.515625 41.375 12.890625 
Q 45.40625 18.265625 45.40625 27.984375 
z
M 54.390625 6.78125 
Q 54.390625 -7.171875 48.1875 -13.984375 
Q 42 -20.796875 29.203125 -20.796875 
Q 24.46875 -20.796875 20.265625 -20.09375 
Q 16.0625 -19.390625 12.109375 -17.921875 
L 12.109375 -9.1875 
Q 16.0625 -11.328125 19.921875 -12.34375 
Q 23.78125 -13.375 27.78125 -13.375 
Q 36.625 -13.375 41.015625 -8.765625 
Q 45.40625 -4.15625 45.40625 5.171875 
L 45.40625 9.625 
Q 42.625 4.78125 38.28125 2.390625 
Q 33.9375 0 27.875 0 
Q 17.828125 0 11.671875 7.65625 
Q 5.515625 15.328125 5.515625 27.984375 
Q 5.515625 40.671875 11.671875 48.328125 
Q 17.828125 56 27.875 56 
Q 33.9375 56 38.28125 53.609375 
Q 42.625 51.21875 45.40625 46.390625 
L 45.40625 54.6875 
L 54.390625 54.6875 
z
" id="DejaVuSans-103"/>
     </defs>
     <use xlink:href="#DejaVuSans-110"/>
     <use x="63.378906" xlink:href="#DejaVuSans-52"/>
     <use x="127.001953" xlink:href="#DejaVuSans-50"/>
     <use x="190.625" xlink:href="#DejaVuSans-32"/>
     <use x="222.412109" xlink:href="#DejaVuSans-45"/>
     <use x="258.496094" xlink:href="#DejaVuSans-32"/>
     <use x="290.283203" xlink:href="#DejaVuSans-103"/>
     <use x="353.759766" xlink:href="#DejaVuSans-110"/>
     <use x="417.138672" xlink:href="#DejaVuSans-100"/>
    </g>
   </g>
   <g id="text_19">
    <g id="patch_20">
     <path d="M 858.6301 1424.616147 
L 918.206662 1424.616147 
L 918.206662 1406.938022 
L 858.6301 1406.938022 
z
" style="fill:#ffffff;fill-opacity:0.35;stroke:#ffffff;stroke-linejoin:miter;stroke-opacity:0.35;"/>
    </g>
    <!-- n39 - gate -->
    <g transform="translate(862.6301 1418.53646)scale(0.1 -0.1)">
     <defs>
      <path d="M 10.984375 1.515625 
L 10.984375 10.5 
Q 14.703125 8.734375 18.5 7.8125 
Q 22.3125 6.890625 25.984375 6.890625 
Q 35.75 6.890625 40.890625 13.453125 
Q 46.046875 20.015625 46.78125 33.40625 
Q 43.953125 29.203125 39.59375 26.953125 
Q 35.25 24.703125 29.984375 24.703125 
Q 19.046875 24.703125 12.671875 31.3125 
Q 6.296875 37.9375 6.296875 49.421875 
Q 6.296875 60.640625 12.9375 67.421875 
Q 19.578125 74.21875 30.609375 74.21875 
Q 43.265625 74.21875 49.921875 64.515625 
Q 56.59375 54.828125 56.59375 36.375 
Q 56.59375 19.140625 48.40625 8.859375 
Q 40.234375 -1.421875 26.421875 -1.421875 
Q 22.703125 -1.421875 18.890625 -0.6875 
Q 15.09375 0.046875 10.984375 1.515625 
z
M 30.609375 32.421875 
Q 37.25 32.421875 41.125 36.953125 
Q 45.015625 41.5 45.015625 49.421875 
Q 45.015625 57.28125 41.125 61.84375 
Q 37.25 66.40625 30.609375 66.40625 
Q 23.96875 66.40625 20.09375 61.84375 
Q 16.21875 57.28125 16.21875 49.421875 
Q 16.21875 41.5 20.09375 36.953125 
Q 23.96875 32.421875 30.609375 32.421875 
z
" id="DejaVuSans-57"/>
     </defs>
     <use xlink:href="#DejaVuSans-110"/>
     <use x="63.378906" xlink:href="#DejaVuSans-51"/>
     <use x="127.001953" xlink:href="#DejaVuSans-57"/>
     <use x="190.625" xlink:href="#DejaVuSans-32"/>
     <use x="222.412109" xlink:href="#DejaVuSans-45"/>
     <use x="258.496094" xlink:href="#DejaVuSans-32"/>
     <use x="290.283203" xlink:href="#DejaVuSans-103"/>
     <use x="353.759766" xlink:href="#DejaVuSans-97"/>
     <use x="415.039062" xlink:href="#DejaVuSans-116"/>
     <use x="454.248047" xlink:href="#DejaVuSans-101"/>
    </g>
   </g>
   <g id="text_20">
    <g id="patch_21">
     <path d="M 1930.352775 832.834084 
L 1993.082462 832.834084 
L 1993.082462 815.155959 
L 1930.352775 815.155959 
z
" style="fill:#ffffff;fill-opacity:0.35;stroke:#ffffff;stroke-linejoin:miter;stroke-opacity:0.35;"/>
    </g>
    <!-- n53 - drain -->
    <g transform="translate(1934.352775 826.754397)scale(0.1 -0.1)">
     <defs>
      <path d="M 10.796875 72.90625 
L 49.515625 72.90625 
L 49.515625 64.59375 
L 19.828125 64.59375 
L 19.828125 46.734375 
Q 21.96875 47.46875 24.109375 47.828125 
Q 26.265625 48.1875 28.421875 48.1875 
Q 40.625 48.1875 47.75 41.5 
Q 54.890625 34.8125 54.890625 23.390625 
Q 54.890625 11.625 47.5625 5.09375 
Q 40.234375 -1.421875 26.90625 -1.421875 
Q 22.3125 -1.421875 17.546875 -0.640625 
Q 12.796875 0.140625 7.71875 1.703125 
L 7.71875 11.625 
Q 12.109375 9.234375 16.796875 8.0625 
Q 21.484375 6.890625 26.703125 6.890625 
Q 35.15625 6.890625 40.078125 11.328125 
Q 45.015625 15.765625 45.015625 23.390625 
Q 45.015625 31 40.078125 35.4375 
Q 35.15625 39.890625 26.703125 39.890625 
Q 22.75 39.890625 18.8125 39.015625 
Q 14.890625 38.140625 10.796875 36.28125 
z
" id="DejaVuSans-53"/>
     </defs>
     <use xlink:href="#DejaVuSans-110"/>
     <use x="63.378906" xlink:href="#DejaVuSans-53"/>
     <use x="127.001953" xlink:href="#DejaVuSans-51"/>
     <use x="190.625" xlink:href="#DejaVuSans-32"/>
     <use x="222.412109" xlink:href="#DejaVuSans-45"/>
     <use x="258.496094" xlink:href="#DejaVuSans-32"/>
     <use x="290.283203" xlink:href="#DejaVuSans-100"/>
     <use x="353.759766" xlink:href="#DejaVuSans-114"/>
     <use x="394.873047" xlink:href="#DejaVuSans-97"/>
     <use x="456.152344" xlink:href="#DejaVuSans-105"/>
     <use x="483.935547" xlink:href="#DejaVuSans-110"/>
    </g>
   </g>
   <g id="text_21">
    <g id="patch_22">
     <path d="M 1727.922946 931.528434 
L 1798.152634 931.528434 
L 1798.152634 913.850309 
L 1727.922946 913.850309 
z
" style="fill:#ffffff;fill-opacity:0.35;stroke:#ffffff;stroke-linejoin:miter;stroke-opacity:0.35;"/>
    </g>
    <!-- n54 - source -->
    <g transform="translate(1731.922946 925.448746)scale(0.1 -0.1)">
     <use xlink:href="#DejaVuSans-110"/>
     <use x="63.378906" xlink:href="#DejaVuSans-53"/>
     <use x="127.001953" xlink:href="#DejaVuSans-52"/>
     <use x="190.625" xlink:href="#DejaVuSans-32"/>
     <use x="222.412109" xlink:href="#DejaVuSans-45"/>
     <use x="258.496094" xlink:href="#DejaVuSans-32"/>
     <use x="290.283203" xlink:href="#DejaVuSans-115"/>
     <use x="342.382812" xlink:href="#DejaVuSans-111"/>
     <use x="403.564453" xlink:href="#DejaVuSans-117"/>
     <use x="466.943359" xlink:href="#DejaVuSans-114"/>
     <use x="505.806641" xlink:href="#DejaVuSans-99"/>
     <use x="560.787109" xlink:href="#DejaVuSans-101"/>
    </g>
   </g>
   <g id="text_22">
    <g id="patch_23">
     <path d="M 1873.268882 1372.288965 
L 1932.845445 1372.288965 
L 1932.845445 1354.61084 
L 1873.268882 1354.61084 
z
" style="fill:#ffffff;fill-opacity:0.35;stroke:#ffffff;stroke-linejoin:miter;stroke-opacity:0.35;"/>
    </g>
    <!-- n52 - gate -->
    <g transform="translate(1877.268882 1366.209277)scale(0.1 -0.1)">
     <use xlink:href="#DejaVuSans-110"/>
     <use x="63.378906" xlink:href="#DejaVuSans-53"/>
     <use x="127.001953" xlink:href="#DejaVuSans-50"/>
     <use x="190.625" xlink:href="#DejaVuSans-32"/>
     <use x="222.412109" xlink:href="#DejaVuSans-45"/>
     <use x="258.496094" xlink:href="#DejaVuSans-32"/>
     <use x="290.283203" xlink:href="#DejaVuSans-103"/>
     <use x="353.759766" xlink:href="#DejaVuSans-97"/>
     <use x="415.039062" xlink:href="#DejaVuSans-116"/>
     <use x="454.248047" xlink:href="#DejaVuSans-101"/>
    </g>
   </g>
   <g id="text_23">
    <g id="patch_24">
     <path d="M 1826.12509 1196.242146 
L 1882.186028 1196.242146 
L 1882.186028 1178.564021 
L 1826.12509 1178.564021 
z
" style="fill:#ffffff;fill-opacity:0.35;stroke:#ffffff;stroke-linejoin:miter;stroke-opacity:0.35;"/>
    </g>
    <!-- n55 - gnd -->
    <g transform="translate(1830.12509 1190.162458)scale(0.1 -0.1)">
     <use xlink:href="#DejaVuSans-110"/>
     <use x="63.378906" xlink:href="#DejaVuSans-53"/>
     <use x="127.001953" xlink:href="#DejaVuSans-53"/>
     <use x="190.625" xlink:href="#DejaVuSans-32"/>
     <use x="222.412109" xlink:href="#DejaVuSans-45"/>
     <use x="258.496094" xlink:href="#DejaVuSans-32"/>
     <use x="290.283203" xlink:href="#DejaVuSans-103"/>
     <use x="353.759766" xlink:href="#DejaVuSans-110"/>
     <use x="417.138672" xlink:href="#DejaVuSans-100"/>
    </g>
   </g>
   <g id="text_24">
    <g id="patch_25">
     <path d="M 1128.685271 1901.342115 
L 1170.921209 1901.342115 
L 1170.921209 1883.66399 
L 1128.685271 1883.66399 
z
" style="fill:#ffffff;fill-opacity:0.35;stroke:#ffffff;stroke-linejoin:miter;stroke-opacity:0.35;"/>
    </g>
    <!-- n62 - s -->
    <g transform="translate(1132.685271 1895.262428)scale(0.1 -0.1)">
     <use xlink:href="#DejaVuSans-110"/>
     <use x="63.378906" xlink:href="#DejaVuSans-54"/>
     <use x="127.001953" xlink:href="#DejaVuSans-50"/>
     <use x="190.625" xlink:href="#DejaVuSans-32"/>
     <use x="222.412109" xlink:href="#DejaVuSans-45"/>
     <use x="258.496094" xlink:href="#DejaVuSans-32"/>
     <use x="290.283203" xlink:href="#DejaVuSans-115"/>
    </g>
   </g>
   <g id="text_25">
    <g id="patch_26">
     <path d="M 1436.401537 1351.29547 
L 1495.9781 1351.29547 
L 1495.9781 1333.617345 
L 1436.401537 1333.617345 
z
" style="fill:#ffffff;fill-opacity:0.35;stroke:#ffffff;stroke-linejoin:miter;stroke-opacity:0.35;"/>
    </g>
    <!-- n48 - gate -->
    <g transform="translate(1440.401537 1345.215782)scale(0.1 -0.1)">
     <use xlink:href="#DejaVuSans-110"/>
     <use x="63.378906" xlink:href="#DejaVuSans-52"/>
     <use x="127.001953" xlink:href="#DejaVuSans-56"/>
     <use x="190.625" xlink:href="#DejaVuSans-32"/>
     <use x="222.412109" xlink:href="#DejaVuSans-45"/>
     <use x="258.496094" xlink:href="#DejaVuSans-32"/>
     <use x="290.283203" xlink:href="#DejaVuSans-103"/>
     <use x="353.759766" xlink:href="#DejaVuSans-97"/>
     <use x="415.039062" xlink:href="#DejaVuSans-116"/>
     <use x="454.248047" xlink:href="#DejaVuSans-101"/>
    </g>
   </g>
   <g id="text_26">
    <g id="patch_27">
     <path d="M 1506.618944 1577.07599 
L 1549.773632 1577.07599 
L 1549.773632 1559.397865 
L 1506.618944 1559.397865 
z
" style="fill:#ffffff;fill-opacity:0.35;stroke:#ffffff;stroke-linejoin:miter;stroke-opacity:0.35;"/>
    </g>
    <!-- n56 - a -->
    <g transform="translate(1510.618944 1570.996302)scale(0.1 -0.1)">
     <use xlink:href="#DejaVuSans-110"/>
     <use x="63.378906" xlink:href="#DejaVuSans-53"/>
     <use x="127.001953" xlink:href="#DejaVuSans-54"/>
     <use x="190.625" xlink:href="#DejaVuSans-32"/>
     <use x="222.412109" xlink:href="#DejaVuSans-45"/>
     <use x="258.496094" xlink:href="#DejaVuSans-32"/>
     <use x="290.283203" xlink:href="#DejaVuSans-97"/>
    </g>
   </g>
   <g id="text_27">
    <g id="patch_28">
     <path d="M 1293.273236 653.617123 
L 1347.215424 653.617123 
L 1347.215424 635.938998 
L 1293.273236 635.938998 
z
" style="fill:#ffffff;fill-opacity:0.35;stroke:#ffffff;stroke-linejoin:miter;stroke-opacity:0.35;"/>
    </g>
    <!-- n59 - vcc -->
    <g transform="translate(1297.273236 647.537436)scale(0.1 -0.1)">
     <defs>
      <path d="M 2.984375 54.6875 
L 12.5 54.6875 
L 29.59375 8.796875 
L 46.6875 54.6875 
L 56.203125 54.6875 
L 35.6875 0 
L 23.484375 0 
z
" id="DejaVuSans-118"/>
     </defs>
     <use xlink:href="#DejaVuSans-110"/>
     <use x="63.378906" xlink:href="#DejaVuSans-53"/>
     <use x="127.001953" xlink:href="#DejaVuSans-57"/>
     <use x="190.625" xlink:href="#DejaVuSans-32"/>
     <use x="222.412109" xlink:href="#DejaVuSans-45"/>
     <use x="258.496094" xlink:href="#DejaVuSans-32"/>
     <use x="290.283203" xlink:href="#DejaVuSans-118"/>
     <use x="349.462891" xlink:href="#DejaVuSans-99"/>
     <use x="404.443359" xlink:href="#DejaVuSans-99"/>
    </g>
   </g>
   <g id="text_28">
    <g id="patch_29">
     <path d="M 1733.400618 1496.178198 
L 1776.775618 1496.178198 
L 1776.775618 1478.500073 
L 1733.400618 1478.500073 
z
" style="fill:#ffffff;fill-opacity:0.35;stroke:#ffffff;stroke-linejoin:miter;stroke-opacity:0.35;"/>
    </g>
    <!-- n57 - b -->
    <g transform="translate(1737.400618 1490.098511)scale(0.1 -0.1)">
     <defs>
      <path d="M 48.6875 27.296875 
Q 48.6875 37.203125 44.609375 42.84375 
Q 40.53125 48.484375 33.40625 48.484375 
Q 26.265625 48.484375 22.1875 42.84375 
Q 18.109375 37.203125 18.109375 27.296875 
Q 18.109375 17.390625 22.1875 11.75 
Q 26.265625 6.109375 33.40625 6.109375 
Q 40.53125 6.109375 44.609375 11.75 
Q 48.6875 17.390625 48.6875 27.296875 
z
M 18.109375 46.390625 
Q 20.953125 51.265625 25.265625 53.625 
Q 29.59375 56 35.59375 56 
Q 45.5625 56 51.78125 48.09375 
Q 58.015625 40.1875 58.015625 27.296875 
Q 58.015625 14.40625 51.78125 6.484375 
Q 45.5625 -1.421875 35.59375 -1.421875 
Q 29.59375 -1.421875 25.265625 0.953125 
Q 20.953125 3.328125 18.109375 8.203125 
L 18.109375 0 
L 9.078125 0 
L 9.078125 75.984375 
L 18.109375 75.984375 
z
" id="DejaVuSans-98"/>
     </defs>
     <use xlink:href="#DejaVuSans-110"/>
     <use x="63.378906" xlink:href="#DejaVuSans-53"/>
     <use x="127.001953" xlink:href="#DejaVuSans-55"/>
     <use x="190.625" xlink:href="#DejaVuSans-32"/>
     <use x="222.412109" xlink:href="#DejaVuSans-45"/>
     <use x="258.496094" xlink:href="#DejaVuSans-32"/>
     <use x="290.283203" xlink:href="#DejaVuSans-98"/>
    </g>
   </g>
   <g id="text_29">
    <g id="patch_30">
     <path d="M 1671.37451 1344.572839 
L 1727.435448 1344.572839 
L 1727.435448 1326.894714 
L 1671.37451 1326.894714 
z
" style="fill:#ffffff;fill-opacity:0.35;stroke:#ffffff;stroke-linejoin:miter;stroke-opacity:0.35;"/>
    </g>
    <!-- n60 - gnd -->
    <g transform="translate(1675.37451 1338.493152)scale(0.1 -0.1)">
     <use xlink:href="#DejaVuSans-110"/>
     <use x="63.378906" xlink:href="#DejaVuSans-54"/>
     <use x="127.001953" xlink:href="#DejaVuSans-48"/>
     <use x="190.625" xlink:href="#DejaVuSans-32"/>
     <use x="222.412109" xlink:href="#DejaVuSans-45"/>
     <use x="258.496094" xlink:href="#DejaVuSans-32"/>
     <use x="290.283203" xlink:href="#DejaVuSans-103"/>
     <use x="353.759766" xlink:href="#DejaVuSans-110"/>
     <use x="417.138672" xlink:href="#DejaVuSans-100"/>
    </g>
   </g>
   <g id="text_30">
    <g id="patch_31">
     <path d="M 1430.911691 1004.962143 
L 1484.314816 1004.962143 
L 1484.314816 987.284018 
L 1430.911691 987.284018 
z
" style="fill:#ffffff;fill-opacity:0.35;stroke:#ffffff;stroke-linejoin:miter;stroke-opacity:0.35;"/>
    </g>
    <!-- n58 - out -->
    <g transform="translate(1434.911691 998.882455)scale(0.1 -0.1)">
     <use xlink:href="#DejaVuSans-110"/>
     <use x="63.378906" xlink:href="#DejaVuSans-53"/>
     <use x="127.001953" xlink:href="#DejaVuSans-56"/>
     <use x="190.625" xlink:href="#DejaVuSans-32"/>
     <use x="222.412109" xlink:href="#DejaVuSans-45"/>
     <use x="258.496094" xlink:href="#DejaVuSans-32"/>
     <use x="290.283203" xlink:href="#DejaVuSans-111"/>
     <use x="351.464844" xlink:href="#DejaVuSans-117"/>
     <use x="414.84375" xlink:href="#DejaVuSans-116"/>
    </g>
   </g>
   <g id="text_31">
    <g id="patch_32">
     <path d="M 1786.778862 697.35905 
L 1857.00855 697.35905 
L 1857.00855 679.680925 
L 1786.778862 679.680925 
z
" style="fill:#ffffff;fill-opacity:0.35;stroke:#ffffff;stroke-linejoin:miter;stroke-opacity:0.35;"/>
    </g>
    <!-- n50 - source -->
    <g transform="translate(1790.778862 691.279362)scale(0.1 -0.1)">
     <use xlink:href="#DejaVuSans-110"/>
     <use x="63.378906" xlink:href="#DejaVuSans-53"/>
     <use x="127.001953" xlink:href="#DejaVuSans-48"/>
     <use x="190.625" xlink:href="#DejaVuSans-32"/>
     <use x="222.412109" xlink:href="#DejaVuSans-45"/>
     <use x="258.496094" xlink:href="#DejaVuSans-32"/>
     <use x="290.283203" xlink:href="#DejaVuSans-115"/>
     <use x="342.382812" xlink:href="#DejaVuSans-111"/>
     <use x="403.564453" xlink:href="#DejaVuSans-117"/>
     <use x="466.943359" xlink:href="#DejaVuSans-114"/>
     <use x="505.806641" xlink:href="#DejaVuSans-99"/>
     <use x="560.787109" xlink:href="#DejaVuSans-101"/>
    </g>
   </g>
   <g id="text_32">
    <g id="patch_33">
     <path d="M 1324.443592 770.382427 
L 1387.17328 770.382427 
L 1387.17328 752.704302 
L 1324.443592 752.704302 
z
" style="fill:#ffffff;fill-opacity:0.35;stroke:#ffffff;stroke-linejoin:miter;stroke-opacity:0.35;"/>
    </g>
    <!-- n49 - drain -->
    <g transform="translate(1328.443592 764.30274)scale(0.1 -0.1)">
     <use xlink:href="#DejaVuSans-110"/>
     <use x="63.378906" xlink:href="#DejaVuSans-52"/>
     <use x="127.001953" xlink:href="#DejaVuSans-57"/>
     <use x="190.625" xlink:href="#DejaVuSans-32"/>
     <use x="222.412109" xlink:href="#DejaVuSans-45"/>
     <use x="258.496094" xlink:href="#DejaVuSans-32"/>
     <use x="290.283203" xlink:href="#DejaVuSans-100"/>
     <use x="353.759766" xlink:href="#DejaVuSans-114"/>
     <use x="394.873047" xlink:href="#DejaVuSans-97"/>
     <use x="456.152344" xlink:href="#DejaVuSans-105"/>
     <use x="483.935547" xlink:href="#DejaVuSans-110"/>
    </g>
   </g>
   <g id="text_33">
    <g id="patch_34">
     <path d="M 1613.876273 1177.654762 
L 1669.937211 1177.654762 
L 1669.937211 1159.976637 
L 1613.876273 1159.976637 
z
" style="fill:#ffffff;fill-opacity:0.35;stroke:#ffffff;stroke-linejoin:miter;stroke-opacity:0.35;"/>
    </g>
    <!-- n51 - gnd -->
    <g transform="translate(1617.876273 1171.575074)scale(0.1 -0.1)">
     <use xlink:href="#DejaVuSans-110"/>
     <use x="63.378906" xlink:href="#DejaVuSans-53"/>
     <use x="127.001953" xlink:href="#DejaVuSans-49"/>
     <use x="190.625" xlink:href="#DejaVuSans-32"/>
     <use x="222.412109" xlink:href="#DejaVuSans-45"/>
     <use x="258.496094" xlink:href="#DejaVuSans-32"/>
     <use x="290.283203" xlink:href="#DejaVuSans-103"/>
     <use x="353.759766" xlink:href="#DejaVuSans-110"/>
     <use x="417.138672" xlink:href="#DejaVuSans-100"/>
    </g>
   </g>
   <g id="text_34">
    <g id="patch_35">
     <path d="M 733.17697 928.351713 
L 795.906658 928.351713 
L 795.906658 910.673588 
L 733.17697 910.673588 
z
" style="fill:#ffffff;fill-opacity:0.35;stroke:#ffffff;stroke-linejoin:miter;stroke-opacity:0.35;"/>
    </g>
    <!-- n36 - drain -->
    <g transform="translate(737.17697 922.272026)scale(0.1 -0.1)">
     <use xlink:href="#DejaVuSans-110"/>
     <use x="63.378906" xlink:href="#DejaVuSans-51"/>
     <use x="127.001953" xlink:href="#DejaVuSans-54"/>
     <use x="190.625" xlink:href="#DejaVuSans-32"/>
     <use x="222.412109" xlink:href="#DejaVuSans-45"/>
     <use x="258.496094" xlink:href="#DejaVuSans-32"/>
     <use x="290.283203" xlink:href="#DejaVuSans-100"/>
     <use x="353.759766" xlink:href="#DejaVuSans-114"/>
     <use x="394.873047" xlink:href="#DejaVuSans-97"/>
     <use x="456.152344" xlink:href="#DejaVuSans-105"/>
     <use x="483.935547" xlink:href="#DejaVuSans-110"/>
    </g>
   </g>
   <g id="text_35">
    <g id="patch_36">
     <path d="M 866.978639 1246.225121 
L 923.039577 1246.225121 
L 923.039577 1228.546996 
L 866.978639 1228.546996 
z
" style="fill:#ffffff;fill-opacity:0.35;stroke:#ffffff;stroke-linejoin:miter;stroke-opacity:0.35;"/>
    </g>
    <!-- n38 - gnd -->
    <g transform="translate(870.978639 1240.145433)scale(0.1 -0.1)">
     <use xlink:href="#DejaVuSans-110"/>
     <use x="63.378906" xlink:href="#DejaVuSans-51"/>
     <use x="127.001953" xlink:href="#DejaVuSans-56"/>
     <use x="190.625" xlink:href="#DejaVuSans-32"/>
     <use x="222.412109" xlink:href="#DejaVuSans-45"/>
     <use x="258.496094" xlink:href="#DejaVuSans-32"/>
     <use x="290.283203" xlink:href="#DejaVuSans-103"/>
     <use x="353.759766" xlink:href="#DejaVuSans-110"/>
     <use x="417.138672" xlink:href="#DejaVuSans-100"/>
    </g>
   </g>
   <g id="text_36">
    <g id="patch_37">
     <path d="M 594.231231 852.377873 
L 653.807794 852.377873 
L 653.807794 834.699748 
L 594.231231 834.699748 
z
" style="fill:#ffffff;fill-opacity:0.35;stroke:#ffffff;stroke-linejoin:miter;stroke-opacity:0.35;"/>
    </g>
    <!-- n35 - gate -->
    <g transform="translate(598.231231 846.298186)scale(0.1 -0.1)">
     <use xlink:href="#DejaVuSans-110"/>
     <use x="63.378906" xlink:href="#DejaVuSans-51"/>
     <use x="127.001953" xlink:href="#DejaVuSans-53"/>
     <use x="190.625" xlink:href="#DejaVuSans-32"/>
     <use x="222.412109" xlink:href="#DejaVuSans-45"/>
     <use x="258.496094" xlink:href="#DejaVuSans-32"/>
     <use x="290.283203" xlink:href="#DejaVuSans-103"/>
     <use x="353.759766" xlink:href="#DejaVuSans-97"/>
     <use x="415.039062" xlink:href="#DejaVuSans-116"/>
     <use x="454.248047" xlink:href="#DejaVuSans-101"/>
    </g>
   </g>
   <g id="text_37">
    <g id="patch_38">
     <path d="M 471.955699 1328.534115 
L 542.185387 1328.534115 
L 542.185387 1310.85599 
L 471.955699 1310.85599 
z
" style="fill:#ffffff;fill-opacity:0.35;stroke:#ffffff;stroke-linejoin:miter;stroke-opacity:0.35;"/>
    </g>
    <!-- n37 - source -->
    <g transform="translate(475.955699 1322.454427)scale(0.1 -0.1)">
     <use xlink:href="#DejaVuSans-110"/>
     <use x="63.378906" xlink:href="#DejaVuSans-51"/>
     <use x="127.001953" xlink:href="#DejaVuSans-55"/>
     <use x="190.625" xlink:href="#DejaVuSans-32"/>
     <use x="222.412109" xlink:href="#DejaVuSans-45"/>
     <use x="258.496094" xlink:href="#DejaVuSans-32"/>
     <use x="290.283203" xlink:href="#DejaVuSans-115"/>
     <use x="342.382812" xlink:href="#DejaVuSans-111"/>
     <use x="403.564453" xlink:href="#DejaVuSans-117"/>
     <use x="466.943359" xlink:href="#DejaVuSans-114"/>
     <use x="505.806641" xlink:href="#DejaVuSans-99"/>
     <use x="560.787109" xlink:href="#DejaVuSans-101"/>
    </g>
   </g>
   <g id="text_38">
    <g id="patch_39">
     <path d="M 1047.387196 1456.128789 
L 1103.448134 1456.128789 
L 1103.448134 1438.450664 
L 1047.387196 1438.450664 
z
" style="fill:#ffffff;fill-opacity:0.35;stroke:#ffffff;stroke-linejoin:miter;stroke-opacity:0.35;"/>
    </g>
    <!-- n47 - gnd -->
    <g transform="translate(1051.387196 1450.049101)scale(0.1 -0.1)">
     <use xlink:href="#DejaVuSans-110"/>
     <use x="63.378906" xlink:href="#DejaVuSans-52"/>
     <use x="127.001953" xlink:href="#DejaVuSans-55"/>
     <use x="190.625" xlink:href="#DejaVuSans-32"/>
     <use x="222.412109" xlink:href="#DejaVuSans-45"/>
     <use x="258.496094" xlink:href="#DejaVuSans-32"/>
     <use x="290.283203" xlink:href="#DejaVuSans-103"/>
     <use x="353.759766" xlink:href="#DejaVuSans-110"/>
     <use x="417.138672" xlink:href="#DejaVuSans-100"/>
    </g>
   </g>
   <g id="text_39">
    <g id="patch_40">
     <path d="M 1471.833029 1735.201773 
L 1527.893966 1735.201773 
L 1527.893966 1717.523648 
L 1471.833029 1717.523648 
z
" style="fill:#ffffff;fill-opacity:0.35;stroke:#ffffff;stroke-linejoin:miter;stroke-opacity:0.35;"/>
    </g>
    <!-- n64 - gnd -->
    <g transform="translate(1475.833029 1729.122086)scale(0.1 -0.1)">
     <use xlink:href="#DejaVuSans-110"/>
     <use x="63.378906" xlink:href="#DejaVuSans-54"/>
     <use x="127.001953" xlink:href="#DejaVuSans-52"/>
     <use x="190.625" xlink:href="#DejaVuSans-32"/>
     <use x="222.412109" xlink:href="#DejaVuSans-45"/>
     <use x="258.496094" xlink:href="#DejaVuSans-32"/>
     <use x="290.283203" xlink:href="#DejaVuSans-103"/>
     <use x="353.759766" xlink:href="#DejaVuSans-110"/>
     <use x="417.138672" xlink:href="#DejaVuSans-100"/>
    </g>
   </g>
   <g id="text_40">
    <g id="patch_41">
     <path d="M 1098.250435 556.795843 
L 1152.192622 556.795843 
L 1152.192622 539.117718 
L 1098.250435 539.117718 
z
" style="fill:#ffffff;fill-opacity:0.35;stroke:#ffffff;stroke-linejoin:miter;stroke-opacity:0.35;"/>
    </g>
    <!-- n63 - vcc -->
    <g transform="translate(1102.250435 550.716155)scale(0.1 -0.1)">
     <use xlink:href="#DejaVuSans-110"/>
     <use x="63.378906" xlink:href="#DejaVuSans-54"/>
     <use x="127.001953" xlink:href="#DejaVuSans-51"/>
     <use x="190.625" xlink:href="#DejaVuSans-32"/>
     <use x="222.412109" xlink:href="#DejaVuSans-45"/>
     <use x="258.496094" xlink:href="#DejaVuSans-32"/>
     <use x="290.283203" xlink:href="#DejaVuSans-118"/>
     <use x="349.462891" xlink:href="#DejaVuSans-99"/>
     <use x="404.443359" xlink:href="#DejaVuSans-99"/>
    </g>
   </g>
   <g id="text_41">
    <g id="patch_42">
     <path d="M 679.387728 1001.500358 
L 733.329916 1001.500358 
L 733.329916 983.822233 
L 679.387728 983.822233 
z
" style="fill:#ffffff;fill-opacity:0.35;stroke:#ffffff;stroke-linejoin:miter;stroke-opacity:0.35;"/>
    </g>
    <!-- n46 - vcc -->
    <g transform="translate(683.387728 995.420671)scale(0.1 -0.1)">
     <use xlink:href="#DejaVuSans-110"/>
     <use x="63.378906" xlink:href="#DejaVuSans-52"/>
     <use x="127.001953" xlink:href="#DejaVuSans-54"/>
     <use x="190.625" xlink:href="#DejaVuSans-32"/>
     <use x="222.412109" xlink:href="#DejaVuSans-45"/>
     <use x="258.496094" xlink:href="#DejaVuSans-32"/>
     <use x="290.283203" xlink:href="#DejaVuSans-118"/>
     <use x="349.462891" xlink:href="#DejaVuSans-99"/>
     <use x="404.443359" xlink:href="#DejaVuSans-99"/>
    </g>
   </g>
   <g id="text_42">
    <g id="patch_43">
     <path d="M 1177.433604 1641.507804 
L 1230.836729 1641.507804 
L 1230.836729 1623.829679 
L 1177.433604 1623.829679 
z
" style="fill:#ffffff;fill-opacity:0.35;stroke:#ffffff;stroke-linejoin:miter;stroke-opacity:0.35;"/>
    </g>
    <!-- n45 - out -->
    <g transform="translate(1181.433604 1635.428116)scale(0.1 -0.1)">
     <use xlink:href="#DejaVuSans-110"/>
     <use x="63.378906" xlink:href="#DejaVuSans-52"/>
     <use x="127.001953" xlink:href="#DejaVuSans-53"/>
     <use x="190.625" xlink:href="#DejaVuSans-32"/>
     <use x="222.412109" xlink:href="#DejaVuSans-45"/>
     <use x="258.496094" xlink:href="#DejaVuSans-32"/>
     <use x="290.283203" xlink:href="#DejaVuSans-111"/>
     <use x="351.464844" xlink:href="#DejaVuSans-117"/>
     <use x="414.84375" xlink:href="#DejaVuSans-116"/>
    </g>
   </g>
   <g id="text_43">
    <g id="patch_44">
     <path d="M 757.790414 780.171346 
L 800.945101 780.171346 
L 800.945101 762.493221 
L 757.790414 762.493221 
z
" style="fill:#ffffff;fill-opacity:0.35;stroke:#ffffff;stroke-linejoin:miter;stroke-opacity:0.35;"/>
    </g>
    <!-- n43 - a -->
    <g transform="translate(761.790414 774.091658)scale(0.1 -0.1)">
     <use xlink:href="#DejaVuSans-110"/>
     <use x="63.378906" xlink:href="#DejaVuSans-52"/>
     <use x="127.001953" xlink:href="#DejaVuSans-51"/>
     <use x="190.625" xlink:href="#DejaVuSans-32"/>
     <use x="222.412109" xlink:href="#DejaVuSans-45"/>
     <use x="258.496094" xlink:href="#DejaVuSans-32"/>
     <use x="290.283203" xlink:href="#DejaVuSans-97"/>
    </g>
   </g>
   <g id="text_44">
    <g id="patch_45">
     <path d="M 881.00312 1070.454887 
L 924.37812 1070.454887 
L 924.37812 1052.776762 
L 881.00312 1052.776762 
z
" style="fill:#ffffff;fill-opacity:0.35;stroke:#ffffff;stroke-linejoin:miter;stroke-opacity:0.35;"/>
    </g>
    <!-- n44 - b -->
    <g transform="translate(885.00312 1064.3752)scale(0.1 -0.1)">
     <use xlink:href="#DejaVuSans-110"/>
     <use x="63.378906" xlink:href="#DejaVuSans-52"/>
     <use x="127.001953" xlink:href="#DejaVuSans-52"/>
     <use x="190.625" xlink:href="#DejaVuSans-32"/>
     <use x="222.412109" xlink:href="#DejaVuSans-45"/>
     <use x="258.496094" xlink:href="#DejaVuSans-32"/>
     <use x="290.283203" xlink:href="#DejaVuSans-98"/>
    </g>
   </g>
   <g id="text_45">
    <g id="patch_46">
     <path d="M 1431.023984 639.666683 
L 1480.747421 639.666683 
L 1480.747421 621.988558 
L 1431.023984 621.988558 
z
" style="fill:#ffffff;fill-opacity:0.35;stroke:#ffffff;stroke-linejoin:miter;stroke-opacity:0.35;"/>
    </g>
    <!-- n66 - qp -->
    <g transform="translate(1435.023984 633.586996)scale(0.1 -0.1)">
     <defs>
      <path d="M 14.796875 27.296875 
Q 14.796875 17.390625 18.875 11.75 
Q 22.953125 6.109375 30.078125 6.109375 
Q 37.203125 6.109375 41.296875 11.75 
Q 45.40625 17.390625 45.40625 27.296875 
Q 45.40625 37.203125 41.296875 42.84375 
Q 37.203125 48.484375 30.078125 48.484375 
Q 22.953125 48.484375 18.875 42.84375 
Q 14.796875 37.203125 14.796875 27.296875 
z
M 45.40625 8.203125 
Q 42.578125 3.328125 38.25 0.953125 
Q 33.9375 -1.421875 27.875 -1.421875 
Q 17.96875 -1.421875 11.734375 6.484375 
Q 5.515625 14.40625 5.515625 27.296875 
Q 5.515625 40.1875 11.734375 48.09375 
Q 17.96875 56 27.875 56 
Q 33.9375 56 38.25 53.625 
Q 42.578125 51.265625 45.40625 46.390625 
L 45.40625 54.6875 
L 54.390625 54.6875 
L 54.390625 -20.796875 
L 45.40625 -20.796875 
z
" id="DejaVuSans-113"/>
      <path d="M 18.109375 8.203125 
L 18.109375 -20.796875 
L 9.078125 -20.796875 
L 9.078125 54.6875 
L 18.109375 54.6875 
L 18.109375 46.390625 
Q 20.953125 51.265625 25.265625 53.625 
Q 29.59375 56 35.59375 56 
Q 45.5625 56 51.78125 48.09375 
Q 58.015625 40.1875 58.015625 27.296875 
Q 58.015625 14.40625 51.78125 6.484375 
Q 45.5625 -1.421875 35.59375 -1.421875 
Q 29.59375 -1.421875 25.265625 0.953125 
Q 20.953125 3.328125 18.109375 8.203125 
z
M 48.6875 27.296875 
Q 48.6875 37.203125 44.609375 42.84375 
Q 40.53125 48.484375 33.40625 48.484375 
Q 26.265625 48.484375 22.1875 42.84375 
Q 18.109375 37.203125 18.109375 27.296875 
Q 18.109375 17.390625 22.1875 11.75 
Q 26.265625 6.109375 33.40625 6.109375 
Q 40.53125 6.109375 44.609375 11.75 
Q 48.6875 17.390625 48.6875 27.296875 
z
" id="DejaVuSans-112"/>
     </defs>
     <use xlink:href="#DejaVuSans-110"/>
     <use x="63.378906" xlink:href="#DejaVuSans-54"/>
     <use x="127.001953" xlink:href="#DejaVuSans-54"/>
     <use x="190.625" xlink:href="#DejaVuSans-32"/>
     <use x="222.412109" xlink:href="#DejaVuSans-45"/>
     <use x="258.496094" xlink:href="#DejaVuSans-32"/>
     <use x="290.283203" xlink:href="#DejaVuSans-113"/>
     <use x="353.759766" xlink:href="#DejaVuSans-112"/>
    </g>
   </g>
   <g id="text_46">
    <g id="patch_47">
     <path d="M 970.924767 443.37601 
L 1012.062267 443.37601 
L 1012.062267 425.697885 
L 970.924767 425.697885 
z
" style="fill:#ffffff;fill-opacity:0.35;stroke:#ffffff;stroke-linejoin:miter;stroke-opacity:0.35;"/>
    </g>
    <!-- n61 - r -->
    <g transform="translate(974.924767 437.296322)scale(0.1 -0.1)">
     <use xlink:href="#DejaVuSans-110"/>
     <use x="63.378906" xlink:href="#DejaVuSans-54"/>
     <use x="127.001953" xlink:href="#DejaVuSans-49"/>
     <use x="190.625" xlink:href="#DejaVuSans-32"/>
     <use x="222.412109" xlink:href="#DejaVuSans-45"/>
     <use x="258.496094" xlink:href="#DejaVuSans-32"/>
     <use x="290.283203" xlink:href="#DejaVuSans-114"/>
    </g>
   </g>
   <g id="text_47">
    <g id="patch_48">
     <path d="M 1763.123964 1696.755114 
L 1806.498964 1696.755114 
L 1806.498964 1679.076989 
L 1763.123964 1679.076989 
z
" style="fill:#ffffff;fill-opacity:0.35;stroke:#ffffff;stroke-linejoin:miter;stroke-opacity:0.35;"/>
    </g>
    <!-- n65 - q -->
    <g transform="translate(1767.123964 1690.675427)scale(0.1 -0.1)">
     <use xlink:href="#DejaVuSans-110"/>
     <use x="63.378906" xlink:href="#DejaVuSans-54"/>
     <use x="127.001953" xlink:href="#DejaVuSans-53"/>
     <use x="190.625" xlink:href="#DejaVuSans-32"/>
     <use x="222.412109" xlink:href="#DejaVuSans-45"/>
     <use x="258.496094" xlink:href="#DejaVuSans-32"/>
     <use x="290.283203" xlink:href="#DejaVuSans-113"/>
    </g>
   </g>
  </g>
 </g>
 <defs>
  <clipPath id="p6497d25cb9">
   <rect height="1774.08" width="1785.6" x="288" y="276.48"/>
  </clipPath>
 </defs>
</svg>
