<?xml version="1.0" encoding="utf-8" standalone="no"?>
<!DOCTYPE svg PUBLIC "-//W3C//DTD SVG 1.1//EN"
  "http://www.w3.org/Graphics/SVG/1.1/DTD/svg11.dtd">
<!-- Created with matplotlib (https://matplotlib.org/) -->
<svg height="936pt" version="1.1" viewBox="0 0 936 936" width="936pt" xmlns="http://www.w3.org/2000/svg" xmlns:xlink="http://www.w3.org/1999/xlink">
 <metadata>
  <rdf:RDF xmlns:cc="http://creativecommons.org/ns#" xmlns:dc="http://purl.org/dc/elements/1.1/" xmlns:rdf="http://www.w3.org/1999/02/22-rdf-syntax-ns#">
   <cc:Work>
    <dc:type rdf:resource="http://purl.org/dc/dcmitype/StillImage"/>
    <dc:date>2021-02-13T22:37:18.836145</dc:date>
    <dc:format>image/svg+xml</dc:format>
    <dc:creator>
     <cc:Agent>
      <dc:title>Matplotlib v3.3.4, https://matplotlib.org/</dc:title>
     </cc:Agent>
    </dc:creator>
   </cc:Work>
  </rdf:RDF>
 </metadata>
 <defs>
  <style type="text/css">*{stroke-linecap:butt;stroke-linejoin:round;}</style>
 </defs>
 <g id="figure_1">
  <g id="patch_1">
   <path d="M 0 936 
L 936 936 
L 936 0 
L 0 0 
z
" style="fill:#ffffff;"/>
  </g>
  <g id="axes_1">
   <g id="PolyCollection_1">
    <path clip-path="url(#paabe56ef97)" d="M 339.358143 239.834143 
L 226.072695 456.732056 
L 223.826775 462.154188 
L 223.060733 467.972852 
L 223.826775 473.791516 
L 226.072695 479.213647 
L 338.064886 664.746771 
L 341.63763 669.402861 
L 346.29372 672.975604 
L 351.715851 675.221525 
L 357.534515 675.987566 
L 363.353179 675.221525 
L 368.77531 672.975604 
L 634.305623 512.440812 
L 638.961713 508.868068 
L 642.534457 504.211978 
L 644.780377 498.789847 
L 645.546419 492.971183 
L 644.780377 487.152519 
L 642.534457 481.730388 
L 638.961713 477.074298 
L 374.724657 235.178053 
L 370.068567 231.605309 
L 364.646436 229.359389 
L 358.827772 228.593347 
L 353.009108 229.359389 
L 347.586977 231.605309 
L 342.930887 235.178053 
z
" style="fill:none;stroke:#1f77b4;"/>
    <path clip-path="url(#paabe56ef97)" d="M 597.105323 507.95891 
L 664.813589 634.127137 
L 668.386333 638.783226 
L 673.042422 642.35597 
L 678.464554 644.60189 
L 684.283218 645.367932 
L 690.101882 644.60189 
L 695.524013 642.35597 
L 700.180103 638.783226 
L 703.752847 634.127137 
L 779.642664 504.287823 
L 781.888584 498.865691 
L 782.654626 493.047027 
L 781.888584 487.228363 
L 779.642664 481.806232 
L 776.06992 477.150142 
L 771.41383 473.577399 
L 765.991699 471.331478 
L 760.173035 470.565436 
L 623.064828 462.995729 
L 615.30661 464.017118 
L 608.077101 467.011678 
L 601.868981 471.775336 
L 597.105323 477.983456 
L 594.110763 485.212965 
L 593.089374 492.971183 
L 594.110763 500.729402 
z
" style="fill:none;stroke:#ff7f0e;"/>
    <path clip-path="url(#paabe56ef97)" d="M 332.332963 224.580129 
L 178.031118 368.48487 
L 173.26746 374.69299 
L 170.272899 381.922498 
L 169.251511 389.680717 
L 170.272899 397.438935 
L 173.26746 404.668444 
L 213.092943 486.707511 
L 325.085134 672.240635 
L 331.039706 680.000784 
L 338.799856 685.955357 
L 494.063725 796.264051 
L 501.293233 799.258611 
L 509.051452 800.28 
L 516.80967 799.258611 
L 524.039179 796.264051 
L 530.247299 791.500393 
L 710.778027 649.38115 
L 716.732599 641.621 
L 786.13254 508.034754 
L 789.127101 500.805246 
L 790.148489 493.047027 
L 789.127101 485.288809 
L 697.559949 241.636126 
L 694.565389 234.406617 
L 689.801731 228.198497 
L 683.593611 223.434839 
L 676.364102 220.440279 
L 445.467799 146.101389 
L 437.70958 145.08 
L 429.951362 146.101389 
L 422.721853 149.095949 
L 416.513733 153.859607 
z
" style="fill:none;stroke:#2ca02c;"/>
    <path clip-path="url(#paabe56ef97)" d="M 666.295511 362.743047 
L 293.830689 542.935547 
L 289.174599 546.50829 
L 285.601855 551.16438 
L 283.355935 556.586512 
L 282.589893 562.405176 
L 283.355935 568.223839 
L 285.601855 573.645971 
L 289.174599 578.302061 
L 435.454564 725.37495 
L 440.110654 728.947693 
L 445.532786 731.193614 
L 451.35145 731.959655 
L 457.170113 731.193614 
L 692.041436 651.840407 
L 699.270945 648.845846 
L 705.479065 644.082188 
L 710.242723 637.874068 
L 713.237283 630.64456 
L 714.258672 622.886341 
L 700.017897 382.212676 
L 699.251855 376.394012 
L 697.005935 370.97188 
L 693.433191 366.31579 
L 688.777101 362.743047 
L 683.35497 360.497126 
L 677.536306 359.731085 
L 671.717642 360.497126 
z
" style="fill:none;stroke:#d62728;"/>
    <path clip-path="url(#paabe56ef97)" d="M 690.321433 243.575681 
L 688.075513 238.153549 
L 684.502769 233.497459 
L 679.846679 229.924716 
L 674.424548 227.678795 
L 668.605884 226.912754 
L 662.78722 227.678795 
L 657.365089 229.924716 
L 652.708999 233.497459 
L 649.136255 238.153549 
L 646.890335 243.575681 
L 646.124293 249.394344 
L 647.560852 382.212676 
L 648.582241 389.970894 
L 651.576801 397.200403 
L 656.340459 403.408523 
L 662.548579 408.17218 
L 669.778088 411.166741 
L 677.536306 412.18813 
L 685.294524 411.166741 
L 692.524033 408.17218 
L 698.732153 403.408523 
L 703.495811 397.200403 
L 706.490371 389.970894 
L 707.51176 382.212676 
L 691.087475 249.394344 
z
" style="fill:none;stroke:#9467bd;"/>
    <path clip-path="url(#paabe56ef97)" d="M 328.852318 251.074938 
L 329.873707 258.833157 
L 332.868267 266.062665 
L 337.631925 272.270785 
L 343.840045 277.034443 
L 351.069554 280.029004 
L 358.827772 281.050392 
L 366.58599 280.029004 
L 373.815499 277.034443 
L 380.023619 272.270785 
L 453.606466 190.95234 
L 457.179209 186.29625 
L 459.42513 180.874118 
L 460.191171 175.055454 
L 459.42513 169.23679 
L 457.179209 163.814659 
L 453.606466 159.158569 
L 448.950376 155.585826 
L 443.528244 153.339905 
L 437.70958 152.573864 
L 431.890917 153.339905 
L 426.468785 155.585826 
L 421.812695 159.158569 
L 337.631925 229.879091 
L 332.868267 236.087211 
L 329.873707 243.31672 
z
" style="fill:none;stroke:#8c564b;"/>
    <path clip-path="url(#paabe56ef97)" d="M 328.58045 645.747757 
L 327.559061 653.505976 
L 328.58045 661.264194 
L 331.57501 668.493703 
L 336.338668 674.701823 
L 342.546788 679.465481 
L 497.810656 789.774174 
L 503.232788 792.020095 
L 509.051452 792.786136 
L 514.870116 792.020095 
L 520.292247 789.774174 
L 524.948337 786.201431 
L 528.52108 781.545341 
L 530.767001 776.12321 
L 531.533043 770.304546 
L 530.767001 764.485882 
L 528.52108 759.06375 
L 524.948337 754.40766 
L 472.547297 688.282218 
L 466.339177 683.51856 
L 372.522242 627.546471 
L 365.292734 624.55191 
L 357.534515 623.530521 
L 349.776297 624.55191 
L 342.546788 627.546471 
L 336.338668 632.310129 
L 331.57501 638.518249 
z
" style="fill:none;stroke:#e377c2;"/>
    <path clip-path="url(#paabe56ef97)" d="M 219.582819 482.960579 
L 279.111979 577.392903 
L 283.875637 583.601023 
L 290.083757 588.364681 
L 297.313265 591.359241 
L 305.071484 592.38063 
L 312.829702 591.359241 
L 320.059211 588.364681 
L 326.267331 583.601023 
L 331.030989 577.392903 
L 334.025549 570.163394 
L 335.046938 562.405176 
L 334.025549 554.646957 
L 331.030989 547.417448 
L 271.501829 452.985125 
L 218.696594 378.439921 
L 215.12385 373.783832 
L 210.46776 370.211088 
L 205.045629 367.965168 
L 199.226965 367.199126 
L 193.408301 367.965168 
L 187.98617 370.211088 
L 183.33008 373.783832 
L 179.757336 378.439921 
L 177.511416 383.862053 
L 176.745374 389.680717 
L 177.511416 395.499381 
L 179.757336 400.921512 
z
" style="fill:none;stroke:#7f7f7f;"/>
   </g>
   <g id="PolyCollection_2">
    <path clip-path="url(#paabe56ef97)" d="M 365.028379 653.505976 
L 364.773031 651.566421 
L 364.024391 649.759044 
L 362.833477 648.207014 
L 361.281447 647.016099 
L 359.47407 646.267459 
L 357.534515 646.012112 
L 355.59496 646.267459 
L 353.787583 647.016099 
L 352.235553 648.207014 
L 351.044639 649.759044 
L 350.295999 651.566421 
L 350.040651 653.505976 
L 350.295999 655.44553 
L 351.044639 657.252907 
L 352.235553 658.804937 
L 353.787583 659.995852 
L 355.59496 660.744492 
L 357.534515 660.999839 
L 359.47407 660.744492 
L 361.281447 659.995852 
L 362.833477 658.804937 
L 364.024391 657.252907 
L 364.773031 655.44553 
z
"/>
    <path clip-path="url(#paabe56ef97)" d="M 366.321636 251.074938 
L 366.066288 249.135383 
L 365.317648 247.328006 
L 364.126734 245.775976 
L 362.574704 244.585062 
L 360.767327 243.836422 
L 358.827772 243.581075 
L 356.888217 243.836422 
L 355.08084 244.585062 
L 353.52881 245.775976 
L 352.337896 247.328006 
L 351.589256 249.135383 
L 351.333908 251.074938 
L 351.589256 253.014493 
L 352.337896 254.82187 
L 353.52881 256.3739 
L 355.08084 257.564814 
L 356.888217 258.313454 
L 358.827772 258.568802 
L 360.767327 258.313454 
L 362.574704 257.564814 
L 364.126734 256.3739 
L 365.317648 254.82187 
L 366.066288 253.014493 
z
"/>
    <path clip-path="url(#paabe56ef97)" d="M 253.036187 467.972852 
L 252.78084 466.033297 
L 252.0322 464.22592 
L 250.841285 462.67389 
L 249.289256 461.482975 
L 247.481878 460.734335 
L 245.542324 460.478988 
L 243.602769 460.734335 
L 241.795392 461.482975 
L 240.243362 462.67389 
L 239.052448 464.22592 
L 238.303807 466.033297 
L 238.04846 467.972852 
L 238.303807 469.912406 
L 239.052448 471.719784 
L 240.243362 473.271813 
L 241.795392 474.462728 
L 243.602769 475.211368 
L 245.542324 475.466715 
L 247.481878 475.211368 
L 249.289256 474.462728 
L 250.841285 473.271813 
L 252.0322 471.719784 
L 252.78084 469.912406 
z
"/>
    <path clip-path="url(#paabe56ef97)" d="M 630.558692 492.971183 
L 630.303344 491.031628 
L 629.554704 489.224251 
L 628.36379 487.672221 
L 626.81176 486.481307 
L 625.004383 485.732667 
L 623.064828 485.47732 
L 621.125273 485.732667 
L 619.317896 486.481307 
L 617.765866 487.672221 
L 616.574952 489.224251 
L 615.826312 491.031628 
L 615.570964 492.971183 
L 615.826312 494.910738 
L 616.574952 496.718115 
L 617.765866 498.270145 
L 619.317896 499.461059 
L 621.125273 500.209699 
L 623.064828 500.465047 
L 625.004383 500.209699 
L 626.81176 499.461059 
L 628.36379 498.270145 
L 629.554704 496.718115 
L 630.303344 494.910738 
z
"/>
    <path clip-path="url(#paabe56ef97)" d="M 691.777081 622.886341 
L 691.521734 620.946787 
L 690.773094 619.139409 
L 689.58218 617.587379 
L 688.03015 616.396465 
L 686.222772 615.647825 
L 684.283218 615.392478 
L 682.343663 615.647825 
L 680.536286 616.396465 
L 678.984256 617.587379 
L 677.793342 619.139409 
L 677.044701 620.946787 
L 676.789354 622.886341 
L 677.044701 624.825896 
L 677.793342 626.633273 
L 678.984256 628.185303 
L 680.536286 629.376217 
L 682.343663 630.124858 
L 684.283218 630.380205 
L 686.222772 630.124858 
L 688.03015 629.376217 
L 689.58218 628.185303 
L 690.773094 626.633273 
L 691.521734 624.825896 
z
"/>
    <path clip-path="url(#paabe56ef97)" d="M 767.666899 493.047027 
L 767.411551 491.107473 
L 766.662911 489.300095 
L 765.471997 487.748065 
L 763.919967 486.557151 
L 762.11259 485.808511 
L 760.173035 485.553164 
L 758.23348 485.808511 
L 756.426103 486.557151 
L 754.874073 487.748065 
L 753.683159 489.300095 
L 752.934519 491.107473 
L 752.679172 493.047027 
L 752.934519 494.986582 
L 753.683159 496.793959 
L 754.874073 498.345989 
L 756.426103 499.536903 
L 758.23348 500.285544 
L 760.173035 500.540891 
L 762.11259 500.285544 
L 763.919967 499.536903 
L 765.471997 498.345989 
L 766.662911 496.793959 
L 767.411551 494.986582 
z
"/>
    <path clip-path="url(#paabe56ef97)" d="M 312.565347 562.405176 
L 312.31 560.465621 
L 311.56136 558.658244 
L 310.370446 557.106214 
L 308.818416 555.915299 
L 307.011038 555.166659 
L 305.071484 554.911312 
L 303.131929 555.166659 
L 301.324552 555.915299 
L 299.772522 557.106214 
L 298.581608 558.658244 
L 297.832968 560.465621 
L 297.57762 562.405176 
L 297.832968 564.34473 
L 298.581608 566.152107 
L 299.772522 567.704137 
L 301.324552 568.895052 
L 303.131929 569.643692 
L 305.071484 569.899039 
L 307.011038 569.643692 
L 308.818416 568.895052 
L 310.370446 567.704137 
L 311.56136 566.152107 
L 312.31 564.34473 
z
"/>
    <path clip-path="url(#paabe56ef97)" d="M 685.03017 382.212676 
L 684.774822 380.273121 
L 684.026182 378.465744 
L 682.835268 376.913714 
L 681.283238 375.722799 
L 679.475861 374.974159 
L 677.536306 374.718812 
L 675.596751 374.974159 
L 673.789374 375.722799 
L 672.237344 376.913714 
L 671.04643 378.465744 
L 670.29779 380.273121 
L 670.042442 382.212676 
L 670.29779 384.15223 
L 671.04643 385.959607 
L 672.237344 387.511637 
L 673.789374 388.702552 
L 675.596751 389.451192 
L 677.536306 389.706539 
L 679.475861 389.451192 
L 681.283238 388.702552 
L 682.835268 387.511637 
L 684.026182 385.959607 
L 684.774822 384.15223 
z
"/>
    <path clip-path="url(#paabe56ef97)" d="M 445.203444 175.055454 
L 444.948097 173.1159 
L 444.199457 171.308522 
L 443.008542 169.756493 
L 441.456512 168.565578 
L 439.649135 167.816938 
L 437.70958 167.561591 
L 435.770026 167.816938 
L 433.962649 168.565578 
L 432.410619 169.756493 
L 431.219704 171.308522 
L 430.471064 173.1159 
L 430.215717 175.055454 
L 430.471064 176.995009 
L 431.219704 178.802386 
L 432.410619 180.354416 
L 433.962649 181.54533 
L 435.770026 182.293971 
L 437.70958 182.549318 
L 439.649135 182.293971 
L 441.456512 181.54533 
L 443.008542 180.354416 
L 444.199457 178.802386 
L 444.948097 176.995009 
z
"/>
    <path clip-path="url(#paabe56ef97)" d="M 516.545315 770.304546 
L 516.289968 768.364991 
L 515.541328 766.557614 
L 514.350414 765.005584 
L 512.798384 763.81467 
L 510.991006 763.066029 
L 509.051452 762.810682 
L 507.111897 763.066029 
L 505.30452 763.81467 
L 503.75249 765.005584 
L 502.561576 766.557614 
L 501.812935 768.364991 
L 501.557588 770.304546 
L 501.812935 772.2441 
L 502.561576 774.051478 
L 503.75249 775.603507 
L 505.30452 776.794422 
L 507.111897 777.543062 
L 509.051452 777.798409 
L 510.991006 777.543062 
L 512.798384 776.794422 
L 514.350414 775.603507 
L 515.541328 774.051478 
L 516.289968 772.2441 
z
"/>
    <path clip-path="url(#paabe56ef97)" d="M 206.720828 389.680717 
L 206.465481 387.741162 
L 205.716841 385.933785 
L 204.525927 384.381755 
L 202.973897 383.190841 
L 201.16652 382.4422 
L 199.226965 382.186853 
L 197.28741 382.4422 
L 195.480033 383.190841 
L 193.928003 384.381755 
L 192.737089 385.933785 
L 191.988449 387.741162 
L 191.733101 389.680717 
L 191.988449 391.620271 
L 192.737089 393.427649 
L 193.928003 394.979679 
L 195.480033 396.170593 
L 197.28741 396.919233 
L 199.226965 397.17458 
L 201.16652 396.919233 
L 202.973897 396.170593 
L 204.525927 394.979679 
L 205.716841 393.427649 
L 206.465481 391.620271 
z
"/>
    <path clip-path="url(#paabe56ef97)" d="M 458.845313 709.478065 
L 458.589966 707.53851 
L 457.841326 705.731133 
L 456.650411 704.179103 
L 455.098381 702.988188 
L 453.291004 702.239548 
L 451.35145 701.984201 
L 449.411895 702.239548 
L 447.604518 702.988188 
L 446.052488 704.179103 
L 444.861573 705.731133 
L 444.112933 707.53851 
L 443.857586 709.478065 
L 444.112933 711.417619 
L 444.861573 713.224996 
L 446.052488 714.777026 
L 447.604518 715.967941 
L 449.411895 716.716581 
L 451.35145 716.971928 
L 453.291004 716.716581 
L 455.098381 715.967941 
L 456.650411 714.777026 
L 457.841326 713.224996 
L 458.589966 711.417619 
z
"/>
    <path clip-path="url(#paabe56ef97)" d="M 676.099747 249.394344 
L 675.8444 247.45479 
L 675.09576 245.647413 
L 673.904846 244.095383 
L 672.352816 242.904468 
L 670.545439 242.155828 
L 668.605884 241.900481 
L 666.666329 242.155828 
L 664.858952 242.904468 
L 663.306922 244.095383 
L 662.116008 245.647413 
L 661.367368 247.45479 
L 661.11202 249.394344 
L 661.367368 251.333899 
L 662.116008 253.141276 
L 663.306922 254.693306 
L 664.858952 255.884221 
L 666.666329 256.632861 
L 668.605884 256.888208 
L 670.545439 256.632861 
L 672.352816 255.884221 
L 673.904846 254.693306 
L 675.09576 253.141276 
L 675.8444 251.333899 
z
"/>
   </g>
   <g id="text_1">
    <g id="patch_2">
     <path d="M 480.705958 344.182346 
L 521.04348 381.109396 
L 532.980412 368.070004 
L 492.642891 331.142954 
z
" style="fill:#ffffff;fill-opacity:0.35;stroke:#ffffff;stroke-linejoin:miter;stroke-opacity:0.35;"/>
    </g>
    <!-- PFET - e2 -->
    <g style="fill:#1f77b4;" transform="translate(487.761593 342.398916)rotate(-317.527405)scale(0.1 -0.1)">
     <defs>
      <path d="M 19.671875 64.796875 
L 19.671875 37.40625 
L 32.078125 37.40625 
Q 38.96875 37.40625 42.71875 40.96875 
Q 46.484375 44.53125 46.484375 51.125 
Q 46.484375 57.671875 42.71875 61.234375 
Q 38.96875 64.796875 32.078125 64.796875 
z
M 9.8125 72.90625 
L 32.078125 72.90625 
Q 44.34375 72.90625 50.609375 67.359375 
Q 56.890625 61.8125 56.890625 51.125 
Q 56.890625 40.328125 50.609375 34.8125 
Q 44.34375 29.296875 32.078125 29.296875 
L 19.671875 29.296875 
L 19.671875 0 
L 9.8125 0 
z
" id="DejaVuSans-80"/>
      <path d="M 9.8125 72.90625 
L 51.703125 72.90625 
L 51.703125 64.59375 
L 19.671875 64.59375 
L 19.671875 43.109375 
L 48.578125 43.109375 
L 48.578125 34.8125 
L 19.671875 34.8125 
L 19.671875 0 
L 9.8125 0 
z
" id="DejaVuSans-70"/>
      <path d="M 9.8125 72.90625 
L 55.90625 72.90625 
L 55.90625 64.59375 
L 19.671875 64.59375 
L 19.671875 43.015625 
L 54.390625 43.015625 
L 54.390625 34.71875 
L 19.671875 34.71875 
L 19.671875 8.296875 
L 56.78125 8.296875 
L 56.78125 0 
L 9.8125 0 
z
" id="DejaVuSans-69"/>
      <path d="M -0.296875 72.90625 
L 61.375 72.90625 
L 61.375 64.59375 
L 35.5 64.59375 
L 35.5 0 
L 25.59375 0 
L 25.59375 64.59375 
L -0.296875 64.59375 
z
" id="DejaVuSans-84"/>
      <path id="DejaVuSans-32"/>
      <path d="M 4.890625 31.390625 
L 31.203125 31.390625 
L 31.203125 23.390625 
L 4.890625 23.390625 
z
" id="DejaVuSans-45"/>
      <path d="M 56.203125 29.59375 
L 56.203125 25.203125 
L 14.890625 25.203125 
Q 15.484375 15.921875 20.484375 11.0625 
Q 25.484375 6.203125 34.421875 6.203125 
Q 39.59375 6.203125 44.453125 7.46875 
Q 49.3125 8.734375 54.109375 11.28125 
L 54.109375 2.78125 
Q 49.265625 0.734375 44.1875 -0.34375 
Q 39.109375 -1.421875 33.890625 -1.421875 
Q 20.796875 -1.421875 13.15625 6.1875 
Q 5.515625 13.8125 5.515625 26.8125 
Q 5.515625 40.234375 12.765625 48.109375 
Q 20.015625 56 32.328125 56 
Q 43.359375 56 49.78125 48.890625 
Q 56.203125 41.796875 56.203125 29.59375 
z
M 47.21875 32.234375 
Q 47.125 39.59375 43.09375 43.984375 
Q 39.0625 48.390625 32.421875 48.390625 
Q 24.90625 48.390625 20.390625 44.140625 
Q 15.875 39.890625 15.1875 32.171875 
z
" id="DejaVuSans-101"/>
      <path d="M 19.1875 8.296875 
L 53.609375 8.296875 
L 53.609375 0 
L 7.328125 0 
L 7.328125 8.296875 
Q 12.9375 14.109375 22.625 23.890625 
Q 32.328125 33.6875 34.8125 36.53125 
Q 39.546875 41.84375 41.421875 45.53125 
Q 43.3125 49.21875 43.3125 52.78125 
Q 43.3125 58.59375 39.234375 62.25 
Q 35.15625 65.921875 28.609375 65.921875 
Q 23.96875 65.921875 18.8125 64.3125 
Q 13.671875 62.703125 7.8125 59.421875 
L 7.8125 69.390625 
Q 13.765625 71.78125 18.9375 73 
Q 24.125 74.21875 28.421875 74.21875 
Q 39.75 74.21875 46.484375 68.546875 
Q 53.21875 62.890625 53.21875 53.421875 
Q 53.21875 48.921875 51.53125 44.890625 
Q 49.859375 40.875 45.40625 35.40625 
Q 44.1875 33.984375 37.640625 27.21875 
Q 31.109375 20.453125 19.1875 8.296875 
z
" id="DejaVuSans-50"/>
     </defs>
     <use xlink:href="#DejaVuSans-80"/>
     <use x="60.302734" xlink:href="#DejaVuSans-70"/>
     <use x="117.822266" xlink:href="#DejaVuSans-69"/>
     <use x="181.005859" xlink:href="#DejaVuSans-84"/>
     <use x="242.089844" xlink:href="#DejaVuSans-32"/>
     <use x="273.876953" xlink:href="#DejaVuSans-45"/>
     <use x="309.960938" xlink:href="#DejaVuSans-32"/>
     <use x="341.748047" xlink:href="#DejaVuSans-101"/>
     <use x="403.271484" xlink:href="#DejaVuSans-50"/>
    </g>
   </g>
   <g id="text_2">
    <g id="patch_3">
     <path d="M 742.547338 585.270345 
L 756.110473 562.065281 
L 740.848172 553.144614 
L 727.285038 576.349678 
z
" style="fill:#ffffff;fill-opacity:0.35;stroke:#ffffff;stroke-linejoin:miter;stroke-opacity:0.35;"/>
    </g>
    <!-- e13 -->
    <g style="fill:#ff7f0e;" transform="translate(739.316942 578.749061)rotate(-59.694129)scale(0.1 -0.1)">
     <defs>
      <path d="M 12.40625 8.296875 
L 28.515625 8.296875 
L 28.515625 63.921875 
L 10.984375 60.40625 
L 10.984375 69.390625 
L 28.421875 72.90625 
L 38.28125 72.90625 
L 38.28125 8.296875 
L 54.390625 8.296875 
L 54.390625 0 
L 12.40625 0 
z
" id="DejaVuSans-49"/>
      <path d="M 40.578125 39.3125 
Q 47.65625 37.796875 51.625 33 
Q 55.609375 28.21875 55.609375 21.1875 
Q 55.609375 10.40625 48.1875 4.484375 
Q 40.765625 -1.421875 27.09375 -1.421875 
Q 22.515625 -1.421875 17.65625 -0.515625 
Q 12.796875 0.390625 7.625 2.203125 
L 7.625 11.71875 
Q 11.71875 9.328125 16.59375 8.109375 
Q 21.484375 6.890625 26.8125 6.890625 
Q 36.078125 6.890625 40.9375 10.546875 
Q 45.796875 14.203125 45.796875 21.1875 
Q 45.796875 27.640625 41.28125 31.265625 
Q 36.765625 34.90625 28.71875 34.90625 
L 20.21875 34.90625 
L 20.21875 43.015625 
L 29.109375 43.015625 
Q 36.375 43.015625 40.234375 45.921875 
Q 44.09375 48.828125 44.09375 54.296875 
Q 44.09375 59.90625 40.109375 62.90625 
Q 36.140625 65.921875 28.71875 65.921875 
Q 24.65625 65.921875 20.015625 65.03125 
Q 15.375 64.15625 9.8125 62.3125 
L 9.8125 71.09375 
Q 15.4375 72.65625 20.34375 73.4375 
Q 25.25 74.21875 29.59375 74.21875 
Q 40.828125 74.21875 47.359375 69.109375 
Q 53.90625 64.015625 53.90625 55.328125 
Q 53.90625 49.265625 50.4375 45.09375 
Q 46.96875 40.921875 40.578125 39.3125 
z
" id="DejaVuSans-51"/>
     </defs>
     <use xlink:href="#DejaVuSans-101"/>
     <use x="61.523438" xlink:href="#DejaVuSans-49"/>
     <use x="125.146484" xlink:href="#DejaVuSans-51"/>
    </g>
   </g>
   <g id="text_3">
    <g id="patch_4">
     <path d="M 723.399709 335.519698 
L 746.739208 397.624193 
L 763.287341 391.405237 
L 739.947841 329.300742 
z
" style="fill:#ffffff;fill-opacity:0.35;stroke:#ffffff;stroke-linejoin:miter;stroke-opacity:0.35;"/>
    </g>
    <!-- NAND - e14 -->
    <g style="fill:#2ca02c;" transform="translate(730.497933 337.125254)rotate(-290.59673)scale(0.1 -0.1)">
     <defs>
      <path d="M 9.8125 72.90625 
L 23.09375 72.90625 
L 55.421875 11.921875 
L 55.421875 72.90625 
L 64.984375 72.90625 
L 64.984375 0 
L 51.703125 0 
L 19.390625 60.984375 
L 19.390625 0 
L 9.8125 0 
z
" id="DejaVuSans-78"/>
      <path d="M 34.1875 63.1875 
L 20.796875 26.90625 
L 47.609375 26.90625 
z
M 28.609375 72.90625 
L 39.796875 72.90625 
L 67.578125 0 
L 57.328125 0 
L 50.6875 18.703125 
L 17.828125 18.703125 
L 11.1875 0 
L 0.78125 0 
z
" id="DejaVuSans-65"/>
      <path d="M 19.671875 64.796875 
L 19.671875 8.109375 
L 31.59375 8.109375 
Q 46.6875 8.109375 53.6875 14.9375 
Q 60.6875 21.78125 60.6875 36.53125 
Q 60.6875 51.171875 53.6875 57.984375 
Q 46.6875 64.796875 31.59375 64.796875 
z
M 9.8125 72.90625 
L 30.078125 72.90625 
Q 51.265625 72.90625 61.171875 64.09375 
Q 71.09375 55.28125 71.09375 36.53125 
Q 71.09375 17.671875 61.125 8.828125 
Q 51.171875 0 30.078125 0 
L 9.8125 0 
z
" id="DejaVuSans-68"/>
      <path d="M 37.796875 64.3125 
L 12.890625 25.390625 
L 37.796875 25.390625 
z
M 35.203125 72.90625 
L 47.609375 72.90625 
L 47.609375 25.390625 
L 58.015625 25.390625 
L 58.015625 17.1875 
L 47.609375 17.1875 
L 47.609375 0 
L 37.796875 0 
L 37.796875 17.1875 
L 4.890625 17.1875 
L 4.890625 26.703125 
z
" id="DejaVuSans-52"/>
     </defs>
     <use xlink:href="#DejaVuSans-78"/>
     <use x="74.804688" xlink:href="#DejaVuSans-65"/>
     <use x="143.212891" xlink:href="#DejaVuSans-78"/>
     <use x="218.017578" xlink:href="#DejaVuSans-68"/>
     <use x="295.019531" xlink:href="#DejaVuSans-32"/>
     <use x="326.806641" xlink:href="#DejaVuSans-45"/>
     <use x="362.890625" xlink:href="#DejaVuSans-32"/>
     <use x="394.677734" xlink:href="#DejaVuSans-101"/>
     <use x="456.201172" xlink:href="#DejaVuSans-49"/>
     <use x="519.824219" xlink:href="#DejaVuSans-52"/>
    </g>
   </g>
   <g id="text_4">
    <g id="patch_5">
     <path d="M 459.297919 472.704266 
L 508.527058 448.887999 
L 500.82828 432.974328 
L 451.599141 456.790595 
z
" style="fill:#ffffff;fill-opacity:0.35;stroke:#ffffff;stroke-linejoin:miter;stroke-opacity:0.35;"/>
    </g>
    <!-- PFET - e1 -->
    <g style="fill:#d62728;" transform="translate(460.250991 465.489402)rotate(-25.816952)scale(0.1 -0.1)">
     <use xlink:href="#DejaVuSans-80"/>
     <use x="60.302734" xlink:href="#DejaVuSans-70"/>
     <use x="117.822266" xlink:href="#DejaVuSans-69"/>
     <use x="181.005859" xlink:href="#DejaVuSans-84"/>
     <use x="242.089844" xlink:href="#DejaVuSans-32"/>
     <use x="273.876953" xlink:href="#DejaVuSans-45"/>
     <use x="309.960938" xlink:href="#DejaVuSans-32"/>
     <use x="341.748047" xlink:href="#DejaVuSans-101"/>
     <use x="403.271484" xlink:href="#DejaVuSans-49"/>
    </g>
   </g>
   <g id="text_5">
    <g id="patch_6">
     <path d="M 689.268482 306.708013 
L 691.786262 327.068555 
L 709.330753 324.899007 
L 706.812973 304.538465 
z
" style="fill:#ffffff;fill-opacity:0.35;stroke:#ffffff;stroke-linejoin:miter;stroke-opacity:0.35;"/>
    </g>
    <!-- e3 -->
    <g style="fill:#9467bd;" transform="translate(695.793111 309.931646)rotate(-277.049396)scale(0.1 -0.1)">
     <use xlink:href="#DejaVuSans-101"/>
     <use x="61.523438" xlink:href="#DejaVuSans-51"/>
    </g>
   </g>
   <g id="text_6">
    <g id="patch_7">
     <path d="M 377.553876 207.884818 
L 393.261992 194.688381 
L 381.890744 181.152842 
L 366.182628 194.349279 
z
" style="fill:#ffffff;fill-opacity:0.35;stroke:#ffffff;stroke-linejoin:miter;stroke-opacity:0.35;"/>
    </g>
    <!-- e4 -->
    <g style="fill:#8c564b;" transform="translate(376.705852 200.656855)rotate(-40.033721)scale(0.1 -0.1)">
     <use xlink:href="#DejaVuSans-101"/>
     <use x="61.523438" xlink:href="#DejaVuSans-52"/>
    </g>
   </g>
   <g id="text_7">
    <g id="patch_8">
     <path d="M 406.697163 735.884458 
L 423.421625 747.766512 
L 433.660282 733.355197 
L 416.935819 721.473143 
z
" style="fill:#ffffff;fill-opacity:0.35;stroke:#ffffff;stroke-linejoin:miter;stroke-opacity:0.35;"/>
    </g>
    <!-- e7 -->
    <g style="fill:#e377c2;" transform="translate(413.479165 733.244944)rotate(-324.607747)scale(0.1 -0.1)">
     <defs>
      <path d="M 8.203125 72.90625 
L 55.078125 72.90625 
L 55.078125 68.703125 
L 28.609375 0 
L 18.3125 0 
L 43.21875 64.59375 
L 8.203125 64.59375 
z
" id="DejaVuSans-55"/>
     </defs>
     <use xlink:href="#DejaVuSans-101"/>
     <use x="61.523438" xlink:href="#DejaVuSans-55"/>
    </g>
   </g>
   <g id="text_8">
    <g id="patch_9">
     <path d="M 234.70336 523.521701 
L 249.036755 546.259058 
L 263.991438 536.831781 
L 249.658043 514.094424 
z
" style="fill:#ffffff;fill-opacity:0.35;stroke:#ffffff;stroke-linejoin:miter;stroke-opacity:0.35;"/>
    </g>
    <!-- e10 -->
    <g style="fill:#7f7f7f;" transform="translate(241.979523 523.663335)rotate(-302.226907)scale(0.1 -0.1)">
     <defs>
      <path d="M 31.78125 66.40625 
Q 24.171875 66.40625 20.328125 58.90625 
Q 16.5 51.421875 16.5 36.375 
Q 16.5 21.390625 20.328125 13.890625 
Q 24.171875 6.390625 31.78125 6.390625 
Q 39.453125 6.390625 43.28125 13.890625 
Q 47.125 21.390625 47.125 36.375 
Q 47.125 51.421875 43.28125 58.90625 
Q 39.453125 66.40625 31.78125 66.40625 
z
M 31.78125 74.21875 
Q 44.046875 74.21875 50.515625 64.515625 
Q 56.984375 54.828125 56.984375 36.375 
Q 56.984375 17.96875 50.515625 8.265625 
Q 44.046875 -1.421875 31.78125 -1.421875 
Q 19.53125 -1.421875 13.0625 8.265625 
Q 6.59375 17.96875 6.59375 36.375 
Q 6.59375 54.828125 13.0625 64.515625 
Q 19.53125 74.21875 31.78125 74.21875 
z
" id="DejaVuSans-48"/>
     </defs>
     <use xlink:href="#DejaVuSans-101"/>
     <use x="61.523438" xlink:href="#DejaVuSans-49"/>
     <use x="125.146484" xlink:href="#DejaVuSans-48"/>
    </g>
   </g>
   <g id="text_9">
    <g id="patch_10">
     <path d="M 366.028379 662.345038 
L 428.758066 662.345038 
L 428.758066 644.666913 
L 366.028379 644.666913 
z
" style="fill:#ffffff;fill-opacity:0.35;stroke:#ffffff;stroke-linejoin:miter;stroke-opacity:0.35;"/>
    </g>
    <!-- n27 - drain -->
    <g transform="translate(370.028379 656.265351)scale(0.1 -0.1)">
     <defs>
      <path d="M 54.890625 33.015625 
L 54.890625 0 
L 45.90625 0 
L 45.90625 32.71875 
Q 45.90625 40.484375 42.875 44.328125 
Q 39.84375 48.1875 33.796875 48.1875 
Q 26.515625 48.1875 22.3125 43.546875 
Q 18.109375 38.921875 18.109375 30.90625 
L 18.109375 0 
L 9.078125 0 
L 9.078125 54.6875 
L 18.109375 54.6875 
L 18.109375 46.1875 
Q 21.34375 51.125 25.703125 53.5625 
Q 30.078125 56 35.796875 56 
Q 45.21875 56 50.046875 50.171875 
Q 54.890625 44.34375 54.890625 33.015625 
z
" id="DejaVuSans-110"/>
      <path d="M 45.40625 46.390625 
L 45.40625 75.984375 
L 54.390625 75.984375 
L 54.390625 0 
L 45.40625 0 
L 45.40625 8.203125 
Q 42.578125 3.328125 38.25 0.953125 
Q 33.9375 -1.421875 27.875 -1.421875 
Q 17.96875 -1.421875 11.734375 6.484375 
Q 5.515625 14.40625 5.515625 27.296875 
Q 5.515625 40.1875 11.734375 48.09375 
Q 17.96875 56 27.875 56 
Q 33.9375 56 38.25 53.625 
Q 42.578125 51.265625 45.40625 46.390625 
z
M 14.796875 27.296875 
Q 14.796875 17.390625 18.875 11.75 
Q 22.953125 6.109375 30.078125 6.109375 
Q 37.203125 6.109375 41.296875 11.75 
Q 45.40625 17.390625 45.40625 27.296875 
Q 45.40625 37.203125 41.296875 42.84375 
Q 37.203125 48.484375 30.078125 48.484375 
Q 22.953125 48.484375 18.875 42.84375 
Q 14.796875 37.203125 14.796875 27.296875 
z
" id="DejaVuSans-100"/>
      <path d="M 41.109375 46.296875 
Q 39.59375 47.171875 37.8125 47.578125 
Q 36.03125 48 33.890625 48 
Q 26.265625 48 22.1875 43.046875 
Q 18.109375 38.09375 18.109375 28.8125 
L 18.109375 0 
L 9.078125 0 
L 9.078125 54.6875 
L 18.109375 54.6875 
L 18.109375 46.1875 
Q 20.953125 51.171875 25.484375 53.578125 
Q 30.03125 56 36.53125 56 
Q 37.453125 56 38.578125 55.875 
Q 39.703125 55.765625 41.0625 55.515625 
z
" id="DejaVuSans-114"/>
      <path d="M 34.28125 27.484375 
Q 23.390625 27.484375 19.1875 25 
Q 14.984375 22.515625 14.984375 16.5 
Q 14.984375 11.71875 18.140625 8.90625 
Q 21.296875 6.109375 26.703125 6.109375 
Q 34.1875 6.109375 38.703125 11.40625 
Q 43.21875 16.703125 43.21875 25.484375 
L 43.21875 27.484375 
z
M 52.203125 31.203125 
L 52.203125 0 
L 43.21875 0 
L 43.21875 8.296875 
Q 40.140625 3.328125 35.546875 0.953125 
Q 30.953125 -1.421875 24.3125 -1.421875 
Q 15.921875 -1.421875 10.953125 3.296875 
Q 6 8.015625 6 15.921875 
Q 6 25.140625 12.171875 29.828125 
Q 18.359375 34.515625 30.609375 34.515625 
L 43.21875 34.515625 
L 43.21875 35.40625 
Q 43.21875 41.609375 39.140625 45 
Q 35.0625 48.390625 27.6875 48.390625 
Q 23 48.390625 18.546875 47.265625 
Q 14.109375 46.140625 10.015625 43.890625 
L 10.015625 52.203125 
Q 14.9375 54.109375 19.578125 55.046875 
Q 24.21875 56 28.609375 56 
Q 40.484375 56 46.34375 49.84375 
Q 52.203125 43.703125 52.203125 31.203125 
z
" id="DejaVuSans-97"/>
      <path d="M 9.421875 54.6875 
L 18.40625 54.6875 
L 18.40625 0 
L 9.421875 0 
z
M 9.421875 75.984375 
L 18.40625 75.984375 
L 18.40625 64.59375 
L 9.421875 64.59375 
z
" id="DejaVuSans-105"/>
     </defs>
     <use xlink:href="#DejaVuSans-110"/>
     <use x="63.378906" xlink:href="#DejaVuSans-50"/>
     <use x="127.001953" xlink:href="#DejaVuSans-55"/>
     <use x="190.625" xlink:href="#DejaVuSans-32"/>
     <use x="222.412109" xlink:href="#DejaVuSans-45"/>
     <use x="258.496094" xlink:href="#DejaVuSans-32"/>
     <use x="290.283203" xlink:href="#DejaVuSans-100"/>
     <use x="353.759766" xlink:href="#DejaVuSans-114"/>
     <use x="394.873047" xlink:href="#DejaVuSans-97"/>
     <use x="456.152344" xlink:href="#DejaVuSans-105"/>
     <use x="483.935547" xlink:href="#DejaVuSans-110"/>
    </g>
   </g>
   <g id="text_10">
    <g id="patch_11">
     <path d="M 367.321636 259.914001 
L 426.898198 259.914001 
L 426.898198 242.235876 
L 367.321636 242.235876 
z
" style="fill:#ffffff;fill-opacity:0.35;stroke:#ffffff;stroke-linejoin:miter;stroke-opacity:0.35;"/>
    </g>
    <!-- n26 - gate -->
    <g transform="translate(371.321636 253.834313)scale(0.1 -0.1)">
     <defs>
      <path d="M 33.015625 40.375 
Q 26.375 40.375 22.484375 35.828125 
Q 18.609375 31.296875 18.609375 23.390625 
Q 18.609375 15.53125 22.484375 10.953125 
Q 26.375 6.390625 33.015625 6.390625 
Q 39.65625 6.390625 43.53125 10.953125 
Q 47.40625 15.53125 47.40625 23.390625 
Q 47.40625 31.296875 43.53125 35.828125 
Q 39.65625 40.375 33.015625 40.375 
z
M 52.59375 71.296875 
L 52.59375 62.3125 
Q 48.875 64.0625 45.09375 64.984375 
Q 41.3125 65.921875 37.59375 65.921875 
Q 27.828125 65.921875 22.671875 59.328125 
Q 17.53125 52.734375 16.796875 39.40625 
Q 19.671875 43.65625 24.015625 45.921875 
Q 28.375 48.1875 33.59375 48.1875 
Q 44.578125 48.1875 50.953125 41.515625 
Q 57.328125 34.859375 57.328125 23.390625 
Q 57.328125 12.15625 50.6875 5.359375 
Q 44.046875 -1.421875 33.015625 -1.421875 
Q 20.359375 -1.421875 13.671875 8.265625 
Q 6.984375 17.96875 6.984375 36.375 
Q 6.984375 53.65625 15.1875 63.9375 
Q 23.390625 74.21875 37.203125 74.21875 
Q 40.921875 74.21875 44.703125 73.484375 
Q 48.484375 72.75 52.59375 71.296875 
z
" id="DejaVuSans-54"/>
      <path d="M 45.40625 27.984375 
Q 45.40625 37.75 41.375 43.109375 
Q 37.359375 48.484375 30.078125 48.484375 
Q 22.859375 48.484375 18.828125 43.109375 
Q 14.796875 37.75 14.796875 27.984375 
Q 14.796875 18.265625 18.828125 12.890625 
Q 22.859375 7.515625 30.078125 7.515625 
Q 37.359375 7.515625 41.375 12.890625 
Q 45.40625 18.265625 45.40625 27.984375 
z
M 54.390625 6.78125 
Q 54.390625 -7.171875 48.1875 -13.984375 
Q 42 -20.796875 29.203125 -20.796875 
Q 24.46875 -20.796875 20.265625 -20.09375 
Q 16.0625 -19.390625 12.109375 -17.921875 
L 12.109375 -9.1875 
Q 16.0625 -11.328125 19.921875 -12.34375 
Q 23.78125 -13.375 27.78125 -13.375 
Q 36.625 -13.375 41.015625 -8.765625 
Q 45.40625 -4.15625 45.40625 5.171875 
L 45.40625 9.625 
Q 42.625 4.78125 38.28125 2.390625 
Q 33.9375 0 27.875 0 
Q 17.828125 0 11.671875 7.65625 
Q 5.515625 15.328125 5.515625 27.984375 
Q 5.515625 40.671875 11.671875 48.328125 
Q 17.828125 56 27.875 56 
Q 33.9375 56 38.28125 53.609375 
Q 42.625 51.21875 45.40625 46.390625 
L 45.40625 54.6875 
L 54.390625 54.6875 
z
" id="DejaVuSans-103"/>
      <path d="M 18.3125 70.21875 
L 18.3125 54.6875 
L 36.8125 54.6875 
L 36.8125 47.703125 
L 18.3125 47.703125 
L 18.3125 18.015625 
Q 18.3125 11.328125 20.140625 9.421875 
Q 21.96875 7.515625 27.59375 7.515625 
L 36.8125 7.515625 
L 36.8125 0 
L 27.59375 0 
Q 17.1875 0 13.234375 3.875 
Q 9.28125 7.765625 9.28125 18.015625 
L 9.28125 47.703125 
L 2.6875 47.703125 
L 2.6875 54.6875 
L 9.28125 54.6875 
L 9.28125 70.21875 
z
" id="DejaVuSans-116"/>
     </defs>
     <use xlink:href="#DejaVuSans-110"/>
     <use x="63.378906" xlink:href="#DejaVuSans-50"/>
     <use x="127.001953" xlink:href="#DejaVuSans-54"/>
     <use x="190.625" xlink:href="#DejaVuSans-32"/>
     <use x="222.412109" xlink:href="#DejaVuSans-45"/>
     <use x="258.496094" xlink:href="#DejaVuSans-32"/>
     <use x="290.283203" xlink:href="#DejaVuSans-103"/>
     <use x="353.759766" xlink:href="#DejaVuSans-97"/>
     <use x="415.039062" xlink:href="#DejaVuSans-116"/>
     <use x="454.248047" xlink:href="#DejaVuSans-101"/>
    </g>
   </g>
   <g id="text_11">
    <g id="patch_12">
     <path d="M 254.036187 476.811914 
L 324.265875 476.811914 
L 324.265875 459.133789 
L 254.036187 459.133789 
z
" style="fill:#ffffff;fill-opacity:0.35;stroke:#ffffff;stroke-linejoin:miter;stroke-opacity:0.35;"/>
    </g>
    <!-- n28 - source -->
    <g transform="translate(258.036187 470.732227)scale(0.1 -0.1)">
     <defs>
      <path d="M 31.78125 34.625 
Q 24.75 34.625 20.71875 30.859375 
Q 16.703125 27.09375 16.703125 20.515625 
Q 16.703125 13.921875 20.71875 10.15625 
Q 24.75 6.390625 31.78125 6.390625 
Q 38.8125 6.390625 42.859375 10.171875 
Q 46.921875 13.96875 46.921875 20.515625 
Q 46.921875 27.09375 42.890625 30.859375 
Q 38.875 34.625 31.78125 34.625 
z
M 21.921875 38.8125 
Q 15.578125 40.375 12.03125 44.71875 
Q 8.5 49.078125 8.5 55.328125 
Q 8.5 64.0625 14.71875 69.140625 
Q 20.953125 74.21875 31.78125 74.21875 
Q 42.671875 74.21875 48.875 69.140625 
Q 55.078125 64.0625 55.078125 55.328125 
Q 55.078125 49.078125 51.53125 44.71875 
Q 48 40.375 41.703125 38.8125 
Q 48.828125 37.15625 52.796875 32.3125 
Q 56.78125 27.484375 56.78125 20.515625 
Q 56.78125 9.90625 50.3125 4.234375 
Q 43.84375 -1.421875 31.78125 -1.421875 
Q 19.734375 -1.421875 13.25 4.234375 
Q 6.78125 9.90625 6.78125 20.515625 
Q 6.78125 27.484375 10.78125 32.3125 
Q 14.796875 37.15625 21.921875 38.8125 
z
M 18.3125 54.390625 
Q 18.3125 48.734375 21.84375 45.5625 
Q 25.390625 42.390625 31.78125 42.390625 
Q 38.140625 42.390625 41.71875 45.5625 
Q 45.3125 48.734375 45.3125 54.390625 
Q 45.3125 60.0625 41.71875 63.234375 
Q 38.140625 66.40625 31.78125 66.40625 
Q 25.390625 66.40625 21.84375 63.234375 
Q 18.3125 60.0625 18.3125 54.390625 
z
" id="DejaVuSans-56"/>
      <path d="M 44.28125 53.078125 
L 44.28125 44.578125 
Q 40.484375 46.53125 36.375 47.5 
Q 32.28125 48.484375 27.875 48.484375 
Q 21.1875 48.484375 17.84375 46.4375 
Q 14.5 44.390625 14.5 40.28125 
Q 14.5 37.15625 16.890625 35.375 
Q 19.28125 33.59375 26.515625 31.984375 
L 29.59375 31.296875 
Q 39.15625 29.25 43.1875 25.515625 
Q 47.21875 21.78125 47.21875 15.09375 
Q 47.21875 7.46875 41.1875 3.015625 
Q 35.15625 -1.421875 24.609375 -1.421875 
Q 20.21875 -1.421875 15.453125 -0.5625 
Q 10.6875 0.296875 5.421875 2 
L 5.421875 11.28125 
Q 10.40625 8.6875 15.234375 7.390625 
Q 20.0625 6.109375 24.8125 6.109375 
Q 31.15625 6.109375 34.5625 8.28125 
Q 37.984375 10.453125 37.984375 14.40625 
Q 37.984375 18.0625 35.515625 20.015625 
Q 33.0625 21.96875 24.703125 23.78125 
L 21.578125 24.515625 
Q 13.234375 26.265625 9.515625 29.90625 
Q 5.8125 33.546875 5.8125 39.890625 
Q 5.8125 47.609375 11.28125 51.796875 
Q 16.75 56 26.8125 56 
Q 31.78125 56 36.171875 55.265625 
Q 40.578125 54.546875 44.28125 53.078125 
z
" id="DejaVuSans-115"/>
      <path d="M 30.609375 48.390625 
Q 23.390625 48.390625 19.1875 42.75 
Q 14.984375 37.109375 14.984375 27.296875 
Q 14.984375 17.484375 19.15625 11.84375 
Q 23.34375 6.203125 30.609375 6.203125 
Q 37.796875 6.203125 41.984375 11.859375 
Q 46.1875 17.53125 46.1875 27.296875 
Q 46.1875 37.015625 41.984375 42.703125 
Q 37.796875 48.390625 30.609375 48.390625 
z
M 30.609375 56 
Q 42.328125 56 49.015625 48.375 
Q 55.71875 40.765625 55.71875 27.296875 
Q 55.71875 13.875 49.015625 6.21875 
Q 42.328125 -1.421875 30.609375 -1.421875 
Q 18.84375 -1.421875 12.171875 6.21875 
Q 5.515625 13.875 5.515625 27.296875 
Q 5.515625 40.765625 12.171875 48.375 
Q 18.84375 56 30.609375 56 
z
" id="DejaVuSans-111"/>
      <path d="M 8.5 21.578125 
L 8.5 54.6875 
L 17.484375 54.6875 
L 17.484375 21.921875 
Q 17.484375 14.15625 20.5 10.265625 
Q 23.53125 6.390625 29.59375 6.390625 
Q 36.859375 6.390625 41.078125 11.03125 
Q 45.3125 15.671875 45.3125 23.6875 
L 45.3125 54.6875 
L 54.296875 54.6875 
L 54.296875 0 
L 45.3125 0 
L 45.3125 8.40625 
Q 42.046875 3.421875 37.71875 1 
Q 33.40625 -1.421875 27.6875 -1.421875 
Q 18.265625 -1.421875 13.375 4.4375 
Q 8.5 10.296875 8.5 21.578125 
z
M 31.109375 56 
z
" id="DejaVuSans-117"/>
      <path d="M 48.78125 52.59375 
L 48.78125 44.1875 
Q 44.96875 46.296875 41.140625 47.34375 
Q 37.3125 48.390625 33.40625 48.390625 
Q 24.65625 48.390625 19.8125 42.84375 
Q 14.984375 37.3125 14.984375 27.296875 
Q 14.984375 17.28125 19.8125 11.734375 
Q 24.65625 6.203125 33.40625 6.203125 
Q 37.3125 6.203125 41.140625 7.25 
Q 44.96875 8.296875 48.78125 10.40625 
L 48.78125 2.09375 
Q 45.015625 0.34375 40.984375 -0.53125 
Q 36.96875 -1.421875 32.421875 -1.421875 
Q 20.0625 -1.421875 12.78125 6.34375 
Q 5.515625 14.109375 5.515625 27.296875 
Q 5.515625 40.671875 12.859375 48.328125 
Q 20.21875 56 33.015625 56 
Q 37.15625 56 41.109375 55.140625 
Q 45.0625 54.296875 48.78125 52.59375 
z
" id="DejaVuSans-99"/>
     </defs>
     <use xlink:href="#DejaVuSans-110"/>
     <use x="63.378906" xlink:href="#DejaVuSans-50"/>
     <use x="127.001953" xlink:href="#DejaVuSans-56"/>
     <use x="190.625" xlink:href="#DejaVuSans-32"/>
     <use x="222.412109" xlink:href="#DejaVuSans-45"/>
     <use x="258.496094" xlink:href="#DejaVuSans-32"/>
     <use x="290.283203" xlink:href="#DejaVuSans-115"/>
     <use x="342.382812" xlink:href="#DejaVuSans-111"/>
     <use x="403.564453" xlink:href="#DejaVuSans-117"/>
     <use x="466.943359" xlink:href="#DejaVuSans-114"/>
     <use x="505.806641" xlink:href="#DejaVuSans-99"/>
     <use x="560.787109" xlink:href="#DejaVuSans-101"/>
    </g>
   </g>
   <g id="text_12">
    <g id="patch_13">
     <path d="M 631.558692 501.810246 
L 687.619629 501.810246 
L 687.619629 484.132121 
L 631.558692 484.132121 
z
" style="fill:#ffffff;fill-opacity:0.35;stroke:#ffffff;stroke-linejoin:miter;stroke-opacity:0.35;"/>
    </g>
    <!-- n29 - gnd -->
    <g transform="translate(635.558692 495.730558)scale(0.1 -0.1)">
     <defs>
      <path d="M 10.984375 1.515625 
L 10.984375 10.5 
Q 14.703125 8.734375 18.5 7.8125 
Q 22.3125 6.890625 25.984375 6.890625 
Q 35.75 6.890625 40.890625 13.453125 
Q 46.046875 20.015625 46.78125 33.40625 
Q 43.953125 29.203125 39.59375 26.953125 
Q 35.25 24.703125 29.984375 24.703125 
Q 19.046875 24.703125 12.671875 31.3125 
Q 6.296875 37.9375 6.296875 49.421875 
Q 6.296875 60.640625 12.9375 67.421875 
Q 19.578125 74.21875 30.609375 74.21875 
Q 43.265625 74.21875 49.921875 64.515625 
Q 56.59375 54.828125 56.59375 36.375 
Q 56.59375 19.140625 48.40625 8.859375 
Q 40.234375 -1.421875 26.421875 -1.421875 
Q 22.703125 -1.421875 18.890625 -0.6875 
Q 15.09375 0.046875 10.984375 1.515625 
z
M 30.609375 32.421875 
Q 37.25 32.421875 41.125 36.953125 
Q 45.015625 41.5 45.015625 49.421875 
Q 45.015625 57.28125 41.125 61.84375 
Q 37.25 66.40625 30.609375 66.40625 
Q 23.96875 66.40625 20.09375 61.84375 
Q 16.21875 57.28125 16.21875 49.421875 
Q 16.21875 41.5 20.09375 36.953125 
Q 23.96875 32.421875 30.609375 32.421875 
z
" id="DejaVuSans-57"/>
     </defs>
     <use xlink:href="#DejaVuSans-110"/>
     <use x="63.378906" xlink:href="#DejaVuSans-50"/>
     <use x="127.001953" xlink:href="#DejaVuSans-57"/>
     <use x="190.625" xlink:href="#DejaVuSans-32"/>
     <use x="222.412109" xlink:href="#DejaVuSans-45"/>
     <use x="258.496094" xlink:href="#DejaVuSans-32"/>
     <use x="290.283203" xlink:href="#DejaVuSans-103"/>
     <use x="353.759766" xlink:href="#DejaVuSans-110"/>
     <use x="417.138672" xlink:href="#DejaVuSans-100"/>
    </g>
   </g>
   <g id="text_13">
    <g id="patch_14">
     <path d="M 692.777081 631.725404 
L 748.838019 631.725404 
L 748.838019 614.047279 
L 692.777081 614.047279 
z
" style="fill:#ffffff;fill-opacity:0.35;stroke:#ffffff;stroke-linejoin:miter;stroke-opacity:0.35;"/>
    </g>
    <!-- n25 - gnd -->
    <g transform="translate(696.777081 625.645716)scale(0.1 -0.1)">
     <defs>
      <path d="M 10.796875 72.90625 
L 49.515625 72.90625 
L 49.515625 64.59375 
L 19.828125 64.59375 
L 19.828125 46.734375 
Q 21.96875 47.46875 24.109375 47.828125 
Q 26.265625 48.1875 28.421875 48.1875 
Q 40.625 48.1875 47.75 41.5 
Q 54.890625 34.8125 54.890625 23.390625 
Q 54.890625 11.625 47.5625 5.09375 
Q 40.234375 -1.421875 26.90625 -1.421875 
Q 22.3125 -1.421875 17.546875 -0.640625 
Q 12.796875 0.140625 7.71875 1.703125 
L 7.71875 11.625 
Q 12.109375 9.234375 16.796875 8.0625 
Q 21.484375 6.890625 26.703125 6.890625 
Q 35.15625 6.890625 40.078125 11.328125 
Q 45.015625 15.765625 45.015625 23.390625 
Q 45.015625 31 40.078125 35.4375 
Q 35.15625 39.890625 26.703125 39.890625 
Q 22.75 39.890625 18.8125 39.015625 
Q 14.890625 38.140625 10.796875 36.28125 
z
" id="DejaVuSans-53"/>
     </defs>
     <use xlink:href="#DejaVuSans-110"/>
     <use x="63.378906" xlink:href="#DejaVuSans-50"/>
     <use x="127.001953" xlink:href="#DejaVuSans-53"/>
     <use x="190.625" xlink:href="#DejaVuSans-32"/>
     <use x="222.412109" xlink:href="#DejaVuSans-45"/>
     <use x="258.496094" xlink:href="#DejaVuSans-32"/>
     <use x="290.283203" xlink:href="#DejaVuSans-103"/>
     <use x="353.759766" xlink:href="#DejaVuSans-110"/>
     <use x="417.138672" xlink:href="#DejaVuSans-100"/>
    </g>
   </g>
   <g id="text_14">
    <g id="patch_15">
     <path d="M 768.666899 501.88609 
L 824.727836 501.88609 
L 824.727836 484.207965 
L 768.666899 484.207965 
z
" style="fill:#ffffff;fill-opacity:0.35;stroke:#ffffff;stroke-linejoin:miter;stroke-opacity:0.35;"/>
    </g>
    <!-- n34 - gnd -->
    <g transform="translate(772.666899 495.806402)scale(0.1 -0.1)">
     <use xlink:href="#DejaVuSans-110"/>
     <use x="63.378906" xlink:href="#DejaVuSans-51"/>
     <use x="127.001953" xlink:href="#DejaVuSans-52"/>
     <use x="190.625" xlink:href="#DejaVuSans-32"/>
     <use x="222.412109" xlink:href="#DejaVuSans-45"/>
     <use x="258.496094" xlink:href="#DejaVuSans-32"/>
     <use x="290.283203" xlink:href="#DejaVuSans-103"/>
     <use x="353.759766" xlink:href="#DejaVuSans-110"/>
     <use x="417.138672" xlink:href="#DejaVuSans-100"/>
    </g>
   </g>
   <g id="text_15">
    <g id="patch_16">
     <path d="M 313.565347 571.244238 
L 383.795035 571.244238 
L 383.795035 553.566113 
L 313.565347 553.566113 
z
" style="fill:#ffffff;fill-opacity:0.35;stroke:#ffffff;stroke-linejoin:miter;stroke-opacity:0.35;"/>
    </g>
    <!-- n24 - source -->
    <g transform="translate(317.565347 565.164551)scale(0.1 -0.1)">
     <use xlink:href="#DejaVuSans-110"/>
     <use x="63.378906" xlink:href="#DejaVuSans-50"/>
     <use x="127.001953" xlink:href="#DejaVuSans-52"/>
     <use x="190.625" xlink:href="#DejaVuSans-32"/>
     <use x="222.412109" xlink:href="#DejaVuSans-45"/>
     <use x="258.496094" xlink:href="#DejaVuSans-32"/>
     <use x="290.283203" xlink:href="#DejaVuSans-115"/>
     <use x="342.382812" xlink:href="#DejaVuSans-111"/>
     <use x="403.564453" xlink:href="#DejaVuSans-117"/>
     <use x="466.943359" xlink:href="#DejaVuSans-114"/>
     <use x="505.806641" xlink:href="#DejaVuSans-99"/>
     <use x="560.787109" xlink:href="#DejaVuSans-101"/>
    </g>
   </g>
   <g id="text_16">
    <g id="patch_17">
     <path d="M 686.03017 391.051738 
L 745.606732 391.051738 
L 745.606732 373.373613 
L 686.03017 373.373613 
z
" style="fill:#ffffff;fill-opacity:0.35;stroke:#ffffff;stroke-linejoin:miter;stroke-opacity:0.35;"/>
    </g>
    <!-- n22 - gate -->
    <g transform="translate(690.03017 384.972051)scale(0.1 -0.1)">
     <use xlink:href="#DejaVuSans-110"/>
     <use x="63.378906" xlink:href="#DejaVuSans-50"/>
     <use x="127.001953" xlink:href="#DejaVuSans-50"/>
     <use x="190.625" xlink:href="#DejaVuSans-32"/>
     <use x="222.412109" xlink:href="#DejaVuSans-45"/>
     <use x="258.496094" xlink:href="#DejaVuSans-32"/>
     <use x="290.283203" xlink:href="#DejaVuSans-103"/>
     <use x="353.759766" xlink:href="#DejaVuSans-97"/>
     <use x="415.039062" xlink:href="#DejaVuSans-116"/>
     <use x="454.248047" xlink:href="#DejaVuSans-101"/>
    </g>
   </g>
   <g id="text_17">
    <g id="patch_18">
     <path d="M 446.203444 183.894517 
L 489.578444 183.894517 
L 489.578444 166.216392 
L 446.203444 166.216392 
z
" style="fill:#ffffff;fill-opacity:0.35;stroke:#ffffff;stroke-linejoin:miter;stroke-opacity:0.35;"/>
    </g>
    <!-- n31 - b -->
    <g transform="translate(450.203444 177.814829)scale(0.1 -0.1)">
     <defs>
      <path d="M 48.6875 27.296875 
Q 48.6875 37.203125 44.609375 42.84375 
Q 40.53125 48.484375 33.40625 48.484375 
Q 26.265625 48.484375 22.1875 42.84375 
Q 18.109375 37.203125 18.109375 27.296875 
Q 18.109375 17.390625 22.1875 11.75 
Q 26.265625 6.109375 33.40625 6.109375 
Q 40.53125 6.109375 44.609375 11.75 
Q 48.6875 17.390625 48.6875 27.296875 
z
M 18.109375 46.390625 
Q 20.953125 51.265625 25.265625 53.625 
Q 29.59375 56 35.59375 56 
Q 45.5625 56 51.78125 48.09375 
Q 58.015625 40.1875 58.015625 27.296875 
Q 58.015625 14.40625 51.78125 6.484375 
Q 45.5625 -1.421875 35.59375 -1.421875 
Q 29.59375 -1.421875 25.265625 0.953125 
Q 20.953125 3.328125 18.109375 8.203125 
L 18.109375 0 
L 9.078125 0 
L 9.078125 75.984375 
L 18.109375 75.984375 
z
" id="DejaVuSans-98"/>
     </defs>
     <use xlink:href="#DejaVuSans-110"/>
     <use x="63.378906" xlink:href="#DejaVuSans-51"/>
     <use x="127.001953" xlink:href="#DejaVuSans-49"/>
     <use x="190.625" xlink:href="#DejaVuSans-32"/>
     <use x="222.412109" xlink:href="#DejaVuSans-45"/>
     <use x="258.496094" xlink:href="#DejaVuSans-32"/>
     <use x="290.283203" xlink:href="#DejaVuSans-98"/>
    </g>
   </g>
   <g id="text_18">
    <g id="patch_19">
     <path d="M 517.545315 779.143608 
L 571.487503 779.143608 
L 571.487503 761.465483 
L 517.545315 761.465483 
z
" style="fill:#ffffff;fill-opacity:0.35;stroke:#ffffff;stroke-linejoin:miter;stroke-opacity:0.35;"/>
    </g>
    <!-- n33 - vcc -->
    <g transform="translate(521.545315 773.063921)scale(0.1 -0.1)">
     <defs>
      <path d="M 2.984375 54.6875 
L 12.5 54.6875 
L 29.59375 8.796875 
L 46.6875 54.6875 
L 56.203125 54.6875 
L 35.6875 0 
L 23.484375 0 
z
" id="DejaVuSans-118"/>
     </defs>
     <use xlink:href="#DejaVuSans-110"/>
     <use x="63.378906" xlink:href="#DejaVuSans-51"/>
     <use x="127.001953" xlink:href="#DejaVuSans-51"/>
     <use x="190.625" xlink:href="#DejaVuSans-32"/>
     <use x="222.412109" xlink:href="#DejaVuSans-45"/>
     <use x="258.496094" xlink:href="#DejaVuSans-32"/>
     <use x="290.283203" xlink:href="#DejaVuSans-118"/>
     <use x="349.462891" xlink:href="#DejaVuSans-99"/>
     <use x="404.443359" xlink:href="#DejaVuSans-99"/>
    </g>
   </g>
   <g id="text_19">
    <g id="patch_20">
     <path d="M 207.720828 398.519779 
L 261.123953 398.519779 
L 261.123953 380.841654 
L 207.720828 380.841654 
z
" style="fill:#ffffff;fill-opacity:0.35;stroke:#ffffff;stroke-linejoin:miter;stroke-opacity:0.35;"/>
    </g>
    <!-- n32 - out -->
    <g transform="translate(211.720828 392.440092)scale(0.1 -0.1)">
     <use xlink:href="#DejaVuSans-110"/>
     <use x="63.378906" xlink:href="#DejaVuSans-51"/>
     <use x="127.001953" xlink:href="#DejaVuSans-50"/>
     <use x="190.625" xlink:href="#DejaVuSans-32"/>
     <use x="222.412109" xlink:href="#DejaVuSans-45"/>
     <use x="258.496094" xlink:href="#DejaVuSans-32"/>
     <use x="290.283203" xlink:href="#DejaVuSans-111"/>
     <use x="351.464844" xlink:href="#DejaVuSans-117"/>
     <use x="414.84375" xlink:href="#DejaVuSans-116"/>
    </g>
   </g>
   <g id="text_20">
    <g id="patch_21">
     <path d="M 459.845313 718.317127 
L 522.575001 718.317127 
L 522.575001 700.639002 
L 459.845313 700.639002 
z
" style="fill:#ffffff;fill-opacity:0.35;stroke:#ffffff;stroke-linejoin:miter;stroke-opacity:0.35;"/>
    </g>
    <!-- n23 - drain -->
    <g transform="translate(463.845313 712.23744)scale(0.1 -0.1)">
     <use xlink:href="#DejaVuSans-110"/>
     <use x="63.378906" xlink:href="#DejaVuSans-50"/>
     <use x="127.001953" xlink:href="#DejaVuSans-51"/>
     <use x="190.625" xlink:href="#DejaVuSans-32"/>
     <use x="222.412109" xlink:href="#DejaVuSans-45"/>
     <use x="258.496094" xlink:href="#DejaVuSans-32"/>
     <use x="290.283203" xlink:href="#DejaVuSans-100"/>
     <use x="353.759766" xlink:href="#DejaVuSans-114"/>
     <use x="394.873047" xlink:href="#DejaVuSans-97"/>
     <use x="456.152344" xlink:href="#DejaVuSans-105"/>
     <use x="483.935547" xlink:href="#DejaVuSans-110"/>
    </g>
   </g>
   <g id="text_21">
    <g id="patch_22">
     <path d="M 677.099747 258.233407 
L 720.254435 258.233407 
L 720.254435 240.555282 
L 677.099747 240.555282 
z
" style="fill:#ffffff;fill-opacity:0.35;stroke:#ffffff;stroke-linejoin:miter;stroke-opacity:0.35;"/>
    </g>
    <!-- n30 - a -->
    <g transform="translate(681.099747 252.153719)scale(0.1 -0.1)">
     <use xlink:href="#DejaVuSans-110"/>
     <use x="63.378906" xlink:href="#DejaVuSans-51"/>
     <use x="127.001953" xlink:href="#DejaVuSans-48"/>
     <use x="190.625" xlink:href="#DejaVuSans-32"/>
     <use x="222.412109" xlink:href="#DejaVuSans-45"/>
     <use x="258.496094" xlink:href="#DejaVuSans-32"/>
     <use x="290.283203" xlink:href="#DejaVuSans-97"/>
    </g>
   </g>
  </g>
 </g>
 <defs>
  <clipPath id="paabe56ef97">
   <rect height="720.72" width="725.4" x="117" y="112.32"/>
  </clipPath>
 </defs>
</svg>
