<?xml version="1.0" encoding="utf-8" standalone="no"?>
<!DOCTYPE svg PUBLIC "-//W3C//DTD SVG 1.1//EN"
  "http://www.w3.org/Graphics/SVG/1.1/DTD/svg11.dtd">
<!-- Created with matplotlib (https://matplotlib.org/) -->
<svg height="936pt" version="1.1" viewBox="0 0 936 936" width="936pt" xmlns="http://www.w3.org/2000/svg" xmlns:xlink="http://www.w3.org/1999/xlink">
 <metadata>
  <rdf:RDF xmlns:cc="http://creativecommons.org/ns#" xmlns:dc="http://purl.org/dc/elements/1.1/" xmlns:rdf="http://www.w3.org/1999/02/22-rdf-syntax-ns#">
   <cc:Work>
    <dc:type rdf:resource="http://purl.org/dc/dcmitype/StillImage"/>
    <dc:date>2021-02-13T13:05:37.888759</dc:date>
    <dc:format>image/svg+xml</dc:format>
    <dc:creator>
     <cc:Agent>
      <dc:title>Matplotlib v3.3.4, https://matplotlib.org/</dc:title>
     </cc:Agent>
    </dc:creator>
   </cc:Work>
  </rdf:RDF>
 </metadata>
 <defs>
  <style type="text/css">*{stroke-linecap:butt;stroke-linejoin:round;}</style>
 </defs>
 <g id="figure_1">
  <g id="patch_1">
   <path d="M 0 936 
L 936 936 
L 936 0 
L 0 0 
z
" style="fill:#ffffff;"/>
  </g>
  <g id="axes_1">
   <g id="PolyCollection_1">
    <path clip-path="url(#pa273a45deb)" d="M 780.507105 402.697518 
L 784.332006 302.0788 
L 783.292036 294.179446 
L 780.243 286.818421 
L 775.392683 280.497365 
L 769.071627 275.647048 
L 761.710601 272.598011 
L 418.572268 146.11997 
L 410.672915 145.08 
L 402.773561 146.11997 
L 395.412535 149.169006 
L 389.091479 154.019323 
L 184.007317 318.983656 
L 179.157 325.304712 
L 176.107964 332.665737 
L 175.067994 340.565091 
L 183.469345 467.781387 
L 184.769307 477.655579 
L 188.580602 486.856861 
L 295.653538 691.291394 
L 301.716434 699.192714 
L 416.647721 791.340677 
L 422.968777 796.190994 
L 430.329803 799.24003 
L 438.229156 800.28 
L 446.12851 799.24003 
L 735.09865 687.109144 
L 742.459676 684.060107 
L 748.780732 679.20979 
L 753.631049 672.888734 
L 756.680085 665.527708 
L 757.720055 657.628355 
z
" style="fill:none;stroke:#1f77b4;"/>
    <path clip-path="url(#pa273a45deb)" d="M 221.620292 490.671956 
L 304.157317 495.236115 
L 310.081833 494.456138 
L 315.602602 492.16936 
L 320.343394 488.531623 
L 323.981131 483.790831 
L 326.267909 478.270062 
L 327.047886 472.345546 
L 326.267909 466.421031 
L 323.981131 460.900262 
L 225.412566 329.119806 
L 221.774829 324.379014 
L 217.034037 320.741277 
L 211.513268 318.454499 
L 205.588752 317.674522 
L 199.664237 318.454499 
L 194.143468 320.741277 
L 189.402676 324.379014 
L 185.764938 329.119806 
L 183.478161 334.640576 
L 182.698184 340.565091 
L 198.729724 467.781387 
L 199.509701 473.705902 
L 201.796478 479.226672 
L 205.434216 483.967464 
L 210.175008 487.605201 
L 215.695777 489.891979 
z
" style="fill:none;stroke:#ff7f0e;"/>
    <path clip-path="url(#pa273a45deb)" d="M 200.038857 446.199952 
L 195.18854 452.521008 
L 192.139504 459.882034 
L 191.099534 467.781387 
L 192.139504 475.680741 
L 195.18854 483.041766 
L 308.869414 683.661205 
L 312.507152 688.401997 
L 317.247944 692.039734 
L 322.768713 694.326512 
L 328.693228 695.106489 
L 334.617743 694.326512 
L 628.973786 649.988149 
L 634.494555 647.701371 
L 639.235347 644.063633 
L 642.873085 639.322841 
L 645.159862 633.802072 
L 645.939839 627.877557 
L 645.159862 621.953042 
L 642.873085 616.432273 
L 439.514894 270.86335 
L 435.877157 266.122558 
L 431.136365 262.484821 
L 425.615595 260.198043 
L 419.69108 259.418066 
L 413.766565 260.198043 
L 408.245796 262.484821 
L 403.505004 266.122558 
z
" style="fill:none;stroke:#2ca02c;"/>
    <path clip-path="url(#pa273a45deb)" d="M 615.149917 657.358346 
L 721.274782 679.738946 
L 727.199297 680.518924 
L 733.123812 679.738946 
L 738.644581 677.452169 
L 743.385373 673.814431 
L 747.023111 669.073639 
L 749.309888 663.55287 
L 750.089865 657.628355 
L 749.309888 651.70384 
L 747.023111 646.183071 
L 743.385373 641.442279 
L 738.644581 637.804541 
L 733.123812 635.517763 
L 630.948624 598.396768 
L 623.049271 597.356799 
L 615.149917 598.396768 
L 607.788892 601.445805 
L 601.467836 606.296122 
L 596.617519 612.617178 
L 593.568482 619.978204 
L 592.528513 627.877557 
L 593.568482 635.776911 
L 596.617519 643.137936 
L 601.467836 649.458992 
L 607.788892 654.309309 
z
" style="fill:none;stroke:#d62728;"/>
    <path clip-path="url(#pa273a45deb)" d="M 730.920679 302.0788 
L 719.465588 402.697518 
L 720.245565 408.622033 
L 722.532343 414.142802 
L 726.170081 418.883594 
L 730.910873 422.521332 
L 736.431642 424.808109 
L 742.356157 425.588087 
L 748.280672 424.808109 
L 753.801441 422.521332 
L 758.542233 418.883594 
L 762.179971 414.142802 
L 764.466748 408.622033 
L 765.246726 402.697518 
L 776.701816 302.0788 
L 775.921839 296.154285 
L 773.635062 290.633515 
L 769.997324 285.892723 
L 765.256532 282.254986 
L 759.735763 279.968208 
L 753.811248 279.188231 
L 747.886732 279.968208 
L 742.365963 282.254986 
L 737.625171 285.892723 
L 733.987434 290.633515 
L 731.700656 296.154285 
z
" style="fill:none;stroke:#9467bd;"/>
    <path clip-path="url(#pa273a45deb)" d="M 298.17247 672.21592 
L 299.212439 680.115274 
L 302.261476 687.476299 
L 307.111793 693.797355 
L 422.04308 785.945318 
L 426.783872 789.583056 
L 432.304641 791.869833 
L 438.229156 792.64981 
L 444.153672 791.869833 
L 449.674441 789.583056 
L 454.415233 785.945318 
L 458.05297 781.204526 
L 460.339748 775.683757 
L 497.280442 671.447804 
L 498.06042 665.523289 
L 497.280442 659.598774 
L 494.993665 654.078005 
L 491.355927 649.337213 
L 486.615135 645.699475 
L 481.094366 643.412698 
L 475.169851 642.632721 
L 328.693228 641.695162 
L 320.793874 642.735132 
L 313.432849 645.784168 
L 307.111793 650.634485 
L 302.261476 656.955541 
L 299.212439 664.316567 
z
" style="fill:none;stroke:#8c564b;"/>
    <path clip-path="url(#pa273a45deb)" d="M 387.782346 175.600758 
L 389.170322 282.308635 
L 390.210292 290.207988 
L 393.259328 297.569014 
L 398.109645 303.89007 
L 404.430701 308.740387 
L 411.791727 311.789423 
L 419.69108 312.829393 
L 427.590434 311.789423 
L 564.221617 271.550745 
L 569.742387 269.263968 
L 574.483179 265.62623 
L 578.120916 260.885438 
L 580.407694 255.364669 
L 581.187671 249.440154 
L 580.407694 243.515639 
L 578.120916 237.99487 
L 574.483179 233.254078 
L 569.742387 229.61634 
L 422.118199 155.776944 
L 416.59743 153.490167 
L 410.672915 152.71019 
L 404.748399 153.490167 
L 399.22763 155.776944 
L 394.486838 159.414682 
L 390.849101 164.155474 
L 388.562323 169.676243 
z
" style="fill:none;stroke:#e377c2;"/>
    <path clip-path="url(#pa273a45deb)" d="M 282.575882 493.926982 
L 453.588416 687.104724 
L 459.909472 691.955041 
L 467.270497 695.004078 
L 475.169851 696.044048 
L 483.069204 695.004078 
L 490.43023 691.955041 
L 496.751286 687.104724 
L 763.937592 424.278953 
L 768.787909 417.957897 
L 771.836946 410.596871 
L 772.876915 402.697518 
L 771.836946 394.798164 
L 768.787909 387.437139 
L 763.937592 381.116083 
L 579.878537 227.858719 
L 573.557481 223.008402 
L 566.196456 219.959365 
L 558.297102 218.919396 
L 550.397749 219.959365 
L 543.036723 223.008402 
L 536.715667 227.858719 
L 282.575882 450.764111 
L 277.725565 457.085167 
L 274.676529 464.446193 
L 273.636559 472.345546 
L 274.676529 480.2449 
L 277.725565 487.605926 
z
" style="fill:none;stroke:#7f7f7f;"/>
   </g>
   <g id="PolyCollection_2">
    <path clip-path="url(#pa273a45deb)" d="M 482.80004 665.523289 
L 482.540048 663.548451 
L 481.777789 661.708195 
L 480.56521 660.127931 
L 478.984946 658.915351 
L 477.144689 658.153092 
L 475.169851 657.8931 
L 473.195013 658.153092 
L 471.354756 658.915351 
L 469.774492 660.127931 
L 468.561913 661.708195 
L 467.799654 663.548451 
L 467.539661 665.523289 
L 467.799654 667.498128 
L 468.561913 669.338384 
L 469.774492 670.918648 
L 471.354756 672.131227 
L 473.195013 672.893486 
L 475.169851 673.153479 
L 477.144689 672.893486 
L 478.984946 672.131227 
L 480.56521 670.918648 
L 481.777789 669.338384 
L 482.540048 667.498128 
z
"/>
    <path clip-path="url(#pa273a45deb)" d="M 445.859346 769.759242 
L 445.599354 767.784403 
L 444.837094 765.944147 
L 443.624515 764.363883 
L 442.044251 763.151304 
L 440.203995 762.389045 
L 438.229156 762.129052 
L 436.254318 762.389045 
L 434.414062 763.151304 
L 432.833798 764.363883 
L 431.621218 765.944147 
L 430.858959 767.784403 
L 430.598967 769.759242 
L 430.858959 771.73408 
L 431.621218 773.574337 
L 432.833798 775.154601 
L 434.414062 776.36718 
L 436.254318 777.129439 
L 438.229156 777.389431 
L 440.203995 777.129439 
L 442.044251 776.36718 
L 443.624515 775.154601 
L 444.837094 773.574337 
L 445.599354 771.73408 
z
"/>
    <path clip-path="url(#pa273a45deb)" d="M 734.829486 657.628355 
L 734.569494 655.653517 
L 733.807235 653.81326 
L 732.594655 652.232996 
L 731.014391 651.020417 
L 729.174135 650.258158 
L 727.199297 649.998165 
L 725.224458 650.258158 
L 723.384202 651.020417 
L 721.803938 652.232996 
L 720.591359 653.81326 
L 719.8291 655.653517 
L 719.569107 657.628355 
L 719.8291 659.603193 
L 720.591359 661.44345 
L 721.803938 663.023714 
L 723.384202 664.236293 
L 725.224458 664.998552 
L 727.199297 665.258544 
L 729.174135 664.998552 
L 731.014391 664.236293 
L 732.594655 663.023714 
L 733.807235 661.44345 
L 734.569494 659.603193 
z
"/>
    <path clip-path="url(#pa273a45deb)" d="M 418.303104 175.600758 
L 418.043112 173.62592 
L 417.280853 171.785663 
L 416.068273 170.205399 
L 414.488009 168.99282 
L 412.647753 168.230561 
L 410.672915 167.970569 
L 408.698076 168.230561 
L 406.85782 168.99282 
L 405.277556 170.205399 
L 404.064977 171.785663 
L 403.302717 173.62592 
L 403.042725 175.600758 
L 403.302717 177.575597 
L 404.064977 179.415853 
L 405.277556 180.996117 
L 406.85782 182.208696 
L 408.698076 182.970955 
L 410.672915 183.230948 
L 412.647753 182.970955 
L 414.488009 182.208696 
L 416.068273 180.996117 
L 417.280853 179.415853 
L 418.043112 177.575597 
z
"/>
    <path clip-path="url(#pa273a45deb)" d="M 213.218942 340.565091 
L 212.95895 338.590252 
L 212.19669 336.749996 
L 210.984111 335.169732 
L 209.403847 333.957153 
L 207.563591 333.194894 
L 205.588752 332.934901 
L 203.613914 333.194894 
L 201.773658 333.957153 
L 200.193394 335.169732 
L 198.980814 336.749996 
L 198.218555 338.590252 
L 197.958563 340.565091 
L 198.218555 342.539929 
L 198.980814 344.380185 
L 200.193394 345.960449 
L 201.773658 347.173029 
L 203.613914 347.935288 
L 205.588752 348.19528 
L 207.563591 347.935288 
L 209.403847 347.173029 
L 210.984111 345.960449 
L 212.19669 344.380185 
L 212.95895 342.539929 
z
"/>
    <path clip-path="url(#pa273a45deb)" d="M 565.927292 249.440154 
L 565.667299 247.465316 
L 564.90504 245.625059 
L 563.692461 244.044795 
L 562.112197 242.832216 
L 560.271941 242.069957 
L 558.297102 241.809964 
L 556.322264 242.069957 
L 554.482008 242.832216 
L 552.901744 244.044795 
L 551.689164 245.625059 
L 550.926905 247.465316 
L 550.666913 249.440154 
L 550.926905 251.414992 
L 551.689164 253.255249 
L 552.901744 254.835513 
L 554.482008 256.048092 
L 556.322264 256.810351 
L 558.297102 257.070343 
L 560.271941 256.810351 
L 562.112197 256.048092 
L 563.692461 254.835513 
L 564.90504 253.255249 
L 565.667299 251.414992 
z
"/>
    <path clip-path="url(#pa273a45deb)" d="M 311.787507 472.345546 
L 311.527515 470.370708 
L 310.765255 468.530452 
L 309.552676 466.950188 
L 307.972412 465.737608 
L 306.132156 464.975349 
L 304.157317 464.715357 
L 302.182479 464.975349 
L 300.342223 465.737608 
L 298.761959 466.950188 
L 297.549379 468.530452 
L 296.78712 470.370708 
L 296.527128 472.345546 
L 296.78712 474.320385 
L 297.549379 476.160641 
L 298.761959 477.740905 
L 300.342223 478.953484 
L 302.182479 479.715744 
L 304.157317 479.975736 
L 306.132156 479.715744 
L 307.972412 478.953484 
L 309.552676 477.740905 
L 310.765255 476.160641 
L 311.527515 474.320385 
z
"/>
    <path clip-path="url(#pa273a45deb)" d="M 229.250482 467.781387 
L 228.990489 465.806549 
L 228.22823 463.966292 
L 227.015651 462.386028 
L 225.435387 461.173449 
L 223.595131 460.41119 
L 221.620292 460.151198 
L 219.645454 460.41119 
L 217.805198 461.173449 
L 216.224934 462.386028 
L 215.012354 463.966292 
L 214.250095 465.806549 
L 213.990103 467.781387 
L 214.250095 469.756226 
L 215.012354 471.596482 
L 216.224934 473.176746 
L 217.805198 474.389325 
L 219.645454 475.151584 
L 221.620292 475.411577 
L 223.595131 475.151584 
L 225.435387 474.389325 
L 227.015651 473.176746 
L 228.22823 471.596482 
L 228.990489 469.756226 
z
"/>
    <path clip-path="url(#pa273a45deb)" d="M 749.986347 402.697518 
L 749.726354 400.72268 
L 748.964095 398.882423 
L 747.751516 397.302159 
L 746.171252 396.08958 
L 744.330995 395.327321 
L 742.356157 395.067328 
L 740.381319 395.327321 
L 738.541062 396.08958 
L 736.960798 397.302159 
L 735.748219 398.882423 
L 734.98596 400.72268 
L 734.725967 402.697518 
L 734.98596 404.672356 
L 735.748219 406.512613 
L 736.960798 408.092877 
L 738.541062 409.305456 
L 740.381319 410.067715 
L 742.356157 410.327707 
L 744.330995 410.067715 
L 746.171252 409.305456 
L 747.751516 408.092877 
L 748.964095 406.512613 
L 749.726354 404.672356 
z
"/>
    <path clip-path="url(#pa273a45deb)" d="M 336.323417 672.21592 
L 336.063425 670.241082 
L 335.301166 668.400826 
L 334.088587 666.820562 
L 332.508323 665.607982 
L 330.668066 664.845723 
L 328.693228 664.585731 
L 326.71839 664.845723 
L 324.878133 665.607982 
L 323.297869 666.820562 
L 322.08529 668.400826 
L 321.323031 670.241082 
L 321.063038 672.21592 
L 321.323031 674.190759 
L 322.08529 676.031015 
L 323.297869 677.611279 
L 324.878133 678.823858 
L 326.71839 679.586118 
L 328.693228 679.84611 
L 330.668066 679.586118 
L 332.508323 678.823858 
L 334.088587 677.611279 
L 335.301166 676.031015 
L 336.063425 674.190759 
z
"/>
    <path clip-path="url(#pa273a45deb)" d="M 761.441437 302.0788 
L 761.181445 300.103961 
L 760.419186 298.263705 
L 759.206606 296.683441 
L 757.626342 295.470862 
L 755.786086 294.708602 
L 753.811248 294.44861 
L 751.836409 294.708602 
L 749.996153 295.470862 
L 748.415889 296.683441 
L 747.20331 298.263705 
L 746.44105 300.103961 
L 746.181058 302.0788 
L 746.44105 304.053638 
L 747.20331 305.893894 
L 748.415889 307.474158 
L 749.996153 308.686738 
L 751.836409 309.448997 
L 753.811248 309.708989 
L 755.786086 309.448997 
L 757.626342 308.686738 
L 759.206606 307.474158 
L 760.419186 305.893894 
L 761.181445 304.053638 
z
"/>
    <path clip-path="url(#pa273a45deb)" d="M 630.67946 627.877557 
L 630.419468 625.902719 
L 629.657209 624.062462 
L 628.44463 622.482198 
L 626.864366 621.269619 
L 625.024109 620.50736 
L 623.049271 620.247368 
L 621.074432 620.50736 
L 619.234176 621.269619 
L 617.653912 622.482198 
L 616.441333 624.062462 
L 615.679074 625.902719 
L 615.419081 627.877557 
L 615.679074 629.852395 
L 616.441333 631.692652 
L 617.653912 633.272916 
L 619.234176 634.485495 
L 621.074432 635.247754 
L 623.049271 635.507747 
L 625.024109 635.247754 
L 626.864366 634.485495 
L 628.44463 633.272916 
L 629.657209 631.692652 
L 630.419468 629.852395 
z
"/>
    <path clip-path="url(#pa273a45deb)" d="M 427.32127 282.308635 
L 427.061278 280.333796 
L 426.299018 278.49354 
L 425.086439 276.913276 
L 423.506175 275.700697 
L 421.665919 274.938437 
L 419.69108 274.678445 
L 417.716242 274.938437 
L 415.875986 275.700697 
L 414.295722 276.913276 
L 413.083142 278.49354 
L 412.320883 280.333796 
L 412.060891 282.308635 
L 412.320883 284.283473 
L 413.083142 286.123729 
L 414.295722 287.703993 
L 415.875986 288.916573 
L 417.716242 289.678832 
L 419.69108 289.938824 
L 421.665919 289.678832 
L 423.506175 288.916573 
L 425.086439 287.703993 
L 426.299018 286.123729 
L 427.061278 284.283473 
z
"/>
   </g>
   <g id="text_1">
    <g id="patch_2">
     <path d="M 555.958868 206.179954 
L 618.210082 229.125253 
L 624.324001 212.538026 
L 562.072787 189.592727 
z
" style="fill:#ffffff;fill-opacity:0.35;stroke:#ffffff;stroke-linejoin:miter;stroke-opacity:0.35;"/>
    </g>
    <!-- NAND - e14 -->
    <g style="fill:#1f77b4;" transform="translate(561.814671 201.858824)rotate(-339.766517)scale(0.1 -0.1)">
     <defs>
      <path d="M 9.8125 72.90625 
L 23.09375 72.90625 
L 55.421875 11.921875 
L 55.421875 72.90625 
L 64.984375 72.90625 
L 64.984375 0 
L 51.703125 0 
L 19.390625 60.984375 
L 19.390625 0 
L 9.8125 0 
z
" id="DejaVuSans-78"/>
      <path d="M 34.1875 63.1875 
L 20.796875 26.90625 
L 47.609375 26.90625 
z
M 28.609375 72.90625 
L 39.796875 72.90625 
L 67.578125 0 
L 57.328125 0 
L 50.6875 18.703125 
L 17.828125 18.703125 
L 11.1875 0 
L 0.78125 0 
z
" id="DejaVuSans-65"/>
      <path d="M 19.671875 64.796875 
L 19.671875 8.109375 
L 31.59375 8.109375 
Q 46.6875 8.109375 53.6875 14.9375 
Q 60.6875 21.78125 60.6875 36.53125 
Q 60.6875 51.171875 53.6875 57.984375 
Q 46.6875 64.796875 31.59375 64.796875 
z
M 9.8125 72.90625 
L 30.078125 72.90625 
Q 51.265625 72.90625 61.171875 64.09375 
Q 71.09375 55.28125 71.09375 36.53125 
Q 71.09375 17.671875 61.125 8.828125 
Q 51.171875 0 30.078125 0 
L 9.8125 0 
z
" id="DejaVuSans-68"/>
      <path id="DejaVuSans-32"/>
      <path d="M 4.890625 31.390625 
L 31.203125 31.390625 
L 31.203125 23.390625 
L 4.890625 23.390625 
z
" id="DejaVuSans-45"/>
      <path d="M 56.203125 29.59375 
L 56.203125 25.203125 
L 14.890625 25.203125 
Q 15.484375 15.921875 20.484375 11.0625 
Q 25.484375 6.203125 34.421875 6.203125 
Q 39.59375 6.203125 44.453125 7.46875 
Q 49.3125 8.734375 54.109375 11.28125 
L 54.109375 2.78125 
Q 49.265625 0.734375 44.1875 -0.34375 
Q 39.109375 -1.421875 33.890625 -1.421875 
Q 20.796875 -1.421875 13.15625 6.1875 
Q 5.515625 13.8125 5.515625 26.8125 
Q 5.515625 40.234375 12.765625 48.109375 
Q 20.015625 56 32.328125 56 
Q 43.359375 56 49.78125 48.890625 
Q 56.203125 41.796875 56.203125 29.59375 
z
M 47.21875 32.234375 
Q 47.125 39.59375 43.09375 43.984375 
Q 39.0625 48.390625 32.421875 48.390625 
Q 24.90625 48.390625 20.390625 44.140625 
Q 15.875 39.890625 15.1875 32.171875 
z
" id="DejaVuSans-101"/>
      <path d="M 12.40625 8.296875 
L 28.515625 8.296875 
L 28.515625 63.921875 
L 10.984375 60.40625 
L 10.984375 69.390625 
L 28.421875 72.90625 
L 38.28125 72.90625 
L 38.28125 8.296875 
L 54.390625 8.296875 
L 54.390625 0 
L 12.40625 0 
z
" id="DejaVuSans-49"/>
      <path d="M 37.796875 64.3125 
L 12.890625 25.390625 
L 37.796875 25.390625 
z
M 35.203125 72.90625 
L 47.609375 72.90625 
L 47.609375 25.390625 
L 58.015625 25.390625 
L 58.015625 17.1875 
L 47.609375 17.1875 
L 47.609375 0 
L 37.796875 0 
L 37.796875 17.1875 
L 4.890625 17.1875 
L 4.890625 26.703125 
z
" id="DejaVuSans-52"/>
     </defs>
     <use xlink:href="#DejaVuSans-78"/>
     <use x="74.804688" xlink:href="#DejaVuSans-65"/>
     <use x="143.212891" xlink:href="#DejaVuSans-78"/>
     <use x="218.017578" xlink:href="#DejaVuSans-68"/>
     <use x="295.019531" xlink:href="#DejaVuSans-32"/>
     <use x="326.806641" xlink:href="#DejaVuSans-45"/>
     <use x="362.890625" xlink:href="#DejaVuSans-32"/>
     <use x="394.677734" xlink:href="#DejaVuSans-101"/>
     <use x="456.201172" xlink:href="#DejaVuSans-49"/>
     <use x="519.824219" xlink:href="#DejaVuSans-52"/>
    </g>
   </g>
   <g id="text_2">
    <g id="patch_3">
     <path d="M 259.569239 389.542598 
L 275.668215 411.065995 
L 289.824459 400.47747 
L 273.725483 378.954073 
z
" style="fill:#ffffff;fill-opacity:0.35;stroke:#ffffff;stroke-linejoin:miter;stroke-opacity:0.35;"/>
    </g>
    <!-- e13 -->
    <g style="fill:#ff7f0e;" transform="translate(266.833564 389.104207)rotate(-306.795592)scale(0.1 -0.1)">
     <defs>
      <path d="M 40.578125 39.3125 
Q 47.65625 37.796875 51.625 33 
Q 55.609375 28.21875 55.609375 21.1875 
Q 55.609375 10.40625 48.1875 4.484375 
Q 40.765625 -1.421875 27.09375 -1.421875 
Q 22.515625 -1.421875 17.65625 -0.515625 
Q 12.796875 0.390625 7.625 2.203125 
L 7.625 11.71875 
Q 11.71875 9.328125 16.59375 8.109375 
Q 21.484375 6.890625 26.8125 6.890625 
Q 36.078125 6.890625 40.9375 10.546875 
Q 45.796875 14.203125 45.796875 21.1875 
Q 45.796875 27.640625 41.28125 31.265625 
Q 36.765625 34.90625 28.71875 34.90625 
L 20.21875 34.90625 
L 20.21875 43.015625 
L 29.109375 43.015625 
Q 36.375 43.015625 40.234375 45.921875 
Q 44.09375 48.828125 44.09375 54.296875 
Q 44.09375 59.90625 40.109375 62.90625 
Q 36.140625 65.921875 28.71875 65.921875 
Q 24.65625 65.921875 20.015625 65.03125 
Q 15.375 64.15625 9.8125 62.3125 
L 9.8125 71.09375 
Q 15.4375 72.65625 20.34375 73.4375 
Q 25.25 74.21875 29.59375 74.21875 
Q 40.828125 74.21875 47.359375 69.109375 
Q 53.90625 64.015625 53.90625 55.328125 
Q 53.90625 49.265625 50.4375 45.09375 
Q 46.96875 40.921875 40.578125 39.3125 
z
" id="DejaVuSans-51"/>
     </defs>
     <use xlink:href="#DejaVuSans-101"/>
     <use x="61.523438" xlink:href="#DejaVuSans-49"/>
     <use x="125.146484" xlink:href="#DejaVuSans-51"/>
    </g>
   </g>
   <g id="text_3">
    <g id="patch_4">
     <path d="M 519.708089 424.564684 
L 547.444096 471.696802 
L 562.67989 462.730939 
L 534.943883 415.598821 
z
" style="fill:#ffffff;fill-opacity:0.35;stroke:#ffffff;stroke-linejoin:miter;stroke-opacity:0.35;"/>
    </g>
    <!-- PFET - e1 -->
    <g style="fill:#2ca02c;" transform="translate(526.976525 424.92861)rotate(-300.475688)scale(0.1 -0.1)">
     <defs>
      <path d="M 19.671875 64.796875 
L 19.671875 37.40625 
L 32.078125 37.40625 
Q 38.96875 37.40625 42.71875 40.96875 
Q 46.484375 44.53125 46.484375 51.125 
Q 46.484375 57.671875 42.71875 61.234375 
Q 38.96875 64.796875 32.078125 64.796875 
z
M 9.8125 72.90625 
L 32.078125 72.90625 
Q 44.34375 72.90625 50.609375 67.359375 
Q 56.890625 61.8125 56.890625 51.125 
Q 56.890625 40.328125 50.609375 34.8125 
Q 44.34375 29.296875 32.078125 29.296875 
L 19.671875 29.296875 
L 19.671875 0 
L 9.8125 0 
z
" id="DejaVuSans-80"/>
      <path d="M 9.8125 72.90625 
L 51.703125 72.90625 
L 51.703125 64.59375 
L 19.671875 64.59375 
L 19.671875 43.109375 
L 48.578125 43.109375 
L 48.578125 34.8125 
L 19.671875 34.8125 
L 19.671875 0 
L 9.8125 0 
z
" id="DejaVuSans-70"/>
      <path d="M 9.8125 72.90625 
L 55.90625 72.90625 
L 55.90625 64.59375 
L 19.671875 64.59375 
L 19.671875 43.015625 
L 54.390625 43.015625 
L 54.390625 34.71875 
L 19.671875 34.71875 
L 19.671875 8.296875 
L 56.78125 8.296875 
L 56.78125 0 
L 9.8125 0 
z
" id="DejaVuSans-69"/>
      <path d="M -0.296875 72.90625 
L 61.375 72.90625 
L 61.375 64.59375 
L 35.5 64.59375 
L 35.5 0 
L 25.59375 0 
L 25.59375 64.59375 
L -0.296875 64.59375 
z
" id="DejaVuSans-84"/>
     </defs>
     <use xlink:href="#DejaVuSans-80"/>
     <use x="60.302734" xlink:href="#DejaVuSans-70"/>
     <use x="117.822266" xlink:href="#DejaVuSans-69"/>
     <use x="181.005859" xlink:href="#DejaVuSans-84"/>
     <use x="242.089844" xlink:href="#DejaVuSans-32"/>
     <use x="273.876953" xlink:href="#DejaVuSans-45"/>
     <use x="309.960938" xlink:href="#DejaVuSans-32"/>
     <use x="341.748047" xlink:href="#DejaVuSans-101"/>
     <use x="403.271484" xlink:href="#DejaVuSans-49"/>
    </g>
   </g>
   <g id="text_4">
    <g id="patch_5">
     <path d="M 669.376701 621.762302 
L 688.659187 628.767771 
L 694.695735 612.15223 
L 675.413249 605.146761 
z
" style="fill:#ffffff;fill-opacity:0.35;stroke:#ffffff;stroke-linejoin:miter;stroke-opacity:0.35;"/>
    </g>
    <!-- e3 -->
    <g style="fill:#d62728;" transform="translate(675.212302 617.413928)rotate(-340.033546)scale(0.1 -0.1)">
     <use xlink:href="#DejaVuSans-101"/>
     <use x="61.523438" xlink:href="#DejaVuSans-51"/>
    </g>
   </g>
   <g id="text_5">
    <g id="patch_6">
     <path d="M 732.815144 363.579973 
L 735.135786 343.196021 
L 717.571123 341.196345 
L 715.250481 361.580297 
z
" style="fill:#ffffff;fill-opacity:0.35;stroke:#ffffff;stroke-linejoin:miter;stroke-opacity:0.35;"/>
    </g>
    <!-- e4 -->
    <g style="fill:#9467bd;" transform="translate(727.226941 358.917936)rotate(-83.505039)scale(0.1 -0.1)">
     <use xlink:href="#DejaVuSans-101"/>
     <use x="61.523438" xlink:href="#DejaVuSans-52"/>
    </g>
   </g>
   <g id="text_6">
    <g id="patch_7">
     <path d="M 351.045188 740.350924 
L 367.051404 753.184159 
L 378.109685 739.39175 
L 362.103469 726.558515 
z
" style="fill:#ffffff;fill-opacity:0.35;stroke:#ffffff;stroke-linejoin:miter;stroke-opacity:0.35;"/>
    </g>
    <!-- e7 -->
    <g style="fill:#8c564b;" transform="translate(357.969029 738.109712)rotate(-321.278558)scale(0.1 -0.1)">
     <defs>
      <path d="M 8.203125 72.90625 
L 55.078125 72.90625 
L 55.078125 68.703125 
L 28.609375 0 
L 18.3125 0 
L 43.21875 64.59375 
L 8.203125 64.59375 
z
" id="DejaVuSans-55"/>
     </defs>
     <use xlink:href="#DejaVuSans-101"/>
     <use x="61.523438" xlink:href="#DejaVuSans-55"/>
    </g>
   </g>
   <g id="text_7">
    <g id="patch_8">
     <path d="M 479.956801 194.590045 
L 503.995548 206.613865 
L 511.903785 190.803239 
L 487.865038 178.779419 
z
" style="fill:#ffffff;fill-opacity:0.35;stroke:#ffffff;stroke-linejoin:miter;stroke-opacity:0.35;"/>
    </g>
    <!-- e10 -->
    <g style="fill:#e377c2;" transform="translate(486.253968 190.941993)rotate(-333.426472)scale(0.1 -0.1)">
     <defs>
      <path d="M 31.78125 66.40625 
Q 24.171875 66.40625 20.328125 58.90625 
Q 16.5 51.421875 16.5 36.375 
Q 16.5 21.390625 20.328125 13.890625 
Q 24.171875 6.390625 31.78125 6.390625 
Q 39.453125 6.390625 43.28125 13.890625 
Q 47.125 21.390625 47.125 36.375 
Q 47.125 51.421875 43.28125 58.90625 
Q 39.453125 66.40625 31.78125 66.40625 
z
M 31.78125 74.21875 
Q 44.046875 74.21875 50.515625 64.515625 
Q 56.984375 54.828125 56.984375 36.375 
Q 56.984375 17.96875 50.515625 8.265625 
Q 44.046875 -1.421875 31.78125 -1.421875 
Q 19.53125 -1.421875 13.0625 8.265625 
Q 6.59375 17.96875 6.59375 36.375 
Q 6.59375 54.828125 13.0625 64.515625 
Q 19.53125 74.21875 31.78125 74.21875 
z
" id="DejaVuSans-48"/>
     </defs>
     <use xlink:href="#DejaVuSans-101"/>
     <use x="61.523438" xlink:href="#DejaVuSans-49"/>
     <use x="125.146484" xlink:href="#DejaVuSans-48"/>
    </g>
   </g>
   <g id="text_8">
    <g id="patch_9">
     <path d="M 617.049604 581.168437 
L 656.036333 542.817979 
L 643.639274 530.215241 
L 604.652545 568.565698 
z
" style="fill:#ffffff;fill-opacity:0.35;stroke:#ffffff;stroke-linejoin:miter;stroke-opacity:0.35;"/>
    </g>
    <!-- PFET - e2 -->
    <g style="fill:#7f7f7f;" transform="translate(615.63773 574.029165)rotate(-44.528625)scale(0.1 -0.1)">
     <defs>
      <path d="M 19.1875 8.296875 
L 53.609375 8.296875 
L 53.609375 0 
L 7.328125 0 
L 7.328125 8.296875 
Q 12.9375 14.109375 22.625 23.890625 
Q 32.328125 33.6875 34.8125 36.53125 
Q 39.546875 41.84375 41.421875 45.53125 
Q 43.3125 49.21875 43.3125 52.78125 
Q 43.3125 58.59375 39.234375 62.25 
Q 35.15625 65.921875 28.609375 65.921875 
Q 23.96875 65.921875 18.8125 64.3125 
Q 13.671875 62.703125 7.8125 59.421875 
L 7.8125 69.390625 
Q 13.765625 71.78125 18.9375 73 
Q 24.125 74.21875 28.421875 74.21875 
Q 39.75 74.21875 46.484375 68.546875 
Q 53.21875 62.890625 53.21875 53.421875 
Q 53.21875 48.921875 51.53125 44.890625 
Q 49.859375 40.875 45.40625 35.40625 
Q 44.1875 33.984375 37.640625 27.21875 
Q 31.109375 20.453125 19.1875 8.296875 
z
" id="DejaVuSans-50"/>
     </defs>
     <use xlink:href="#DejaVuSans-80"/>
     <use x="60.302734" xlink:href="#DejaVuSans-70"/>
     <use x="117.822266" xlink:href="#DejaVuSans-69"/>
     <use x="181.005859" xlink:href="#DejaVuSans-84"/>
     <use x="242.089844" xlink:href="#DejaVuSans-32"/>
     <use x="273.876953" xlink:href="#DejaVuSans-45"/>
     <use x="309.960938" xlink:href="#DejaVuSans-32"/>
     <use x="341.748047" xlink:href="#DejaVuSans-101"/>
     <use x="403.271484" xlink:href="#DejaVuSans-50"/>
    </g>
   </g>
   <g id="text_9">
    <g id="patch_10">
     <path d="M 483.80004 674.362352 
L 546.529728 674.362352 
L 546.529728 656.684227 
L 483.80004 656.684227 
z
" style="fill:#ffffff;fill-opacity:0.35;stroke:#ffffff;stroke-linejoin:miter;stroke-opacity:0.35;"/>
    </g>
    <!-- n27 - drain -->
    <g transform="translate(487.80004 668.282664)scale(0.1 -0.1)">
     <defs>
      <path d="M 54.890625 33.015625 
L 54.890625 0 
L 45.90625 0 
L 45.90625 32.71875 
Q 45.90625 40.484375 42.875 44.328125 
Q 39.84375 48.1875 33.796875 48.1875 
Q 26.515625 48.1875 22.3125 43.546875 
Q 18.109375 38.921875 18.109375 30.90625 
L 18.109375 0 
L 9.078125 0 
L 9.078125 54.6875 
L 18.109375 54.6875 
L 18.109375 46.1875 
Q 21.34375 51.125 25.703125 53.5625 
Q 30.078125 56 35.796875 56 
Q 45.21875 56 50.046875 50.171875 
Q 54.890625 44.34375 54.890625 33.015625 
z
" id="DejaVuSans-110"/>
      <path d="M 45.40625 46.390625 
L 45.40625 75.984375 
L 54.390625 75.984375 
L 54.390625 0 
L 45.40625 0 
L 45.40625 8.203125 
Q 42.578125 3.328125 38.25 0.953125 
Q 33.9375 -1.421875 27.875 -1.421875 
Q 17.96875 -1.421875 11.734375 6.484375 
Q 5.515625 14.40625 5.515625 27.296875 
Q 5.515625 40.1875 11.734375 48.09375 
Q 17.96875 56 27.875 56 
Q 33.9375 56 38.25 53.625 
Q 42.578125 51.265625 45.40625 46.390625 
z
M 14.796875 27.296875 
Q 14.796875 17.390625 18.875 11.75 
Q 22.953125 6.109375 30.078125 6.109375 
Q 37.203125 6.109375 41.296875 11.75 
Q 45.40625 17.390625 45.40625 27.296875 
Q 45.40625 37.203125 41.296875 42.84375 
Q 37.203125 48.484375 30.078125 48.484375 
Q 22.953125 48.484375 18.875 42.84375 
Q 14.796875 37.203125 14.796875 27.296875 
z
" id="DejaVuSans-100"/>
      <path d="M 41.109375 46.296875 
Q 39.59375 47.171875 37.8125 47.578125 
Q 36.03125 48 33.890625 48 
Q 26.265625 48 22.1875 43.046875 
Q 18.109375 38.09375 18.109375 28.8125 
L 18.109375 0 
L 9.078125 0 
L 9.078125 54.6875 
L 18.109375 54.6875 
L 18.109375 46.1875 
Q 20.953125 51.171875 25.484375 53.578125 
Q 30.03125 56 36.53125 56 
Q 37.453125 56 38.578125 55.875 
Q 39.703125 55.765625 41.0625 55.515625 
z
" id="DejaVuSans-114"/>
      <path d="M 34.28125 27.484375 
Q 23.390625 27.484375 19.1875 25 
Q 14.984375 22.515625 14.984375 16.5 
Q 14.984375 11.71875 18.140625 8.90625 
Q 21.296875 6.109375 26.703125 6.109375 
Q 34.1875 6.109375 38.703125 11.40625 
Q 43.21875 16.703125 43.21875 25.484375 
L 43.21875 27.484375 
z
M 52.203125 31.203125 
L 52.203125 0 
L 43.21875 0 
L 43.21875 8.296875 
Q 40.140625 3.328125 35.546875 0.953125 
Q 30.953125 -1.421875 24.3125 -1.421875 
Q 15.921875 -1.421875 10.953125 3.296875 
Q 6 8.015625 6 15.921875 
Q 6 25.140625 12.171875 29.828125 
Q 18.359375 34.515625 30.609375 34.515625 
L 43.21875 34.515625 
L 43.21875 35.40625 
Q 43.21875 41.609375 39.140625 45 
Q 35.0625 48.390625 27.6875 48.390625 
Q 23 48.390625 18.546875 47.265625 
Q 14.109375 46.140625 10.015625 43.890625 
L 10.015625 52.203125 
Q 14.9375 54.109375 19.578125 55.046875 
Q 24.21875 56 28.609375 56 
Q 40.484375 56 46.34375 49.84375 
Q 52.203125 43.703125 52.203125 31.203125 
z
" id="DejaVuSans-97"/>
      <path d="M 9.421875 54.6875 
L 18.40625 54.6875 
L 18.40625 0 
L 9.421875 0 
z
M 9.421875 75.984375 
L 18.40625 75.984375 
L 18.40625 64.59375 
L 9.421875 64.59375 
z
" id="DejaVuSans-105"/>
     </defs>
     <use xlink:href="#DejaVuSans-110"/>
     <use x="63.378906" xlink:href="#DejaVuSans-50"/>
     <use x="127.001953" xlink:href="#DejaVuSans-55"/>
     <use x="190.625" xlink:href="#DejaVuSans-32"/>
     <use x="222.412109" xlink:href="#DejaVuSans-45"/>
     <use x="258.496094" xlink:href="#DejaVuSans-32"/>
     <use x="290.283203" xlink:href="#DejaVuSans-100"/>
     <use x="353.759766" xlink:href="#DejaVuSans-114"/>
     <use x="394.873047" xlink:href="#DejaVuSans-97"/>
     <use x="456.152344" xlink:href="#DejaVuSans-105"/>
     <use x="483.935547" xlink:href="#DejaVuSans-110"/>
    </g>
   </g>
   <g id="text_10">
    <g id="patch_11">
     <path d="M 446.859346 778.598304 
L 500.801534 778.598304 
L 500.801534 760.920179 
L 446.859346 760.920179 
z
" style="fill:#ffffff;fill-opacity:0.35;stroke:#ffffff;stroke-linejoin:miter;stroke-opacity:0.35;"/>
    </g>
    <!-- n33 - vcc -->
    <g transform="translate(450.859346 772.518617)scale(0.1 -0.1)">
     <defs>
      <path d="M 2.984375 54.6875 
L 12.5 54.6875 
L 29.59375 8.796875 
L 46.6875 54.6875 
L 56.203125 54.6875 
L 35.6875 0 
L 23.484375 0 
z
" id="DejaVuSans-118"/>
      <path d="M 48.78125 52.59375 
L 48.78125 44.1875 
Q 44.96875 46.296875 41.140625 47.34375 
Q 37.3125 48.390625 33.40625 48.390625 
Q 24.65625 48.390625 19.8125 42.84375 
Q 14.984375 37.3125 14.984375 27.296875 
Q 14.984375 17.28125 19.8125 11.734375 
Q 24.65625 6.203125 33.40625 6.203125 
Q 37.3125 6.203125 41.140625 7.25 
Q 44.96875 8.296875 48.78125 10.40625 
L 48.78125 2.09375 
Q 45.015625 0.34375 40.984375 -0.53125 
Q 36.96875 -1.421875 32.421875 -1.421875 
Q 20.0625 -1.421875 12.78125 6.34375 
Q 5.515625 14.109375 5.515625 27.296875 
Q 5.515625 40.671875 12.859375 48.328125 
Q 20.21875 56 33.015625 56 
Q 37.15625 56 41.109375 55.140625 
Q 45.0625 54.296875 48.78125 52.59375 
z
" id="DejaVuSans-99"/>
     </defs>
     <use xlink:href="#DejaVuSans-110"/>
     <use x="63.378906" xlink:href="#DejaVuSans-51"/>
     <use x="127.001953" xlink:href="#DejaVuSans-51"/>
     <use x="190.625" xlink:href="#DejaVuSans-32"/>
     <use x="222.412109" xlink:href="#DejaVuSans-45"/>
     <use x="258.496094" xlink:href="#DejaVuSans-32"/>
     <use x="290.283203" xlink:href="#DejaVuSans-118"/>
     <use x="349.462891" xlink:href="#DejaVuSans-99"/>
     <use x="404.443359" xlink:href="#DejaVuSans-99"/>
    </g>
   </g>
   <g id="text_11">
    <g id="patch_12">
     <path d="M 735.829486 666.467417 
L 778.984174 666.467417 
L 778.984174 648.789292 
L 735.829486 648.789292 
z
" style="fill:#ffffff;fill-opacity:0.35;stroke:#ffffff;stroke-linejoin:miter;stroke-opacity:0.35;"/>
    </g>
    <!-- n30 - a -->
    <g transform="translate(739.829486 660.38773)scale(0.1 -0.1)">
     <use xlink:href="#DejaVuSans-110"/>
     <use x="63.378906" xlink:href="#DejaVuSans-51"/>
     <use x="127.001953" xlink:href="#DejaVuSans-48"/>
     <use x="190.625" xlink:href="#DejaVuSans-32"/>
     <use x="222.412109" xlink:href="#DejaVuSans-45"/>
     <use x="258.496094" xlink:href="#DejaVuSans-32"/>
     <use x="290.283203" xlink:href="#DejaVuSans-97"/>
    </g>
   </g>
   <g id="text_12">
    <g id="patch_13">
     <path d="M 419.303104 184.439821 
L 472.706229 184.439821 
L 472.706229 166.761696 
L 419.303104 166.761696 
z
" style="fill:#ffffff;fill-opacity:0.35;stroke:#ffffff;stroke-linejoin:miter;stroke-opacity:0.35;"/>
    </g>
    <!-- n32 - out -->
    <g transform="translate(423.303104 178.360133)scale(0.1 -0.1)">
     <defs>
      <path d="M 30.609375 48.390625 
Q 23.390625 48.390625 19.1875 42.75 
Q 14.984375 37.109375 14.984375 27.296875 
Q 14.984375 17.484375 19.15625 11.84375 
Q 23.34375 6.203125 30.609375 6.203125 
Q 37.796875 6.203125 41.984375 11.859375 
Q 46.1875 17.53125 46.1875 27.296875 
Q 46.1875 37.015625 41.984375 42.703125 
Q 37.796875 48.390625 30.609375 48.390625 
z
M 30.609375 56 
Q 42.328125 56 49.015625 48.375 
Q 55.71875 40.765625 55.71875 27.296875 
Q 55.71875 13.875 49.015625 6.21875 
Q 42.328125 -1.421875 30.609375 -1.421875 
Q 18.84375 -1.421875 12.171875 6.21875 
Q 5.515625 13.875 5.515625 27.296875 
Q 5.515625 40.765625 12.171875 48.375 
Q 18.84375 56 30.609375 56 
z
" id="DejaVuSans-111"/>
      <path d="M 8.5 21.578125 
L 8.5 54.6875 
L 17.484375 54.6875 
L 17.484375 21.921875 
Q 17.484375 14.15625 20.5 10.265625 
Q 23.53125 6.390625 29.59375 6.390625 
Q 36.859375 6.390625 41.078125 11.03125 
Q 45.3125 15.671875 45.3125 23.6875 
L 45.3125 54.6875 
L 54.296875 54.6875 
L 54.296875 0 
L 45.3125 0 
L 45.3125 8.40625 
Q 42.046875 3.421875 37.71875 1 
Q 33.40625 -1.421875 27.6875 -1.421875 
Q 18.265625 -1.421875 13.375 4.4375 
Q 8.5 10.296875 8.5 21.578125 
z
M 31.109375 56 
z
" id="DejaVuSans-117"/>
      <path d="M 18.3125 70.21875 
L 18.3125 54.6875 
L 36.8125 54.6875 
L 36.8125 47.703125 
L 18.3125 47.703125 
L 18.3125 18.015625 
Q 18.3125 11.328125 20.140625 9.421875 
Q 21.96875 7.515625 27.59375 7.515625 
L 36.8125 7.515625 
L 36.8125 0 
L 27.59375 0 
Q 17.1875 0 13.234375 3.875 
Q 9.28125 7.765625 9.28125 18.015625 
L 9.28125 47.703125 
L 2.6875 47.703125 
L 2.6875 54.6875 
L 9.28125 54.6875 
L 9.28125 70.21875 
z
" id="DejaVuSans-116"/>
     </defs>
     <use xlink:href="#DejaVuSans-110"/>
     <use x="63.378906" xlink:href="#DejaVuSans-51"/>
     <use x="127.001953" xlink:href="#DejaVuSans-50"/>
     <use x="190.625" xlink:href="#DejaVuSans-32"/>
     <use x="222.412109" xlink:href="#DejaVuSans-45"/>
     <use x="258.496094" xlink:href="#DejaVuSans-32"/>
     <use x="290.283203" xlink:href="#DejaVuSans-111"/>
     <use x="351.464844" xlink:href="#DejaVuSans-117"/>
     <use x="414.84375" xlink:href="#DejaVuSans-116"/>
    </g>
   </g>
   <g id="text_13">
    <g id="patch_14">
     <path d="M 214.218942 349.404153 
L 270.27988 349.404153 
L 270.27988 331.726028 
L 214.218942 331.726028 
z
" style="fill:#ffffff;fill-opacity:0.35;stroke:#ffffff;stroke-linejoin:miter;stroke-opacity:0.35;"/>
    </g>
    <!-- n34 - gnd -->
    <g transform="translate(218.218942 343.324466)scale(0.1 -0.1)">
     <defs>
      <path d="M 45.40625 27.984375 
Q 45.40625 37.75 41.375 43.109375 
Q 37.359375 48.484375 30.078125 48.484375 
Q 22.859375 48.484375 18.828125 43.109375 
Q 14.796875 37.75 14.796875 27.984375 
Q 14.796875 18.265625 18.828125 12.890625 
Q 22.859375 7.515625 30.078125 7.515625 
Q 37.359375 7.515625 41.375 12.890625 
Q 45.40625 18.265625 45.40625 27.984375 
z
M 54.390625 6.78125 
Q 54.390625 -7.171875 48.1875 -13.984375 
Q 42 -20.796875 29.203125 -20.796875 
Q 24.46875 -20.796875 20.265625 -20.09375 
Q 16.0625 -19.390625 12.109375 -17.921875 
L 12.109375 -9.1875 
Q 16.0625 -11.328125 19.921875 -12.34375 
Q 23.78125 -13.375 27.78125 -13.375 
Q 36.625 -13.375 41.015625 -8.765625 
Q 45.40625 -4.15625 45.40625 5.171875 
L 45.40625 9.625 
Q 42.625 4.78125 38.28125 2.390625 
Q 33.9375 0 27.875 0 
Q 17.828125 0 11.671875 7.65625 
Q 5.515625 15.328125 5.515625 27.984375 
Q 5.515625 40.671875 11.671875 48.328125 
Q 17.828125 56 27.875 56 
Q 33.9375 56 38.28125 53.609375 
Q 42.625 51.21875 45.40625 46.390625 
L 45.40625 54.6875 
L 54.390625 54.6875 
z
" id="DejaVuSans-103"/>
     </defs>
     <use xlink:href="#DejaVuSans-110"/>
     <use x="63.378906" xlink:href="#DejaVuSans-51"/>
     <use x="127.001953" xlink:href="#DejaVuSans-52"/>
     <use x="190.625" xlink:href="#DejaVuSans-32"/>
     <use x="222.412109" xlink:href="#DejaVuSans-45"/>
     <use x="258.496094" xlink:href="#DejaVuSans-32"/>
     <use x="290.283203" xlink:href="#DejaVuSans-103"/>
     <use x="353.759766" xlink:href="#DejaVuSans-110"/>
     <use x="417.138672" xlink:href="#DejaVuSans-100"/>
    </g>
   </g>
   <g id="text_14">
    <g id="patch_15">
     <path d="M 566.927292 258.279216 
L 637.156979 258.279216 
L 637.156979 240.601091 
L 566.927292 240.601091 
z
" style="fill:#ffffff;fill-opacity:0.35;stroke:#ffffff;stroke-linejoin:miter;stroke-opacity:0.35;"/>
    </g>
    <!-- n28 - source -->
    <g transform="translate(570.927292 252.199529)scale(0.1 -0.1)">
     <defs>
      <path d="M 31.78125 34.625 
Q 24.75 34.625 20.71875 30.859375 
Q 16.703125 27.09375 16.703125 20.515625 
Q 16.703125 13.921875 20.71875 10.15625 
Q 24.75 6.390625 31.78125 6.390625 
Q 38.8125 6.390625 42.859375 10.171875 
Q 46.921875 13.96875 46.921875 20.515625 
Q 46.921875 27.09375 42.890625 30.859375 
Q 38.875 34.625 31.78125 34.625 
z
M 21.921875 38.8125 
Q 15.578125 40.375 12.03125 44.71875 
Q 8.5 49.078125 8.5 55.328125 
Q 8.5 64.0625 14.71875 69.140625 
Q 20.953125 74.21875 31.78125 74.21875 
Q 42.671875 74.21875 48.875 69.140625 
Q 55.078125 64.0625 55.078125 55.328125 
Q 55.078125 49.078125 51.53125 44.71875 
Q 48 40.375 41.703125 38.8125 
Q 48.828125 37.15625 52.796875 32.3125 
Q 56.78125 27.484375 56.78125 20.515625 
Q 56.78125 9.90625 50.3125 4.234375 
Q 43.84375 -1.421875 31.78125 -1.421875 
Q 19.734375 -1.421875 13.25 4.234375 
Q 6.78125 9.90625 6.78125 20.515625 
Q 6.78125 27.484375 10.78125 32.3125 
Q 14.796875 37.15625 21.921875 38.8125 
z
M 18.3125 54.390625 
Q 18.3125 48.734375 21.84375 45.5625 
Q 25.390625 42.390625 31.78125 42.390625 
Q 38.140625 42.390625 41.71875 45.5625 
Q 45.3125 48.734375 45.3125 54.390625 
Q 45.3125 60.0625 41.71875 63.234375 
Q 38.140625 66.40625 31.78125 66.40625 
Q 25.390625 66.40625 21.84375 63.234375 
Q 18.3125 60.0625 18.3125 54.390625 
z
" id="DejaVuSans-56"/>
      <path d="M 44.28125 53.078125 
L 44.28125 44.578125 
Q 40.484375 46.53125 36.375 47.5 
Q 32.28125 48.484375 27.875 48.484375 
Q 21.1875 48.484375 17.84375 46.4375 
Q 14.5 44.390625 14.5 40.28125 
Q 14.5 37.15625 16.890625 35.375 
Q 19.28125 33.59375 26.515625 31.984375 
L 29.59375 31.296875 
Q 39.15625 29.25 43.1875 25.515625 
Q 47.21875 21.78125 47.21875 15.09375 
Q 47.21875 7.46875 41.1875 3.015625 
Q 35.15625 -1.421875 24.609375 -1.421875 
Q 20.21875 -1.421875 15.453125 -0.5625 
Q 10.6875 0.296875 5.421875 2 
L 5.421875 11.28125 
Q 10.40625 8.6875 15.234375 7.390625 
Q 20.0625 6.109375 24.8125 6.109375 
Q 31.15625 6.109375 34.5625 8.28125 
Q 37.984375 10.453125 37.984375 14.40625 
Q 37.984375 18.0625 35.515625 20.015625 
Q 33.0625 21.96875 24.703125 23.78125 
L 21.578125 24.515625 
Q 13.234375 26.265625 9.515625 29.90625 
Q 5.8125 33.546875 5.8125 39.890625 
Q 5.8125 47.609375 11.28125 51.796875 
Q 16.75 56 26.8125 56 
Q 31.78125 56 36.171875 55.265625 
Q 40.578125 54.546875 44.28125 53.078125 
z
" id="DejaVuSans-115"/>
     </defs>
     <use xlink:href="#DejaVuSans-110"/>
     <use x="63.378906" xlink:href="#DejaVuSans-50"/>
     <use x="127.001953" xlink:href="#DejaVuSans-56"/>
     <use x="190.625" xlink:href="#DejaVuSans-32"/>
     <use x="222.412109" xlink:href="#DejaVuSans-45"/>
     <use x="258.496094" xlink:href="#DejaVuSans-32"/>
     <use x="290.283203" xlink:href="#DejaVuSans-115"/>
     <use x="342.382812" xlink:href="#DejaVuSans-111"/>
     <use x="403.564453" xlink:href="#DejaVuSans-117"/>
     <use x="466.943359" xlink:href="#DejaVuSans-114"/>
     <use x="505.806641" xlink:href="#DejaVuSans-99"/>
     <use x="560.787109" xlink:href="#DejaVuSans-101"/>
    </g>
   </g>
   <g id="text_15">
    <g id="patch_16">
     <path d="M 312.787507 481.184609 
L 368.848444 481.184609 
L 368.848444 463.506484 
L 312.787507 463.506484 
z
" style="fill:#ffffff;fill-opacity:0.35;stroke:#ffffff;stroke-linejoin:miter;stroke-opacity:0.35;"/>
    </g>
    <!-- n29 - gnd -->
    <g transform="translate(316.787507 475.104921)scale(0.1 -0.1)">
     <defs>
      <path d="M 10.984375 1.515625 
L 10.984375 10.5 
Q 14.703125 8.734375 18.5 7.8125 
Q 22.3125 6.890625 25.984375 6.890625 
Q 35.75 6.890625 40.890625 13.453125 
Q 46.046875 20.015625 46.78125 33.40625 
Q 43.953125 29.203125 39.59375 26.953125 
Q 35.25 24.703125 29.984375 24.703125 
Q 19.046875 24.703125 12.671875 31.3125 
Q 6.296875 37.9375 6.296875 49.421875 
Q 6.296875 60.640625 12.9375 67.421875 
Q 19.578125 74.21875 30.609375 74.21875 
Q 43.265625 74.21875 49.921875 64.515625 
Q 56.59375 54.828125 56.59375 36.375 
Q 56.59375 19.140625 48.40625 8.859375 
Q 40.234375 -1.421875 26.421875 -1.421875 
Q 22.703125 -1.421875 18.890625 -0.6875 
Q 15.09375 0.046875 10.984375 1.515625 
z
M 30.609375 32.421875 
Q 37.25 32.421875 41.125 36.953125 
Q 45.015625 41.5 45.015625 49.421875 
Q 45.015625 57.28125 41.125 61.84375 
Q 37.25 66.40625 30.609375 66.40625 
Q 23.96875 66.40625 20.09375 61.84375 
Q 16.21875 57.28125 16.21875 49.421875 
Q 16.21875 41.5 20.09375 36.953125 
Q 23.96875 32.421875 30.609375 32.421875 
z
" id="DejaVuSans-57"/>
     </defs>
     <use xlink:href="#DejaVuSans-110"/>
     <use x="63.378906" xlink:href="#DejaVuSans-50"/>
     <use x="127.001953" xlink:href="#DejaVuSans-57"/>
     <use x="190.625" xlink:href="#DejaVuSans-32"/>
     <use x="222.412109" xlink:href="#DejaVuSans-45"/>
     <use x="258.496094" xlink:href="#DejaVuSans-32"/>
     <use x="290.283203" xlink:href="#DejaVuSans-103"/>
     <use x="353.759766" xlink:href="#DejaVuSans-110"/>
     <use x="417.138672" xlink:href="#DejaVuSans-100"/>
    </g>
   </g>
   <g id="text_16">
    <g id="patch_17">
     <path d="M 230.250482 476.62045 
L 286.311419 476.62045 
L 286.311419 458.942325 
L 230.250482 458.942325 
z
" style="fill:#ffffff;fill-opacity:0.35;stroke:#ffffff;stroke-linejoin:miter;stroke-opacity:0.35;"/>
    </g>
    <!-- n25 - gnd -->
    <g transform="translate(234.250482 470.540762)scale(0.1 -0.1)">
     <defs>
      <path d="M 10.796875 72.90625 
L 49.515625 72.90625 
L 49.515625 64.59375 
L 19.828125 64.59375 
L 19.828125 46.734375 
Q 21.96875 47.46875 24.109375 47.828125 
Q 26.265625 48.1875 28.421875 48.1875 
Q 40.625 48.1875 47.75 41.5 
Q 54.890625 34.8125 54.890625 23.390625 
Q 54.890625 11.625 47.5625 5.09375 
Q 40.234375 -1.421875 26.90625 -1.421875 
Q 22.3125 -1.421875 17.546875 -0.640625 
Q 12.796875 0.140625 7.71875 1.703125 
L 7.71875 11.625 
Q 12.109375 9.234375 16.796875 8.0625 
Q 21.484375 6.890625 26.703125 6.890625 
Q 35.15625 6.890625 40.078125 11.328125 
Q 45.015625 15.765625 45.015625 23.390625 
Q 45.015625 31 40.078125 35.4375 
Q 35.15625 39.890625 26.703125 39.890625 
Q 22.75 39.890625 18.8125 39.015625 
Q 14.890625 38.140625 10.796875 36.28125 
z
" id="DejaVuSans-53"/>
     </defs>
     <use xlink:href="#DejaVuSans-110"/>
     <use x="63.378906" xlink:href="#DejaVuSans-50"/>
     <use x="127.001953" xlink:href="#DejaVuSans-53"/>
     <use x="190.625" xlink:href="#DejaVuSans-32"/>
     <use x="222.412109" xlink:href="#DejaVuSans-45"/>
     <use x="258.496094" xlink:href="#DejaVuSans-32"/>
     <use x="290.283203" xlink:href="#DejaVuSans-103"/>
     <use x="353.759766" xlink:href="#DejaVuSans-110"/>
     <use x="417.138672" xlink:href="#DejaVuSans-100"/>
    </g>
   </g>
   <g id="text_17">
    <g id="patch_18">
     <path d="M 750.986347 411.53658 
L 810.562909 411.53658 
L 810.562909 393.858455 
L 750.986347 393.858455 
z
" style="fill:#ffffff;fill-opacity:0.35;stroke:#ffffff;stroke-linejoin:miter;stroke-opacity:0.35;"/>
    </g>
    <!-- n26 - gate -->
    <g transform="translate(754.986347 405.456893)scale(0.1 -0.1)">
     <defs>
      <path d="M 33.015625 40.375 
Q 26.375 40.375 22.484375 35.828125 
Q 18.609375 31.296875 18.609375 23.390625 
Q 18.609375 15.53125 22.484375 10.953125 
Q 26.375 6.390625 33.015625 6.390625 
Q 39.65625 6.390625 43.53125 10.953125 
Q 47.40625 15.53125 47.40625 23.390625 
Q 47.40625 31.296875 43.53125 35.828125 
Q 39.65625 40.375 33.015625 40.375 
z
M 52.59375 71.296875 
L 52.59375 62.3125 
Q 48.875 64.0625 45.09375 64.984375 
Q 41.3125 65.921875 37.59375 65.921875 
Q 27.828125 65.921875 22.671875 59.328125 
Q 17.53125 52.734375 16.796875 39.40625 
Q 19.671875 43.65625 24.015625 45.921875 
Q 28.375 48.1875 33.59375 48.1875 
Q 44.578125 48.1875 50.953125 41.515625 
Q 57.328125 34.859375 57.328125 23.390625 
Q 57.328125 12.15625 50.6875 5.359375 
Q 44.046875 -1.421875 33.015625 -1.421875 
Q 20.359375 -1.421875 13.671875 8.265625 
Q 6.984375 17.96875 6.984375 36.375 
Q 6.984375 53.65625 15.1875 63.9375 
Q 23.390625 74.21875 37.203125 74.21875 
Q 40.921875 74.21875 44.703125 73.484375 
Q 48.484375 72.75 52.59375 71.296875 
z
" id="DejaVuSans-54"/>
     </defs>
     <use xlink:href="#DejaVuSans-110"/>
     <use x="63.378906" xlink:href="#DejaVuSans-50"/>
     <use x="127.001953" xlink:href="#DejaVuSans-54"/>
     <use x="190.625" xlink:href="#DejaVuSans-32"/>
     <use x="222.412109" xlink:href="#DejaVuSans-45"/>
     <use x="258.496094" xlink:href="#DejaVuSans-32"/>
     <use x="290.283203" xlink:href="#DejaVuSans-103"/>
     <use x="353.759766" xlink:href="#DejaVuSans-97"/>
     <use x="415.039062" xlink:href="#DejaVuSans-116"/>
     <use x="454.248047" xlink:href="#DejaVuSans-101"/>
    </g>
   </g>
   <g id="text_18">
    <g id="patch_19">
     <path d="M 337.323417 681.054983 
L 400.053105 681.054983 
L 400.053105 663.376858 
L 337.323417 663.376858 
z
" style="fill:#ffffff;fill-opacity:0.35;stroke:#ffffff;stroke-linejoin:miter;stroke-opacity:0.35;"/>
    </g>
    <!-- n23 - drain -->
    <g transform="translate(341.323417 674.975295)scale(0.1 -0.1)">
     <use xlink:href="#DejaVuSans-110"/>
     <use x="63.378906" xlink:href="#DejaVuSans-50"/>
     <use x="127.001953" xlink:href="#DejaVuSans-51"/>
     <use x="190.625" xlink:href="#DejaVuSans-32"/>
     <use x="222.412109" xlink:href="#DejaVuSans-45"/>
     <use x="258.496094" xlink:href="#DejaVuSans-32"/>
     <use x="290.283203" xlink:href="#DejaVuSans-100"/>
     <use x="353.759766" xlink:href="#DejaVuSans-114"/>
     <use x="394.873047" xlink:href="#DejaVuSans-97"/>
     <use x="456.152344" xlink:href="#DejaVuSans-105"/>
     <use x="483.935547" xlink:href="#DejaVuSans-110"/>
    </g>
   </g>
   <g id="text_19">
    <g id="patch_20">
     <path d="M 762.441437 310.917862 
L 805.816437 310.917862 
L 805.816437 293.239737 
L 762.441437 293.239737 
z
" style="fill:#ffffff;fill-opacity:0.35;stroke:#ffffff;stroke-linejoin:miter;stroke-opacity:0.35;"/>
    </g>
    <!-- n31 - b -->
    <g transform="translate(766.441437 304.838175)scale(0.1 -0.1)">
     <defs>
      <path d="M 48.6875 27.296875 
Q 48.6875 37.203125 44.609375 42.84375 
Q 40.53125 48.484375 33.40625 48.484375 
Q 26.265625 48.484375 22.1875 42.84375 
Q 18.109375 37.203125 18.109375 27.296875 
Q 18.109375 17.390625 22.1875 11.75 
Q 26.265625 6.109375 33.40625 6.109375 
Q 40.53125 6.109375 44.609375 11.75 
Q 48.6875 17.390625 48.6875 27.296875 
z
M 18.109375 46.390625 
Q 20.953125 51.265625 25.265625 53.625 
Q 29.59375 56 35.59375 56 
Q 45.5625 56 51.78125 48.09375 
Q 58.015625 40.1875 58.015625 27.296875 
Q 58.015625 14.40625 51.78125 6.484375 
Q 45.5625 -1.421875 35.59375 -1.421875 
Q 29.59375 -1.421875 25.265625 0.953125 
Q 20.953125 3.328125 18.109375 8.203125 
L 18.109375 0 
L 9.078125 0 
L 9.078125 75.984375 
L 18.109375 75.984375 
z
" id="DejaVuSans-98"/>
     </defs>
     <use xlink:href="#DejaVuSans-110"/>
     <use x="63.378906" xlink:href="#DejaVuSans-51"/>
     <use x="127.001953" xlink:href="#DejaVuSans-49"/>
     <use x="190.625" xlink:href="#DejaVuSans-32"/>
     <use x="222.412109" xlink:href="#DejaVuSans-45"/>
     <use x="258.496094" xlink:href="#DejaVuSans-32"/>
     <use x="290.283203" xlink:href="#DejaVuSans-98"/>
    </g>
   </g>
   <g id="text_20">
    <g id="patch_21">
     <path d="M 631.67946 636.71662 
L 691.256023 636.71662 
L 691.256023 619.038495 
L 631.67946 619.038495 
z
" style="fill:#ffffff;fill-opacity:0.35;stroke:#ffffff;stroke-linejoin:miter;stroke-opacity:0.35;"/>
    </g>
    <!-- n22 - gate -->
    <g transform="translate(635.67946 630.636932)scale(0.1 -0.1)">
     <use xlink:href="#DejaVuSans-110"/>
     <use x="63.378906" xlink:href="#DejaVuSans-50"/>
     <use x="127.001953" xlink:href="#DejaVuSans-50"/>
     <use x="190.625" xlink:href="#DejaVuSans-32"/>
     <use x="222.412109" xlink:href="#DejaVuSans-45"/>
     <use x="258.496094" xlink:href="#DejaVuSans-32"/>
     <use x="290.283203" xlink:href="#DejaVuSans-103"/>
     <use x="353.759766" xlink:href="#DejaVuSans-97"/>
     <use x="415.039062" xlink:href="#DejaVuSans-116"/>
     <use x="454.248047" xlink:href="#DejaVuSans-101"/>
    </g>
   </g>
   <g id="text_21">
    <g id="patch_22">
     <path d="M 428.32127 291.147697 
L 498.550957 291.147697 
L 498.550957 273.469572 
L 428.32127 273.469572 
z
" style="fill:#ffffff;fill-opacity:0.35;stroke:#ffffff;stroke-linejoin:miter;stroke-opacity:0.35;"/>
    </g>
    <!-- n24 - source -->
    <g transform="translate(432.32127 285.06801)scale(0.1 -0.1)">
     <use xlink:href="#DejaVuSans-110"/>
     <use x="63.378906" xlink:href="#DejaVuSans-50"/>
     <use x="127.001953" xlink:href="#DejaVuSans-52"/>
     <use x="190.625" xlink:href="#DejaVuSans-32"/>
     <use x="222.412109" xlink:href="#DejaVuSans-45"/>
     <use x="258.496094" xlink:href="#DejaVuSans-32"/>
     <use x="290.283203" xlink:href="#DejaVuSans-115"/>
     <use x="342.382812" xlink:href="#DejaVuSans-111"/>
     <use x="403.564453" xlink:href="#DejaVuSans-117"/>
     <use x="466.943359" xlink:href="#DejaVuSans-114"/>
     <use x="505.806641" xlink:href="#DejaVuSans-99"/>
     <use x="560.787109" xlink:href="#DejaVuSans-101"/>
    </g>
   </g>
  </g>
 </g>
 <defs>
  <clipPath id="pa273a45deb">
   <rect height="720.72" width="725.4" x="117" y="112.32"/>
  </clipPath>
 </defs>
</svg>
