<?xml version="1.0" encoding="utf-8" standalone="no"?>
<!DOCTYPE svg PUBLIC "-//W3C//DTD SVG 1.1//EN"
  "http://www.w3.org/Graphics/SVG/1.1/DTD/svg11.dtd">
<!-- Created with matplotlib (https://matplotlib.org/) -->
<svg height="936pt" version="1.1" viewBox="0 0 936 936" width="936pt" xmlns="http://www.w3.org/2000/svg" xmlns:xlink="http://www.w3.org/1999/xlink">
 <metadata>
  <rdf:RDF xmlns:cc="http://creativecommons.org/ns#" xmlns:dc="http://purl.org/dc/elements/1.1/" xmlns:rdf="http://www.w3.org/1999/02/22-rdf-syntax-ns#">
   <cc:Work>
    <dc:type rdf:resource="http://purl.org/dc/dcmitype/StillImage"/>
    <dc:date>2021-02-13T22:37:18.758482</dc:date>
    <dc:format>image/svg+xml</dc:format>
    <dc:creator>
     <cc:Agent>
      <dc:title>Matplotlib v3.3.4, https://matplotlib.org/</dc:title>
     </cc:Agent>
    </dc:creator>
   </cc:Work>
  </rdf:RDF>
 </metadata>
 <defs>
  <style type="text/css">*{stroke-linecap:butt;stroke-linejoin:round;}</style>
 </defs>
 <g id="figure_1">
  <g id="patch_1">
   <path d="M 0 936 
L 936 936 
L 936 0 
L 0 0 
z
" style="fill:#ffffff;"/>
  </g>
  <g id="axes_1">
   <g id="PolyCollection_1">
    <path clip-path="url(#pd576fac85b)" d="M 640.650148 622.551405 
L 646.476491 623.318457 
L 652.302834 622.551405 
L 657.732121 620.302521 
L 662.394356 616.725062 
L 665.971814 612.062828 
L 757.384626 418.736703 
L 759.633511 413.307416 
L 760.400563 407.481073 
L 759.633511 401.65473 
L 757.384626 396.225443 
L 753.807168 391.563208 
L 615.85184 252.907719 
L 611.189606 249.330261 
L 605.760319 247.081377 
L 599.933976 246.314324 
L 380.949861 234.138253 
L 375.123518 234.905306 
L 369.694231 237.15419 
L 365.031997 240.731649 
L 361.454538 245.393883 
L 359.205654 250.82317 
L 358.438601 256.649513 
L 359.205654 262.475856 
L 361.454538 267.905143 
L 365.031997 272.567378 
L 630.558627 616.725062 
L 635.220861 620.302521 
z
" style="fill:none;stroke:#1f77b4;"/>
    <path clip-path="url(#pd576fac85b)" d="M 599.509342 713.267362 
L 637.680441 404.071797 
L 636.913389 398.245454 
L 634.664504 392.816167 
L 631.087046 388.153933 
L 626.424811 384.576474 
L 620.995524 382.32759 
L 615.169181 381.560537 
L 609.342839 382.32759 
L 603.913551 384.576474 
L 242.49582 551.664633 
L 237.833585 555.242092 
L 234.256127 559.904326 
L 232.007243 565.333614 
L 231.24019 571.159956 
L 232.007243 576.986299 
L 234.256127 582.415586 
L 237.833585 587.077821 
L 374.603323 760.192261 
L 379.265558 763.769719 
L 384.694845 766.018604 
L 390.521187 766.785656 
L 396.34753 766.018604 
L 582.824425 735.011569 
L 588.253712 732.762685 
L 592.915946 729.185226 
L 596.493405 724.522992 
L 598.742289 719.093705 
z
" style="fill:none;stroke:#ff7f0e;"/>
    <path clip-path="url(#pd576fac85b)" d="M 382.75273 773.266673 
L 390.521187 774.28941 
L 398.289644 773.266673 
L 405.528694 770.26816 
L 411.745007 765.498216 
L 416.514951 759.281903 
L 419.513464 752.042854 
L 420.5362 744.274397 
L 419.513464 736.50594 
L 416.514951 729.26689 
L 411.745007 723.050577 
L 405.528694 718.280633 
L 398.289644 715.28212 
L 390.521187 714.259384 
L 292.1504 710.045625 
L 286.324057 710.812678 
L 280.89477 713.061562 
L 276.232535 716.639021 
L 272.655077 721.301255 
L 270.406193 726.730542 
L 269.63914 732.556885 
L 270.406193 738.383228 
L 272.655077 743.812515 
L 276.232535 748.474749 
L 280.89477 752.052208 
L 286.324057 754.301092 
z
" style="fill:none;stroke:#2ca02c;"/>
    <path clip-path="url(#pd576fac85b)" d="M 380.949861 226.6345 
L 260.621745 242.335064 
L 254.795402 243.102116 
L 249.366115 245.351001 
L 244.703881 248.928459 
L 241.126422 253.590694 
L 238.877538 259.019981 
L 238.110485 264.846323 
L 238.877538 270.672666 
L 241.126422 276.101953 
L 244.703881 280.764188 
L 249.366115 284.341646 
L 254.795402 286.590531 
L 260.621745 287.357583 
L 380.949861 286.664526 
L 388.718318 285.641789 
L 395.957368 282.643277 
L 402.17368 277.873332 
L 406.943625 271.65702 
L 409.942137 264.41797 
L 410.964874 256.649513 
L 409.942137 248.881056 
L 406.943625 241.642007 
L 402.17368 235.425694 
L 395.957368 230.655749 
L 388.718318 227.657237 
z
" style="fill:none;stroke:#d62728;"/>
    <path clip-path="url(#pd576fac85b)" d="M 708.897027 399.712616 
L 707.874291 407.481073 
L 708.897027 415.24953 
L 711.89554 422.488579 
L 759.916937 520.21019 
L 763.494395 524.872424 
L 768.15663 528.449883 
L 773.585917 530.698767 
L 779.41226 531.46582 
L 785.238602 530.698767 
L 790.66789 528.449883 
L 795.330124 524.872424 
L 798.907583 520.21019 
L 801.156467 514.780903 
L 801.923519 508.95456 
L 801.156467 503.128217 
L 766.88158 399.712616 
L 763.883067 392.473566 
L 759.113123 386.257254 
L 752.89681 381.487309 
L 745.657761 378.488797 
L 737.889304 377.46606 
L 730.120847 378.488797 
L 722.881797 381.487309 
L 716.665484 386.257254 
L 711.89554 392.473566 
z
" style="fill:none;stroke:#9467bd;"/>
    <path clip-path="url(#pd576fac85b)" d="M 764.419078 380.951299 
L 626.46375 242.29581 
L 549.515012 172.358031 
L 543.298699 167.588086 
L 536.05965 164.589574 
L 528.291193 163.566837 
L 520.522736 164.589574 
L 252.853288 235.854047 
L 245.614238 238.85256 
L 239.397926 243.622504 
L 234.627981 249.838817 
L 231.629469 257.077866 
L 150.995464 468.772406 
L 149.972727 476.540863 
L 150.995464 484.30932 
L 153.993977 491.548369 
L 266.156636 747.564392 
L 270.926581 753.780704 
L 277.142893 758.550649 
L 284.381943 761.549161 
L 380.810616 780.514742 
L 390.521187 781.793163 
L 400.231759 780.514742 
L 586.708653 749.507707 
L 595.757465 745.759567 
L 603.527856 739.797136 
L 800.636079 530.178379 
L 805.406023 523.962066 
L 808.404536 516.723017 
L 809.427273 508.95456 
L 808.404536 501.186103 
L 774.129649 397.770502 
L 770.381508 388.72169 
z
" style="fill:none;stroke:#8c564b;"/>
    <path clip-path="url(#pd576fac85b)" d="M 645.184194 404.071797 
L 629.948989 268.825584 
L 628.926252 261.057127 
L 625.92774 253.818077 
L 621.157795 247.601765 
L 544.209057 177.663986 
L 539.546822 174.086527 
L 534.117535 171.837643 
L 528.291193 171.07059 
L 522.46485 171.837643 
L 517.035563 174.086527 
L 512.373328 177.663986 
L 508.79587 182.32622 
L 506.546985 187.755507 
L 505.779933 193.58185 
L 506.546985 199.408193 
L 586.176905 411.840254 
L 589.175418 419.079304 
L 593.945362 425.295616 
L 600.161675 430.065561 
L 607.400724 433.064073 
L 615.169181 434.08681 
L 622.937638 433.064073 
L 630.176688 430.065561 
L 636.393001 425.295616 
L 641.162945 419.079304 
L 644.161458 411.840254 
z
" style="fill:none;stroke:#e377c2;"/>
    <path clip-path="url(#pd576fac85b)" d="M 620.482727 585.799691 
L 551.004318 698.259856 
L 548.005806 705.498905 
L 546.983069 713.267362 
L 548.005806 721.035819 
L 551.004318 728.274869 
L 555.774263 734.491181 
L 561.990575 739.261126 
L 569.229625 742.259638 
L 576.998082 743.282375 
L 584.766539 742.259638 
L 592.005588 739.261126 
L 598.221901 734.491181 
L 602.991846 728.274869 
L 672.470255 615.814704 
L 675.468767 608.575655 
L 676.491504 600.807198 
L 675.468767 593.038741 
L 672.470255 585.799691 
L 667.70031 579.583378 
L 661.483998 574.813434 
L 654.244948 571.814921 
L 646.476491 570.792185 
L 638.708034 571.814921 
L 631.468985 574.813434 
L 625.252672 579.583378 
z
" style="fill:none;stroke:#7f7f7f;"/>
    <path clip-path="url(#pd576fac85b)" d="M 245.982993 600.152233 
L 253.75145 601.174969 
L 261.519907 600.152233 
L 268.758956 597.15372 
L 274.975269 592.383776 
L 279.745214 586.167463 
L 282.743726 578.928413 
L 283.766463 571.159956 
L 282.743726 563.391499 
L 279.745214 556.15245 
L 274.975269 549.936137 
L 195.905605 460.622999 
L 191.24337 457.04554 
L 185.814083 454.796656 
L 179.98774 454.029603 
L 174.161398 454.796656 
L 168.73211 457.04554 
L 164.069876 460.622999 
L 160.492417 465.285233 
L 158.243533 470.71452 
L 157.476481 476.540863 
L 158.243533 482.367206 
L 160.492417 487.796493 
L 227.757686 586.167463 
L 232.527631 592.383776 
L 238.743943 597.15372 
z
" style="fill:none;stroke:#bcbd22;"/>
   </g>
   <g id="PolyCollection_2">
    <path clip-path="url(#pd576fac85b)" d="M 653.980244 600.807198 
L 653.72456 598.865083 
L 652.974932 597.055321 
L 651.782446 595.501243 
L 650.228368 594.308757 
L 648.418605 593.559129 
L 646.476491 593.303444 
L 644.534377 593.559129 
L 642.724614 594.308757 
L 641.170536 595.501243 
L 639.97805 597.055321 
L 639.228422 598.865083 
L 638.972738 600.807198 
L 639.228422 602.749312 
L 639.97805 604.559074 
L 641.170536 606.113153 
L 642.724614 607.305639 
L 644.534377 608.055267 
L 646.476491 608.310951 
L 648.418605 608.055267 
L 650.228368 607.305639 
L 651.782446 606.113153 
L 652.974932 604.559074 
L 653.72456 602.749312 
z
"/>
    <path clip-path="url(#pd576fac85b)" d="M 607.437729 268.825584 
L 607.182045 266.88347 
L 606.432417 265.073707 
L 605.239931 263.519629 
L 603.685852 262.327143 
L 601.87609 261.577515 
L 599.933976 261.321831 
L 597.991862 261.577515 
L 596.182099 262.327143 
L 594.628021 263.519629 
L 593.435535 265.073707 
L 592.685907 266.88347 
L 592.430223 268.825584 
L 592.685907 270.767698 
L 593.435535 272.57746 
L 594.628021 274.131539 
L 596.182099 275.324025 
L 597.991862 276.073653 
L 599.933976 276.329337 
L 601.87609 276.073653 
L 603.685852 275.324025 
L 605.239931 274.131539 
L 606.432417 272.57746 
L 607.182045 270.767698 
z
"/>
    <path clip-path="url(#pd576fac85b)" d="M 388.453614 256.649513 
L 388.19793 254.707399 
L 387.448302 252.897637 
L 386.255816 251.343558 
L 384.701738 250.151072 
L 382.891975 249.401444 
L 380.949861 249.14576 
L 379.007747 249.401444 
L 377.197984 250.151072 
L 375.643906 251.343558 
L 374.45142 252.897637 
L 373.701792 254.707399 
L 373.446108 256.649513 
L 373.701792 258.591627 
L 374.45142 260.40139 
L 375.643906 261.955468 
L 377.197984 263.147954 
L 379.007747 263.897582 
L 380.949861 264.153266 
L 382.891975 263.897582 
L 384.701738 263.147954 
L 386.255816 261.955468 
L 387.448302 260.40139 
L 388.19793 258.591627 
z
"/>
    <path clip-path="url(#pd576fac85b)" d="M 745.393057 407.481073 
L 745.137373 405.538959 
L 744.387744 403.729196 
L 743.195258 402.175118 
L 741.64118 400.982632 
L 739.831418 400.233004 
L 737.889304 399.97732 
L 735.947189 400.233004 
L 734.137427 400.982632 
L 732.583349 402.175118 
L 731.390863 403.729196 
L 730.641234 405.538959 
L 730.38555 407.481073 
L 730.641234 409.423187 
L 731.390863 411.23295 
L 732.583349 412.787028 
L 734.137427 413.979514 
L 735.947189 414.729142 
L 737.889304 414.984826 
L 739.831418 414.729142 
L 741.64118 413.979514 
L 743.195258 412.787028 
L 744.387744 411.23295 
L 745.137373 409.423187 
z
"/>
    <path clip-path="url(#pd576fac85b)" d="M 622.672935 404.071797 
L 622.41725 402.129683 
L 621.667622 400.319921 
L 620.475136 398.765842 
L 618.921058 397.573356 
L 617.111296 396.823728 
L 615.169181 396.568044 
L 613.227067 396.823728 
L 611.417305 397.573356 
L 609.863227 398.765842 
L 608.67074 400.319921 
L 607.921112 402.129683 
L 607.665428 404.071797 
L 607.921112 406.013911 
L 608.67074 407.823674 
L 609.863227 409.377752 
L 611.417305 410.570238 
L 613.227067 411.319866 
L 615.169181 411.57555 
L 617.111296 411.319866 
L 618.921058 410.570238 
L 620.475136 409.377752 
L 621.667622 407.823674 
L 622.41725 406.013911 
z
"/>
    <path clip-path="url(#pd576fac85b)" d="M 584.501835 713.267362 
L 584.246151 711.325248 
L 583.496523 709.515485 
L 582.304037 707.961407 
L 580.749958 706.768921 
L 578.940196 706.019293 
L 576.998082 705.763609 
L 575.055968 706.019293 
L 573.246205 706.768921 
L 571.692127 707.961407 
L 570.499641 709.515485 
L 569.750013 711.325248 
L 569.494329 713.267362 
L 569.750013 715.209476 
L 570.499641 717.019239 
L 571.692127 718.573317 
L 573.246205 719.765803 
L 575.055968 720.515431 
L 576.998082 720.771115 
L 578.940196 720.515431 
L 580.749958 719.765803 
L 582.304037 718.573317 
L 583.496523 717.019239 
L 584.246151 715.209476 
z
"/>
    <path clip-path="url(#pd576fac85b)" d="M 398.024941 744.274397 
L 397.769257 742.332282 
L 397.019628 740.52252 
L 395.827142 738.968442 
L 394.273064 737.775956 
L 392.463302 737.026328 
L 390.521187 736.770643 
L 388.579073 737.026328 
L 386.769311 737.775956 
L 385.215233 738.968442 
L 384.022747 740.52252 
L 383.273118 742.332282 
L 383.017434 744.274397 
L 383.273118 746.216511 
L 384.022747 748.026273 
L 385.215233 749.580351 
L 386.769311 750.772838 
L 388.579073 751.522466 
L 390.521187 751.77815 
L 392.463302 751.522466 
L 394.273064 750.772838 
L 395.827142 749.580351 
L 397.019628 748.026273 
L 397.769257 746.216511 
z
"/>
    <path clip-path="url(#pd576fac85b)" d="M 261.255203 571.159956 
L 260.999519 569.217842 
L 260.249891 567.40808 
L 259.057405 565.854001 
L 257.503327 564.661515 
L 255.693564 563.911887 
L 253.75145 563.656203 
L 251.809336 563.911887 
L 249.999573 564.661515 
L 248.445495 565.854001 
L 247.253009 567.40808 
L 246.503381 569.217842 
L 246.247697 571.159956 
L 246.503381 573.102071 
L 247.253009 574.911833 
L 248.445495 576.465911 
L 249.999573 577.658397 
L 251.809336 578.408025 
L 253.75145 578.66371 
L 255.693564 578.408025 
L 257.503327 577.658397 
L 259.057405 576.465911 
L 260.249891 574.911833 
L 260.999519 573.102071 
z
"/>
    <path clip-path="url(#pd576fac85b)" d="M 299.654153 732.556885 
L 299.398469 730.614771 
L 298.648841 728.805008 
L 297.456355 727.25093 
L 295.902277 726.058444 
L 294.092514 725.308816 
L 292.1504 725.053132 
L 290.208286 725.308816 
L 288.398523 726.058444 
L 286.844445 727.25093 
L 285.651959 728.805008 
L 284.902331 730.614771 
L 284.646647 732.556885 
L 284.902331 734.498999 
L 285.651959 736.308762 
L 286.844445 737.86284 
L 288.398523 739.055326 
L 290.208286 739.804954 
L 292.1504 740.060638 
L 294.092514 739.804954 
L 295.902277 739.055326 
L 297.456355 737.86284 
L 298.648841 736.308762 
L 299.398469 734.498999 
z
"/>
    <path clip-path="url(#pd576fac85b)" d="M 268.125498 264.846323 
L 267.869814 262.904209 
L 267.120186 261.094447 
L 265.9277 259.540369 
L 264.373622 258.347882 
L 262.563859 257.598254 
L 260.621745 257.34257 
L 258.679631 257.598254 
L 256.869868 258.347882 
L 255.31579 259.540369 
L 254.123304 261.094447 
L 253.373676 262.904209 
L 253.117992 264.846323 
L 253.373676 266.788438 
L 254.123304 268.5982 
L 255.31579 270.152278 
L 256.869868 271.344764 
L 258.679631 272.094392 
L 260.621745 272.350077 
L 262.563859 272.094392 
L 264.373622 271.344764 
L 265.9277 270.152278 
L 267.120186 268.5982 
L 267.869814 266.788438 
z
"/>
    <path clip-path="url(#pd576fac85b)" d="M 786.916013 508.95456 
L 786.660329 507.012446 
L 785.910701 505.202683 
L 784.718215 503.648605 
L 783.164136 502.456119 
L 781.354374 501.706491 
L 779.41226 501.450807 
L 777.470145 501.706491 
L 775.660383 502.456119 
L 774.106305 503.648605 
L 772.913819 505.202683 
L 772.164191 507.012446 
L 771.908506 508.95456 
L 772.164191 510.896674 
L 772.913819 512.706436 
L 774.106305 514.260515 
L 775.660383 515.453001 
L 777.470145 516.202629 
L 779.41226 516.458313 
L 781.354374 516.202629 
L 783.164136 515.453001 
L 784.718215 514.260515 
L 785.910701 512.706436 
L 786.660329 510.896674 
z
"/>
    <path clip-path="url(#pd576fac85b)" d="M 535.794946 193.58185 
L 535.539262 191.639736 
L 534.789633 189.829974 
L 533.597147 188.275895 
L 532.043069 187.083409 
L 530.233307 186.333781 
L 528.291193 186.078097 
L 526.349078 186.333781 
L 524.539316 187.083409 
L 522.985238 188.275895 
L 521.792752 189.829974 
L 521.043124 191.639736 
L 520.787439 193.58185 
L 521.043124 195.523964 
L 521.792752 197.333727 
L 522.985238 198.887805 
L 524.539316 200.080291 
L 526.349078 200.829919 
L 528.291193 201.085603 
L 530.233307 200.829919 
L 532.043069 200.080291 
L 533.597147 198.887805 
L 534.789633 197.333727 
L 535.539262 195.523964 
z
"/>
    <path clip-path="url(#pd576fac85b)" d="M 187.491494 476.540863 
L 187.235809 474.598749 
L 186.486181 472.788986 
L 185.293695 471.234908 
L 183.739617 470.042422 
L 181.929855 469.292794 
L 179.98774 469.03711 
L 178.045626 469.292794 
L 176.235864 470.042422 
L 174.681785 471.234908 
L 173.489299 472.788986 
L 172.739671 474.598749 
L 172.483987 476.540863 
L 172.739671 478.482977 
L 173.489299 480.29274 
L 174.681785 481.846818 
L 176.235864 483.039304 
L 178.045626 483.788932 
L 179.98774 484.044616 
L 181.929855 483.788932 
L 183.739617 483.039304 
L 185.293695 481.846818 
L 186.486181 480.29274 
L 187.235809 478.482977 
z
"/>
   </g>
   <g id="text_1">
    <g id="patch_2">
     <path d="M 474.094049 428.396303 
L 507.500009 471.694853 
L 521.496575 460.896137 
L 488.090614 417.597587 
z
" style="fill:#ffffff;fill-opacity:0.35;stroke:#ffffff;stroke-linejoin:miter;stroke-opacity:0.35;"/>
    </g>
    <!-- PFET - e2 -->
    <g style="fill:#1f77b4;" transform="translate(481.351018 427.849494)rotate(-307.651123)scale(0.1 -0.1)">
     <defs>
      <path d="M 19.671875 64.796875 
L 19.671875 37.40625 
L 32.078125 37.40625 
Q 38.96875 37.40625 42.71875 40.96875 
Q 46.484375 44.53125 46.484375 51.125 
Q 46.484375 57.671875 42.71875 61.234375 
Q 38.96875 64.796875 32.078125 64.796875 
z
M 9.8125 72.90625 
L 32.078125 72.90625 
Q 44.34375 72.90625 50.609375 67.359375 
Q 56.890625 61.8125 56.890625 51.125 
Q 56.890625 40.328125 50.609375 34.8125 
Q 44.34375 29.296875 32.078125 29.296875 
L 19.671875 29.296875 
L 19.671875 0 
L 9.8125 0 
z
" id="DejaVuSans-80"/>
      <path d="M 9.8125 72.90625 
L 51.703125 72.90625 
L 51.703125 64.59375 
L 19.671875 64.59375 
L 19.671875 43.109375 
L 48.578125 43.109375 
L 48.578125 34.8125 
L 19.671875 34.8125 
L 19.671875 0 
L 9.8125 0 
z
" id="DejaVuSans-70"/>
      <path d="M 9.8125 72.90625 
L 55.90625 72.90625 
L 55.90625 64.59375 
L 19.671875 64.59375 
L 19.671875 43.015625 
L 54.390625 43.015625 
L 54.390625 34.71875 
L 19.671875 34.71875 
L 19.671875 8.296875 
L 56.78125 8.296875 
L 56.78125 0 
L 9.8125 0 
z
" id="DejaVuSans-69"/>
      <path d="M -0.296875 72.90625 
L 61.375 72.90625 
L 61.375 64.59375 
L 35.5 64.59375 
L 35.5 0 
L 25.59375 0 
L 25.59375 64.59375 
L -0.296875 64.59375 
z
" id="DejaVuSans-84"/>
      <path id="DejaVuSans-32"/>
      <path d="M 4.890625 31.390625 
L 31.203125 31.390625 
L 31.203125 23.390625 
L 4.890625 23.390625 
z
" id="DejaVuSans-45"/>
      <path d="M 56.203125 29.59375 
L 56.203125 25.203125 
L 14.890625 25.203125 
Q 15.484375 15.921875 20.484375 11.0625 
Q 25.484375 6.203125 34.421875 6.203125 
Q 39.59375 6.203125 44.453125 7.46875 
Q 49.3125 8.734375 54.109375 11.28125 
L 54.109375 2.78125 
Q 49.265625 0.734375 44.1875 -0.34375 
Q 39.109375 -1.421875 33.890625 -1.421875 
Q 20.796875 -1.421875 13.15625 6.1875 
Q 5.515625 13.8125 5.515625 26.8125 
Q 5.515625 40.234375 12.765625 48.109375 
Q 20.015625 56 32.328125 56 
Q 43.359375 56 49.78125 48.890625 
Q 56.203125 41.796875 56.203125 29.59375 
z
M 47.21875 32.234375 
Q 47.125 39.59375 43.09375 43.984375 
Q 39.0625 48.390625 32.421875 48.390625 
Q 24.90625 48.390625 20.390625 44.140625 
Q 15.875 39.890625 15.1875 32.171875 
z
" id="DejaVuSans-101"/>
      <path d="M 19.1875 8.296875 
L 53.609375 8.296875 
L 53.609375 0 
L 7.328125 0 
L 7.328125 8.296875 
Q 12.9375 14.109375 22.625 23.890625 
Q 32.328125 33.6875 34.8125 36.53125 
Q 39.546875 41.84375 41.421875 45.53125 
Q 43.3125 49.21875 43.3125 52.78125 
Q 43.3125 58.59375 39.234375 62.25 
Q 35.15625 65.921875 28.609375 65.921875 
Q 23.96875 65.921875 18.8125 64.3125 
Q 13.671875 62.703125 7.8125 59.421875 
L 7.8125 69.390625 
Q 13.765625 71.78125 18.9375 73 
Q 24.125 74.21875 28.421875 74.21875 
Q 39.75 74.21875 46.484375 68.546875 
Q 53.21875 62.890625 53.21875 53.421875 
Q 53.21875 48.921875 51.53125 44.890625 
Q 49.859375 40.875 45.40625 35.40625 
Q 44.1875 33.984375 37.640625 27.21875 
Q 31.109375 20.453125 19.1875 8.296875 
z
" id="DejaVuSans-50"/>
     </defs>
     <use xlink:href="#DejaVuSans-80"/>
     <use x="60.302734" xlink:href="#DejaVuSans-70"/>
     <use x="117.822266" xlink:href="#DejaVuSans-69"/>
     <use x="181.005859" xlink:href="#DejaVuSans-84"/>
     <use x="242.089844" xlink:href="#DejaVuSans-32"/>
     <use x="273.876953" xlink:href="#DejaVuSans-45"/>
     <use x="309.960938" xlink:href="#DejaVuSans-32"/>
     <use x="341.748047" xlink:href="#DejaVuSans-101"/>
     <use x="403.271484" xlink:href="#DejaVuSans-50"/>
    </g>
   </g>
   <g id="text_2">
    <g id="patch_3">
     <path d="M 402.094196 487.618167 
L 451.733584 464.669227 
L 444.315175 448.622941 
L 394.675788 471.571881 
z
" style="fill:#ffffff;fill-opacity:0.35;stroke:#ffffff;stroke-linejoin:miter;stroke-opacity:0.35;"/>
    </g>
    <!-- PFET - e1 -->
    <g style="fill:#ff7f0e;" transform="translate(403.173697 480.421135)rotate(-24.81172)scale(0.1 -0.1)">
     <defs>
      <path d="M 12.40625 8.296875 
L 28.515625 8.296875 
L 28.515625 63.921875 
L 10.984375 60.40625 
L 10.984375 69.390625 
L 28.421875 72.90625 
L 38.28125 72.90625 
L 38.28125 8.296875 
L 54.390625 8.296875 
L 54.390625 0 
L 12.40625 0 
z
" id="DejaVuSans-49"/>
     </defs>
     <use xlink:href="#DejaVuSans-80"/>
     <use x="60.302734" xlink:href="#DejaVuSans-70"/>
     <use x="117.822266" xlink:href="#DejaVuSans-69"/>
     <use x="181.005859" xlink:href="#DejaVuSans-84"/>
     <use x="242.089844" xlink:href="#DejaVuSans-32"/>
     <use x="273.876953" xlink:href="#DejaVuSans-45"/>
     <use x="309.960938" xlink:href="#DejaVuSans-32"/>
     <use x="341.748047" xlink:href="#DejaVuSans-101"/>
     <use x="403.271484" xlink:href="#DejaVuSans-49"/>
    </g>
   </g>
   <g id="text_3">
    <g id="patch_4">
     <path d="M 330.709101 720.544473 
L 351.20593 721.422464 
L 351.962487 703.760536 
L 331.465658 702.882544 
z
" style="fill:#ffffff;fill-opacity:0.35;stroke:#ffffff;stroke-linejoin:miter;stroke-opacity:0.35;"/>
    </g>
    <!-- e3 -->
    <g style="fill:#2ca02c;" transform="translate(334.965624 714.641541)rotate(-357.547208)scale(0.1 -0.1)">
     <defs>
      <path d="M 40.578125 39.3125 
Q 47.65625 37.796875 51.625 33 
Q 55.609375 28.21875 55.609375 21.1875 
Q 55.609375 10.40625 48.1875 4.484375 
Q 40.765625 -1.421875 27.09375 -1.421875 
Q 22.515625 -1.421875 17.65625 -0.515625 
Q 12.796875 0.390625 7.625 2.203125 
L 7.625 11.71875 
Q 11.71875 9.328125 16.59375 8.109375 
Q 21.484375 6.890625 26.8125 6.890625 
Q 36.078125 6.890625 40.9375 10.546875 
Q 45.796875 14.203125 45.796875 21.1875 
Q 45.796875 27.640625 41.28125 31.265625 
Q 36.765625 34.90625 28.71875 34.90625 
L 20.21875 34.90625 
L 20.21875 43.015625 
L 29.109375 43.015625 
Q 36.375 43.015625 40.234375 45.921875 
Q 44.09375 48.828125 44.09375 54.296875 
Q 44.09375 59.90625 40.109375 62.90625 
Q 36.140625 65.921875 28.71875 65.921875 
Q 24.65625 65.921875 20.015625 65.03125 
Q 15.375 64.15625 9.8125 62.3125 
L 9.8125 71.09375 
Q 15.4375 72.65625 20.34375 73.4375 
Q 25.25 74.21875 29.59375 74.21875 
Q 40.828125 74.21875 47.359375 69.109375 
Q 53.90625 64.015625 53.90625 55.328125 
Q 53.90625 49.265625 50.4375 45.09375 
Q 46.96875 40.921875 40.578125 39.3125 
z
" id="DejaVuSans-51"/>
     </defs>
     <use xlink:href="#DejaVuSans-101"/>
     <use x="61.523438" xlink:href="#DejaVuSans-51"/>
    </g>
   </g>
   <g id="text_4">
    <g id="patch_5">
     <path d="M 311.75785 244.57675 
L 332.101031 241.922346 
L 329.813756 224.392814 
L 309.470575 227.047218 
z
" style="fill:#ffffff;fill-opacity:0.35;stroke:#ffffff;stroke-linejoin:miter;stroke-opacity:0.35;"/>
    </g>
    <!-- e4 -->
    <g style="fill:#d62728;" transform="translate(314.937611 238.030627)rotate(-7.434026)scale(0.1 -0.1)">
     <defs>
      <path d="M 37.796875 64.3125 
L 12.890625 25.390625 
L 37.796875 25.390625 
z
M 35.203125 72.90625 
L 47.609375 72.90625 
L 47.609375 25.390625 
L 58.015625 25.390625 
L 58.015625 17.1875 
L 47.609375 17.1875 
L 47.609375 0 
L 37.796875 0 
L 37.796875 17.1875 
L 4.890625 17.1875 
L 4.890625 26.703125 
z
" id="DejaVuSans-52"/>
     </defs>
     <use xlink:href="#DejaVuSans-101"/>
     <use x="61.523438" xlink:href="#DejaVuSans-52"/>
    </g>
   </g>
   <g id="text_5">
    <g id="patch_6">
     <path d="M 772.401662 444.464221 
L 778.855879 463.938151 
L 795.636385 458.376612 
L 789.182168 438.902682 
z
" style="fill:#ffffff;fill-opacity:0.35;stroke:#ffffff;stroke-linejoin:miter;stroke-opacity:0.35;"/>
    </g>
    <!-- e7 -->
    <g style="fill:#9467bd;" transform="translate(779.431049 446.348448)rotate(-288.336673)scale(0.1 -0.1)">
     <defs>
      <path d="M 8.203125 72.90625 
L 55.078125 72.90625 
L 55.078125 68.703125 
L 28.609375 0 
L 18.3125 0 
L 43.21875 64.59375 
L 8.203125 64.59375 
z
" id="DejaVuSans-55"/>
     </defs>
     <use xlink:href="#DejaVuSans-101"/>
     <use x="61.523438" xlink:href="#DejaVuSans-55"/>
    </g>
   </g>
   <g id="text_6">
    <g id="patch_7">
     <path d="M 688.263626 662.586277 
L 728.779038 619.499335 
L 715.900309 607.389239 
L 675.384897 650.47618 
z
" style="fill:#ffffff;fill-opacity:0.35;stroke:#ffffff;stroke-linejoin:miter;stroke-opacity:0.35;"/>
    </g>
    <!-- NOR - e11 -->
    <g style="fill:#8c564b;" transform="translate(686.574631 655.507442)rotate(-46.761808)scale(0.1 -0.1)">
     <defs>
      <path d="M 9.8125 72.90625 
L 23.09375 72.90625 
L 55.421875 11.921875 
L 55.421875 72.90625 
L 64.984375 72.90625 
L 64.984375 0 
L 51.703125 0 
L 19.390625 60.984375 
L 19.390625 0 
L 9.8125 0 
z
" id="DejaVuSans-78"/>
      <path d="M 39.40625 66.21875 
Q 28.65625 66.21875 22.328125 58.203125 
Q 16.015625 50.203125 16.015625 36.375 
Q 16.015625 22.609375 22.328125 14.59375 
Q 28.65625 6.59375 39.40625 6.59375 
Q 50.140625 6.59375 56.421875 14.59375 
Q 62.703125 22.609375 62.703125 36.375 
Q 62.703125 50.203125 56.421875 58.203125 
Q 50.140625 66.21875 39.40625 66.21875 
z
M 39.40625 74.21875 
Q 54.734375 74.21875 63.90625 63.9375 
Q 73.09375 53.65625 73.09375 36.375 
Q 73.09375 19.140625 63.90625 8.859375 
Q 54.734375 -1.421875 39.40625 -1.421875 
Q 24.03125 -1.421875 14.8125 8.828125 
Q 5.609375 19.09375 5.609375 36.375 
Q 5.609375 53.65625 14.8125 63.9375 
Q 24.03125 74.21875 39.40625 74.21875 
z
" id="DejaVuSans-79"/>
      <path d="M 44.390625 34.1875 
Q 47.5625 33.109375 50.5625 29.59375 
Q 53.5625 26.078125 56.59375 19.921875 
L 66.609375 0 
L 56 0 
L 46.6875 18.703125 
Q 43.0625 26.03125 39.671875 28.421875 
Q 36.28125 30.8125 30.421875 30.8125 
L 19.671875 30.8125 
L 19.671875 0 
L 9.8125 0 
L 9.8125 72.90625 
L 32.078125 72.90625 
Q 44.578125 72.90625 50.734375 67.671875 
Q 56.890625 62.453125 56.890625 51.90625 
Q 56.890625 45.015625 53.6875 40.46875 
Q 50.484375 35.9375 44.390625 34.1875 
z
M 19.671875 64.796875 
L 19.671875 38.921875 
L 32.078125 38.921875 
Q 39.203125 38.921875 42.84375 42.21875 
Q 46.484375 45.515625 46.484375 51.90625 
Q 46.484375 58.296875 42.84375 61.546875 
Q 39.203125 64.796875 32.078125 64.796875 
z
" id="DejaVuSans-82"/>
     </defs>
     <use xlink:href="#DejaVuSans-78"/>
     <use x="74.804688" xlink:href="#DejaVuSans-79"/>
     <use x="153.515625" xlink:href="#DejaVuSans-82"/>
     <use x="222.998047" xlink:href="#DejaVuSans-32"/>
     <use x="254.785156" xlink:href="#DejaVuSans-45"/>
     <use x="290.869141" xlink:href="#DejaVuSans-32"/>
     <use x="322.65625" xlink:href="#DejaVuSans-101"/>
     <use x="384.179688" xlink:href="#DejaVuSans-49"/>
     <use x="447.802734" xlink:href="#DejaVuSans-49"/>
    </g>
   </g>
   <g id="text_7">
    <g id="patch_8">
     <path d="M 533.368159 296.142718 
L 542.802365 321.31074 
L 559.355731 315.10573 
L 549.921526 289.937707 
z
" style="fill:#ffffff;fill-opacity:0.35;stroke:#ffffff;stroke-linejoin:miter;stroke-opacity:0.35;"/>
    </g>
    <!-- e10 -->
    <g style="fill:#e377c2;" transform="translate(540.465029 297.754254)rotate(-290.548454)scale(0.1 -0.1)">
     <defs>
      <path d="M 31.78125 66.40625 
Q 24.171875 66.40625 20.328125 58.90625 
Q 16.5 51.421875 16.5 36.375 
Q 16.5 21.390625 20.328125 13.890625 
Q 24.171875 6.390625 31.78125 6.390625 
Q 39.453125 6.390625 43.28125 13.890625 
Q 47.125 21.390625 47.125 36.375 
Q 47.125 51.421875 43.28125 58.90625 
Q 39.453125 66.40625 31.78125 66.40625 
z
M 31.78125 74.21875 
Q 44.046875 74.21875 50.515625 64.515625 
Q 56.984375 54.828125 56.984375 36.375 
Q 56.984375 17.96875 50.515625 8.265625 
Q 44.046875 -1.421875 31.78125 -1.421875 
Q 19.53125 -1.421875 13.0625 8.265625 
Q 6.59375 17.96875 6.59375 36.375 
Q 6.59375 54.828125 13.0625 64.515625 
Q 19.53125 74.21875 31.78125 74.21875 
z
" id="DejaVuSans-48"/>
     </defs>
     <use xlink:href="#DejaVuSans-101"/>
     <use x="61.523438" xlink:href="#DejaVuSans-49"/>
     <use x="125.146484" xlink:href="#DejaVuSans-48"/>
    </g>
   </g>
   <g id="text_8">
    <g id="patch_9">
     <path d="M 587.871847 655.402207 
L 598.654652 637.948784 
L 583.615199 628.65734 
L 572.832393 646.110763 
z
" style="fill:#ffffff;fill-opacity:0.35;stroke:#ffffff;stroke-linejoin:miter;stroke-opacity:0.35;"/>
    </g>
    <!-- e6 -->
    <g style="fill:#7f7f7f;" transform="translate(584.801985 648.803832)rotate(-58.292036)scale(0.1 -0.1)">
     <defs>
      <path d="M 33.015625 40.375 
Q 26.375 40.375 22.484375 35.828125 
Q 18.609375 31.296875 18.609375 23.390625 
Q 18.609375 15.53125 22.484375 10.953125 
Q 26.375 6.390625 33.015625 6.390625 
Q 39.65625 6.390625 43.53125 10.953125 
Q 47.40625 15.53125 47.40625 23.390625 
Q 47.40625 31.296875 43.53125 35.828125 
Q 39.65625 40.375 33.015625 40.375 
z
M 52.59375 71.296875 
L 52.59375 62.3125 
Q 48.875 64.0625 45.09375 64.984375 
Q 41.3125 65.921875 37.59375 65.921875 
Q 27.828125 65.921875 22.671875 59.328125 
Q 17.53125 52.734375 16.796875 39.40625 
Q 19.671875 43.65625 24.015625 45.921875 
Q 28.375 48.1875 33.59375 48.1875 
Q 44.578125 48.1875 50.953125 41.515625 
Q 57.328125 34.859375 57.328125 23.390625 
Q 57.328125 12.15625 50.6875 5.359375 
Q 44.046875 -1.421875 33.015625 -1.421875 
Q 20.359375 -1.421875 13.671875 8.265625 
Q 6.984375 17.96875 6.984375 36.375 
Q 6.984375 53.65625 15.1875 63.9375 
Q 23.390625 74.21875 37.203125 74.21875 
Q 40.921875 74.21875 44.703125 73.484375 
Q 48.484375 72.75 52.59375 71.296875 
z
" id="DejaVuSans-54"/>
     </defs>
     <use xlink:href="#DejaVuSans-101"/>
     <use x="61.523438" xlink:href="#DejaVuSans-54"/>
    </g>
   </g>
   <g id="text_9">
    <g id="patch_10">
     <path d="M 222.022742 503.458247 
L 235.62183 518.819097 
L 248.858132 507.100888 
L 235.259044 491.740039 
z
" style="fill:#ffffff;fill-opacity:0.35;stroke:#ffffff;stroke-linejoin:miter;stroke-opacity:0.35;"/>
    </g>
    <!-- e5 -->
    <g style="fill:#bcbd22;" transform="translate(229.226301 502.423192)rotate(-311.518733)scale(0.1 -0.1)">
     <defs>
      <path d="M 10.796875 72.90625 
L 49.515625 72.90625 
L 49.515625 64.59375 
L 19.828125 64.59375 
L 19.828125 46.734375 
Q 21.96875 47.46875 24.109375 47.828125 
Q 26.265625 48.1875 28.421875 48.1875 
Q 40.625 48.1875 47.75 41.5 
Q 54.890625 34.8125 54.890625 23.390625 
Q 54.890625 11.625 47.5625 5.09375 
Q 40.234375 -1.421875 26.90625 -1.421875 
Q 22.3125 -1.421875 17.546875 -0.640625 
Q 12.796875 0.140625 7.71875 1.703125 
L 7.71875 11.625 
Q 12.109375 9.234375 16.796875 8.0625 
Q 21.484375 6.890625 26.703125 6.890625 
Q 35.15625 6.890625 40.078125 11.328125 
Q 45.015625 15.765625 45.015625 23.390625 
Q 45.015625 31 40.078125 35.4375 
Q 35.15625 39.890625 26.703125 39.890625 
Q 22.75 39.890625 18.8125 39.015625 
Q 14.890625 38.140625 10.796875 36.28125 
z
" id="DejaVuSans-53"/>
     </defs>
     <use xlink:href="#DejaVuSans-101"/>
     <use x="61.523438" xlink:href="#DejaVuSans-53"/>
    </g>
   </g>
   <g id="text_10">
    <g id="patch_11">
     <path d="M 654.980244 609.64626 
L 717.709932 609.64626 
L 717.709932 591.968135 
L 654.980244 591.968135 
z
" style="fill:#ffffff;fill-opacity:0.35;stroke:#ffffff;stroke-linejoin:miter;stroke-opacity:0.35;"/>
    </g>
    <!-- n14 - drain -->
    <g transform="translate(658.980244 603.566573)scale(0.1 -0.1)">
     <defs>
      <path d="M 54.890625 33.015625 
L 54.890625 0 
L 45.90625 0 
L 45.90625 32.71875 
Q 45.90625 40.484375 42.875 44.328125 
Q 39.84375 48.1875 33.796875 48.1875 
Q 26.515625 48.1875 22.3125 43.546875 
Q 18.109375 38.921875 18.109375 30.90625 
L 18.109375 0 
L 9.078125 0 
L 9.078125 54.6875 
L 18.109375 54.6875 
L 18.109375 46.1875 
Q 21.34375 51.125 25.703125 53.5625 
Q 30.078125 56 35.796875 56 
Q 45.21875 56 50.046875 50.171875 
Q 54.890625 44.34375 54.890625 33.015625 
z
" id="DejaVuSans-110"/>
      <path d="M 45.40625 46.390625 
L 45.40625 75.984375 
L 54.390625 75.984375 
L 54.390625 0 
L 45.40625 0 
L 45.40625 8.203125 
Q 42.578125 3.328125 38.25 0.953125 
Q 33.9375 -1.421875 27.875 -1.421875 
Q 17.96875 -1.421875 11.734375 6.484375 
Q 5.515625 14.40625 5.515625 27.296875 
Q 5.515625 40.1875 11.734375 48.09375 
Q 17.96875 56 27.875 56 
Q 33.9375 56 38.25 53.625 
Q 42.578125 51.265625 45.40625 46.390625 
z
M 14.796875 27.296875 
Q 14.796875 17.390625 18.875 11.75 
Q 22.953125 6.109375 30.078125 6.109375 
Q 37.203125 6.109375 41.296875 11.75 
Q 45.40625 17.390625 45.40625 27.296875 
Q 45.40625 37.203125 41.296875 42.84375 
Q 37.203125 48.484375 30.078125 48.484375 
Q 22.953125 48.484375 18.875 42.84375 
Q 14.796875 37.203125 14.796875 27.296875 
z
" id="DejaVuSans-100"/>
      <path d="M 41.109375 46.296875 
Q 39.59375 47.171875 37.8125 47.578125 
Q 36.03125 48 33.890625 48 
Q 26.265625 48 22.1875 43.046875 
Q 18.109375 38.09375 18.109375 28.8125 
L 18.109375 0 
L 9.078125 0 
L 9.078125 54.6875 
L 18.109375 54.6875 
L 18.109375 46.1875 
Q 20.953125 51.171875 25.484375 53.578125 
Q 30.03125 56 36.53125 56 
Q 37.453125 56 38.578125 55.875 
Q 39.703125 55.765625 41.0625 55.515625 
z
" id="DejaVuSans-114"/>
      <path d="M 34.28125 27.484375 
Q 23.390625 27.484375 19.1875 25 
Q 14.984375 22.515625 14.984375 16.5 
Q 14.984375 11.71875 18.140625 8.90625 
Q 21.296875 6.109375 26.703125 6.109375 
Q 34.1875 6.109375 38.703125 11.40625 
Q 43.21875 16.703125 43.21875 25.484375 
L 43.21875 27.484375 
z
M 52.203125 31.203125 
L 52.203125 0 
L 43.21875 0 
L 43.21875 8.296875 
Q 40.140625 3.328125 35.546875 0.953125 
Q 30.953125 -1.421875 24.3125 -1.421875 
Q 15.921875 -1.421875 10.953125 3.296875 
Q 6 8.015625 6 15.921875 
Q 6 25.140625 12.171875 29.828125 
Q 18.359375 34.515625 30.609375 34.515625 
L 43.21875 34.515625 
L 43.21875 35.40625 
Q 43.21875 41.609375 39.140625 45 
Q 35.0625 48.390625 27.6875 48.390625 
Q 23 48.390625 18.546875 47.265625 
Q 14.109375 46.140625 10.015625 43.890625 
L 10.015625 52.203125 
Q 14.9375 54.109375 19.578125 55.046875 
Q 24.21875 56 28.609375 56 
Q 40.484375 56 46.34375 49.84375 
Q 52.203125 43.703125 52.203125 31.203125 
z
" id="DejaVuSans-97"/>
      <path d="M 9.421875 54.6875 
L 18.40625 54.6875 
L 18.40625 0 
L 9.421875 0 
z
M 9.421875 75.984375 
L 18.40625 75.984375 
L 18.40625 64.59375 
L 9.421875 64.59375 
z
" id="DejaVuSans-105"/>
     </defs>
     <use xlink:href="#DejaVuSans-110"/>
     <use x="63.378906" xlink:href="#DejaVuSans-49"/>
     <use x="127.001953" xlink:href="#DejaVuSans-52"/>
     <use x="190.625" xlink:href="#DejaVuSans-32"/>
     <use x="222.412109" xlink:href="#DejaVuSans-45"/>
     <use x="258.496094" xlink:href="#DejaVuSans-32"/>
     <use x="290.283203" xlink:href="#DejaVuSans-100"/>
     <use x="353.759766" xlink:href="#DejaVuSans-114"/>
     <use x="394.873047" xlink:href="#DejaVuSans-97"/>
     <use x="456.152344" xlink:href="#DejaVuSans-105"/>
     <use x="483.935547" xlink:href="#DejaVuSans-110"/>
    </g>
   </g>
   <g id="text_11">
    <g id="patch_12">
     <path d="M 608.437729 277.664646 
L 664.498667 277.664646 
L 664.498667 259.986521 
L 608.437729 259.986521 
z
" style="fill:#ffffff;fill-opacity:0.35;stroke:#ffffff;stroke-linejoin:miter;stroke-opacity:0.35;"/>
    </g>
    <!-- n16 - gnd -->
    <g transform="translate(612.437729 271.584959)scale(0.1 -0.1)">
     <defs>
      <path d="M 45.40625 27.984375 
Q 45.40625 37.75 41.375 43.109375 
Q 37.359375 48.484375 30.078125 48.484375 
Q 22.859375 48.484375 18.828125 43.109375 
Q 14.796875 37.75 14.796875 27.984375 
Q 14.796875 18.265625 18.828125 12.890625 
Q 22.859375 7.515625 30.078125 7.515625 
Q 37.359375 7.515625 41.375 12.890625 
Q 45.40625 18.265625 45.40625 27.984375 
z
M 54.390625 6.78125 
Q 54.390625 -7.171875 48.1875 -13.984375 
Q 42 -20.796875 29.203125 -20.796875 
Q 24.46875 -20.796875 20.265625 -20.09375 
Q 16.0625 -19.390625 12.109375 -17.921875 
L 12.109375 -9.1875 
Q 16.0625 -11.328125 19.921875 -12.34375 
Q 23.78125 -13.375 27.78125 -13.375 
Q 36.625 -13.375 41.015625 -8.765625 
Q 45.40625 -4.15625 45.40625 5.171875 
L 45.40625 9.625 
Q 42.625 4.78125 38.28125 2.390625 
Q 33.9375 0 27.875 0 
Q 17.828125 0 11.671875 7.65625 
Q 5.515625 15.328125 5.515625 27.984375 
Q 5.515625 40.671875 11.671875 48.328125 
Q 17.828125 56 27.875 56 
Q 33.9375 56 38.28125 53.609375 
Q 42.625 51.21875 45.40625 46.390625 
L 45.40625 54.6875 
L 54.390625 54.6875 
z
" id="DejaVuSans-103"/>
     </defs>
     <use xlink:href="#DejaVuSans-110"/>
     <use x="63.378906" xlink:href="#DejaVuSans-49"/>
     <use x="127.001953" xlink:href="#DejaVuSans-54"/>
     <use x="190.625" xlink:href="#DejaVuSans-32"/>
     <use x="222.412109" xlink:href="#DejaVuSans-45"/>
     <use x="258.496094" xlink:href="#DejaVuSans-32"/>
     <use x="290.283203" xlink:href="#DejaVuSans-103"/>
     <use x="353.759766" xlink:href="#DejaVuSans-110"/>
     <use x="417.138672" xlink:href="#DejaVuSans-100"/>
    </g>
   </g>
   <g id="text_12">
    <g id="patch_13">
     <path d="M 389.453614 265.488576 
L 449.030177 265.488576 
L 449.030177 247.810451 
L 389.453614 247.810451 
z
" style="fill:#ffffff;fill-opacity:0.35;stroke:#ffffff;stroke-linejoin:miter;stroke-opacity:0.35;"/>
    </g>
    <!-- n13 - gate -->
    <g transform="translate(393.453614 259.408888)scale(0.1 -0.1)">
     <defs>
      <path d="M 18.3125 70.21875 
L 18.3125 54.6875 
L 36.8125 54.6875 
L 36.8125 47.703125 
L 18.3125 47.703125 
L 18.3125 18.015625 
Q 18.3125 11.328125 20.140625 9.421875 
Q 21.96875 7.515625 27.59375 7.515625 
L 36.8125 7.515625 
L 36.8125 0 
L 27.59375 0 
Q 17.1875 0 13.234375 3.875 
Q 9.28125 7.765625 9.28125 18.015625 
L 9.28125 47.703125 
L 2.6875 47.703125 
L 2.6875 54.6875 
L 9.28125 54.6875 
L 9.28125 70.21875 
z
" id="DejaVuSans-116"/>
     </defs>
     <use xlink:href="#DejaVuSans-110"/>
     <use x="63.378906" xlink:href="#DejaVuSans-49"/>
     <use x="127.001953" xlink:href="#DejaVuSans-51"/>
     <use x="190.625" xlink:href="#DejaVuSans-32"/>
     <use x="222.412109" xlink:href="#DejaVuSans-45"/>
     <use x="258.496094" xlink:href="#DejaVuSans-32"/>
     <use x="290.283203" xlink:href="#DejaVuSans-103"/>
     <use x="353.759766" xlink:href="#DejaVuSans-97"/>
     <use x="415.039062" xlink:href="#DejaVuSans-116"/>
     <use x="454.248047" xlink:href="#DejaVuSans-101"/>
    </g>
   </g>
   <g id="text_13">
    <g id="patch_14">
     <path d="M 746.393057 416.320135 
L 816.622744 416.320135 
L 816.622744 398.64201 
L 746.393057 398.64201 
z
" style="fill:#ffffff;fill-opacity:0.35;stroke:#ffffff;stroke-linejoin:miter;stroke-opacity:0.35;"/>
    </g>
    <!-- n15 - source -->
    <g transform="translate(750.393057 410.240448)scale(0.1 -0.1)">
     <defs>
      <path d="M 44.28125 53.078125 
L 44.28125 44.578125 
Q 40.484375 46.53125 36.375 47.5 
Q 32.28125 48.484375 27.875 48.484375 
Q 21.1875 48.484375 17.84375 46.4375 
Q 14.5 44.390625 14.5 40.28125 
Q 14.5 37.15625 16.890625 35.375 
Q 19.28125 33.59375 26.515625 31.984375 
L 29.59375 31.296875 
Q 39.15625 29.25 43.1875 25.515625 
Q 47.21875 21.78125 47.21875 15.09375 
Q 47.21875 7.46875 41.1875 3.015625 
Q 35.15625 -1.421875 24.609375 -1.421875 
Q 20.21875 -1.421875 15.453125 -0.5625 
Q 10.6875 0.296875 5.421875 2 
L 5.421875 11.28125 
Q 10.40625 8.6875 15.234375 7.390625 
Q 20.0625 6.109375 24.8125 6.109375 
Q 31.15625 6.109375 34.5625 8.28125 
Q 37.984375 10.453125 37.984375 14.40625 
Q 37.984375 18.0625 35.515625 20.015625 
Q 33.0625 21.96875 24.703125 23.78125 
L 21.578125 24.515625 
Q 13.234375 26.265625 9.515625 29.90625 
Q 5.8125 33.546875 5.8125 39.890625 
Q 5.8125 47.609375 11.28125 51.796875 
Q 16.75 56 26.8125 56 
Q 31.78125 56 36.171875 55.265625 
Q 40.578125 54.546875 44.28125 53.078125 
z
" id="DejaVuSans-115"/>
      <path d="M 30.609375 48.390625 
Q 23.390625 48.390625 19.1875 42.75 
Q 14.984375 37.109375 14.984375 27.296875 
Q 14.984375 17.484375 19.15625 11.84375 
Q 23.34375 6.203125 30.609375 6.203125 
Q 37.796875 6.203125 41.984375 11.859375 
Q 46.1875 17.53125 46.1875 27.296875 
Q 46.1875 37.015625 41.984375 42.703125 
Q 37.796875 48.390625 30.609375 48.390625 
z
M 30.609375 56 
Q 42.328125 56 49.015625 48.375 
Q 55.71875 40.765625 55.71875 27.296875 
Q 55.71875 13.875 49.015625 6.21875 
Q 42.328125 -1.421875 30.609375 -1.421875 
Q 18.84375 -1.421875 12.171875 6.21875 
Q 5.515625 13.875 5.515625 27.296875 
Q 5.515625 40.765625 12.171875 48.375 
Q 18.84375 56 30.609375 56 
z
" id="DejaVuSans-111"/>
      <path d="M 8.5 21.578125 
L 8.5 54.6875 
L 17.484375 54.6875 
L 17.484375 21.921875 
Q 17.484375 14.15625 20.5 10.265625 
Q 23.53125 6.390625 29.59375 6.390625 
Q 36.859375 6.390625 41.078125 11.03125 
Q 45.3125 15.671875 45.3125 23.6875 
L 45.3125 54.6875 
L 54.296875 54.6875 
L 54.296875 0 
L 45.3125 0 
L 45.3125 8.40625 
Q 42.046875 3.421875 37.71875 1 
Q 33.40625 -1.421875 27.6875 -1.421875 
Q 18.265625 -1.421875 13.375 4.4375 
Q 8.5 10.296875 8.5 21.578125 
z
M 31.109375 56 
z
" id="DejaVuSans-117"/>
      <path d="M 48.78125 52.59375 
L 48.78125 44.1875 
Q 44.96875 46.296875 41.140625 47.34375 
Q 37.3125 48.390625 33.40625 48.390625 
Q 24.65625 48.390625 19.8125 42.84375 
Q 14.984375 37.3125 14.984375 27.296875 
Q 14.984375 17.28125 19.8125 11.734375 
Q 24.65625 6.203125 33.40625 6.203125 
Q 37.3125 6.203125 41.140625 7.25 
Q 44.96875 8.296875 48.78125 10.40625 
L 48.78125 2.09375 
Q 45.015625 0.34375 40.984375 -0.53125 
Q 36.96875 -1.421875 32.421875 -1.421875 
Q 20.0625 -1.421875 12.78125 6.34375 
Q 5.515625 14.109375 5.515625 27.296875 
Q 5.515625 40.671875 12.859375 48.328125 
Q 20.21875 56 33.015625 56 
Q 37.15625 56 41.109375 55.140625 
Q 45.0625 54.296875 48.78125 52.59375 
z
" id="DejaVuSans-99"/>
     </defs>
     <use xlink:href="#DejaVuSans-110"/>
     <use x="63.378906" xlink:href="#DejaVuSans-49"/>
     <use x="127.001953" xlink:href="#DejaVuSans-53"/>
     <use x="190.625" xlink:href="#DejaVuSans-32"/>
     <use x="222.412109" xlink:href="#DejaVuSans-45"/>
     <use x="258.496094" xlink:href="#DejaVuSans-32"/>
     <use x="290.283203" xlink:href="#DejaVuSans-115"/>
     <use x="342.382812" xlink:href="#DejaVuSans-111"/>
     <use x="403.564453" xlink:href="#DejaVuSans-117"/>
     <use x="466.943359" xlink:href="#DejaVuSans-114"/>
     <use x="505.806641" xlink:href="#DejaVuSans-99"/>
     <use x="560.787109" xlink:href="#DejaVuSans-101"/>
    </g>
   </g>
   <g id="text_14">
    <g id="patch_15">
     <path d="M 623.672935 412.91086 
L 679.733872 412.91086 
L 679.733872 395.232735 
L 623.672935 395.232735 
z
" style="fill:#ffffff;fill-opacity:0.35;stroke:#ffffff;stroke-linejoin:miter;stroke-opacity:0.35;"/>
    </g>
    <!-- n12 - gnd -->
    <g transform="translate(627.672935 406.831172)scale(0.1 -0.1)">
     <use xlink:href="#DejaVuSans-110"/>
     <use x="63.378906" xlink:href="#DejaVuSans-49"/>
     <use x="127.001953" xlink:href="#DejaVuSans-50"/>
     <use x="190.625" xlink:href="#DejaVuSans-32"/>
     <use x="222.412109" xlink:href="#DejaVuSans-45"/>
     <use x="258.496094" xlink:href="#DejaVuSans-32"/>
     <use x="290.283203" xlink:href="#DejaVuSans-103"/>
     <use x="353.759766" xlink:href="#DejaVuSans-110"/>
     <use x="417.138672" xlink:href="#DejaVuSans-100"/>
    </g>
   </g>
   <g id="text_15">
    <g id="patch_16">
     <path d="M 585.501835 722.106425 
L 655.731523 722.106425 
L 655.731523 704.4283 
L 585.501835 704.4283 
z
" style="fill:#ffffff;fill-opacity:0.35;stroke:#ffffff;stroke-linejoin:miter;stroke-opacity:0.35;"/>
    </g>
    <!-- n11 - source -->
    <g transform="translate(589.501835 716.026737)scale(0.1 -0.1)">
     <use xlink:href="#DejaVuSans-110"/>
     <use x="63.378906" xlink:href="#DejaVuSans-49"/>
     <use x="127.001953" xlink:href="#DejaVuSans-49"/>
     <use x="190.625" xlink:href="#DejaVuSans-32"/>
     <use x="222.412109" xlink:href="#DejaVuSans-45"/>
     <use x="258.496094" xlink:href="#DejaVuSans-32"/>
     <use x="290.283203" xlink:href="#DejaVuSans-115"/>
     <use x="342.382812" xlink:href="#DejaVuSans-111"/>
     <use x="403.564453" xlink:href="#DejaVuSans-117"/>
     <use x="466.943359" xlink:href="#DejaVuSans-114"/>
     <use x="505.806641" xlink:href="#DejaVuSans-99"/>
     <use x="560.787109" xlink:href="#DejaVuSans-101"/>
    </g>
   </g>
   <g id="text_16">
    <g id="patch_17">
     <path d="M 399.024941 753.113459 
L 452.239003 753.113459 
L 452.239003 735.435334 
L 399.024941 735.435334 
z
" style="fill:#ffffff;fill-opacity:0.35;stroke:#ffffff;stroke-linejoin:miter;stroke-opacity:0.35;"/>
    </g>
    <!-- n9 - gate -->
    <g transform="translate(403.024941 747.033772)scale(0.1 -0.1)">
     <defs>
      <path d="M 10.984375 1.515625 
L 10.984375 10.5 
Q 14.703125 8.734375 18.5 7.8125 
Q 22.3125 6.890625 25.984375 6.890625 
Q 35.75 6.890625 40.890625 13.453125 
Q 46.046875 20.015625 46.78125 33.40625 
Q 43.953125 29.203125 39.59375 26.953125 
Q 35.25 24.703125 29.984375 24.703125 
Q 19.046875 24.703125 12.671875 31.3125 
Q 6.296875 37.9375 6.296875 49.421875 
Q 6.296875 60.640625 12.9375 67.421875 
Q 19.578125 74.21875 30.609375 74.21875 
Q 43.265625 74.21875 49.921875 64.515625 
Q 56.59375 54.828125 56.59375 36.375 
Q 56.59375 19.140625 48.40625 8.859375 
Q 40.234375 -1.421875 26.421875 -1.421875 
Q 22.703125 -1.421875 18.890625 -0.6875 
Q 15.09375 0.046875 10.984375 1.515625 
z
M 30.609375 32.421875 
Q 37.25 32.421875 41.125 36.953125 
Q 45.015625 41.5 45.015625 49.421875 
Q 45.015625 57.28125 41.125 61.84375 
Q 37.25 66.40625 30.609375 66.40625 
Q 23.96875 66.40625 20.09375 61.84375 
Q 16.21875 57.28125 16.21875 49.421875 
Q 16.21875 41.5 20.09375 36.953125 
Q 23.96875 32.421875 30.609375 32.421875 
z
" id="DejaVuSans-57"/>
     </defs>
     <use xlink:href="#DejaVuSans-110"/>
     <use x="63.378906" xlink:href="#DejaVuSans-57"/>
     <use x="127.001953" xlink:href="#DejaVuSans-32"/>
     <use x="158.789062" xlink:href="#DejaVuSans-45"/>
     <use x="194.873047" xlink:href="#DejaVuSans-32"/>
     <use x="226.660156" xlink:href="#DejaVuSans-103"/>
     <use x="290.136719" xlink:href="#DejaVuSans-97"/>
     <use x="351.416016" xlink:href="#DejaVuSans-116"/>
     <use x="390.625" xlink:href="#DejaVuSans-101"/>
    </g>
   </g>
   <g id="text_17">
    <g id="patch_18">
     <path d="M 262.255203 579.999019 
L 324.984891 579.999019 
L 324.984891 562.320894 
L 262.255203 562.320894 
z
" style="fill:#ffffff;fill-opacity:0.35;stroke:#ffffff;stroke-linejoin:miter;stroke-opacity:0.35;"/>
    </g>
    <!-- n10 - drain -->
    <g transform="translate(266.255203 573.919331)scale(0.1 -0.1)">
     <use xlink:href="#DejaVuSans-110"/>
     <use x="63.378906" xlink:href="#DejaVuSans-49"/>
     <use x="127.001953" xlink:href="#DejaVuSans-48"/>
     <use x="190.625" xlink:href="#DejaVuSans-32"/>
     <use x="222.412109" xlink:href="#DejaVuSans-45"/>
     <use x="258.496094" xlink:href="#DejaVuSans-32"/>
     <use x="290.283203" xlink:href="#DejaVuSans-100"/>
     <use x="353.759766" xlink:href="#DejaVuSans-114"/>
     <use x="394.873047" xlink:href="#DejaVuSans-97"/>
     <use x="456.152344" xlink:href="#DejaVuSans-105"/>
     <use x="483.935547" xlink:href="#DejaVuSans-110"/>
    </g>
   </g>
   <g id="text_18">
    <g id="patch_19">
     <path d="M 300.654153 741.395948 
L 343.808841 741.395948 
L 343.808841 723.717823 
L 300.654153 723.717823 
z
" style="fill:#ffffff;fill-opacity:0.35;stroke:#ffffff;stroke-linejoin:miter;stroke-opacity:0.35;"/>
    </g>
    <!-- n17 - a -->
    <g transform="translate(304.654153 735.31626)scale(0.1 -0.1)">
     <use xlink:href="#DejaVuSans-110"/>
     <use x="63.378906" xlink:href="#DejaVuSans-49"/>
     <use x="127.001953" xlink:href="#DejaVuSans-55"/>
     <use x="190.625" xlink:href="#DejaVuSans-32"/>
     <use x="222.412109" xlink:href="#DejaVuSans-45"/>
     <use x="258.496094" xlink:href="#DejaVuSans-32"/>
     <use x="290.283203" xlink:href="#DejaVuSans-97"/>
    </g>
   </g>
   <g id="text_19">
    <g id="patch_20">
     <path d="M 269.125498 273.685386 
L 312.500498 273.685386 
L 312.500498 256.007261 
L 269.125498 256.007261 
z
" style="fill:#ffffff;fill-opacity:0.35;stroke:#ffffff;stroke-linejoin:miter;stroke-opacity:0.35;"/>
    </g>
    <!-- n18 - b -->
    <g transform="translate(273.125498 267.605698)scale(0.1 -0.1)">
     <defs>
      <path d="M 31.78125 34.625 
Q 24.75 34.625 20.71875 30.859375 
Q 16.703125 27.09375 16.703125 20.515625 
Q 16.703125 13.921875 20.71875 10.15625 
Q 24.75 6.390625 31.78125 6.390625 
Q 38.8125 6.390625 42.859375 10.171875 
Q 46.921875 13.96875 46.921875 20.515625 
Q 46.921875 27.09375 42.890625 30.859375 
Q 38.875 34.625 31.78125 34.625 
z
M 21.921875 38.8125 
Q 15.578125 40.375 12.03125 44.71875 
Q 8.5 49.078125 8.5 55.328125 
Q 8.5 64.0625 14.71875 69.140625 
Q 20.953125 74.21875 31.78125 74.21875 
Q 42.671875 74.21875 48.875 69.140625 
Q 55.078125 64.0625 55.078125 55.328125 
Q 55.078125 49.078125 51.53125 44.71875 
Q 48 40.375 41.703125 38.8125 
Q 48.828125 37.15625 52.796875 32.3125 
Q 56.78125 27.484375 56.78125 20.515625 
Q 56.78125 9.90625 50.3125 4.234375 
Q 43.84375 -1.421875 31.78125 -1.421875 
Q 19.734375 -1.421875 13.25 4.234375 
Q 6.78125 9.90625 6.78125 20.515625 
Q 6.78125 27.484375 10.78125 32.3125 
Q 14.796875 37.15625 21.921875 38.8125 
z
M 18.3125 54.390625 
Q 18.3125 48.734375 21.84375 45.5625 
Q 25.390625 42.390625 31.78125 42.390625 
Q 38.140625 42.390625 41.71875 45.5625 
Q 45.3125 48.734375 45.3125 54.390625 
Q 45.3125 60.0625 41.71875 63.234375 
Q 38.140625 66.40625 31.78125 66.40625 
Q 25.390625 66.40625 21.84375 63.234375 
Q 18.3125 60.0625 18.3125 54.390625 
z
" id="DejaVuSans-56"/>
      <path d="M 48.6875 27.296875 
Q 48.6875 37.203125 44.609375 42.84375 
Q 40.53125 48.484375 33.40625 48.484375 
Q 26.265625 48.484375 22.1875 42.84375 
Q 18.109375 37.203125 18.109375 27.296875 
Q 18.109375 17.390625 22.1875 11.75 
Q 26.265625 6.109375 33.40625 6.109375 
Q 40.53125 6.109375 44.609375 11.75 
Q 48.6875 17.390625 48.6875 27.296875 
z
M 18.109375 46.390625 
Q 20.953125 51.265625 25.265625 53.625 
Q 29.59375 56 35.59375 56 
Q 45.5625 56 51.78125 48.09375 
Q 58.015625 40.1875 58.015625 27.296875 
Q 58.015625 14.40625 51.78125 6.484375 
Q 45.5625 -1.421875 35.59375 -1.421875 
Q 29.59375 -1.421875 25.265625 0.953125 
Q 20.953125 3.328125 18.109375 8.203125 
L 18.109375 0 
L 9.078125 0 
L 9.078125 75.984375 
L 18.109375 75.984375 
z
" id="DejaVuSans-98"/>
     </defs>
     <use xlink:href="#DejaVuSans-110"/>
     <use x="63.378906" xlink:href="#DejaVuSans-49"/>
     <use x="127.001953" xlink:href="#DejaVuSans-56"/>
     <use x="190.625" xlink:href="#DejaVuSans-32"/>
     <use x="222.412109" xlink:href="#DejaVuSans-45"/>
     <use x="258.496094" xlink:href="#DejaVuSans-32"/>
     <use x="290.283203" xlink:href="#DejaVuSans-98"/>
    </g>
   </g>
   <g id="text_20">
    <g id="patch_21">
     <path d="M 787.916013 517.793622 
L 841.319138 517.793622 
L 841.319138 500.115497 
L 787.916013 500.115497 
z
" style="fill:#ffffff;fill-opacity:0.35;stroke:#ffffff;stroke-linejoin:miter;stroke-opacity:0.35;"/>
    </g>
    <!-- n19 - out -->
    <g transform="translate(791.916013 511.713935)scale(0.1 -0.1)">
     <use xlink:href="#DejaVuSans-110"/>
     <use x="63.378906" xlink:href="#DejaVuSans-49"/>
     <use x="127.001953" xlink:href="#DejaVuSans-57"/>
     <use x="190.625" xlink:href="#DejaVuSans-32"/>
     <use x="222.412109" xlink:href="#DejaVuSans-45"/>
     <use x="258.496094" xlink:href="#DejaVuSans-32"/>
     <use x="290.283203" xlink:href="#DejaVuSans-111"/>
     <use x="351.464844" xlink:href="#DejaVuSans-117"/>
     <use x="414.84375" xlink:href="#DejaVuSans-116"/>
    </g>
   </g>
   <g id="text_21">
    <g id="patch_22">
     <path d="M 536.794946 202.420913 
L 592.855883 202.420913 
L 592.855883 184.742788 
L 536.794946 184.742788 
z
" style="fill:#ffffff;fill-opacity:0.35;stroke:#ffffff;stroke-linejoin:miter;stroke-opacity:0.35;"/>
    </g>
    <!-- n21 - gnd -->
    <g transform="translate(540.794946 196.341225)scale(0.1 -0.1)">
     <use xlink:href="#DejaVuSans-110"/>
     <use x="63.378906" xlink:href="#DejaVuSans-50"/>
     <use x="127.001953" xlink:href="#DejaVuSans-49"/>
     <use x="190.625" xlink:href="#DejaVuSans-32"/>
     <use x="222.412109" xlink:href="#DejaVuSans-45"/>
     <use x="258.496094" xlink:href="#DejaVuSans-32"/>
     <use x="290.283203" xlink:href="#DejaVuSans-103"/>
     <use x="353.759766" xlink:href="#DejaVuSans-110"/>
     <use x="417.138672" xlink:href="#DejaVuSans-100"/>
    </g>
   </g>
   <g id="text_22">
    <g id="patch_23">
     <path d="M 188.491494 485.379925 
L 242.433681 485.379925 
L 242.433681 467.7018 
L 188.491494 467.7018 
z
" style="fill:#ffffff;fill-opacity:0.35;stroke:#ffffff;stroke-linejoin:miter;stroke-opacity:0.35;"/>
    </g>
    <!-- n20 - vcc -->
    <g transform="translate(192.491494 479.300238)scale(0.1 -0.1)">
     <defs>
      <path d="M 2.984375 54.6875 
L 12.5 54.6875 
L 29.59375 8.796875 
L 46.6875 54.6875 
L 56.203125 54.6875 
L 35.6875 0 
L 23.484375 0 
z
" id="DejaVuSans-118"/>
     </defs>
     <use xlink:href="#DejaVuSans-110"/>
     <use x="63.378906" xlink:href="#DejaVuSans-50"/>
     <use x="127.001953" xlink:href="#DejaVuSans-48"/>
     <use x="190.625" xlink:href="#DejaVuSans-32"/>
     <use x="222.412109" xlink:href="#DejaVuSans-45"/>
     <use x="258.496094" xlink:href="#DejaVuSans-32"/>
     <use x="290.283203" xlink:href="#DejaVuSans-118"/>
     <use x="349.462891" xlink:href="#DejaVuSans-99"/>
     <use x="404.443359" xlink:href="#DejaVuSans-99"/>
    </g>
   </g>
  </g>
 </g>
 <defs>
  <clipPath id="pd576fac85b">
   <rect height="720.72" width="725.4" x="117" y="112.32"/>
  </clipPath>
 </defs>
</svg>
