<?xml version="1.0" encoding="utf-8" standalone="no"?>
<!DOCTYPE svg PUBLIC "-//W3C//DTD SVG 1.1//EN"
  "http://www.w3.org/Graphics/SVG/1.1/DTD/svg11.dtd">
<!-- Created with matplotlib (https://matplotlib.org/) -->
<svg height="936pt" version="1.1" viewBox="0 0 936 936" width="936pt" xmlns="http://www.w3.org/2000/svg" xmlns:xlink="http://www.w3.org/1999/xlink">
 <metadata>
  <rdf:RDF xmlns:cc="http://creativecommons.org/ns#" xmlns:dc="http://purl.org/dc/elements/1.1/" xmlns:rdf="http://www.w3.org/1999/02/22-rdf-syntax-ns#">
   <cc:Work>
    <dc:type rdf:resource="http://purl.org/dc/dcmitype/StillImage"/>
    <dc:date>2021-02-13T13:05:37.804492</dc:date>
    <dc:format>image/svg+xml</dc:format>
    <dc:creator>
     <cc:Agent>
      <dc:title>Matplotlib v3.3.4, https://matplotlib.org/</dc:title>
     </cc:Agent>
    </dc:creator>
   </cc:Work>
  </rdf:RDF>
 </metadata>
 <defs>
  <style type="text/css">*{stroke-linecap:butt;stroke-linejoin:round;}</style>
 </defs>
 <g id="figure_1">
  <g id="patch_1">
   <path d="M 0 936 
L 936 936 
L 936 0 
L 0 0 
z
" style="fill:#ffffff;"/>
  </g>
  <g id="axes_1">
   <g id="PolyCollection_1">
    <path clip-path="url(#p5377fcb57b)" d="M 520.540993 262.174379 
L 179.095646 452.560983 
L 173.925743 456.52799 
L 169.958736 461.697893 
L 167.464972 467.718373 
L 166.614395 474.179144 
L 167.464972 480.639915 
L 238.818168 669.429466 
L 241.311932 675.449946 
L 245.278939 680.619849 
L 250.448842 684.586855 
L 256.469322 687.08062 
L 262.930093 687.931197 
L 581.657805 647.689521 
L 588.118576 646.838944 
L 594.139056 644.34518 
L 599.308959 640.378173 
L 603.275965 635.20827 
L 605.76973 629.18779 
L 606.620307 622.727019 
L 605.76973 616.266248 
L 557.13417 277.331769 
L 554.640405 271.311289 
L 550.673399 266.141385 
L 545.503495 262.174379 
L 539.483015 259.680614 
L 533.022244 258.830038 
L 526.561473 259.680614 
z
" style="fill:none;stroke:#1f77b4;"/>
    <path clip-path="url(#p5377fcb57b)" d="M 548.374469 622.727019 
L 549.508571 631.34138 
L 552.83359 639.368687 
L 558.122932 646.261891 
L 565.016137 651.551233 
L 573.043443 654.876253 
L 581.657805 656.010355 
L 590.272166 654.876253 
L 598.299473 651.551233 
L 788.625188 552.774214 
L 793.795091 548.807208 
L 797.762098 543.637304 
L 800.255862 537.616824 
L 801.106439 531.156053 
L 800.255862 524.695282 
L 797.762098 518.674802 
L 793.795091 513.504899 
L 788.625188 509.537892 
L 782.604708 507.044128 
L 776.143937 506.193551 
L 769.683166 507.044128 
L 763.662686 509.537892 
L 565.016137 593.902805 
L 558.122932 599.192146 
L 552.83359 606.085351 
L 549.508571 614.112658 
z
" style="fill:none;stroke:#ff7f0e;"/>
    <path clip-path="url(#p5377fcb57b)" d="M 563.574095 764.184193 
L 562.723519 770.644964 
L 563.574095 777.105735 
L 566.06786 783.126215 
L 570.034866 788.296119 
L 575.20477 792.263125 
L 581.22525 794.75689 
L 587.686021 795.607466 
L 594.146791 794.75689 
L 600.167272 792.263125 
L 605.337175 788.296119 
L 609.304181 783.126215 
L 611.797946 777.105735 
L 674.664785 608.351108 
L 675.515362 601.890337 
L 674.664785 595.429566 
L 672.171021 589.409086 
L 668.204014 584.239183 
L 663.034111 580.272177 
L 657.013631 577.778412 
L 650.55286 576.927836 
L 644.092089 577.778412 
L 638.071609 580.272177 
L 632.901706 584.239183 
L 628.934699 589.409086 
L 626.440935 595.429566 
z
" style="fill:none;stroke:#2ca02c;"/>
    <path clip-path="url(#p5377fcb57b)" d="M 162.752683 490.820812 
L 168.042025 497.714016 
L 174.935229 503.003358 
L 182.962536 506.328378 
L 191.576897 507.46248 
L 200.191258 506.328378 
L 208.218565 503.003358 
L 215.11177 497.714016 
L 220.401111 490.820812 
L 272.341593 374.503071 
L 274.835358 368.482591 
L 275.685934 362.02182 
L 274.835358 355.561049 
L 272.341593 349.540569 
L 268.374587 344.370666 
L 263.204683 340.403659 
L 257.184203 337.909895 
L 250.723432 337.059318 
L 244.262662 337.909895 
L 238.242182 340.403659 
L 233.072278 344.370666 
L 229.105272 349.540569 
L 162.752683 457.537476 
L 159.427663 465.564783 
L 158.293561 474.179144 
L 159.427663 482.793505 
z
" style="fill:none;stroke:#d62728;"/>
    <path clip-path="url(#p5377fcb57b)" d="M 151.390355 463.411193 
L 149.972727 474.179144 
L 151.390355 484.947096 
L 222.743551 673.736646 
L 226.899825 683.77078 
L 284.298347 777.815026 
L 289.587688 784.70823 
L 296.480893 789.997572 
L 304.5082 793.322592 
L 313.122561 794.456694 
L 587.686021 803.9283 
L 596.300382 802.794198 
L 604.327689 799.469179 
L 611.220893 794.179837 
L 799.678809 554.690926 
L 804.968151 547.797721 
L 808.293171 539.770414 
L 809.427273 531.156053 
L 808.293171 522.541692 
L 769.318179 280.747015 
L 765.99316 272.719708 
L 760.703818 265.826504 
L 753.810613 260.537162 
L 646.404736 214.344229 
L 636.370602 210.187955 
L 410.71967 142.849328 
L 399.951719 141.4317 
L 290.116398 141.908442 
L 281.502037 143.042544 
L 273.47473 146.367564 
L 266.581526 151.656905 
L 261.292184 158.55011 
L 257.967164 166.577417 
z
" style="fill:none;stroke:#9467bd;"/>
    <path clip-path="url(#p5377fcb57b)" d="M 239.395221 639.433822 
L 234.105879 646.327027 
L 230.780859 654.354333 
L 229.646757 662.968695 
L 230.780859 671.583056 
L 234.105879 679.610363 
L 291.5044 773.654609 
L 295.471407 778.824512 
L 300.64131 782.791519 
L 306.66179 785.285283 
L 313.122561 786.13586 
L 319.583332 785.285283 
L 325.603812 782.791519 
L 330.773715 778.824512 
L 334.740722 773.654609 
L 337.234486 767.634129 
L 338.085063 761.173358 
L 337.234486 754.712587 
L 334.740722 748.692107 
L 291.754307 646.327027 
L 286.464966 639.433822 
L 279.571761 634.14448 
L 271.544454 630.819461 
L 262.930093 629.685359 
L 254.315732 630.819461 
L 246.288425 634.14448 
z
" style="fill:none;stroke:#8c564b;"/>
    <path clip-path="url(#p5377fcb57b)" d="M 290.116398 200.15428 
L 399.951719 207.998371 
L 406.41249 207.147795 
L 412.43297 204.65403 
L 417.602873 200.687024 
L 421.569879 195.517121 
L 424.063644 189.49664 
L 424.914221 183.03587 
L 424.063644 176.575099 
L 421.569879 170.554619 
L 417.602873 165.384715 
L 412.43297 161.417709 
L 406.41249 158.923944 
L 399.951719 158.073368 
L 290.116398 150.229276 
L 283.655627 151.079853 
L 277.635147 153.573617 
L 272.465244 157.540624 
L 268.498237 162.710527 
L 266.004473 168.731007 
L 265.153896 175.191778 
L 266.004473 181.652549 
L 268.498237 187.673029 
L 272.465244 192.842932 
L 277.635147 196.809939 
L 283.655627 199.303703 
z
" style="fill:none;stroke:#e377c2;"/>
    <path clip-path="url(#p5377fcb57b)" d="M 533.022244 317.075876 
L 737.168945 314.323878 
L 743.629716 313.473301 
L 749.650196 310.979537 
L 754.8201 307.01253 
L 758.787106 301.842627 
L 761.280871 295.822147 
L 762.131447 289.361376 
L 761.280871 282.900605 
L 758.787106 276.880125 
L 754.8201 271.710222 
L 749.650196 267.743215 
L 743.629716 265.249451 
L 632.063422 226.262572 
L 625.602651 225.411995 
L 619.14188 226.262572 
L 524.407883 251.643306 
L 516.380576 254.968325 
L 509.487372 260.257667 
L 504.19803 267.150872 
L 500.873011 275.178179 
L 499.738908 283.79254 
L 500.873011 292.406901 
L 504.19803 300.434208 
L 509.487372 307.327412 
L 516.380576 312.616754 
L 524.407883 315.941773 
z
" style="fill:none;stroke:#7f7f7f;"/>
    <path clip-path="url(#p5377fcb57b)" d="M 683.836196 601.890337 
L 658.885987 250.374497 
L 657.751885 241.760136 
L 654.426865 233.732829 
L 649.137523 226.839625 
L 642.244319 221.550283 
L 634.217012 218.225263 
L 408.56608 150.886636 
L 399.951719 149.752534 
L 391.337357 150.886636 
L 383.310051 154.211655 
L 376.416846 159.500997 
L 227.18856 338.486947 
L 221.899218 345.380152 
L 218.574199 353.407459 
L 217.440097 362.02182 
L 218.574199 370.636181 
L 221.899218 378.663488 
L 227.18856 385.556692 
L 234.081765 390.846034 
L 633.911192 630.714552 
L 641.938499 634.039571 
L 650.55286 635.173673 
L 659.167221 634.039571 
L 667.194528 630.714552 
L 674.087732 625.42521 
L 679.377074 618.532005 
L 682.702094 610.504699 
z
" style="fill:none;stroke:#bcbd22;"/>
   </g>
   <g id="PolyCollection_2">
    <path clip-path="url(#p5377fcb57b)" d="M 199.897731 474.179144 
L 199.614205 472.025554 
L 198.782951 470.018727 
L 197.460615 468.295426 
L 195.737314 466.97309 
L 193.730487 466.141836 
L 191.576897 465.85831 
L 189.423307 466.141836 
L 187.41648 466.97309 
L 185.693179 468.295426 
L 184.370843 470.018727 
L 183.539589 472.025554 
L 183.256063 474.179144 
L 183.539589 476.332734 
L 184.370843 478.339561 
L 185.693179 480.062862 
L 187.41648 481.385198 
L 189.423307 482.216452 
L 191.576897 482.499978 
L 193.730487 482.216452 
L 195.737314 481.385198 
L 197.460615 480.062862 
L 198.782951 478.339561 
L 199.614205 476.332734 
z
"/>
    <path clip-path="url(#p5377fcb57b)" d="M 541.343078 283.79254 
L 541.059553 281.638949 
L 540.228298 279.632123 
L 538.905962 277.908822 
L 537.182661 276.586486 
L 535.175835 275.755231 
L 533.022244 275.471706 
L 530.868654 275.755231 
L 528.861827 276.586486 
L 527.138526 277.908822 
L 525.816191 279.632123 
L 524.984936 281.638949 
L 524.70141 283.79254 
L 524.984936 285.94613 
L 525.816191 287.952957 
L 527.138526 289.676258 
L 528.861827 290.998593 
L 530.868654 291.829848 
L 533.022244 292.113374 
L 535.175835 291.829848 
L 537.182661 290.998593 
L 538.905962 289.676258 
L 540.228298 287.952957 
L 541.059553 285.94613 
z
"/>
    <path clip-path="url(#p5377fcb57b)" d="M 271.250927 662.968695 
L 270.967401 660.815104 
L 270.136147 658.808278 
L 268.813811 657.084977 
L 267.09051 655.762641 
L 265.083683 654.931386 
L 262.930093 654.647861 
L 260.776503 654.931386 
L 258.769676 655.762641 
L 257.046375 657.084977 
L 255.724039 658.808278 
L 254.892785 660.815104 
L 254.609259 662.968695 
L 254.892785 665.122285 
L 255.724039 667.129112 
L 257.046375 668.852413 
L 258.769676 670.174748 
L 260.776503 671.006003 
L 262.930093 671.289529 
L 265.083683 671.006003 
L 267.09051 670.174748 
L 268.813811 668.852413 
L 270.136147 667.129112 
L 270.967401 665.122285 
z
"/>
    <path clip-path="url(#p5377fcb57b)" d="M 589.978639 622.727019 
L 589.695113 620.573429 
L 588.863858 618.566602 
L 587.541523 616.843301 
L 585.818222 615.520965 
L 583.811395 614.68971 
L 581.657805 614.406185 
L 579.504214 614.68971 
L 577.497388 615.520965 
L 575.774087 616.843301 
L 574.451751 618.566602 
L 573.620496 620.573429 
L 573.336971 622.727019 
L 573.620496 624.880609 
L 574.451751 626.887436 
L 575.774087 628.610737 
L 577.497388 629.933072 
L 579.504214 630.764327 
L 581.657805 631.047853 
L 583.811395 630.764327 
L 585.818222 629.933072 
L 587.541523 628.610737 
L 588.863858 626.887436 
L 589.695113 624.880609 
z
"/>
    <path clip-path="url(#p5377fcb57b)" d="M 784.464771 531.156053 
L 784.181245 529.002463 
L 783.34999 526.995636 
L 782.027655 525.272335 
L 780.304354 523.95 
L 778.297527 523.118745 
L 776.143937 522.835219 
L 773.990347 523.118745 
L 771.98352 523.95 
L 770.260219 525.272335 
L 768.937883 526.995636 
L 768.106628 529.002463 
L 767.823103 531.156053 
L 768.106628 533.309644 
L 768.937883 535.31647 
L 770.260219 537.039771 
L 771.98352 538.362107 
L 773.990347 539.193362 
L 776.143937 539.476887 
L 778.297527 539.193362 
L 780.304354 538.362107 
L 782.027655 537.039771 
L 783.34999 535.31647 
L 784.181245 533.309644 
z
"/>
    <path clip-path="url(#p5377fcb57b)" d="M 658.873694 601.890337 
L 658.590168 599.736747 
L 657.758914 597.72992 
L 656.436578 596.006619 
L 654.713277 594.684284 
L 652.70645 593.853029 
L 650.55286 593.569503 
L 648.39927 593.853029 
L 646.392443 594.684284 
L 644.669142 596.006619 
L 643.346806 597.72992 
L 642.515552 599.736747 
L 642.232026 601.890337 
L 642.515552 604.043928 
L 643.346806 606.050754 
L 644.669142 607.774055 
L 646.392443 609.096391 
L 648.39927 609.927646 
L 650.55286 610.211171 
L 652.70645 609.927646 
L 654.713277 609.096391 
L 656.436578 607.774055 
L 657.758914 606.050754 
L 658.590168 604.043928 
z
"/>
    <path clip-path="url(#p5377fcb57b)" d="M 596.006855 770.644964 
L 595.723329 768.491374 
L 594.892074 766.484547 
L 593.569739 764.761246 
L 591.846438 763.438911 
L 589.839611 762.607656 
L 587.686021 762.32413 
L 585.53243 762.607656 
L 583.525604 763.438911 
L 581.802302 764.761246 
L 580.479967 766.484547 
L 579.648712 768.491374 
L 579.365187 770.644964 
L 579.648712 772.798555 
L 580.479967 774.805381 
L 581.802302 776.528682 
L 583.525604 777.851018 
L 585.53243 778.682273 
L 587.686021 778.965798 
L 589.839611 778.682273 
L 591.846438 777.851018 
L 593.569739 776.528682 
L 594.892074 774.805381 
L 595.723329 772.798555 
z
"/>
    <path clip-path="url(#p5377fcb57b)" d="M 259.044266 362.02182 
L 258.760741 359.86823 
L 257.929486 357.861403 
L 256.607151 356.138102 
L 254.883849 354.815766 
L 252.877023 353.984511 
L 250.723432 353.700986 
L 248.569842 353.984511 
L 246.563016 354.815766 
L 244.839714 356.138102 
L 243.517379 357.861403 
L 242.686124 359.86823 
L 242.402599 362.02182 
L 242.686124 364.17541 
L 243.517379 366.182237 
L 244.839714 367.905538 
L 246.563016 369.227873 
L 248.569842 370.059128 
L 250.723432 370.342654 
L 252.877023 370.059128 
L 254.883849 369.227873 
L 256.607151 367.905538 
L 257.929486 366.182237 
L 258.760741 364.17541 
z
"/>
    <path clip-path="url(#p5377fcb57b)" d="M 321.443395 761.173358 
L 321.159869 759.019768 
L 320.328615 757.012941 
L 319.006279 755.28964 
L 317.282978 753.967304 
L 315.276151 753.13605 
L 313.122561 752.852524 
L 310.968971 753.13605 
L 308.962144 753.967304 
L 307.238843 755.28964 
L 305.916507 757.012941 
L 305.085253 759.019768 
L 304.801727 761.173358 
L 305.085253 763.326948 
L 305.916507 765.333775 
L 307.238843 767.057076 
L 308.962144 768.379412 
L 310.968971 769.210666 
L 313.122561 769.494192 
L 315.276151 769.210666 
L 317.282978 768.379412 
L 319.006279 767.057076 
L 320.328615 765.333775 
L 321.159869 763.326948 
z
"/>
    <path clip-path="url(#p5377fcb57b)" d="M 633.923485 250.374497 
L 633.639959 248.220907 
L 632.808704 246.21408 
L 631.486369 244.490779 
L 629.763068 243.168444 
L 627.756241 242.337189 
L 625.602651 242.053663 
L 623.449061 242.337189 
L 621.442234 243.168444 
L 619.718933 244.490779 
L 618.396597 246.21408 
L 617.565342 248.220907 
L 617.281817 250.374497 
L 617.565342 252.528087 
L 618.396597 254.534914 
L 619.718933 256.258215 
L 621.442234 257.580551 
L 623.449061 258.411806 
L 625.602651 258.695331 
L 627.756241 258.411806 
L 629.763068 257.580551 
L 631.486369 256.258215 
L 632.808704 254.534914 
L 633.639959 252.528087 
z
"/>
    <path clip-path="url(#p5377fcb57b)" d="M 408.272553 183.03587 
L 407.989027 180.882279 
L 407.157772 178.875453 
L 405.835437 177.152151 
L 404.112136 175.829816 
L 402.105309 174.998561 
L 399.951719 174.715036 
L 397.798128 174.998561 
L 395.791302 175.829816 
L 394.068001 177.152151 
L 392.745665 178.875453 
L 391.91441 180.882279 
L 391.630885 183.03587 
L 391.91441 185.18946 
L 392.745665 187.196287 
L 394.068001 188.919588 
L 395.791302 190.241923 
L 397.798128 191.073178 
L 399.951719 191.356704 
L 402.105309 191.073178 
L 404.112136 190.241923 
L 405.835437 188.919588 
L 407.157772 187.196287 
L 407.989027 185.18946 
z
"/>
    <path clip-path="url(#p5377fcb57b)" d="M 298.437232 175.191778 
L 298.153706 173.038188 
L 297.322452 171.031361 
L 296.000116 169.30806 
L 294.276815 167.985724 
L 292.269988 167.154469 
L 290.116398 166.870944 
L 287.962808 167.154469 
L 285.955981 167.985724 
L 284.23268 169.30806 
L 282.910344 171.031361 
L 282.07909 173.038188 
L 281.795564 175.191778 
L 282.07909 177.345368 
L 282.910344 179.352195 
L 284.23268 181.075496 
L 285.955981 182.397831 
L 287.962808 183.229086 
L 290.116398 183.512612 
L 292.269988 183.229086 
L 294.276815 182.397831 
L 296.000116 181.075496 
L 297.322452 179.352195 
L 298.153706 177.345368 
z
"/>
    <path clip-path="url(#p5377fcb57b)" d="M 745.489779 289.361376 
L 745.206254 287.207786 
L 744.374999 285.200959 
L 743.052663 283.477658 
L 741.329362 282.155322 
L 739.322536 281.324068 
L 737.168945 281.040542 
L 735.015355 281.324068 
L 733.008528 282.155322 
L 731.285227 283.477658 
L 729.962892 285.200959 
L 729.131637 287.207786 
L 728.848111 289.361376 
L 729.131637 291.514966 
L 729.962892 293.521793 
L 731.285227 295.245094 
L 733.008528 296.56743 
L 735.015355 297.398684 
L 737.168945 297.68221 
L 739.322536 297.398684 
L 741.329362 296.56743 
L 743.052663 295.245094 
L 744.374999 293.521793 
L 745.206254 291.514966 
z
"/>
   </g>
   <g id="text_1">
    <g id="patch_2">
     <path d="M 330.240866 378.40415 
L 378.005026 351.771319 
L 369.395773 336.331213 
L 321.631613 362.964044 
z
" style="fill:#ffffff;fill-opacity:0.35;stroke:#ffffff;stroke-linejoin:miter;stroke-opacity:0.35;"/>
    </g>
    <!-- PFET - e1 -->
    <g style="fill:#1f77b4;" transform="translate(330.773663 371.146138)rotate(-29.143612)scale(0.1 -0.1)">
     <defs>
      <path d="M 19.671875 64.796875 
L 19.671875 37.40625 
L 32.078125 37.40625 
Q 38.96875 37.40625 42.71875 40.96875 
Q 46.484375 44.53125 46.484375 51.125 
Q 46.484375 57.671875 42.71875 61.234375 
Q 38.96875 64.796875 32.078125 64.796875 
z
M 9.8125 72.90625 
L 32.078125 72.90625 
Q 44.34375 72.90625 50.609375 67.359375 
Q 56.890625 61.8125 56.890625 51.125 
Q 56.890625 40.328125 50.609375 34.8125 
Q 44.34375 29.296875 32.078125 29.296875 
L 19.671875 29.296875 
L 19.671875 0 
L 9.8125 0 
z
" id="DejaVuSans-80"/>
      <path d="M 9.8125 72.90625 
L 51.703125 72.90625 
L 51.703125 64.59375 
L 19.671875 64.59375 
L 19.671875 43.109375 
L 48.578125 43.109375 
L 48.578125 34.8125 
L 19.671875 34.8125 
L 19.671875 0 
L 9.8125 0 
z
" id="DejaVuSans-70"/>
      <path d="M 9.8125 72.90625 
L 55.90625 72.90625 
L 55.90625 64.59375 
L 19.671875 64.59375 
L 19.671875 43.015625 
L 54.390625 43.015625 
L 54.390625 34.71875 
L 19.671875 34.71875 
L 19.671875 8.296875 
L 56.78125 8.296875 
L 56.78125 0 
L 9.8125 0 
z
" id="DejaVuSans-69"/>
      <path d="M -0.296875 72.90625 
L 61.375 72.90625 
L 61.375 64.59375 
L 35.5 64.59375 
L 35.5 0 
L 25.59375 0 
L 25.59375 64.59375 
L -0.296875 64.59375 
z
" id="DejaVuSans-84"/>
      <path id="DejaVuSans-32"/>
      <path d="M 4.890625 31.390625 
L 31.203125 31.390625 
L 31.203125 23.390625 
L 4.890625 23.390625 
z
" id="DejaVuSans-45"/>
      <path d="M 56.203125 29.59375 
L 56.203125 25.203125 
L 14.890625 25.203125 
Q 15.484375 15.921875 20.484375 11.0625 
Q 25.484375 6.203125 34.421875 6.203125 
Q 39.59375 6.203125 44.453125 7.46875 
Q 49.3125 8.734375 54.109375 11.28125 
L 54.109375 2.78125 
Q 49.265625 0.734375 44.1875 -0.34375 
Q 39.109375 -1.421875 33.890625 -1.421875 
Q 20.796875 -1.421875 13.15625 6.1875 
Q 5.515625 13.8125 5.515625 26.8125 
Q 5.515625 40.234375 12.765625 48.109375 
Q 20.015625 56 32.328125 56 
Q 43.359375 56 49.78125 48.890625 
Q 56.203125 41.796875 56.203125 29.59375 
z
M 47.21875 32.234375 
Q 47.125 39.59375 43.09375 43.984375 
Q 39.0625 48.390625 32.421875 48.390625 
Q 24.90625 48.390625 20.390625 44.140625 
Q 15.875 39.890625 15.1875 32.171875 
z
" id="DejaVuSans-101"/>
      <path d="M 12.40625 8.296875 
L 28.515625 8.296875 
L 28.515625 63.921875 
L 10.984375 60.40625 
L 10.984375 69.390625 
L 28.421875 72.90625 
L 38.28125 72.90625 
L 38.28125 8.296875 
L 54.390625 8.296875 
L 54.390625 0 
L 12.40625 0 
z
" id="DejaVuSans-49"/>
     </defs>
     <use xlink:href="#DejaVuSans-80"/>
     <use x="60.302734" xlink:href="#DejaVuSans-70"/>
     <use x="117.822266" xlink:href="#DejaVuSans-69"/>
     <use x="181.005859" xlink:href="#DejaVuSans-84"/>
     <use x="242.089844" xlink:href="#DejaVuSans-32"/>
     <use x="273.876953" xlink:href="#DejaVuSans-45"/>
     <use x="309.960938" xlink:href="#DejaVuSans-32"/>
     <use x="341.748047" xlink:href="#DejaVuSans-101"/>
     <use x="403.271484" xlink:href="#DejaVuSans-49"/>
    </g>
   </g>
   <g id="text_2">
    <g id="patch_3">
     <path d="M 658.353045 563.86593 
L 677.236257 555.846257 
L 670.325778 539.574767 
L 651.442566 547.59444 
z
" style="fill:#ffffff;fill-opacity:0.35;stroke:#ffffff;stroke-linejoin:miter;stroke-opacity:0.35;"/>
    </g>
    <!-- e3 -->
    <g style="fill:#ff7f0e;" transform="translate(659.658184 556.706376)rotate(-23.010864)scale(0.1 -0.1)">
     <defs>
      <path d="M 40.578125 39.3125 
Q 47.65625 37.796875 51.625 33 
Q 55.609375 28.21875 55.609375 21.1875 
Q 55.609375 10.40625 48.1875 4.484375 
Q 40.765625 -1.421875 27.09375 -1.421875 
Q 22.515625 -1.421875 17.65625 -0.515625 
Q 12.796875 0.390625 7.625 2.203125 
L 7.625 11.71875 
Q 11.71875 9.328125 16.59375 8.109375 
Q 21.484375 6.890625 26.8125 6.890625 
Q 36.078125 6.890625 40.9375 10.546875 
Q 45.796875 14.203125 45.796875 21.1875 
Q 45.796875 27.640625 41.28125 31.265625 
Q 36.765625 34.90625 28.71875 34.90625 
L 20.21875 34.90625 
L 20.21875 43.015625 
L 29.109375 43.015625 
Q 36.375 43.015625 40.234375 45.921875 
Q 44.09375 48.828125 44.09375 54.296875 
Q 44.09375 59.90625 40.109375 62.90625 
Q 36.140625 65.921875 28.71875 65.921875 
Q 24.65625 65.921875 20.015625 65.03125 
Q 15.375 64.15625 9.8125 62.3125 
L 9.8125 71.09375 
Q 15.4375 72.65625 20.34375 73.4375 
Q 25.25 74.21875 29.59375 74.21875 
Q 40.828125 74.21875 47.359375 69.109375 
Q 53.90625 64.015625 53.90625 55.328125 
Q 53.90625 49.265625 50.4375 45.09375 
Q 46.96875 40.921875 40.578125 39.3125 
z
" id="DejaVuSans-51"/>
     </defs>
     <use xlink:href="#DejaVuSans-101"/>
     <use x="61.523438" xlink:href="#DejaVuSans-51"/>
    </g>
   </g>
   <g id="text_3">
    <g id="patch_4">
     <path d="M 647.933365 705.426569 
L 655.095302 686.201649 
L 638.529366 680.030275 
L 631.367429 699.255194 
z
" style="fill:#ffffff;fill-opacity:0.35;stroke:#ffffff;stroke-linejoin:miter;stroke-opacity:0.35;"/>
    </g>
    <!-- e4 -->
    <g style="fill:#2ca02c;" transform="translate(643.632558 699.555823)rotate(-69.567926)scale(0.1 -0.1)">
     <defs>
      <path d="M 37.796875 64.3125 
L 12.890625 25.390625 
L 37.796875 25.390625 
z
M 35.203125 72.90625 
L 47.609375 72.90625 
L 47.609375 25.390625 
L 58.015625 25.390625 
L 58.015625 17.1875 
L 47.609375 17.1875 
L 47.609375 0 
L 37.796875 0 
L 37.796875 17.1875 
L 4.890625 17.1875 
L 4.890625 26.703125 
z
" id="DejaVuSans-52"/>
     </defs>
     <use xlink:href="#DejaVuSans-101"/>
     <use x="61.523438" xlink:href="#DejaVuSans-52"/>
    </g>
   </g>
   <g id="text_4">
    <g id="patch_5">
     <path d="M 250.259828 445.63235 
L 258.624775 426.89953 
L 242.482877 419.691533 
L 234.11793 438.424353 
z
" style="fill:#ffffff;fill-opacity:0.35;stroke:#ffffff;stroke-linejoin:miter;stroke-opacity:0.35;"/>
    </g>
    <!-- e6 -->
    <g style="fill:#d62728;" transform="translate(246.339406 439.501046)rotate(-65.937345)scale(0.1 -0.1)">
     <defs>
      <path d="M 33.015625 40.375 
Q 26.375 40.375 22.484375 35.828125 
Q 18.609375 31.296875 18.609375 23.390625 
Q 18.609375 15.53125 22.484375 10.953125 
Q 26.375 6.390625 33.015625 6.390625 
Q 39.65625 6.390625 43.53125 10.953125 
Q 47.40625 15.53125 47.40625 23.390625 
Q 47.40625 31.296875 43.53125 35.828125 
Q 39.65625 40.375 33.015625 40.375 
z
M 52.59375 71.296875 
L 52.59375 62.3125 
Q 48.875 64.0625 45.09375 64.984375 
Q 41.3125 65.921875 37.59375 65.921875 
Q 27.828125 65.921875 22.671875 59.328125 
Q 17.53125 52.734375 16.796875 39.40625 
Q 19.671875 43.65625 24.015625 45.921875 
Q 28.375 48.1875 33.59375 48.1875 
Q 44.578125 48.1875 50.953125 41.515625 
Q 57.328125 34.859375 57.328125 23.390625 
Q 57.328125 12.15625 50.6875 5.359375 
Q 44.046875 -1.421875 33.015625 -1.421875 
Q 20.359375 -1.421875 13.671875 8.265625 
Q 6.984375 17.96875 6.984375 36.375 
Q 6.984375 53.65625 15.1875 63.9375 
Q 23.390625 74.21875 37.203125 74.21875 
Q 40.921875 74.21875 44.703125 73.484375 
Q 48.484375 72.75 52.59375 71.296875 
z
" id="DejaVuSans-54"/>
     </defs>
     <use xlink:href="#DejaVuSans-101"/>
     <use x="61.523438" xlink:href="#DejaVuSans-54"/>
    </g>
   </g>
   <g id="text_5">
    <g id="patch_6">
     <path d="M 203.004804 345.813498 
L 222.990897 290.148974 
L 206.352716 284.175111 
L 186.366623 339.839635 
z
" style="fill:#ffffff;fill-opacity:0.35;stroke:#ffffff;stroke-linejoin:miter;stroke-opacity:0.35;"/>
    </g>
    <!-- NOR - e11 -->
    <g style="fill:#9467bd;" transform="translate(198.63446 339.994332)rotate(-70.249556)scale(0.1 -0.1)">
     <defs>
      <path d="M 9.8125 72.90625 
L 23.09375 72.90625 
L 55.421875 11.921875 
L 55.421875 72.90625 
L 64.984375 72.90625 
L 64.984375 0 
L 51.703125 0 
L 19.390625 60.984375 
L 19.390625 0 
L 9.8125 0 
z
" id="DejaVuSans-78"/>
      <path d="M 39.40625 66.21875 
Q 28.65625 66.21875 22.328125 58.203125 
Q 16.015625 50.203125 16.015625 36.375 
Q 16.015625 22.609375 22.328125 14.59375 
Q 28.65625 6.59375 39.40625 6.59375 
Q 50.140625 6.59375 56.421875 14.59375 
Q 62.703125 22.609375 62.703125 36.375 
Q 62.703125 50.203125 56.421875 58.203125 
Q 50.140625 66.21875 39.40625 66.21875 
z
M 39.40625 74.21875 
Q 54.734375 74.21875 63.90625 63.9375 
Q 73.09375 53.65625 73.09375 36.375 
Q 73.09375 19.140625 63.90625 8.859375 
Q 54.734375 -1.421875 39.40625 -1.421875 
Q 24.03125 -1.421875 14.8125 8.828125 
Q 5.609375 19.09375 5.609375 36.375 
Q 5.609375 53.65625 14.8125 63.9375 
Q 24.03125 74.21875 39.40625 74.21875 
z
" id="DejaVuSans-79"/>
      <path d="M 44.390625 34.1875 
Q 47.5625 33.109375 50.5625 29.59375 
Q 53.5625 26.078125 56.59375 19.921875 
L 66.609375 0 
L 56 0 
L 46.6875 18.703125 
Q 43.0625 26.03125 39.671875 28.421875 
Q 36.28125 30.8125 30.421875 30.8125 
L 19.671875 30.8125 
L 19.671875 0 
L 9.8125 0 
L 9.8125 72.90625 
L 32.078125 72.90625 
Q 44.578125 72.90625 50.734375 67.671875 
Q 56.890625 62.453125 56.890625 51.90625 
Q 56.890625 45.015625 53.6875 40.46875 
Q 50.484375 35.9375 44.390625 34.1875 
z
M 19.671875 64.796875 
L 19.671875 38.921875 
L 32.078125 38.921875 
Q 39.203125 38.921875 42.84375 42.21875 
Q 46.484375 45.515625 46.484375 51.90625 
Q 46.484375 58.296875 42.84375 61.546875 
Q 39.203125 64.796875 32.078125 64.796875 
z
" id="DejaVuSans-82"/>
     </defs>
     <use xlink:href="#DejaVuSans-78"/>
     <use x="74.804688" xlink:href="#DejaVuSans-79"/>
     <use x="153.515625" xlink:href="#DejaVuSans-82"/>
     <use x="222.998047" xlink:href="#DejaVuSans-32"/>
     <use x="254.785156" xlink:href="#DejaVuSans-45"/>
     <use x="290.869141" xlink:href="#DejaVuSans-32"/>
     <use x="322.65625" xlink:href="#DejaVuSans-101"/>
     <use x="384.179688" xlink:href="#DejaVuSans-49"/>
     <use x="447.802734" xlink:href="#DejaVuSans-49"/>
    </g>
   </g>
   <g id="text_6">
    <g id="patch_7">
     <path d="M 301.126246 691.474123 
L 309.069475 710.389619 
L 325.368783 703.545011 
L 317.425554 684.629515 
z
" style="fill:#ffffff;fill-opacity:0.35;stroke:#ffffff;stroke-linejoin:miter;stroke-opacity:0.35;"/>
    </g>
    <!-- e5 -->
    <g style="fill:#8c564b;" transform="translate(308.280462 692.80821)rotate(-292.779113)scale(0.1 -0.1)">
     <defs>
      <path d="M 10.796875 72.90625 
L 49.515625 72.90625 
L 49.515625 64.59375 
L 19.828125 64.59375 
L 19.828125 46.734375 
Q 21.96875 47.46875 24.109375 47.828125 
Q 26.265625 48.1875 28.421875 48.1875 
Q 40.625 48.1875 47.75 41.5 
Q 54.890625 34.8125 54.890625 23.390625 
Q 54.890625 11.625 47.5625 5.09375 
Q 40.234375 -1.421875 26.90625 -1.421875 
Q 22.3125 -1.421875 17.546875 -0.640625 
Q 12.796875 0.140625 7.71875 1.703125 
L 7.71875 11.625 
Q 12.109375 9.234375 16.796875 8.0625 
Q 21.484375 6.890625 26.703125 6.890625 
Q 35.15625 6.890625 40.078125 11.328125 
Q 45.015625 15.765625 45.015625 23.390625 
Q 45.015625 31 40.078125 35.4375 
Q 35.15625 39.890625 26.703125 39.890625 
Q 22.75 39.890625 18.8125 39.015625 
Q 14.890625 38.140625 10.796875 36.28125 
z
" id="DejaVuSans-53"/>
     </defs>
     <use xlink:href="#DejaVuSans-101"/>
     <use x="61.523438" xlink:href="#DejaVuSans-53"/>
    </g>
   </g>
   <g id="text_7">
    <g id="patch_8">
     <path d="M 334.172651 212.162213 
L 354.636157 213.623652 
L 355.895465 195.990438 
L 335.43196 194.528999 
z
" style="fill:#ffffff;fill-opacity:0.35;stroke:#ffffff;stroke-linejoin:miter;stroke-opacity:0.35;"/>
    </g>
    <!-- e7 -->
    <g style="fill:#e377c2;" transform="translate(338.595578 206.382913)rotate(-355.915052)scale(0.1 -0.1)">
     <defs>
      <path d="M 8.203125 72.90625 
L 55.078125 72.90625 
L 55.078125 68.703125 
L 28.609375 0 
L 18.3125 0 
L 43.21875 64.59375 
L 8.203125 64.59375 
z
" id="DejaVuSans-55"/>
     </defs>
     <use xlink:href="#DejaVuSans-101"/>
     <use x="61.523438" xlink:href="#DejaVuSans-55"/>
    </g>
   </g>
   <g id="text_8">
    <g id="patch_9">
     <path d="M 621.776897 324.719285 
L 648.65258 324.356987 
L 648.414292 306.680469 
L 621.538609 307.042766 
z
" style="fill:#ffffff;fill-opacity:0.35;stroke:#ffffff;stroke-linejoin:miter;stroke-opacity:0.35;"/>
    </g>
    <!-- e10 -->
    <g style="fill:#7f7f7f;" transform="translate(625.694584 318.586233)rotate(-0.772328)scale(0.1 -0.1)">
     <defs>
      <path d="M 31.78125 66.40625 
Q 24.171875 66.40625 20.328125 58.90625 
Q 16.5 51.421875 16.5 36.375 
Q 16.5 21.390625 20.328125 13.890625 
Q 24.171875 6.390625 31.78125 6.390625 
Q 39.453125 6.390625 43.28125 13.890625 
Q 47.125 21.390625 47.125 36.375 
Q 47.125 51.421875 43.28125 58.90625 
Q 39.453125 66.40625 31.78125 66.40625 
z
M 31.78125 74.21875 
Q 44.046875 74.21875 50.515625 64.515625 
Q 56.984375 54.828125 56.984375 36.375 
Q 56.984375 17.96875 50.515625 8.265625 
Q 44.046875 -1.421875 31.78125 -1.421875 
Q 19.53125 -1.421875 13.0625 8.265625 
Q 6.59375 17.96875 6.59375 36.375 
Q 6.59375 54.828125 13.0625 64.515625 
Q 19.53125 74.21875 31.78125 74.21875 
z
" id="DejaVuSans-48"/>
     </defs>
     <use xlink:href="#DejaVuSans-101"/>
     <use x="61.523438" xlink:href="#DejaVuSans-49"/>
     <use x="125.146484" xlink:href="#DejaVuSans-48"/>
    </g>
   </g>
   <g id="text_9">
    <g id="patch_10">
     <path d="M 406.001398 504.292983 
L 452.89705 532.426957 
L 461.991558 517.267603 
L 415.095906 489.133629 
z
" style="fill:#ffffff;fill-opacity:0.35;stroke:#ffffff;stroke-linejoin:miter;stroke-opacity:0.35;"/>
    </g>
    <!-- PFET - e2 -->
    <g style="fill:#bcbd22;" transform="translate(412.559174 501.137326)rotate(-329.039314)scale(0.1 -0.1)">
     <defs>
      <path d="M 19.1875 8.296875 
L 53.609375 8.296875 
L 53.609375 0 
L 7.328125 0 
L 7.328125 8.296875 
Q 12.9375 14.109375 22.625 23.890625 
Q 32.328125 33.6875 34.8125 36.53125 
Q 39.546875 41.84375 41.421875 45.53125 
Q 43.3125 49.21875 43.3125 52.78125 
Q 43.3125 58.59375 39.234375 62.25 
Q 35.15625 65.921875 28.609375 65.921875 
Q 23.96875 65.921875 18.8125 64.3125 
Q 13.671875 62.703125 7.8125 59.421875 
L 7.8125 69.390625 
Q 13.765625 71.78125 18.9375 73 
Q 24.125 74.21875 28.421875 74.21875 
Q 39.75 74.21875 46.484375 68.546875 
Q 53.21875 62.890625 53.21875 53.421875 
Q 53.21875 48.921875 51.53125 44.890625 
Q 49.859375 40.875 45.40625 35.40625 
Q 44.1875 33.984375 37.640625 27.21875 
Q 31.109375 20.453125 19.1875 8.296875 
z
" id="DejaVuSans-50"/>
     </defs>
     <use xlink:href="#DejaVuSans-80"/>
     <use x="60.302734" xlink:href="#DejaVuSans-70"/>
     <use x="117.822266" xlink:href="#DejaVuSans-69"/>
     <use x="181.005859" xlink:href="#DejaVuSans-84"/>
     <use x="242.089844" xlink:href="#DejaVuSans-32"/>
     <use x="273.876953" xlink:href="#DejaVuSans-45"/>
     <use x="309.960938" xlink:href="#DejaVuSans-32"/>
     <use x="341.748047" xlink:href="#DejaVuSans-101"/>
     <use x="403.271484" xlink:href="#DejaVuSans-50"/>
    </g>
   </g>
   <g id="text_10">
    <g id="patch_11">
     <path d="M 200.897731 483.018207 
L 271.127419 483.018207 
L 271.127419 465.340082 
L 200.897731 465.340082 
z
" style="fill:#ffffff;fill-opacity:0.35;stroke:#ffffff;stroke-linejoin:miter;stroke-opacity:0.35;"/>
    </g>
    <!-- n11 - source -->
    <g transform="translate(204.897731 476.938519)scale(0.1 -0.1)">
     <defs>
      <path d="M 54.890625 33.015625 
L 54.890625 0 
L 45.90625 0 
L 45.90625 32.71875 
Q 45.90625 40.484375 42.875 44.328125 
Q 39.84375 48.1875 33.796875 48.1875 
Q 26.515625 48.1875 22.3125 43.546875 
Q 18.109375 38.921875 18.109375 30.90625 
L 18.109375 0 
L 9.078125 0 
L 9.078125 54.6875 
L 18.109375 54.6875 
L 18.109375 46.1875 
Q 21.34375 51.125 25.703125 53.5625 
Q 30.078125 56 35.796875 56 
Q 45.21875 56 50.046875 50.171875 
Q 54.890625 44.34375 54.890625 33.015625 
z
" id="DejaVuSans-110"/>
      <path d="M 44.28125 53.078125 
L 44.28125 44.578125 
Q 40.484375 46.53125 36.375 47.5 
Q 32.28125 48.484375 27.875 48.484375 
Q 21.1875 48.484375 17.84375 46.4375 
Q 14.5 44.390625 14.5 40.28125 
Q 14.5 37.15625 16.890625 35.375 
Q 19.28125 33.59375 26.515625 31.984375 
L 29.59375 31.296875 
Q 39.15625 29.25 43.1875 25.515625 
Q 47.21875 21.78125 47.21875 15.09375 
Q 47.21875 7.46875 41.1875 3.015625 
Q 35.15625 -1.421875 24.609375 -1.421875 
Q 20.21875 -1.421875 15.453125 -0.5625 
Q 10.6875 0.296875 5.421875 2 
L 5.421875 11.28125 
Q 10.40625 8.6875 15.234375 7.390625 
Q 20.0625 6.109375 24.8125 6.109375 
Q 31.15625 6.109375 34.5625 8.28125 
Q 37.984375 10.453125 37.984375 14.40625 
Q 37.984375 18.0625 35.515625 20.015625 
Q 33.0625 21.96875 24.703125 23.78125 
L 21.578125 24.515625 
Q 13.234375 26.265625 9.515625 29.90625 
Q 5.8125 33.546875 5.8125 39.890625 
Q 5.8125 47.609375 11.28125 51.796875 
Q 16.75 56 26.8125 56 
Q 31.78125 56 36.171875 55.265625 
Q 40.578125 54.546875 44.28125 53.078125 
z
" id="DejaVuSans-115"/>
      <path d="M 30.609375 48.390625 
Q 23.390625 48.390625 19.1875 42.75 
Q 14.984375 37.109375 14.984375 27.296875 
Q 14.984375 17.484375 19.15625 11.84375 
Q 23.34375 6.203125 30.609375 6.203125 
Q 37.796875 6.203125 41.984375 11.859375 
Q 46.1875 17.53125 46.1875 27.296875 
Q 46.1875 37.015625 41.984375 42.703125 
Q 37.796875 48.390625 30.609375 48.390625 
z
M 30.609375 56 
Q 42.328125 56 49.015625 48.375 
Q 55.71875 40.765625 55.71875 27.296875 
Q 55.71875 13.875 49.015625 6.21875 
Q 42.328125 -1.421875 30.609375 -1.421875 
Q 18.84375 -1.421875 12.171875 6.21875 
Q 5.515625 13.875 5.515625 27.296875 
Q 5.515625 40.765625 12.171875 48.375 
Q 18.84375 56 30.609375 56 
z
" id="DejaVuSans-111"/>
      <path d="M 8.5 21.578125 
L 8.5 54.6875 
L 17.484375 54.6875 
L 17.484375 21.921875 
Q 17.484375 14.15625 20.5 10.265625 
Q 23.53125 6.390625 29.59375 6.390625 
Q 36.859375 6.390625 41.078125 11.03125 
Q 45.3125 15.671875 45.3125 23.6875 
L 45.3125 54.6875 
L 54.296875 54.6875 
L 54.296875 0 
L 45.3125 0 
L 45.3125 8.40625 
Q 42.046875 3.421875 37.71875 1 
Q 33.40625 -1.421875 27.6875 -1.421875 
Q 18.265625 -1.421875 13.375 4.4375 
Q 8.5 10.296875 8.5 21.578125 
z
M 31.109375 56 
z
" id="DejaVuSans-117"/>
      <path d="M 41.109375 46.296875 
Q 39.59375 47.171875 37.8125 47.578125 
Q 36.03125 48 33.890625 48 
Q 26.265625 48 22.1875 43.046875 
Q 18.109375 38.09375 18.109375 28.8125 
L 18.109375 0 
L 9.078125 0 
L 9.078125 54.6875 
L 18.109375 54.6875 
L 18.109375 46.1875 
Q 20.953125 51.171875 25.484375 53.578125 
Q 30.03125 56 36.53125 56 
Q 37.453125 56 38.578125 55.875 
Q 39.703125 55.765625 41.0625 55.515625 
z
" id="DejaVuSans-114"/>
      <path d="M 48.78125 52.59375 
L 48.78125 44.1875 
Q 44.96875 46.296875 41.140625 47.34375 
Q 37.3125 48.390625 33.40625 48.390625 
Q 24.65625 48.390625 19.8125 42.84375 
Q 14.984375 37.3125 14.984375 27.296875 
Q 14.984375 17.28125 19.8125 11.734375 
Q 24.65625 6.203125 33.40625 6.203125 
Q 37.3125 6.203125 41.140625 7.25 
Q 44.96875 8.296875 48.78125 10.40625 
L 48.78125 2.09375 
Q 45.015625 0.34375 40.984375 -0.53125 
Q 36.96875 -1.421875 32.421875 -1.421875 
Q 20.0625 -1.421875 12.78125 6.34375 
Q 5.515625 14.109375 5.515625 27.296875 
Q 5.515625 40.671875 12.859375 48.328125 
Q 20.21875 56 33.015625 56 
Q 37.15625 56 41.109375 55.140625 
Q 45.0625 54.296875 48.78125 52.59375 
z
" id="DejaVuSans-99"/>
     </defs>
     <use xlink:href="#DejaVuSans-110"/>
     <use x="63.378906" xlink:href="#DejaVuSans-49"/>
     <use x="127.001953" xlink:href="#DejaVuSans-49"/>
     <use x="190.625" xlink:href="#DejaVuSans-32"/>
     <use x="222.412109" xlink:href="#DejaVuSans-45"/>
     <use x="258.496094" xlink:href="#DejaVuSans-32"/>
     <use x="290.283203" xlink:href="#DejaVuSans-115"/>
     <use x="342.382812" xlink:href="#DejaVuSans-111"/>
     <use x="403.564453" xlink:href="#DejaVuSans-117"/>
     <use x="466.943359" xlink:href="#DejaVuSans-114"/>
     <use x="505.806641" xlink:href="#DejaVuSans-99"/>
     <use x="560.787109" xlink:href="#DejaVuSans-101"/>
    </g>
   </g>
   <g id="text_11">
    <g id="patch_12">
     <path d="M 542.343078 292.631602 
L 598.404016 292.631602 
L 598.404016 274.953477 
L 542.343078 274.953477 
z
" style="fill:#ffffff;fill-opacity:0.35;stroke:#ffffff;stroke-linejoin:miter;stroke-opacity:0.35;"/>
    </g>
    <!-- n12 - gnd -->
    <g transform="translate(546.343078 286.551915)scale(0.1 -0.1)">
     <defs>
      <path d="M 45.40625 27.984375 
Q 45.40625 37.75 41.375 43.109375 
Q 37.359375 48.484375 30.078125 48.484375 
Q 22.859375 48.484375 18.828125 43.109375 
Q 14.796875 37.75 14.796875 27.984375 
Q 14.796875 18.265625 18.828125 12.890625 
Q 22.859375 7.515625 30.078125 7.515625 
Q 37.359375 7.515625 41.375 12.890625 
Q 45.40625 18.265625 45.40625 27.984375 
z
M 54.390625 6.78125 
Q 54.390625 -7.171875 48.1875 -13.984375 
Q 42 -20.796875 29.203125 -20.796875 
Q 24.46875 -20.796875 20.265625 -20.09375 
Q 16.0625 -19.390625 12.109375 -17.921875 
L 12.109375 -9.1875 
Q 16.0625 -11.328125 19.921875 -12.34375 
Q 23.78125 -13.375 27.78125 -13.375 
Q 36.625 -13.375 41.015625 -8.765625 
Q 45.40625 -4.15625 45.40625 5.171875 
L 45.40625 9.625 
Q 42.625 4.78125 38.28125 2.390625 
Q 33.9375 0 27.875 0 
Q 17.828125 0 11.671875 7.65625 
Q 5.515625 15.328125 5.515625 27.984375 
Q 5.515625 40.671875 11.671875 48.328125 
Q 17.828125 56 27.875 56 
Q 33.9375 56 38.28125 53.609375 
Q 42.625 51.21875 45.40625 46.390625 
L 45.40625 54.6875 
L 54.390625 54.6875 
z
" id="DejaVuSans-103"/>
      <path d="M 45.40625 46.390625 
L 45.40625 75.984375 
L 54.390625 75.984375 
L 54.390625 0 
L 45.40625 0 
L 45.40625 8.203125 
Q 42.578125 3.328125 38.25 0.953125 
Q 33.9375 -1.421875 27.875 -1.421875 
Q 17.96875 -1.421875 11.734375 6.484375 
Q 5.515625 14.40625 5.515625 27.296875 
Q 5.515625 40.1875 11.734375 48.09375 
Q 17.96875 56 27.875 56 
Q 33.9375 56 38.25 53.625 
Q 42.578125 51.265625 45.40625 46.390625 
z
M 14.796875 27.296875 
Q 14.796875 17.390625 18.875 11.75 
Q 22.953125 6.109375 30.078125 6.109375 
Q 37.203125 6.109375 41.296875 11.75 
Q 45.40625 17.390625 45.40625 27.296875 
Q 45.40625 37.203125 41.296875 42.84375 
Q 37.203125 48.484375 30.078125 48.484375 
Q 22.953125 48.484375 18.875 42.84375 
Q 14.796875 37.203125 14.796875 27.296875 
z
" id="DejaVuSans-100"/>
     </defs>
     <use xlink:href="#DejaVuSans-110"/>
     <use x="63.378906" xlink:href="#DejaVuSans-49"/>
     <use x="127.001953" xlink:href="#DejaVuSans-50"/>
     <use x="190.625" xlink:href="#DejaVuSans-32"/>
     <use x="222.412109" xlink:href="#DejaVuSans-45"/>
     <use x="258.496094" xlink:href="#DejaVuSans-32"/>
     <use x="290.283203" xlink:href="#DejaVuSans-103"/>
     <use x="353.759766" xlink:href="#DejaVuSans-110"/>
     <use x="417.138672" xlink:href="#DejaVuSans-100"/>
    </g>
   </g>
   <g id="text_12">
    <g id="patch_13">
     <path d="M 272.250927 671.807757 
L 334.980614 671.807757 
L 334.980614 654.129632 
L 272.250927 654.129632 
z
" style="fill:#ffffff;fill-opacity:0.35;stroke:#ffffff;stroke-linejoin:miter;stroke-opacity:0.35;"/>
    </g>
    <!-- n10 - drain -->
    <g transform="translate(276.250927 665.72807)scale(0.1 -0.1)">
     <defs>
      <path d="M 34.28125 27.484375 
Q 23.390625 27.484375 19.1875 25 
Q 14.984375 22.515625 14.984375 16.5 
Q 14.984375 11.71875 18.140625 8.90625 
Q 21.296875 6.109375 26.703125 6.109375 
Q 34.1875 6.109375 38.703125 11.40625 
Q 43.21875 16.703125 43.21875 25.484375 
L 43.21875 27.484375 
z
M 52.203125 31.203125 
L 52.203125 0 
L 43.21875 0 
L 43.21875 8.296875 
Q 40.140625 3.328125 35.546875 0.953125 
Q 30.953125 -1.421875 24.3125 -1.421875 
Q 15.921875 -1.421875 10.953125 3.296875 
Q 6 8.015625 6 15.921875 
Q 6 25.140625 12.171875 29.828125 
Q 18.359375 34.515625 30.609375 34.515625 
L 43.21875 34.515625 
L 43.21875 35.40625 
Q 43.21875 41.609375 39.140625 45 
Q 35.0625 48.390625 27.6875 48.390625 
Q 23 48.390625 18.546875 47.265625 
Q 14.109375 46.140625 10.015625 43.890625 
L 10.015625 52.203125 
Q 14.9375 54.109375 19.578125 55.046875 
Q 24.21875 56 28.609375 56 
Q 40.484375 56 46.34375 49.84375 
Q 52.203125 43.703125 52.203125 31.203125 
z
" id="DejaVuSans-97"/>
      <path d="M 9.421875 54.6875 
L 18.40625 54.6875 
L 18.40625 0 
L 9.421875 0 
z
M 9.421875 75.984375 
L 18.40625 75.984375 
L 18.40625 64.59375 
L 9.421875 64.59375 
z
" id="DejaVuSans-105"/>
     </defs>
     <use xlink:href="#DejaVuSans-110"/>
     <use x="63.378906" xlink:href="#DejaVuSans-49"/>
     <use x="127.001953" xlink:href="#DejaVuSans-48"/>
     <use x="190.625" xlink:href="#DejaVuSans-32"/>
     <use x="222.412109" xlink:href="#DejaVuSans-45"/>
     <use x="258.496094" xlink:href="#DejaVuSans-32"/>
     <use x="290.283203" xlink:href="#DejaVuSans-100"/>
     <use x="353.759766" xlink:href="#DejaVuSans-114"/>
     <use x="394.873047" xlink:href="#DejaVuSans-97"/>
     <use x="456.152344" xlink:href="#DejaVuSans-105"/>
     <use x="483.935547" xlink:href="#DejaVuSans-110"/>
    </g>
   </g>
   <g id="text_13">
    <g id="patch_14">
     <path d="M 590.978639 631.566081 
L 644.192701 631.566081 
L 644.192701 613.887956 
L 590.978639 613.887956 
z
" style="fill:#ffffff;fill-opacity:0.35;stroke:#ffffff;stroke-linejoin:miter;stroke-opacity:0.35;"/>
    </g>
    <!-- n9 - gate -->
    <g transform="translate(594.978639 625.486394)scale(0.1 -0.1)">
     <defs>
      <path d="M 10.984375 1.515625 
L 10.984375 10.5 
Q 14.703125 8.734375 18.5 7.8125 
Q 22.3125 6.890625 25.984375 6.890625 
Q 35.75 6.890625 40.890625 13.453125 
Q 46.046875 20.015625 46.78125 33.40625 
Q 43.953125 29.203125 39.59375 26.953125 
Q 35.25 24.703125 29.984375 24.703125 
Q 19.046875 24.703125 12.671875 31.3125 
Q 6.296875 37.9375 6.296875 49.421875 
Q 6.296875 60.640625 12.9375 67.421875 
Q 19.578125 74.21875 30.609375 74.21875 
Q 43.265625 74.21875 49.921875 64.515625 
Q 56.59375 54.828125 56.59375 36.375 
Q 56.59375 19.140625 48.40625 8.859375 
Q 40.234375 -1.421875 26.421875 -1.421875 
Q 22.703125 -1.421875 18.890625 -0.6875 
Q 15.09375 0.046875 10.984375 1.515625 
z
M 30.609375 32.421875 
Q 37.25 32.421875 41.125 36.953125 
Q 45.015625 41.5 45.015625 49.421875 
Q 45.015625 57.28125 41.125 61.84375 
Q 37.25 66.40625 30.609375 66.40625 
Q 23.96875 66.40625 20.09375 61.84375 
Q 16.21875 57.28125 16.21875 49.421875 
Q 16.21875 41.5 20.09375 36.953125 
Q 23.96875 32.421875 30.609375 32.421875 
z
" id="DejaVuSans-57"/>
      <path d="M 18.3125 70.21875 
L 18.3125 54.6875 
L 36.8125 54.6875 
L 36.8125 47.703125 
L 18.3125 47.703125 
L 18.3125 18.015625 
Q 18.3125 11.328125 20.140625 9.421875 
Q 21.96875 7.515625 27.59375 7.515625 
L 36.8125 7.515625 
L 36.8125 0 
L 27.59375 0 
Q 17.1875 0 13.234375 3.875 
Q 9.28125 7.765625 9.28125 18.015625 
L 9.28125 47.703125 
L 2.6875 47.703125 
L 2.6875 54.6875 
L 9.28125 54.6875 
L 9.28125 70.21875 
z
" id="DejaVuSans-116"/>
     </defs>
     <use xlink:href="#DejaVuSans-110"/>
     <use x="63.378906" xlink:href="#DejaVuSans-57"/>
     <use x="127.001953" xlink:href="#DejaVuSans-32"/>
     <use x="158.789062" xlink:href="#DejaVuSans-45"/>
     <use x="194.873047" xlink:href="#DejaVuSans-32"/>
     <use x="226.660156" xlink:href="#DejaVuSans-103"/>
     <use x="290.136719" xlink:href="#DejaVuSans-97"/>
     <use x="351.416016" xlink:href="#DejaVuSans-116"/>
     <use x="390.625" xlink:href="#DejaVuSans-101"/>
    </g>
   </g>
   <g id="text_14">
    <g id="patch_15">
     <path d="M 785.464771 539.995116 
L 828.619458 539.995116 
L 828.619458 522.316991 
L 785.464771 522.316991 
z
" style="fill:#ffffff;fill-opacity:0.35;stroke:#ffffff;stroke-linejoin:miter;stroke-opacity:0.35;"/>
    </g>
    <!-- n17 - a -->
    <g transform="translate(789.464771 533.915428)scale(0.1 -0.1)">
     <use xlink:href="#DejaVuSans-110"/>
     <use x="63.378906" xlink:href="#DejaVuSans-49"/>
     <use x="127.001953" xlink:href="#DejaVuSans-55"/>
     <use x="190.625" xlink:href="#DejaVuSans-32"/>
     <use x="222.412109" xlink:href="#DejaVuSans-45"/>
     <use x="258.496094" xlink:href="#DejaVuSans-32"/>
     <use x="290.283203" xlink:href="#DejaVuSans-97"/>
    </g>
   </g>
   <g id="text_15">
    <g id="patch_16">
     <path d="M 659.873694 610.7294 
L 719.450256 610.7294 
L 719.450256 593.051275 
L 659.873694 593.051275 
z
" style="fill:#ffffff;fill-opacity:0.35;stroke:#ffffff;stroke-linejoin:miter;stroke-opacity:0.35;"/>
    </g>
    <!-- n13 - gate -->
    <g transform="translate(663.873694 604.649712)scale(0.1 -0.1)">
     <use xlink:href="#DejaVuSans-110"/>
     <use x="63.378906" xlink:href="#DejaVuSans-49"/>
     <use x="127.001953" xlink:href="#DejaVuSans-51"/>
     <use x="190.625" xlink:href="#DejaVuSans-32"/>
     <use x="222.412109" xlink:href="#DejaVuSans-45"/>
     <use x="258.496094" xlink:href="#DejaVuSans-32"/>
     <use x="290.283203" xlink:href="#DejaVuSans-103"/>
     <use x="353.759766" xlink:href="#DejaVuSans-97"/>
     <use x="415.039062" xlink:href="#DejaVuSans-116"/>
     <use x="454.248047" xlink:href="#DejaVuSans-101"/>
    </g>
   </g>
   <g id="text_16">
    <g id="patch_17">
     <path d="M 597.006855 779.484027 
L 640.381855 779.484027 
L 640.381855 761.805902 
L 597.006855 761.805902 
z
" style="fill:#ffffff;fill-opacity:0.35;stroke:#ffffff;stroke-linejoin:miter;stroke-opacity:0.35;"/>
    </g>
    <!-- n18 - b -->
    <g transform="translate(601.006855 773.404339)scale(0.1 -0.1)">
     <defs>
      <path d="M 31.78125 34.625 
Q 24.75 34.625 20.71875 30.859375 
Q 16.703125 27.09375 16.703125 20.515625 
Q 16.703125 13.921875 20.71875 10.15625 
Q 24.75 6.390625 31.78125 6.390625 
Q 38.8125 6.390625 42.859375 10.171875 
Q 46.921875 13.96875 46.921875 20.515625 
Q 46.921875 27.09375 42.890625 30.859375 
Q 38.875 34.625 31.78125 34.625 
z
M 21.921875 38.8125 
Q 15.578125 40.375 12.03125 44.71875 
Q 8.5 49.078125 8.5 55.328125 
Q 8.5 64.0625 14.71875 69.140625 
Q 20.953125 74.21875 31.78125 74.21875 
Q 42.671875 74.21875 48.875 69.140625 
Q 55.078125 64.0625 55.078125 55.328125 
Q 55.078125 49.078125 51.53125 44.71875 
Q 48 40.375 41.703125 38.8125 
Q 48.828125 37.15625 52.796875 32.3125 
Q 56.78125 27.484375 56.78125 20.515625 
Q 56.78125 9.90625 50.3125 4.234375 
Q 43.84375 -1.421875 31.78125 -1.421875 
Q 19.734375 -1.421875 13.25 4.234375 
Q 6.78125 9.90625 6.78125 20.515625 
Q 6.78125 27.484375 10.78125 32.3125 
Q 14.796875 37.15625 21.921875 38.8125 
z
M 18.3125 54.390625 
Q 18.3125 48.734375 21.84375 45.5625 
Q 25.390625 42.390625 31.78125 42.390625 
Q 38.140625 42.390625 41.71875 45.5625 
Q 45.3125 48.734375 45.3125 54.390625 
Q 45.3125 60.0625 41.71875 63.234375 
Q 38.140625 66.40625 31.78125 66.40625 
Q 25.390625 66.40625 21.84375 63.234375 
Q 18.3125 60.0625 18.3125 54.390625 
z
" id="DejaVuSans-56"/>
      <path d="M 48.6875 27.296875 
Q 48.6875 37.203125 44.609375 42.84375 
Q 40.53125 48.484375 33.40625 48.484375 
Q 26.265625 48.484375 22.1875 42.84375 
Q 18.109375 37.203125 18.109375 27.296875 
Q 18.109375 17.390625 22.1875 11.75 
Q 26.265625 6.109375 33.40625 6.109375 
Q 40.53125 6.109375 44.609375 11.75 
Q 48.6875 17.390625 48.6875 27.296875 
z
M 18.109375 46.390625 
Q 20.953125 51.265625 25.265625 53.625 
Q 29.59375 56 35.59375 56 
Q 45.5625 56 51.78125 48.09375 
Q 58.015625 40.1875 58.015625 27.296875 
Q 58.015625 14.40625 51.78125 6.484375 
Q 45.5625 -1.421875 35.59375 -1.421875 
Q 29.59375 -1.421875 25.265625 0.953125 
Q 20.953125 3.328125 18.109375 8.203125 
L 18.109375 0 
L 9.078125 0 
L 9.078125 75.984375 
L 18.109375 75.984375 
z
" id="DejaVuSans-98"/>
     </defs>
     <use xlink:href="#DejaVuSans-110"/>
     <use x="63.378906" xlink:href="#DejaVuSans-49"/>
     <use x="127.001953" xlink:href="#DejaVuSans-56"/>
     <use x="190.625" xlink:href="#DejaVuSans-32"/>
     <use x="222.412109" xlink:href="#DejaVuSans-45"/>
     <use x="258.496094" xlink:href="#DejaVuSans-32"/>
     <use x="290.283203" xlink:href="#DejaVuSans-98"/>
    </g>
   </g>
   <g id="text_17">
    <g id="patch_18">
     <path d="M 260.044266 370.860882 
L 322.773954 370.860882 
L 322.773954 353.182757 
L 260.044266 353.182757 
z
" style="fill:#ffffff;fill-opacity:0.35;stroke:#ffffff;stroke-linejoin:miter;stroke-opacity:0.35;"/>
    </g>
    <!-- n14 - drain -->
    <g transform="translate(264.044266 364.781195)scale(0.1 -0.1)">
     <use xlink:href="#DejaVuSans-110"/>
     <use x="63.378906" xlink:href="#DejaVuSans-49"/>
     <use x="127.001953" xlink:href="#DejaVuSans-52"/>
     <use x="190.625" xlink:href="#DejaVuSans-32"/>
     <use x="222.412109" xlink:href="#DejaVuSans-45"/>
     <use x="258.496094" xlink:href="#DejaVuSans-32"/>
     <use x="290.283203" xlink:href="#DejaVuSans-100"/>
     <use x="353.759766" xlink:href="#DejaVuSans-114"/>
     <use x="394.873047" xlink:href="#DejaVuSans-97"/>
     <use x="456.152344" xlink:href="#DejaVuSans-105"/>
     <use x="483.935547" xlink:href="#DejaVuSans-110"/>
    </g>
   </g>
   <g id="text_18">
    <g id="patch_19">
     <path d="M 322.443395 770.01242 
L 376.385582 770.01242 
L 376.385582 752.334295 
L 322.443395 752.334295 
z
" style="fill:#ffffff;fill-opacity:0.35;stroke:#ffffff;stroke-linejoin:miter;stroke-opacity:0.35;"/>
    </g>
    <!-- n20 - vcc -->
    <g transform="translate(326.443395 763.932733)scale(0.1 -0.1)">
     <defs>
      <path d="M 2.984375 54.6875 
L 12.5 54.6875 
L 29.59375 8.796875 
L 46.6875 54.6875 
L 56.203125 54.6875 
L 35.6875 0 
L 23.484375 0 
z
" id="DejaVuSans-118"/>
     </defs>
     <use xlink:href="#DejaVuSans-110"/>
     <use x="63.378906" xlink:href="#DejaVuSans-50"/>
     <use x="127.001953" xlink:href="#DejaVuSans-48"/>
     <use x="190.625" xlink:href="#DejaVuSans-32"/>
     <use x="222.412109" xlink:href="#DejaVuSans-45"/>
     <use x="258.496094" xlink:href="#DejaVuSans-32"/>
     <use x="290.283203" xlink:href="#DejaVuSans-118"/>
     <use x="349.462891" xlink:href="#DejaVuSans-99"/>
     <use x="404.443359" xlink:href="#DejaVuSans-99"/>
    </g>
   </g>
   <g id="text_19">
    <g id="patch_20">
     <path d="M 634.923485 259.21356 
L 690.984422 259.21356 
L 690.984422 241.535435 
L 634.923485 241.535435 
z
" style="fill:#ffffff;fill-opacity:0.35;stroke:#ffffff;stroke-linejoin:miter;stroke-opacity:0.35;"/>
    </g>
    <!-- n16 - gnd -->
    <g transform="translate(638.923485 253.133872)scale(0.1 -0.1)">
     <use xlink:href="#DejaVuSans-110"/>
     <use x="63.378906" xlink:href="#DejaVuSans-49"/>
     <use x="127.001953" xlink:href="#DejaVuSans-54"/>
     <use x="190.625" xlink:href="#DejaVuSans-32"/>
     <use x="222.412109" xlink:href="#DejaVuSans-45"/>
     <use x="258.496094" xlink:href="#DejaVuSans-32"/>
     <use x="290.283203" xlink:href="#DejaVuSans-103"/>
     <use x="353.759766" xlink:href="#DejaVuSans-110"/>
     <use x="417.138672" xlink:href="#DejaVuSans-100"/>
    </g>
   </g>
   <g id="text_20">
    <g id="patch_21">
     <path d="M 409.272553 191.874932 
L 479.50224 191.874932 
L 479.50224 174.196807 
L 409.272553 174.196807 
z
" style="fill:#ffffff;fill-opacity:0.35;stroke:#ffffff;stroke-linejoin:miter;stroke-opacity:0.35;"/>
    </g>
    <!-- n15 - source -->
    <g transform="translate(413.272553 185.795245)scale(0.1 -0.1)">
     <use xlink:href="#DejaVuSans-110"/>
     <use x="63.378906" xlink:href="#DejaVuSans-49"/>
     <use x="127.001953" xlink:href="#DejaVuSans-53"/>
     <use x="190.625" xlink:href="#DejaVuSans-32"/>
     <use x="222.412109" xlink:href="#DejaVuSans-45"/>
     <use x="258.496094" xlink:href="#DejaVuSans-32"/>
     <use x="290.283203" xlink:href="#DejaVuSans-115"/>
     <use x="342.382812" xlink:href="#DejaVuSans-111"/>
     <use x="403.564453" xlink:href="#DejaVuSans-117"/>
     <use x="466.943359" xlink:href="#DejaVuSans-114"/>
     <use x="505.806641" xlink:href="#DejaVuSans-99"/>
     <use x="560.787109" xlink:href="#DejaVuSans-101"/>
    </g>
   </g>
   <g id="text_21">
    <g id="patch_22">
     <path d="M 299.437232 184.03084 
L 352.840357 184.03084 
L 352.840357 166.352715 
L 299.437232 166.352715 
z
" style="fill:#ffffff;fill-opacity:0.35;stroke:#ffffff;stroke-linejoin:miter;stroke-opacity:0.35;"/>
    </g>
    <!-- n19 - out -->
    <g transform="translate(303.437232 177.951153)scale(0.1 -0.1)">
     <use xlink:href="#DejaVuSans-110"/>
     <use x="63.378906" xlink:href="#DejaVuSans-49"/>
     <use x="127.001953" xlink:href="#DejaVuSans-57"/>
     <use x="190.625" xlink:href="#DejaVuSans-32"/>
     <use x="222.412109" xlink:href="#DejaVuSans-45"/>
     <use x="258.496094" xlink:href="#DejaVuSans-32"/>
     <use x="290.283203" xlink:href="#DejaVuSans-111"/>
     <use x="351.464844" xlink:href="#DejaVuSans-117"/>
     <use x="414.84375" xlink:href="#DejaVuSans-116"/>
    </g>
   </g>
   <g id="text_22">
    <g id="patch_23">
     <path d="M 746.489779 298.200438 
L 802.550717 298.200438 
L 802.550717 280.522313 
L 746.489779 280.522313 
z
" style="fill:#ffffff;fill-opacity:0.35;stroke:#ffffff;stroke-linejoin:miter;stroke-opacity:0.35;"/>
    </g>
    <!-- n21 - gnd -->
    <g transform="translate(750.489779 292.120751)scale(0.1 -0.1)">
     <use xlink:href="#DejaVuSans-110"/>
     <use x="63.378906" xlink:href="#DejaVuSans-50"/>
     <use x="127.001953" xlink:href="#DejaVuSans-49"/>
     <use x="190.625" xlink:href="#DejaVuSans-32"/>
     <use x="222.412109" xlink:href="#DejaVuSans-45"/>
     <use x="258.496094" xlink:href="#DejaVuSans-32"/>
     <use x="290.283203" xlink:href="#DejaVuSans-103"/>
     <use x="353.759766" xlink:href="#DejaVuSans-110"/>
     <use x="417.138672" xlink:href="#DejaVuSans-100"/>
    </g>
   </g>
  </g>
 </g>
 <defs>
  <clipPath id="p5377fcb57b">
   <rect height="720.72" width="725.4" x="117" y="112.32"/>
  </clipPath>
 </defs>
</svg>
