<?xml version="1.0" encoding="utf-8" standalone="no"?>
<!DOCTYPE svg PUBLIC "-//W3C//DTD SVG 1.1//EN"
  "http://www.w3.org/Graphics/SVG/1.1/DTD/svg11.dtd">
<!-- Created with matplotlib (https://matplotlib.org/) -->
<svg height="2304pt" version="1.1" viewBox="0 0 2304 2304" width="2304pt" xmlns="http://www.w3.org/2000/svg" xmlns:xlink="http://www.w3.org/1999/xlink">
 <metadata>
  <rdf:RDF xmlns:cc="http://creativecommons.org/ns#" xmlns:dc="http://purl.org/dc/elements/1.1/" xmlns:rdf="http://www.w3.org/1999/02/22-rdf-syntax-ns#">
   <cc:Work>
    <dc:type rdf:resource="http://purl.org/dc/dcmitype/StillImage"/>
    <dc:date>2021-02-13T13:05:37.983943</dc:date>
    <dc:format>image/svg+xml</dc:format>
    <dc:creator>
     <cc:Agent>
      <dc:title>Matplotlib v3.3.4, https://matplotlib.org/</dc:title>
     </cc:Agent>
    </dc:creator>
   </cc:Work>
  </rdf:RDF>
 </metadata>
 <defs>
  <style type="text/css">*{stroke-linecap:butt;stroke-linejoin:round;}</style>
 </defs>
 <g id="figure_1">
  <g id="patch_1">
   <path d="M 0 2304 
L 2304 2304 
L 2304 0 
L 0 0 
z
" style="fill:#ffffff;"/>
  </g>
  <g id="axes_1">
   <g id="PolyCollection_1">
    <path clip-path="url(#pf62b971af2)" d="M 1285.951324 1656.41961 
L 1295.015021 1668.23165 
L 1503.01321 1864.579215 
L 1514.82525 1873.642912 
L 1528.580662 1879.34059 
L 1543.342038 1881.283962 
L 1558.103413 1879.34059 
L 1571.858825 1873.642912 
L 1583.670865 1864.579215 
L 1800.88764 1584.973713 
L 1809.951337 1573.161673 
L 1815.649015 1559.406261 
L 1817.592387 1544.644886 
L 1815.649015 1529.88351 
L 1809.951337 1516.128099 
L 1712.618113 1314.835944 
L 1703.554416 1303.023904 
L 1691.742376 1293.960207 
L 1677.986965 1288.262528 
L 1663.225589 1286.319156 
L 1648.464214 1288.262528 
L 1634.708802 1293.960207 
L 1622.896762 1303.023904 
L 1295.015021 1587.573996 
L 1285.951324 1599.386036 
L 1280.253646 1613.141448 
L 1278.310274 1627.902823 
L 1280.253646 1642.664198 
z
" style="fill:none;stroke:#1f77b4;"/>
    <path clip-path="url(#pf62b971af2)" d="M 1305.809778 1410.605416 
L 935.295826 1679.363476 
L 923.483786 1688.427173 
L 914.420089 1700.239213 
L 908.722411 1713.994625 
L 906.779039 1728.756 
L 908.722411 1743.517375 
L 914.420089 1757.272787 
L 923.483786 1769.084827 
L 935.295826 1778.148524 
L 949.051238 1783.846203 
L 1350.167491 1939.631112 
L 1364.928866 1941.574484 
L 1379.690242 1939.631112 
L 1393.445654 1933.933434 
L 1405.257694 1924.869737 
L 1414.321391 1913.057697 
L 1420.019069 1899.302285 
L 1421.962441 1884.540909 
L 1391.36014 1459.99794 
L 1389.416768 1445.236565 
L 1383.719089 1431.481153 
L 1374.655392 1419.669113 
L 1362.843352 1410.605416 
L 1349.087941 1404.907738 
L 1334.326565 1402.964366 
L 1319.56519 1404.907738 
z
" style="fill:none;stroke:#ff7f0e;"/>
    <path clip-path="url(#pf62b971af2)" d="M 1694.702114 1582.667268 
L 1706.787043 1598.416655 
L 1722.53643 1610.501585 
L 1740.876979 1618.098489 
L 1760.558812 1620.689651 
L 1780.240646 1618.098489 
L 1798.581195 1610.501585 
L 1814.330582 1598.416655 
L 1826.415511 1582.667268 
L 1834.012416 1564.326719 
L 1971.4818 1209.969594 
L 1973.425172 1195.208219 
L 1971.4818 1180.446843 
L 1965.784122 1166.691431 
L 1956.720425 1154.879392 
L 1944.908385 1145.815694 
L 1931.152973 1140.118016 
L 1916.391598 1138.174644 
L 1901.630223 1140.118016 
L 1887.874811 1145.815694 
L 1876.062771 1154.879392 
L 1866.999074 1166.691431 
L 1748.656722 1381.288857 
L 1694.702114 1506.622503 
L 1687.105209 1524.963052 
L 1684.514047 1544.644886 
L 1687.105209 1564.326719 
z
" style="fill:none;stroke:#2ca02c;"/>
    <path clip-path="url(#pf62b971af2)" d="M 485.537229 952.522452 
L 636.701891 827.866118 
L 645.765588 816.054078 
L 798.105342 613.17838 
L 803.80302 599.422968 
L 805.746392 584.661593 
L 803.80302 569.900218 
L 798.105342 556.144806 
L 789.041645 544.332766 
L 777.229605 535.269069 
L 763.474193 529.571391 
L 748.712818 527.628019 
L 733.951443 529.571391 
L 720.196031 535.269069 
L 708.383991 544.332766 
L 404.879575 871.864797 
L 395.815878 883.676837 
L 390.1182 897.432249 
L 388.174828 912.193625 
L 390.1182 926.955 
L 395.815878 940.710412 
L 404.879575 952.522452 
L 416.691615 961.586149 
L 430.447027 967.283827 
L 445.208402 969.227199 
L 459.969777 967.283827 
L 473.725189 961.586149 
z
" style="fill:none;stroke:#d62728;"/>
    <path clip-path="url(#pf62b971af2)" d="M 710.690435 650.518292 
L 1038.579449 874.414931 
L 1052.334861 880.112609 
L 1067.096236 882.055981 
L 1081.857612 880.112609 
L 1095.613024 874.414931 
L 1107.425064 865.351234 
L 1371.825732 621.8408 
L 1380.889429 610.02876 
L 1386.587107 596.273348 
L 1388.530479 581.511973 
L 1386.587107 566.750598 
L 1380.889429 552.995186 
L 1371.825732 541.183146 
L 1360.013692 532.119449 
L 1030.653535 393.106566 
L 1016.898123 387.408888 
L 1002.136748 385.465516 
L 987.375372 387.408888 
L 973.619961 393.106566 
L 710.690435 518.804894 
L 694.941048 530.889824 
L 682.856119 546.63921 
L 675.259215 564.979759 
L 672.668052 584.661593 
L 675.259215 604.343427 
L 682.856119 622.683976 
L 694.941048 638.433362 
z
" style="fill:none;stroke:#9467bd;"/>
    <path clip-path="url(#pf62b971af2)" d="M 1340.326574 1976.357913 
L 1364.928866 1979.596867 
L 1389.531159 1976.357913 
L 1567.94433 1916.067391 
L 1590.870016 1906.571261 
L 1610.556749 1891.465099 
L 1827.773524 1611.859597 
L 1842.879686 1592.172864 
L 1852.375816 1569.247178 
L 1871.502849 1429.487478 
L 1874.094012 1409.805644 
L 1871.502849 1390.12381 
L 1863.905945 1371.783261 
L 1708.004772 1123.463091 
L 1695.919843 1107.713705 
L 1680.170456 1095.628775 
L 1661.829907 1088.031871 
L 1642.148073 1085.440708 
L 1622.46624 1088.031871 
L 1604.12569 1095.628775 
L 1440.414022 1176.026783 
L 870.203328 1528.545214 
L 854.453942 1540.630144 
L 842.369012 1556.379531 
L 834.772108 1574.72008 
L 832.180946 1594.401913 
L 834.772108 1614.083747 
L 871.995609 1753.358292 
L 881.49174 1776.283979 
L 896.597901 1795.970712 
L 916.284635 1811.076874 
L 939.210321 1820.573004 
z
" style="fill:none;stroke:#8c564b;"/>
    <path clip-path="url(#pf62b971af2)" d="M 714.421495 944.223449 
L 706.53641 1364.052219 
L 708.479782 1378.813594 
L 714.17746 1392.569006 
L 723.241158 1404.381046 
L 1078.997506 1730.314083 
L 1094.746892 1742.399013 
L 1113.087442 1749.995917 
L 1132.769275 1752.587079 
L 1152.451109 1749.995917 
L 1355.025682 1701.356426 
L 1373.366231 1693.759522 
L 1389.115617 1681.674593 
L 1401.200547 1665.925206 
L 1408.797451 1647.584657 
L 1411.388614 1627.902823 
L 1408.797451 1608.22099 
L 1140.54984 805.340573 
L 1132.952935 787.000024 
L 1120.868006 771.250637 
L 1105.118619 759.165708 
L 1086.77807 751.568803 
L 1067.096236 748.977641 
L 1047.414403 751.568803 
L 1029.073854 759.165708 
L 742.938282 894.830925 
L 731.126242 903.894622 
L 722.062545 915.706662 
L 716.364867 929.462074 
z
" style="fill:none;stroke:#e377c2;"/>
    <path clip-path="url(#pf62b971af2)" d="M 1002.136748 366.454325 
L 982.454914 369.045487 
L 825.28954 420.640942 
L 811.534128 426.33862 
L 799.722088 435.402317 
L 790.658391 447.214357 
L 784.960713 460.969769 
L 783.017341 475.731144 
L 784.960713 490.492519 
L 790.658391 504.247931 
L 799.722088 516.059971 
L 811.534128 525.123668 
L 825.28954 530.821346 
L 840.050916 532.764718 
L 1002.136748 518.543856 
L 1021.818581 515.952694 
L 1040.15913 508.355789 
L 1055.908517 496.27086 
L 1067.993447 480.521473 
L 1075.590351 462.180924 
L 1078.181513 442.499091 
L 1075.590351 422.817257 
L 1067.993447 404.476708 
L 1055.908517 388.727321 
L 1040.15913 376.642392 
L 1021.818581 369.045487 
z
" style="fill:none;stroke:#7f7f7f;"/>
    <path clip-path="url(#pf62b971af2)" d="M 369.163636 912.193625 
L 371.754799 931.875458 
L 589.389285 1603.481741 
L 596.986189 1621.82229 
L 609.071119 1637.571677 
L 624.820505 1649.656606 
L 906.779039 1827.541048 
L 934.289863 1838.936405 
L 1335.406116 1994.721314 
L 1364.928866 1998.608058 
L 1394.451617 1994.721314 
L 1572.864788 1934.430792 
L 1600.375612 1923.035436 
L 1623.999692 1904.908042 
L 1841.216467 1625.30254 
L 1859.343861 1601.67846 
L 1870.739217 1574.167636 
L 1989.845201 1214.890052 
L 1992.436364 1195.208219 
L 1989.845201 1175.526385 
L 1890.779465 903.811372 
L 1883.182561 885.470823 
L 1871.097632 869.721436 
L 1645.928382 658.835409 
L 1630.178996 646.75048 
L 1388.530479 482.726925 
L 1059.170322 343.714042 
L 1031.659498 332.318686 
L 1002.136748 328.431942 
L 972.613997 332.318686 
L 810.528165 365.550739 
L 783.017341 376.946096 
L 759.393261 395.07349 
L 668.055164 504.003939 
L 391.436633 858.421855 
L 379.351703 874.171242 
L 371.754799 892.511791 
z
" style="fill:none;stroke:#bcbd22;"/>
    <path clip-path="url(#pf62b971af2)" d="M 546.452078 1050.151148 
L 605.809314 1583.799908 
L 607.752686 1598.561283 
L 613.450364 1612.316695 
L 622.514061 1624.128735 
L 634.326101 1633.192432 
L 925.79023 1794.612699 
L 944.13078 1802.209603 
L 963.812613 1804.800766 
L 983.494447 1802.209603 
L 1001.834996 1794.612699 
L 1017.584383 1782.52777 
L 1029.669312 1766.778383 
L 1037.266216 1748.437834 
L 1039.857379 1728.756 
L 1037.266216 1709.074167 
L 1029.669312 1690.733617 
L 652.878177 1021.634361 
L 643.81448 1009.822321 
L 632.00244 1000.758624 
L 618.247028 995.060946 
L 603.485653 993.117574 
L 588.724277 995.060946 
L 574.968866 1000.758624 
L 563.156826 1009.822321 
L 554.093129 1021.634361 
L 548.39545 1035.389773 
z
" style="fill:none;stroke:#17becf;"/>
    <path clip-path="url(#pf62b971af2)" d="M 508.429696 1050.151148 
L 511.668649 1074.75344 
L 558.728237 1216.902676 
L 566.325141 1235.243226 
L 578.410071 1250.992612 
L 594.159457 1263.077542 
L 612.500006 1270.674446 
L 632.18184 1273.265608 
L 651.863674 1270.674446 
L 670.204223 1263.077542 
L 902.158546 1148.772325 
L 1428.179469 813.169924 
L 1443.928856 801.084995 
L 1456.013785 785.335608 
L 1463.610689 766.995059 
L 1466.201852 747.313225 
L 1463.610689 727.631392 
L 1423.313909 556.909681 
L 1413.817778 533.983994 
L 1398.711617 514.297261 
L 1379.024883 499.191099 
L 1049.664726 360.178217 
L 1026.73904 350.682087 
L 1002.136748 347.443133 
L 977.534456 350.682087 
L 815.448624 383.91414 
L 792.522937 393.41027 
L 772.836204 408.516432 
L 681.498106 517.446881 
L 666.391944 537.133614 
L 530.516365 749.514908 
L 522.919461 767.855458 
L 520.328299 787.537291 
z
" style="fill:none;stroke:#1f77b4;"/>
    <path clip-path="url(#pf62b971af2)" d="M 1288.884101 1884.540909 
L 1291.475263 1904.222743 
L 1299.072168 1922.563292 
L 1311.157097 1938.312679 
L 1326.906484 1950.397608 
L 1345.247033 1957.994513 
L 1364.928866 1960.585675 
L 1384.6107 1957.994513 
L 1563.023871 1897.703991 
L 1581.36442 1890.107086 
L 1597.113807 1878.022157 
L 1609.198736 1862.27277 
L 1616.795641 1843.932221 
L 1619.386803 1824.250387 
L 1616.795641 1804.568554 
L 1609.198736 1786.228005 
L 1597.113807 1770.478618 
L 1581.36442 1758.393689 
L 1563.023871 1750.796784 
L 1543.342038 1748.205622 
L 1523.660204 1750.796784 
L 1345.247033 1811.087306 
L 1326.906484 1818.684211 
L 1311.157097 1830.76914 
L 1299.072168 1846.518527 
L 1291.475263 1864.859076 
z
" style="fill:none;stroke:#ff7f0e;"/>
    <path clip-path="url(#pf62b971af2)" d="M 1265.640206 619.534356 
L 1597.36889 1381.375113 
L 1609.45382 1397.1245 
L 1625.203206 1409.20943 
L 1643.543756 1416.806334 
L 1663.225589 1419.397496 
L 1682.907423 1416.806334 
L 1701.247972 1409.20943 
L 1716.997359 1397.1245 
L 1729.082288 1381.375113 
L 1736.679192 1363.034564 
L 1872.416065 938.254581 
L 1874.359436 923.493205 
L 1872.416065 908.73183 
L 1866.718386 894.976418 
L 1857.654689 883.164378 
L 1845.842649 874.100681 
L 1369.519288 515.655274 
L 1351.178738 508.05837 
L 1331.496905 505.467207 
L 1311.815071 508.05837 
L 1293.474522 515.655274 
L 1277.725135 527.740204 
L 1265.640206 543.48959 
L 1258.043302 561.830139 
L 1255.452139 581.511973 
L 1258.043302 601.193807 
z
" style="fill:none;stroke:#2ca02c;"/>
    <path clip-path="url(#pf62b971af2)" d="M 1647.246815 727.368554 
L 1649.190187 712.607179 
L 1647.246815 697.845804 
L 1641.549137 684.090392 
L 1632.48544 672.278352 
L 1620.6734 663.214655 
L 1606.917988 657.516977 
L 1592.156613 655.573605 
L 1033.334691 634.64682 
L 1018.573316 636.590192 
L 1004.817904 642.28787 
L 993.005864 651.351567 
L 983.942167 663.163607 
L 978.244489 676.919019 
L 976.301117 691.680394 
L 978.244489 706.44177 
L 1260.872962 1479.679774 
L 1268.469866 1498.020323 
L 1280.554796 1513.769709 
L 1296.304182 1525.854639 
L 1314.644732 1533.451543 
L 1334.326565 1536.042706 
L 1354.008399 1533.451543 
L 1372.348948 1525.854639 
L 1388.098335 1513.769709 
L 1400.183264 1498.020323 
L 1527.828929 1270.400269 
L 1533.526607 1256.644857 
z
" style="fill:none;stroke:#d62728;"/>
    <path clip-path="url(#pf62b971af2)" d="M 530.03205 1030.469315 
L 527.440887 1050.151148 
L 530.03205 1069.832982 
L 537.628954 1088.173531 
L 549.713883 1103.922918 
L 565.46327 1116.007847 
L 583.803819 1123.604751 
L 603.485653 1126.195914 
L 623.167486 1123.604751 
L 641.508036 1116.007847 
L 809.477452 1010.080148 
L 825.226839 997.995218 
L 1087.10646 745.452164 
L 1099.19139 729.702777 
L 1106.788294 711.362228 
L 1109.379456 691.680394 
L 1106.788294 671.998561 
L 1099.19139 653.658012 
L 1087.10646 637.908625 
L 893.822685 421.959375 
L 878.073298 409.874445 
L 859.732749 402.277541 
L 840.050916 399.686378 
L 820.369082 402.277541 
L 802.028533 409.874445 
L 786.279146 421.959375 
L 774.194217 437.708761 
L 766.597312 456.04931 
z
" style="fill:none;stroke:#9467bd;"/>
   </g>
   <g id="PolyCollection_2">
    <path clip-path="url(#pf62b971af2)" d="M 1354.355039 1627.902823 
L 1353.707249 1622.982365 
L 1351.808023 1618.397227 
L 1348.78679 1614.459881 
L 1344.849444 1611.438648 
L 1340.264306 1609.539422 
L 1335.343848 1608.891632 
L 1330.42339 1609.539422 
L 1325.838252 1611.438648 
L 1321.900906 1614.459881 
L 1318.879673 1618.397227 
L 1316.980447 1622.982365 
L 1316.332657 1627.902823 
L 1316.980447 1632.823282 
L 1318.879673 1637.408419 
L 1321.900906 1641.345765 
L 1325.838252 1644.366998 
L 1330.42339 1646.266224 
L 1335.343848 1646.914015 
L 1340.264306 1646.266224 
L 1344.849444 1644.366998 
L 1348.78679 1641.345765 
L 1351.808023 1637.408419 
L 1353.707249 1632.823282 
z
"/>
    <path clip-path="url(#pf62b971af2)" d="M 1562.353229 1824.250387 
L 1561.705438 1819.329929 
L 1559.806212 1814.744792 
L 1556.78498 1810.807445 
L 1552.847633 1807.786213 
L 1548.262496 1805.886987 
L 1543.342038 1805.239196 
L 1538.421579 1805.886987 
L 1533.836442 1807.786213 
L 1529.899095 1810.807445 
L 1526.877863 1814.744792 
L 1524.978637 1819.329929 
L 1524.330846 1824.250387 
L 1524.978637 1829.170846 
L 1526.877863 1833.755983 
L 1529.899095 1837.69333 
L 1533.836442 1840.714562 
L 1538.421579 1842.613788 
L 1543.342038 1843.261579 
L 1548.262496 1842.613788 
L 1552.847633 1840.714562 
L 1556.78498 1837.69333 
L 1559.806212 1833.755983 
L 1561.705438 1829.170846 
z
"/>
    <path clip-path="url(#pf62b971af2)" d="M 1682.236781 1343.352731 
L 1681.58899 1338.432272 
L 1679.689764 1333.847135 
L 1676.668532 1329.909788 
L 1672.731185 1326.888556 
L 1668.146048 1324.98933 
L 1663.225589 1324.341539 
L 1658.305131 1324.98933 
L 1653.719994 1326.888556 
L 1649.782647 1329.909788 
L 1646.761415 1333.847135 
L 1644.862189 1338.432272 
L 1644.214398 1343.352731 
L 1644.862189 1348.273189 
L 1646.761415 1352.858326 
L 1649.782647 1356.795673 
L 1653.719994 1359.816905 
L 1658.305131 1361.716131 
L 1663.225589 1362.363922 
L 1668.146048 1361.716131 
L 1672.731185 1359.816905 
L 1676.668532 1356.795673 
L 1679.689764 1352.858326 
L 1681.58899 1348.273189 
z
"/>
    <path clip-path="url(#pf62b971af2)" d="M 1779.570004 1544.644886 
L 1778.922213 1539.724427 
L 1777.022987 1535.13929 
L 1774.001755 1531.201943 
L 1770.064408 1528.180711 
L 1765.479271 1526.281485 
L 1760.558812 1525.633694 
L 1755.638354 1526.281485 
L 1751.053217 1528.180711 
L 1747.11587 1531.201943 
L 1744.094638 1535.13929 
L 1742.195412 1539.724427 
L 1741.547621 1544.644886 
L 1742.195412 1549.565344 
L 1744.094638 1554.150481 
L 1747.11587 1558.087828 
L 1751.053217 1561.10906 
L 1755.638354 1563.008286 
L 1760.558812 1563.656077 
L 1765.479271 1563.008286 
L 1770.064408 1561.10906 
L 1774.001755 1558.087828 
L 1777.022987 1554.150481 
L 1778.922213 1549.565344 
z
"/>
    <path clip-path="url(#pf62b971af2)" d="M 982.823805 1728.756 
L 982.176014 1723.835542 
L 980.276788 1719.250404 
L 977.255556 1715.313058 
L 973.318209 1712.291825 
L 968.733072 1710.392599 
L 963.812613 1709.744809 
L 958.892155 1710.392599 
L 954.307018 1712.291825 
L 950.369671 1715.313058 
L 947.348439 1719.250404 
L 945.449213 1723.835542 
L 944.801422 1728.756 
L 945.449213 1733.676459 
L 947.348439 1738.261596 
L 950.369671 1742.198943 
L 954.307018 1745.220175 
L 958.892155 1747.119401 
L 963.812613 1747.767192 
L 968.733072 1747.119401 
L 973.318209 1745.220175 
L 977.255556 1742.198943 
L 980.276788 1738.261596 
L 982.176014 1733.676459 
z
"/>
    <path clip-path="url(#pf62b971af2)" d="M 1383.940058 1884.540909 
L 1383.292267 1879.620451 
L 1381.393041 1875.035314 
L 1378.371809 1871.097967 
L 1374.434462 1868.076735 
L 1369.849325 1866.177509 
L 1364.928866 1865.529718 
L 1360.008408 1866.177509 
L 1355.423271 1868.076735 
L 1351.485924 1871.097967 
L 1348.464692 1875.035314 
L 1346.565466 1879.620451 
L 1345.917675 1884.540909 
L 1346.565466 1889.461368 
L 1348.464692 1894.046505 
L 1351.485924 1897.983852 
L 1355.423271 1901.005084 
L 1360.008408 1902.90431 
L 1364.928866 1903.552101 
L 1369.849325 1902.90431 
L 1374.434462 1901.005084 
L 1378.371809 1897.983852 
L 1381.393041 1894.046505 
L 1383.292267 1889.461368 
z
"/>
    <path clip-path="url(#pf62b971af2)" d="M 1151.780467 1676.542314 
L 1151.132676 1671.621855 
L 1149.23345 1667.036718 
L 1146.212218 1663.099371 
L 1142.274871 1660.078139 
L 1137.689734 1658.178913 
L 1132.769275 1657.531122 
L 1127.848817 1658.178913 
L 1123.263679 1660.078139 
L 1119.326333 1663.099371 
L 1116.3051 1667.036718 
L 1114.405874 1671.621855 
L 1113.758084 1676.542314 
L 1114.405874 1681.462772 
L 1116.3051 1686.047909 
L 1119.326333 1689.985256 
L 1123.263679 1693.006488 
L 1127.848817 1694.905715 
L 1132.769275 1695.553505 
L 1137.689734 1694.905715 
L 1142.274871 1693.006488 
L 1146.212218 1689.985256 
L 1149.23345 1686.047909 
L 1151.132676 1681.462772 
z
"/>
    <path clip-path="url(#pf62b971af2)" d="M 1353.337757 1459.99794 
L 1352.689966 1455.077482 
L 1350.79074 1450.492344 
L 1347.769508 1446.554998 
L 1343.832161 1443.533765 
L 1339.247024 1441.634539 
L 1334.326565 1440.986749 
L 1329.406107 1441.634539 
L 1324.82097 1443.533765 
L 1320.883623 1446.554998 
L 1317.862391 1450.492344 
L 1315.963165 1455.077482 
L 1315.315374 1459.99794 
L 1315.963165 1464.918398 
L 1317.862391 1469.503536 
L 1320.883623 1473.440882 
L 1324.82097 1476.462115 
L 1329.406107 1478.361341 
L 1334.326565 1479.009131 
L 1339.247024 1478.361341 
L 1343.832161 1476.462115 
L 1347.769508 1473.440882 
L 1350.79074 1469.503536 
L 1352.689966 1464.918398 
z
"/>
    <path clip-path="url(#pf62b971af2)" d="M 1935.402789 1195.208219 
L 1934.754999 1190.28776 
L 1932.855773 1185.702623 
L 1929.83454 1181.765276 
L 1925.897194 1178.744044 
L 1921.312056 1176.844818 
L 1916.391598 1176.197027 
L 1911.47114 1176.844818 
L 1906.886002 1178.744044 
L 1902.948656 1181.765276 
L 1899.927423 1185.702623 
L 1898.028197 1190.28776 
L 1897.380407 1195.208219 
L 1898.028197 1200.128677 
L 1899.927423 1204.713814 
L 1902.948656 1208.651161 
L 1906.886002 1211.672393 
L 1911.47114 1213.571619 
L 1916.391598 1214.21941 
L 1921.312056 1213.571619 
L 1925.897194 1211.672393 
L 1929.83454 1208.651161 
L 1932.855773 1204.713814 
L 1934.754999 1200.128677 
z
"/>
    <path clip-path="url(#pf62b971af2)" d="M 1817.060437 1409.805644 
L 1816.412647 1404.885186 
L 1814.513421 1400.300048 
L 1811.492188 1396.362702 
L 1807.554842 1393.341469 
L 1802.969704 1391.442243 
L 1798.049246 1390.794453 
L 1793.128788 1391.442243 
L 1788.54365 1393.341469 
L 1784.606304 1396.362702 
L 1781.585071 1400.300048 
L 1779.685845 1404.885186 
L 1779.038055 1409.805644 
L 1779.685845 1414.726102 
L 1781.585071 1419.31124 
L 1784.606304 1423.248586 
L 1788.54365 1426.269819 
L 1793.128788 1428.169045 
L 1798.049246 1428.816835 
L 1802.969704 1428.169045 
L 1807.554842 1426.269819 
L 1811.492188 1423.248586 
L 1814.513421 1419.31124 
L 1816.412647 1414.726102 
z
"/>
    <path clip-path="url(#pf62b971af2)" d="M 615.384256 787.537291 
L 614.736465 782.616833 
L 612.837239 778.031696 
L 609.816007 774.094349 
L 605.87866 771.073117 
L 601.293523 769.17389 
L 596.373064 768.5261 
L 591.452606 769.17389 
L 586.867469 771.073117 
L 582.930122 774.094349 
L 579.90889 778.031696 
L 578.009663 782.616833 
L 577.361873 787.537291 
L 578.009663 792.45775 
L 579.90889 797.042887 
L 582.930122 800.980234 
L 586.867469 804.001466 
L 591.452606 805.900692 
L 596.373064 806.548483 
L 601.293523 805.900692 
L 605.87866 804.001466 
L 609.816007 800.980234 
L 612.837239 797.042887 
L 614.736465 792.45775 
z
"/>
    <path clip-path="url(#pf62b971af2)" d="M 464.219593 912.193625 
L 463.571803 907.273166 
L 461.672577 902.688029 
L 458.651344 898.750682 
L 454.713998 895.72945 
L 450.12886 893.830224 
L 445.208402 893.182433 
L 440.287944 893.830224 
L 435.702806 895.72945 
L 431.76546 898.750682 
L 428.744227 902.688029 
L 426.845001 907.273166 
L 426.197211 912.193625 
L 426.845001 917.114083 
L 428.744227 921.69922 
L 431.76546 925.636567 
L 435.702806 928.657799 
L 440.287944 930.557025 
L 445.208402 931.204816 
L 450.12886 930.557025 
L 454.713998 928.657799 
L 458.651344 925.636567 
L 461.672577 921.69922 
L 463.571803 917.114083 
z
"/>
    <path clip-path="url(#pf62b971af2)" d="M 767.724009 584.661593 
L 767.076219 579.741135 
L 765.176992 575.155997 
L 762.15576 571.218651 
L 758.218413 568.197418 
L 753.633276 566.298192 
L 748.712818 565.650402 
L 743.792359 566.298192 
L 739.207222 568.197418 
L 735.269875 571.218651 
L 732.248643 575.155997 
L 730.349417 579.741135 
L 729.701626 584.661593 
L 730.349417 589.582051 
L 732.248643 594.167189 
L 735.269875 598.104535 
L 739.207222 601.125768 
L 743.792359 603.024994 
L 748.712818 603.672784 
L 753.633276 603.024994 
L 758.218413 601.125768 
L 762.15576 598.104535 
L 765.176992 594.167189 
L 767.076219 589.582051 
z
"/>
    <path clip-path="url(#pf62b971af2)" d="M 1350.508096 581.511973 
L 1349.860306 576.591515 
L 1347.96108 572.006377 
L 1344.939847 568.069031 
L 1341.002501 565.047798 
L 1336.417363 563.148572 
L 1331.496905 562.500782 
L 1326.576446 563.148572 
L 1321.991309 565.047798 
L 1318.053963 568.069031 
L 1315.03273 572.006377 
L 1313.133504 576.591515 
L 1312.485713 581.511973 
L 1313.133504 586.432431 
L 1315.03273 591.017569 
L 1318.053963 594.954915 
L 1321.991309 597.976148 
L 1326.576446 599.875374 
L 1331.496905 600.523164 
L 1336.417363 599.875374 
L 1341.002501 597.976148 
L 1344.939847 594.954915 
L 1347.96108 591.017569 
L 1349.860306 586.432431 
z
"/>
    <path clip-path="url(#pf62b971af2)" d="M 1021.147939 442.499091 
L 1020.500148 437.578632 
L 1018.600922 432.993495 
L 1015.57969 429.056148 
L 1011.642343 426.034916 
L 1007.057206 424.13569 
L 1002.136748 423.487899 
L 997.216289 424.13569 
L 992.631152 426.034916 
L 988.693805 429.056148 
L 985.672573 432.993495 
L 983.773347 437.578632 
L 983.125556 442.499091 
L 983.773347 447.419549 
L 985.672573 452.004686 
L 988.693805 455.942033 
L 992.631152 458.963265 
L 997.216289 460.862491 
L 1002.136748 461.510282 
L 1007.057206 460.862491 
L 1011.642343 458.963265 
L 1015.57969 455.942033 
L 1018.600922 452.004686 
L 1020.500148 447.419549 
z
"/>
    <path clip-path="url(#pf62b971af2)" d="M 1086.107428 825.022407 
L 1085.459637 820.101948 
L 1083.560411 815.516811 
L 1080.539179 811.579464 
L 1076.601832 808.558232 
L 1072.016695 806.659006 
L 1067.096236 806.011215 
L 1062.175778 806.659006 
L 1057.590641 808.558232 
L 1053.653294 811.579464 
L 1050.632062 815.516811 
L 1048.732836 820.101948 
L 1048.085045 825.022407 
L 1048.732836 829.942865 
L 1050.632062 834.528002 
L 1053.653294 838.465349 
L 1057.590641 841.486581 
L 1062.175778 843.385807 
L 1067.096236 844.033598 
L 1072.016695 843.385807 
L 1076.601832 841.486581 
L 1080.539179 838.465349 
L 1083.560411 834.528002 
L 1085.459637 829.942865 
z
"/>
    <path clip-path="url(#pf62b971af2)" d="M 1661.159265 1161.485474 
L 1660.511474 1156.565016 
L 1658.612248 1151.979878 
L 1655.591016 1148.042532 
L 1651.653669 1145.021299 
L 1647.068532 1143.122073 
L 1642.148073 1142.474283 
L 1637.227615 1143.122073 
L 1632.642478 1145.021299 
L 1628.705131 1148.042532 
L 1625.683899 1151.979878 
L 1623.784672 1156.565016 
L 1623.136882 1161.485474 
L 1623.784672 1166.405932 
L 1625.683899 1170.99107 
L 1628.705131 1174.928416 
L 1632.642478 1177.949649 
L 1637.227615 1179.848875 
L 1642.148073 1180.496665 
L 1647.068532 1179.848875 
L 1651.653669 1177.949649 
L 1655.591016 1174.928416 
L 1658.612248 1170.99107 
L 1660.511474 1166.405932 
z
"/>
    <path clip-path="url(#pf62b971af2)" d="M 1497.447597 1241.883482 
L 1496.799806 1236.963023 
L 1494.90058 1232.377886 
L 1491.879348 1228.440539 
L 1487.942001 1225.419307 
L 1483.356864 1223.520081 
L 1478.436405 1222.87229 
L 1473.515947 1223.520081 
L 1468.930809 1225.419307 
L 1464.993463 1228.440539 
L 1461.97223 1232.377886 
L 1460.073004 1236.963023 
L 1459.425214 1241.883482 
L 1460.073004 1246.80394 
L 1461.97223 1251.389077 
L 1464.993463 1255.326424 
L 1468.930809 1258.347656 
L 1473.515947 1260.246883 
L 1478.436405 1260.894673 
L 1483.356864 1260.246883 
L 1487.942001 1258.347656 
L 1491.879348 1255.326424 
L 1494.90058 1251.389077 
L 1496.799806 1246.80394 
z
"/>
    <path clip-path="url(#pf62b971af2)" d="M 927.236903 1594.401913 
L 926.589112 1589.481455 
L 924.689886 1584.896318 
L 921.668654 1580.958971 
L 917.731307 1577.937739 
L 913.14617 1576.038513 
L 908.225711 1575.390722 
L 903.305253 1576.038513 
L 898.720116 1577.937739 
L 894.782769 1580.958971 
L 891.761536 1584.896318 
L 889.86231 1589.481455 
L 889.21452 1594.401913 
L 889.86231 1599.322372 
L 891.761536 1603.907509 
L 894.782769 1607.844856 
L 898.720116 1610.866088 
L 903.305253 1612.765314 
L 908.225711 1613.413105 
L 913.14617 1612.765314 
L 917.731307 1610.866088 
L 921.668654 1607.844856 
L 924.689886 1603.907509 
L 926.589112 1599.322372 
z
"/>
    <path clip-path="url(#pf62b971af2)" d="M 1140.926854 1507.836574 
L 1140.279064 1502.916115 
L 1138.379838 1498.330978 
L 1135.358605 1494.393631 
L 1131.421259 1491.372399 
L 1126.836121 1489.473173 
L 1121.915663 1488.825382 
L 1116.995205 1489.473173 
L 1112.410067 1491.372399 
L 1108.472721 1494.393631 
L 1105.451488 1498.330978 
L 1103.552262 1502.916115 
L 1102.904472 1507.836574 
L 1103.552262 1512.757032 
L 1105.451488 1517.34217 
L 1108.472721 1521.279516 
L 1112.410067 1524.300749 
L 1116.995205 1526.199975 
L 1121.915663 1526.847765 
L 1126.836121 1526.199975 
L 1131.421259 1524.300749 
L 1135.358605 1521.279516 
L 1138.379838 1517.34217 
L 1140.279064 1512.757032 
z
"/>
    <path clip-path="url(#pf62b971af2)" d="M 790.466261 944.223449 
L 789.81847 939.302991 
L 787.919244 934.717853 
L 784.898012 930.780507 
L 780.960665 927.759274 
L 776.375528 925.860048 
L 771.45507 925.212258 
L 766.534611 925.860048 
L 761.949474 927.759274 
L 758.012127 930.780507 
L 754.990895 934.717853 
L 753.091669 939.302991 
L 752.443878 944.223449 
L 753.091669 949.143907 
L 754.990895 953.729045 
L 758.012127 957.666391 
L 761.949474 960.687624 
L 766.534611 962.58685 
L 771.45507 963.23464 
L 776.375528 962.58685 
L 780.960665 960.687624 
L 784.898012 957.666391 
L 787.919244 953.729045 
L 789.81847 949.143907 
z
"/>
    <path clip-path="url(#pf62b971af2)" d="M 782.581176 1364.052219 
L 781.933385 1359.13176 
L 780.034159 1354.546623 
L 777.012927 1350.609276 
L 773.07558 1347.588044 
L 768.490443 1345.688818 
L 763.569985 1345.041027 
L 758.649526 1345.688818 
L 754.064389 1347.588044 
L 750.127042 1350.609276 
L 747.10581 1354.546623 
L 745.206584 1359.13176 
L 744.558793 1364.052219 
L 745.206584 1368.972677 
L 747.10581 1373.557814 
L 750.127042 1377.495161 
L 754.064389 1380.516393 
L 758.649526 1382.415619 
L 763.569985 1383.06341 
L 768.490443 1382.415619 
L 773.07558 1380.516393 
L 777.012927 1377.495161 
L 780.034159 1373.557814 
L 781.933385 1368.972677 
z
"/>
    <path clip-path="url(#pf62b971af2)" d="M 883.147354 1082.915626 
L 882.499563 1077.995168 
L 880.600337 1073.410031 
L 877.579105 1069.472684 
L 873.641758 1066.451452 
L 869.056621 1064.552226 
L 864.136163 1063.904435 
L 859.215704 1064.552226 
L 854.630567 1066.451452 
L 850.69322 1069.472684 
L 847.671988 1073.410031 
L 845.772762 1077.995168 
L 845.124971 1082.915626 
L 845.772762 1087.836085 
L 847.671988 1092.421222 
L 850.69322 1096.358569 
L 854.630567 1099.379801 
L 859.215704 1101.279027 
L 864.136163 1101.926818 
L 869.056621 1101.279027 
L 873.641758 1099.379801 
L 877.579105 1096.358569 
L 880.600337 1092.421222 
L 882.499563 1087.836085 
z
"/>
    <path clip-path="url(#pf62b971af2)" d="M 859.062107 475.731144 
L 858.414316 470.810686 
L 856.51509 466.225548 
L 853.493858 462.288202 
L 849.556511 459.266969 
L 844.971374 457.367743 
L 840.050916 456.719953 
L 835.130457 457.367743 
L 830.54532 459.266969 
L 826.607973 462.288202 
L 823.586741 466.225548 
L 821.687515 470.810686 
L 821.039724 475.731144 
L 821.687515 480.651602 
L 823.586741 485.23674 
L 826.607973 489.174086 
L 830.54532 492.195319 
L 835.130457 494.094545 
L 840.050916 494.742335 
L 844.971374 494.094545 
L 849.556511 492.195319 
L 853.493858 489.174086 
L 856.51509 485.23674 
L 858.414316 480.651602 
z
"/>
    <path clip-path="url(#pf62b971af2)" d="M 622.496844 1050.151148 
L 621.849053 1045.23069 
L 619.949827 1040.645552 
L 616.928595 1036.708206 
L 612.991248 1033.686973 
L 608.406111 1031.787747 
L 603.485653 1031.139957 
L 598.565194 1031.787747 
L 593.980057 1033.686973 
L 590.04271 1036.708206 
L 587.021478 1040.645552 
L 585.122252 1045.23069 
L 584.474461 1050.151148 
L 585.122252 1055.071607 
L 587.021478 1059.656744 
L 590.04271 1063.594091 
L 593.980057 1066.615323 
L 598.565194 1068.514549 
L 603.485653 1069.16234 
L 608.406111 1068.514549 
L 612.991248 1066.615323 
L 616.928595 1063.594091 
L 619.949827 1059.656744 
L 621.849053 1055.071607 
z
"/>
    <path clip-path="url(#pf62b971af2)" d="M 1611.167804 712.607179 
L 1610.520014 707.68672 
L 1608.620788 703.101583 
L 1605.599555 699.164236 
L 1601.662209 696.143004 
L 1597.077071 694.243778 
L 1592.156613 693.595987 
L 1587.236155 694.243778 
L 1582.651017 696.143004 
L 1578.713671 699.164236 
L 1575.692438 703.101583 
L 1573.793212 707.68672 
L 1573.145422 712.607179 
L 1573.793212 717.527637 
L 1575.692438 722.112775 
L 1578.713671 726.050121 
L 1582.651017 729.071354 
L 1587.236155 730.97058 
L 1592.156613 731.61837 
L 1597.077071 730.97058 
L 1601.662209 729.071354 
L 1605.599555 726.050121 
L 1608.620788 722.112775 
L 1610.520014 717.527637 
z
"/>
    <path clip-path="url(#pf62b971af2)" d="M 1052.345882 691.680394 
L 1051.698092 686.759936 
L 1049.798866 682.174799 
L 1046.777633 678.237452 
L 1042.840287 675.21622 
L 1038.255149 673.316994 
L 1033.334691 672.669203 
L 1028.414232 673.316994 
L 1023.829095 675.21622 
L 1019.891748 678.237452 
L 1016.870516 682.174799 
L 1014.97129 686.759936 
L 1014.323499 691.680394 
L 1014.97129 696.600853 
L 1016.870516 701.18599 
L 1019.891748 705.123337 
L 1023.829095 708.144569 
L 1028.414232 710.043795 
L 1033.334691 710.691586 
L 1038.255149 710.043795 
L 1042.840287 708.144569 
L 1046.777633 705.123337 
L 1049.798866 701.18599 
L 1051.698092 696.600853 
z
"/>
    <path clip-path="url(#pf62b971af2)" d="M 1409.168278 747.313225 
L 1408.520487 742.392767 
L 1406.621261 737.80763 
L 1403.600029 733.870283 
L 1399.662682 730.849051 
L 1395.077545 728.949825 
L 1390.157086 728.302034 
L 1385.236628 728.949825 
L 1380.65149 730.849051 
L 1376.714144 733.870283 
L 1373.692911 737.80763 
L 1371.793685 742.392767 
L 1371.145895 747.313225 
L 1371.793685 752.233684 
L 1373.692911 756.818821 
L 1376.714144 760.756168 
L 1380.65149 763.7774 
L 1385.236628 765.676626 
L 1390.157086 766.324417 
L 1395.077545 765.676626 
L 1399.662682 763.7774 
L 1403.600029 760.756168 
L 1406.621261 756.818821 
L 1408.520487 752.233684 
z
"/>
    <path clip-path="url(#pf62b971af2)" d="M 1836.337054 923.493205 
L 1835.689263 918.572747 
L 1833.790037 913.98761 
L 1830.768805 910.050263 
L 1826.831458 907.029031 
L 1822.246321 905.129805 
L 1817.325862 904.482014 
L 1812.405404 905.129805 
L 1807.820267 907.029031 
L 1803.88292 910.050263 
L 1800.861688 913.98761 
L 1798.962461 918.572747 
L 1798.314671 923.493205 
L 1798.962461 928.413664 
L 1800.861688 932.998801 
L 1803.88292 936.936148 
L 1807.820267 939.95738 
L 1812.405404 941.856606 
L 1817.325862 942.504397 
L 1822.246321 941.856606 
L 1826.831458 939.95738 
L 1830.768805 936.936148 
L 1833.790037 932.998801 
L 1835.689263 928.413664 
z
"/>
    <path clip-path="url(#pf62b971af2)" d="M 681.854079 1583.799908 
L 681.206289 1578.879449 
L 679.307063 1574.294312 
L 676.28583 1570.356965 
L 672.348484 1567.335733 
L 667.763346 1565.436507 
L 662.842888 1564.788716 
L 657.92243 1565.436507 
L 653.337292 1567.335733 
L 649.399946 1570.356965 
L 646.378713 1574.294312 
L 644.479487 1578.879449 
L 643.831697 1583.799908 
L 644.479487 1588.720366 
L 646.378713 1593.305503 
L 649.399946 1597.24285 
L 653.337292 1600.264082 
L 657.92243 1602.163308 
L 662.842888 1602.811099 
L 667.763346 1602.163308 
L 672.348484 1600.264082 
L 676.28583 1597.24285 
L 679.307063 1593.305503 
L 681.206289 1588.720366 
z
"/>
    <path clip-path="url(#pf62b971af2)" d="M 651.193031 1197.220843 
L 650.545241 1192.300384 
L 648.646015 1187.715247 
L 645.624782 1183.7779 
L 641.687436 1180.756668 
L 637.102298 1178.857442 
L 632.18184 1178.209651 
L 627.261382 1178.857442 
L 622.676244 1180.756668 
L 618.738898 1183.7779 
L 615.717665 1187.715247 
L 613.818439 1192.300384 
L 613.170649 1197.220843 
L 613.818439 1202.141301 
L 615.717665 1206.726438 
L 618.738898 1210.663785 
L 622.676244 1213.685017 
L 627.261382 1215.584244 
L 632.18184 1216.232034 
L 637.102298 1215.584244 
L 641.687436 1213.685017 
L 645.624782 1210.663785 
L 648.646015 1206.726438 
L 650.545241 1202.141301 
z
"/>
    <path clip-path="url(#pf62b971af2)" d="M 1254.225875 705.862017 
L 1253.578084 700.941559 
L 1251.678858 696.356421 
L 1248.657626 692.419075 
L 1244.720279 689.397842 
L 1240.135142 687.498616 
L 1235.214683 686.850826 
L 1230.294225 687.498616 
L 1225.709087 689.397842 
L 1221.771741 692.419075 
L 1218.750508 696.356421 
L 1216.851282 700.941559 
L 1216.203492 705.862017 
L 1216.851282 710.782475 
L 1218.750508 715.367613 
L 1221.771741 719.304959 
L 1225.709087 722.326192 
L 1230.294225 724.225418 
L 1235.214683 724.873208 
L 1240.135142 724.225418 
L 1244.720279 722.326192 
L 1248.657626 719.304959 
L 1251.678858 715.367613 
L 1253.578084 710.782475 
z
"/>
   </g>
   <g id="text_1">
    <g id="patch_2">
     <path d="M 1441.695375 1471.981888 
L 1487.803324 1431.967397 
L 1476.216408 1418.616011 
L 1430.108459 1458.630503 
z
" style="fill:#ffffff;fill-opacity:0.35;stroke:#ffffff;stroke-linejoin:miter;stroke-opacity:0.35;"/>
    </g>
    <!-- PFET - e12 -->
    <g style="fill:#1f77b4;" transform="translate(1440.731512 1464.768459)rotate(-40.952872)scale(0.1 -0.1)">
     <defs>
      <path d="M 19.671875 64.796875 
L 19.671875 37.40625 
L 32.078125 37.40625 
Q 38.96875 37.40625 42.71875 40.96875 
Q 46.484375 44.53125 46.484375 51.125 
Q 46.484375 57.671875 42.71875 61.234375 
Q 38.96875 64.796875 32.078125 64.796875 
z
M 9.8125 72.90625 
L 32.078125 72.90625 
Q 44.34375 72.90625 50.609375 67.359375 
Q 56.890625 61.8125 56.890625 51.125 
Q 56.890625 40.328125 50.609375 34.8125 
Q 44.34375 29.296875 32.078125 29.296875 
L 19.671875 29.296875 
L 19.671875 0 
L 9.8125 0 
z
" id="DejaVuSans-80"/>
      <path d="M 9.8125 72.90625 
L 51.703125 72.90625 
L 51.703125 64.59375 
L 19.671875 64.59375 
L 19.671875 43.109375 
L 48.578125 43.109375 
L 48.578125 34.8125 
L 19.671875 34.8125 
L 19.671875 0 
L 9.8125 0 
z
" id="DejaVuSans-70"/>
      <path d="M 9.8125 72.90625 
L 55.90625 72.90625 
L 55.90625 64.59375 
L 19.671875 64.59375 
L 19.671875 43.015625 
L 54.390625 43.015625 
L 54.390625 34.71875 
L 19.671875 34.71875 
L 19.671875 8.296875 
L 56.78125 8.296875 
L 56.78125 0 
L 9.8125 0 
z
" id="DejaVuSans-69"/>
      <path d="M -0.296875 72.90625 
L 61.375 72.90625 
L 61.375 64.59375 
L 35.5 64.59375 
L 35.5 0 
L 25.59375 0 
L 25.59375 64.59375 
L -0.296875 64.59375 
z
" id="DejaVuSans-84"/>
      <path id="DejaVuSans-32"/>
      <path d="M 4.890625 31.390625 
L 31.203125 31.390625 
L 31.203125 23.390625 
L 4.890625 23.390625 
z
" id="DejaVuSans-45"/>
      <path d="M 56.203125 29.59375 
L 56.203125 25.203125 
L 14.890625 25.203125 
Q 15.484375 15.921875 20.484375 11.0625 
Q 25.484375 6.203125 34.421875 6.203125 
Q 39.59375 6.203125 44.453125 7.46875 
Q 49.3125 8.734375 54.109375 11.28125 
L 54.109375 2.78125 
Q 49.265625 0.734375 44.1875 -0.34375 
Q 39.109375 -1.421875 33.890625 -1.421875 
Q 20.796875 -1.421875 13.15625 6.1875 
Q 5.515625 13.8125 5.515625 26.8125 
Q 5.515625 40.234375 12.765625 48.109375 
Q 20.015625 56 32.328125 56 
Q 43.359375 56 49.78125 48.890625 
Q 56.203125 41.796875 56.203125 29.59375 
z
M 47.21875 32.234375 
Q 47.125 39.59375 43.09375 43.984375 
Q 39.0625 48.390625 32.421875 48.390625 
Q 24.90625 48.390625 20.390625 44.140625 
Q 15.875 39.890625 15.1875 32.171875 
z
" id="DejaVuSans-101"/>
      <path d="M 12.40625 8.296875 
L 28.515625 8.296875 
L 28.515625 63.921875 
L 10.984375 60.40625 
L 10.984375 69.390625 
L 28.421875 72.90625 
L 38.28125 72.90625 
L 38.28125 8.296875 
L 54.390625 8.296875 
L 54.390625 0 
L 12.40625 0 
z
" id="DejaVuSans-49"/>
      <path d="M 19.1875 8.296875 
L 53.609375 8.296875 
L 53.609375 0 
L 7.328125 0 
L 7.328125 8.296875 
Q 12.9375 14.109375 22.625 23.890625 
Q 32.328125 33.6875 34.8125 36.53125 
Q 39.546875 41.84375 41.421875 45.53125 
Q 43.3125 49.21875 43.3125 52.78125 
Q 43.3125 58.59375 39.234375 62.25 
Q 35.15625 65.921875 28.609375 65.921875 
Q 23.96875 65.921875 18.8125 64.3125 
Q 13.671875 62.703125 7.8125 59.421875 
L 7.8125 69.390625 
Q 13.765625 71.78125 18.9375 73 
Q 24.125 74.21875 28.421875 74.21875 
Q 39.75 74.21875 46.484375 68.546875 
Q 53.21875 62.890625 53.21875 53.421875 
Q 53.21875 48.921875 51.53125 44.890625 
Q 49.859375 40.875 45.40625 35.40625 
Q 44.1875 33.984375 37.640625 27.21875 
Q 31.109375 20.453125 19.1875 8.296875 
z
" id="DejaVuSans-50"/>
     </defs>
     <use xlink:href="#DejaVuSans-80"/>
     <use x="60.302734" xlink:href="#DejaVuSans-70"/>
     <use x="117.822266" xlink:href="#DejaVuSans-69"/>
     <use x="181.005859" xlink:href="#DejaVuSans-84"/>
     <use x="242.089844" xlink:href="#DejaVuSans-32"/>
     <use x="273.876953" xlink:href="#DejaVuSans-45"/>
     <use x="309.960938" xlink:href="#DejaVuSans-32"/>
     <use x="341.748047" xlink:href="#DejaVuSans-101"/>
     <use x="403.271484" xlink:href="#DejaVuSans-49"/>
     <use x="466.894531" xlink:href="#DejaVuSans-50"/>
    </g>
   </g>
   <g id="text_2">
    <g id="patch_3">
     <path d="M 1101.033694 1570.062505 
L 1150.451825 1534.216295 
L 1140.071911 1519.906387 
L 1090.653779 1555.752597 
z
" style="fill:#ffffff;fill-opacity:0.35;stroke:#ffffff;stroke-linejoin:miter;stroke-opacity:0.35;"/>
    </g>
    <!-- PFET - e13 -->
    <g style="fill:#ff7f0e;" transform="translate(1100.701815 1562.792536)rotate(-35.955838)scale(0.1 -0.1)">
     <defs>
      <path d="M 40.578125 39.3125 
Q 47.65625 37.796875 51.625 33 
Q 55.609375 28.21875 55.609375 21.1875 
Q 55.609375 10.40625 48.1875 4.484375 
Q 40.765625 -1.421875 27.09375 -1.421875 
Q 22.515625 -1.421875 17.65625 -0.515625 
Q 12.796875 0.390625 7.625 2.203125 
L 7.625 11.71875 
Q 11.71875 9.328125 16.59375 8.109375 
Q 21.484375 6.890625 26.8125 6.890625 
Q 36.078125 6.890625 40.9375 10.546875 
Q 45.796875 14.203125 45.796875 21.1875 
Q 45.796875 27.640625 41.28125 31.265625 
Q 36.765625 34.90625 28.71875 34.90625 
L 20.21875 34.90625 
L 20.21875 43.015625 
L 29.109375 43.015625 
Q 36.375 43.015625 40.234375 45.921875 
Q 44.09375 48.828125 44.09375 54.296875 
Q 44.09375 59.90625 40.109375 62.90625 
Q 36.140625 65.921875 28.71875 65.921875 
Q 24.65625 65.921875 20.015625 65.03125 
Q 15.375 64.15625 9.8125 62.3125 
L 9.8125 71.09375 
Q 15.4375 72.65625 20.34375 73.4375 
Q 25.25 74.21875 29.59375 74.21875 
Q 40.828125 74.21875 47.359375 69.109375 
Q 53.90625 64.015625 53.90625 55.328125 
Q 53.90625 49.265625 50.4375 45.09375 
Q 46.96875 40.921875 40.578125 39.3125 
z
" id="DejaVuSans-51"/>
     </defs>
     <use xlink:href="#DejaVuSans-80"/>
     <use x="60.302734" xlink:href="#DejaVuSans-70"/>
     <use x="117.822266" xlink:href="#DejaVuSans-69"/>
     <use x="181.005859" xlink:href="#DejaVuSans-84"/>
     <use x="242.089844" xlink:href="#DejaVuSans-32"/>
     <use x="273.876953" xlink:href="#DejaVuSans-45"/>
     <use x="309.960938" xlink:href="#DejaVuSans-32"/>
     <use x="341.748047" xlink:href="#DejaVuSans-101"/>
     <use x="403.271484" xlink:href="#DejaVuSans-49"/>
     <use x="466.894531" xlink:href="#DejaVuSans-51"/>
    </g>
   </g>
   <g id="text_3">
    <g id="patch_4">
     <path d="M 1906.127182 1402.87433 
L 1915.848405 1377.81577 
L 1899.367034 1371.421983 
L 1889.645811 1396.480543 
z
" style="fill:#ffffff;fill-opacity:0.35;stroke:#ffffff;stroke-linejoin:miter;stroke-opacity:0.35;"/>
    </g>
    <!-- e28 -->
    <g style="fill:#2ca02c;" transform="translate(1901.905782 1396.946229)rotate(-68.796723)scale(0.1 -0.1)">
     <defs>
      <path d="M 31.78125 34.625 
Q 24.75 34.625 20.71875 30.859375 
Q 16.703125 27.09375 16.703125 20.515625 
Q 16.703125 13.921875 20.71875 10.15625 
Q 24.75 6.390625 31.78125 6.390625 
Q 38.8125 6.390625 42.859375 10.171875 
Q 46.921875 13.96875 46.921875 20.515625 
Q 46.921875 27.09375 42.890625 30.859375 
Q 38.875 34.625 31.78125 34.625 
z
M 21.921875 38.8125 
Q 15.578125 40.375 12.03125 44.71875 
Q 8.5 49.078125 8.5 55.328125 
Q 8.5 64.0625 14.71875 69.140625 
Q 20.953125 74.21875 31.78125 74.21875 
Q 42.671875 74.21875 48.875 69.140625 
Q 55.078125 64.0625 55.078125 55.328125 
Q 55.078125 49.078125 51.53125 44.71875 
Q 48 40.375 41.703125 38.8125 
Q 48.828125 37.15625 52.796875 32.3125 
Q 56.78125 27.484375 56.78125 20.515625 
Q 56.78125 9.90625 50.3125 4.234375 
Q 43.84375 -1.421875 31.78125 -1.421875 
Q 19.734375 -1.421875 13.25 4.234375 
Q 6.78125 9.90625 6.78125 20.515625 
Q 6.78125 27.484375 10.78125 32.3125 
Q 14.796875 37.15625 21.921875 38.8125 
z
M 18.3125 54.390625 
Q 18.3125 48.734375 21.84375 45.5625 
Q 25.390625 42.390625 31.78125 42.390625 
Q 38.140625 42.390625 41.71875 45.5625 
Q 45.3125 48.734375 45.3125 54.390625 
Q 45.3125 60.0625 41.71875 63.234375 
Q 38.140625 66.40625 31.78125 66.40625 
Q 25.390625 66.40625 21.84375 63.234375 
Q 18.3125 60.0625 18.3125 54.390625 
z
" id="DejaVuSans-56"/>
     </defs>
     <use xlink:href="#DejaVuSans-101"/>
     <use x="61.523438" xlink:href="#DejaVuSans-50"/>
     <use x="125.146484" xlink:href="#DejaVuSans-56"/>
    </g>
   </g>
   <g id="text_4">
    <g id="patch_5">
     <path d="M 553.980831 723.964149 
L 572.249628 704.249062 
L 559.282734 692.233414 
L 541.013938 711.948502 
z
" style="fill:#ffffff;fill-opacity:0.35;stroke:#ffffff;stroke-linejoin:miter;stroke-opacity:0.35;"/>
    </g>
    <!-- e24 -->
    <g style="fill:#d62728;" transform="translate(552.240145 716.897848)rotate(-47.180565)scale(0.1 -0.1)">
     <defs>
      <path d="M 37.796875 64.3125 
L 12.890625 25.390625 
L 37.796875 25.390625 
z
M 35.203125 72.90625 
L 47.609375 72.90625 
L 47.609375 25.390625 
L 58.015625 25.390625 
L 58.015625 17.1875 
L 47.609375 17.1875 
L 47.609375 0 
L 37.796875 0 
L 37.796875 17.1875 
L 4.890625 17.1875 
L 4.890625 26.703125 
z
" id="DejaVuSans-52"/>
     </defs>
     <use xlink:href="#DejaVuSans-101"/>
     <use x="61.523438" xlink:href="#DejaVuSans-50"/>
     <use x="125.146484" xlink:href="#DejaVuSans-52"/>
    </g>
   </g>
   <g id="text_5">
    <g id="patch_6">
     <path d="M 847.069089 754.346672 
L 892.231848 785.185735 
L 902.200796 770.586551 
L 857.038036 739.747487 
z
" style="fill:#ffffff;fill-opacity:0.35;stroke:#ffffff;stroke-linejoin:miter;stroke-opacity:0.35;"/>
    </g>
    <!-- PFET - e1 -->
    <g style="fill:#9467bd;" transform="translate(853.800845 751.581521)rotate(-325.673068)scale(0.1 -0.1)">
     <use xlink:href="#DejaVuSans-80"/>
     <use x="60.302734" xlink:href="#DejaVuSans-70"/>
     <use x="117.822266" xlink:href="#DejaVuSans-69"/>
     <use x="181.005859" xlink:href="#DejaVuSans-84"/>
     <use x="242.089844" xlink:href="#DejaVuSans-32"/>
     <use x="273.876953" xlink:href="#DejaVuSans-45"/>
     <use x="309.960938" xlink:href="#DejaVuSans-32"/>
     <use x="341.748047" xlink:href="#DejaVuSans-101"/>
     <use x="403.271484" xlink:href="#DejaVuSans-49"/>
    </g>
   </g>
   <g id="text_6">
    <g id="patch_7">
     <path d="M 1134.803492 1375.354641 
L 1185.109876 1344.253984 
L 1175.813859 1329.217356 
L 1125.507475 1360.318014 
z
" style="fill:#ffffff;fill-opacity:0.35;stroke:#ffffff;stroke-linejoin:miter;stroke-opacity:0.35;"/>
    </g>
    <!-- NOR - e22 -->
    <g style="fill:#8c564b;" transform="translate(1135.00881 1368.079997)rotate(-31.725388)scale(0.1 -0.1)">
     <defs>
      <path d="M 9.8125 72.90625 
L 23.09375 72.90625 
L 55.421875 11.921875 
L 55.421875 72.90625 
L 64.984375 72.90625 
L 64.984375 0 
L 51.703125 0 
L 19.390625 60.984375 
L 19.390625 0 
L 9.8125 0 
z
" id="DejaVuSans-78"/>
      <path d="M 39.40625 66.21875 
Q 28.65625 66.21875 22.328125 58.203125 
Q 16.015625 50.203125 16.015625 36.375 
Q 16.015625 22.609375 22.328125 14.59375 
Q 28.65625 6.59375 39.40625 6.59375 
Q 50.140625 6.59375 56.421875 14.59375 
Q 62.703125 22.609375 62.703125 36.375 
Q 62.703125 50.203125 56.421875 58.203125 
Q 50.140625 66.21875 39.40625 66.21875 
z
M 39.40625 74.21875 
Q 54.734375 74.21875 63.90625 63.9375 
Q 73.09375 53.65625 73.09375 36.375 
Q 73.09375 19.140625 63.90625 8.859375 
Q 54.734375 -1.421875 39.40625 -1.421875 
Q 24.03125 -1.421875 14.8125 8.828125 
Q 5.609375 19.09375 5.609375 36.375 
Q 5.609375 53.65625 14.8125 63.9375 
Q 24.03125 74.21875 39.40625 74.21875 
z
" id="DejaVuSans-79"/>
      <path d="M 44.390625 34.1875 
Q 47.5625 33.109375 50.5625 29.59375 
Q 53.5625 26.078125 56.59375 19.921875 
L 66.609375 0 
L 56 0 
L 46.6875 18.703125 
Q 43.0625 26.03125 39.671875 28.421875 
Q 36.28125 30.8125 30.421875 30.8125 
L 19.671875 30.8125 
L 19.671875 0 
L 9.8125 0 
L 9.8125 72.90625 
L 32.078125 72.90625 
Q 44.578125 72.90625 50.734375 67.671875 
Q 56.890625 62.453125 56.890625 51.90625 
Q 56.890625 45.015625 53.6875 40.46875 
Q 50.484375 35.9375 44.390625 34.1875 
z
M 19.671875 64.796875 
L 19.671875 38.921875 
L 32.078125 38.921875 
Q 39.203125 38.921875 42.84375 42.21875 
Q 46.484375 45.515625 46.484375 51.90625 
Q 46.484375 58.296875 42.84375 61.546875 
Q 39.203125 64.796875 32.078125 64.796875 
z
" id="DejaVuSans-82"/>
     </defs>
     <use xlink:href="#DejaVuSans-78"/>
     <use x="74.804688" xlink:href="#DejaVuSans-79"/>
     <use x="153.515625" xlink:href="#DejaVuSans-82"/>
     <use x="222.998047" xlink:href="#DejaVuSans-32"/>
     <use x="254.785156" xlink:href="#DejaVuSans-45"/>
     <use x="290.869141" xlink:href="#DejaVuSans-32"/>
     <use x="322.65625" xlink:href="#DejaVuSans-101"/>
     <use x="384.179688" xlink:href="#DejaVuSans-50"/>
     <use x="447.802734" xlink:href="#DejaVuSans-50"/>
    </g>
   </g>
   <g id="text_7">
    <g id="patch_8">
     <path d="M 1262.031447 1196.835317 
L 1270.548795 1222.328226 
L 1287.315843 1216.726245 
L 1278.798496 1191.233336 
z
" style="fill:#ffffff;fill-opacity:0.35;stroke:#ffffff;stroke-linejoin:miter;stroke-opacity:0.35;"/>
    </g>
    <!-- e38 -->
    <g style="fill:#e377c2;" transform="translate(1269.065357 1198.702591)rotate(-288.474812)scale(0.1 -0.1)">
     <use xlink:href="#DejaVuSans-101"/>
     <use x="61.523438" xlink:href="#DejaVuSans-51"/>
     <use x="125.146484" xlink:href="#DejaVuSans-56"/>
    </g>
   </g>
   <g id="text_8">
    <g id="patch_9">
     <path d="M 896.883151 406.440825 
L 916.375286 400.041797 
L 910.861303 383.245604 
L 891.369168 389.644632 
z
" style="fill:#ffffff;fill-opacity:0.35;stroke:#ffffff;stroke-linejoin:miter;stroke-opacity:0.35;"/>
    </g>
    <!-- e6 -->
    <g style="fill:#7f7f7f;" transform="translate(898.787283 399.416803)rotate(-18.17437)scale(0.1 -0.1)">
     <defs>
      <path d="M 33.015625 40.375 
Q 26.375 40.375 22.484375 35.828125 
Q 18.609375 31.296875 18.609375 23.390625 
Q 18.609375 15.53125 22.484375 10.953125 
Q 26.375 6.390625 33.015625 6.390625 
Q 39.65625 6.390625 43.53125 10.953125 
Q 47.40625 15.53125 47.40625 23.390625 
Q 47.40625 31.296875 43.53125 35.828125 
Q 39.65625 40.375 33.015625 40.375 
z
M 52.59375 71.296875 
L 52.59375 62.3125 
Q 48.875 64.0625 45.09375 64.984375 
Q 41.3125 65.921875 37.59375 65.921875 
Q 27.828125 65.921875 22.671875 59.328125 
Q 17.53125 52.734375 16.796875 39.40625 
Q 19.671875 43.65625 24.015625 45.921875 
Q 28.375 48.1875 33.59375 48.1875 
Q 44.578125 48.1875 50.953125 41.515625 
Q 57.328125 34.859375 57.328125 23.390625 
Q 57.328125 12.15625 50.6875 5.359375 
Q 44.046875 -1.421875 33.015625 -1.421875 
Q 20.359375 -1.421875 13.671875 8.265625 
Q 6.984375 17.96875 6.984375 36.375 
Q 6.984375 53.65625 15.1875 63.9375 
Q 23.390625 74.21875 37.203125 74.21875 
Q 40.921875 74.21875 44.703125 73.484375 
Q 48.484375 72.75 52.59375 71.296875 
z
" id="DejaVuSans-54"/>
     </defs>
     <use xlink:href="#DejaVuSans-101"/>
     <use x="61.523438" xlink:href="#DejaVuSans-54"/>
    </g>
   </g>
   <g id="text_9">
    <g id="patch_10">
     <path d="M 460.667658 1234.928126 
L 483.65924 1305.878694 
L 500.476425 1300.429073 
L 477.484844 1229.478505 
z
" style="fill:#ffffff;fill-opacity:0.35;stroke:#ffffff;stroke-linejoin:miter;stroke-opacity:0.35;"/>
    </g>
    <!-- Snorlax - e43 -->
    <g style="fill:#bcbd22;" transform="translate(467.684337 1236.859143)rotate(-287.954953)scale(0.1 -0.1)">
     <defs>
      <path d="M 53.515625 70.515625 
L 53.515625 60.890625 
Q 47.90625 63.578125 42.921875 64.890625 
Q 37.9375 66.21875 33.296875 66.21875 
Q 25.25 66.21875 20.875 63.09375 
Q 16.5 59.96875 16.5 54.203125 
Q 16.5 49.359375 19.40625 46.890625 
Q 22.3125 44.4375 30.421875 42.921875 
L 36.375 41.703125 
Q 47.40625 39.59375 52.65625 34.296875 
Q 57.90625 29 57.90625 20.125 
Q 57.90625 9.515625 50.796875 4.046875 
Q 43.703125 -1.421875 29.984375 -1.421875 
Q 24.8125 -1.421875 18.96875 -0.25 
Q 13.140625 0.921875 6.890625 3.21875 
L 6.890625 13.375 
Q 12.890625 10.015625 18.65625 8.296875 
Q 24.421875 6.59375 29.984375 6.59375 
Q 38.421875 6.59375 43.015625 9.90625 
Q 47.609375 13.234375 47.609375 19.390625 
Q 47.609375 24.75 44.3125 27.78125 
Q 41.015625 30.8125 33.5 32.328125 
L 27.484375 33.5 
Q 16.453125 35.6875 11.515625 40.375 
Q 6.59375 45.0625 6.59375 53.421875 
Q 6.59375 63.09375 13.40625 68.65625 
Q 20.21875 74.21875 32.171875 74.21875 
Q 37.3125 74.21875 42.625 73.28125 
Q 47.953125 72.359375 53.515625 70.515625 
z
" id="DejaVuSans-83"/>
      <path d="M 54.890625 33.015625 
L 54.890625 0 
L 45.90625 0 
L 45.90625 32.71875 
Q 45.90625 40.484375 42.875 44.328125 
Q 39.84375 48.1875 33.796875 48.1875 
Q 26.515625 48.1875 22.3125 43.546875 
Q 18.109375 38.921875 18.109375 30.90625 
L 18.109375 0 
L 9.078125 0 
L 9.078125 54.6875 
L 18.109375 54.6875 
L 18.109375 46.1875 
Q 21.34375 51.125 25.703125 53.5625 
Q 30.078125 56 35.796875 56 
Q 45.21875 56 50.046875 50.171875 
Q 54.890625 44.34375 54.890625 33.015625 
z
" id="DejaVuSans-110"/>
      <path d="M 30.609375 48.390625 
Q 23.390625 48.390625 19.1875 42.75 
Q 14.984375 37.109375 14.984375 27.296875 
Q 14.984375 17.484375 19.15625 11.84375 
Q 23.34375 6.203125 30.609375 6.203125 
Q 37.796875 6.203125 41.984375 11.859375 
Q 46.1875 17.53125 46.1875 27.296875 
Q 46.1875 37.015625 41.984375 42.703125 
Q 37.796875 48.390625 30.609375 48.390625 
z
M 30.609375 56 
Q 42.328125 56 49.015625 48.375 
Q 55.71875 40.765625 55.71875 27.296875 
Q 55.71875 13.875 49.015625 6.21875 
Q 42.328125 -1.421875 30.609375 -1.421875 
Q 18.84375 -1.421875 12.171875 6.21875 
Q 5.515625 13.875 5.515625 27.296875 
Q 5.515625 40.765625 12.171875 48.375 
Q 18.84375 56 30.609375 56 
z
" id="DejaVuSans-111"/>
      <path d="M 41.109375 46.296875 
Q 39.59375 47.171875 37.8125 47.578125 
Q 36.03125 48 33.890625 48 
Q 26.265625 48 22.1875 43.046875 
Q 18.109375 38.09375 18.109375 28.8125 
L 18.109375 0 
L 9.078125 0 
L 9.078125 54.6875 
L 18.109375 54.6875 
L 18.109375 46.1875 
Q 20.953125 51.171875 25.484375 53.578125 
Q 30.03125 56 36.53125 56 
Q 37.453125 56 38.578125 55.875 
Q 39.703125 55.765625 41.0625 55.515625 
z
" id="DejaVuSans-114"/>
      <path d="M 9.421875 75.984375 
L 18.40625 75.984375 
L 18.40625 0 
L 9.421875 0 
z
" id="DejaVuSans-108"/>
      <path d="M 34.28125 27.484375 
Q 23.390625 27.484375 19.1875 25 
Q 14.984375 22.515625 14.984375 16.5 
Q 14.984375 11.71875 18.140625 8.90625 
Q 21.296875 6.109375 26.703125 6.109375 
Q 34.1875 6.109375 38.703125 11.40625 
Q 43.21875 16.703125 43.21875 25.484375 
L 43.21875 27.484375 
z
M 52.203125 31.203125 
L 52.203125 0 
L 43.21875 0 
L 43.21875 8.296875 
Q 40.140625 3.328125 35.546875 0.953125 
Q 30.953125 -1.421875 24.3125 -1.421875 
Q 15.921875 -1.421875 10.953125 3.296875 
Q 6 8.015625 6 15.921875 
Q 6 25.140625 12.171875 29.828125 
Q 18.359375 34.515625 30.609375 34.515625 
L 43.21875 34.515625 
L 43.21875 35.40625 
Q 43.21875 41.609375 39.140625 45 
Q 35.0625 48.390625 27.6875 48.390625 
Q 23 48.390625 18.546875 47.265625 
Q 14.109375 46.140625 10.015625 43.890625 
L 10.015625 52.203125 
Q 14.9375 54.109375 19.578125 55.046875 
Q 24.21875 56 28.609375 56 
Q 40.484375 56 46.34375 49.84375 
Q 52.203125 43.703125 52.203125 31.203125 
z
" id="DejaVuSans-97"/>
      <path d="M 54.890625 54.6875 
L 35.109375 28.078125 
L 55.90625 0 
L 45.3125 0 
L 29.390625 21.484375 
L 13.484375 0 
L 2.875 0 
L 24.125 28.609375 
L 4.6875 54.6875 
L 15.28125 54.6875 
L 29.78125 35.203125 
L 44.28125 54.6875 
z
" id="DejaVuSans-120"/>
     </defs>
     <use xlink:href="#DejaVuSans-83"/>
     <use x="63.476562" xlink:href="#DejaVuSans-110"/>
     <use x="126.855469" xlink:href="#DejaVuSans-111"/>
     <use x="188.037109" xlink:href="#DejaVuSans-114"/>
     <use x="229.150391" xlink:href="#DejaVuSans-108"/>
     <use x="256.933594" xlink:href="#DejaVuSans-97"/>
     <use x="318.212891" xlink:href="#DejaVuSans-120"/>
     <use x="377.392578" xlink:href="#DejaVuSans-32"/>
     <use x="409.179688" xlink:href="#DejaVuSans-45"/>
     <use x="445.263672" xlink:href="#DejaVuSans-32"/>
     <use x="477.050781" xlink:href="#DejaVuSans-101"/>
     <use x="538.574219" xlink:href="#DejaVuSans-52"/>
     <use x="602.197266" xlink:href="#DejaVuSans-51"/>
    </g>
   </g>
   <g id="text_10">
    <g id="patch_11">
     <path d="M 826.977643 1348.811141 
L 840.166186 1372.23113 
L 855.569846 1363.556838 
L 842.381303 1340.136848 
z
" style="fill:#ffffff;fill-opacity:0.35;stroke:#ffffff;stroke-linejoin:miter;stroke-opacity:0.35;"/>
    </g>
    <!-- e42 -->
    <g style="fill:#17becf;" transform="translate(834.237836 1349.313324)rotate(-299.385249)scale(0.1 -0.1)">
     <use xlink:href="#DejaVuSans-101"/>
     <use x="61.523438" xlink:href="#DejaVuSans-52"/>
     <use x="125.146484" xlink:href="#DejaVuSans-50"/>
    </g>
   </g>
   <g id="text_11">
    <g id="patch_12">
     <path d="M 1144.993035 1004.328243 
L 1194.853305 972.517291 
L 1185.34498 957.614007 
L 1135.48471 989.424959 
z
" style="fill:#ffffff;fill-opacity:0.35;stroke:#ffffff;stroke-linejoin:miter;stroke-opacity:0.35;"/>
    </g>
    <!-- NOR - e11 -->
    <g style="fill:#1f77b4;" transform="translate(1145.095166 997.051418)rotate(-32.537957)scale(0.1 -0.1)">
     <use xlink:href="#DejaVuSans-78"/>
     <use x="74.804688" xlink:href="#DejaVuSans-79"/>
     <use x="153.515625" xlink:href="#DejaVuSans-82"/>
     <use x="222.998047" xlink:href="#DejaVuSans-32"/>
     <use x="254.785156" xlink:href="#DejaVuSans-45"/>
     <use x="290.869141" xlink:href="#DejaVuSans-32"/>
     <use x="322.65625" xlink:href="#DejaVuSans-101"/>
     <use x="384.179688" xlink:href="#DejaVuSans-49"/>
     <use x="447.802734" xlink:href="#DejaVuSans-49"/>
    </g>
   </g>
   <g id="text_12">
    <g id="patch_13">
     <path d="M 1424.551605 1793.618305 
L 1450.015129 1785.013508 
L 1444.355632 1768.265786 
L 1418.892108 1776.870583 
z
" style="fill:#ffffff;fill-opacity:0.35;stroke:#ffffff;stroke-linejoin:miter;stroke-opacity:0.35;"/>
    </g>
    <!-- e17 -->
    <g style="fill:#ff7f0e;" transform="translate(1426.394725 1786.578027)rotate(-18.671469)scale(0.1 -0.1)">
     <defs>
      <path d="M 8.203125 72.90625 
L 55.078125 72.90625 
L 55.078125 68.703125 
L 28.609375 0 
L 18.3125 0 
L 43.21875 64.59375 
L 8.203125 64.59375 
z
" id="DejaVuSans-55"/>
     </defs>
     <use xlink:href="#DejaVuSans-101"/>
     <use x="61.523438" xlink:href="#DejaVuSans-49"/>
     <use x="125.146484" xlink:href="#DejaVuSans-55"/>
    </g>
   </g>
   <g id="text_13">
    <g id="patch_14">
     <path d="M 1418.035212 991.661874 
L 1428.765648 1016.305156 
L 1444.973885 1009.247595 
L 1434.243449 984.604314 
z
" style="fill:#ffffff;fill-opacity:0.35;stroke:#ffffff;stroke-linejoin:miter;stroke-opacity:0.35;"/>
    </g>
    <!-- e34 -->
    <g style="fill:#2ca02c;" transform="translate(1425.206292 992.902118)rotate(-293.529777)scale(0.1 -0.1)">
     <use xlink:href="#DejaVuSans-101"/>
     <use x="61.523438" xlink:href="#DejaVuSans-51"/>
     <use x="125.146484" xlink:href="#DejaVuSans-52"/>
    </g>
   </g>
   <g id="text_14">
    <g id="patch_15">
     <path d="M 1106.643227 1083.472897 
L 1115.870468 1108.717533 
L 1132.474224 1102.648646 
L 1123.246983 1077.40401 
z
" style="fill:#ffffff;fill-opacity:0.35;stroke:#ffffff;stroke-linejoin:miter;stroke-opacity:0.35;"/>
    </g>
    <!-- e40 -->
    <g style="fill:#d62728;" transform="translate(1113.726625 1085.142649)rotate(-290.078011)scale(0.1 -0.1)">
     <defs>
      <path d="M 31.78125 66.40625 
Q 24.171875 66.40625 20.328125 58.90625 
Q 16.5 51.421875 16.5 36.375 
Q 16.5 21.390625 20.328125 13.890625 
Q 24.171875 6.390625 31.78125 6.390625 
Q 39.453125 6.390625 43.28125 13.890625 
Q 47.125 21.390625 47.125 36.375 
Q 47.125 51.421875 43.28125 58.90625 
Q 39.453125 66.40625 31.78125 66.40625 
z
M 31.78125 74.21875 
Q 44.046875 74.21875 50.515625 64.515625 
Q 56.984375 54.828125 56.984375 36.375 
Q 56.984375 17.96875 50.515625 8.265625 
Q 44.046875 -1.421875 31.78125 -1.421875 
Q 19.53125 -1.421875 13.0625 8.265625 
Q 6.59375 17.96875 6.59375 36.375 
Q 6.59375 54.828125 13.0625 64.515625 
Q 19.53125 74.21875 31.78125 74.21875 
z
" id="DejaVuSans-48"/>
     </defs>
     <use xlink:href="#DejaVuSans-101"/>
     <use x="61.523438" xlink:href="#DejaVuSans-52"/>
     <use x="125.146484" xlink:href="#DejaVuSans-48"/>
    </g>
   </g>
   <g id="text_15">
    <g id="patch_16">
     <path d="M 646.075162 771.908819 
L 666.900381 721.341706 
L 650.5542 714.609806 
L 629.728981 765.176919 
z
" style="fill:#ffffff;fill-opacity:0.35;stroke:#ffffff;stroke-linejoin:miter;stroke-opacity:0.35;"/>
    </g>
    <!-- PFET - e2 -->
    <g style="fill:#9467bd;" transform="translate(641.97676 765.895027)rotate(-67.616507)scale(0.1 -0.1)">
     <use xlink:href="#DejaVuSans-80"/>
     <use x="60.302734" xlink:href="#DejaVuSans-70"/>
     <use x="117.822266" xlink:href="#DejaVuSans-69"/>
     <use x="181.005859" xlink:href="#DejaVuSans-84"/>
     <use x="242.089844" xlink:href="#DejaVuSans-32"/>
     <use x="273.876953" xlink:href="#DejaVuSans-45"/>
     <use x="309.960938" xlink:href="#DejaVuSans-32"/>
     <use x="341.748047" xlink:href="#DejaVuSans-101"/>
     <use x="403.271484" xlink:href="#DejaVuSans-50"/>
    </g>
   </g>
   <g id="text_16">
    <g id="patch_17">
     <path d="M 1355.355039 1636.741886 
L 1411.415977 1636.741886 
L 1411.415977 1619.063761 
L 1355.355039 1619.063761 
z
" style="fill:#ffffff;fill-opacity:0.35;stroke:#ffffff;stroke-linejoin:miter;stroke-opacity:0.35;"/>
    </g>
    <!-- n51 - gnd -->
    <g transform="translate(1359.355039 1630.662198)scale(0.1 -0.1)">
     <defs>
      <path d="M 10.796875 72.90625 
L 49.515625 72.90625 
L 49.515625 64.59375 
L 19.828125 64.59375 
L 19.828125 46.734375 
Q 21.96875 47.46875 24.109375 47.828125 
Q 26.265625 48.1875 28.421875 48.1875 
Q 40.625 48.1875 47.75 41.5 
Q 54.890625 34.8125 54.890625 23.390625 
Q 54.890625 11.625 47.5625 5.09375 
Q 40.234375 -1.421875 26.90625 -1.421875 
Q 22.3125 -1.421875 17.546875 -0.640625 
Q 12.796875 0.140625 7.71875 1.703125 
L 7.71875 11.625 
Q 12.109375 9.234375 16.796875 8.0625 
Q 21.484375 6.890625 26.703125 6.890625 
Q 35.15625 6.890625 40.078125 11.328125 
Q 45.015625 15.765625 45.015625 23.390625 
Q 45.015625 31 40.078125 35.4375 
Q 35.15625 39.890625 26.703125 39.890625 
Q 22.75 39.890625 18.8125 39.015625 
Q 14.890625 38.140625 10.796875 36.28125 
z
" id="DejaVuSans-53"/>
      <path d="M 45.40625 27.984375 
Q 45.40625 37.75 41.375 43.109375 
Q 37.359375 48.484375 30.078125 48.484375 
Q 22.859375 48.484375 18.828125 43.109375 
Q 14.796875 37.75 14.796875 27.984375 
Q 14.796875 18.265625 18.828125 12.890625 
Q 22.859375 7.515625 30.078125 7.515625 
Q 37.359375 7.515625 41.375 12.890625 
Q 45.40625 18.265625 45.40625 27.984375 
z
M 54.390625 6.78125 
Q 54.390625 -7.171875 48.1875 -13.984375 
Q 42 -20.796875 29.203125 -20.796875 
Q 24.46875 -20.796875 20.265625 -20.09375 
Q 16.0625 -19.390625 12.109375 -17.921875 
L 12.109375 -9.1875 
Q 16.0625 -11.328125 19.921875 -12.34375 
Q 23.78125 -13.375 27.78125 -13.375 
Q 36.625 -13.375 41.015625 -8.765625 
Q 45.40625 -4.15625 45.40625 5.171875 
L 45.40625 9.625 
Q 42.625 4.78125 38.28125 2.390625 
Q 33.9375 0 27.875 0 
Q 17.828125 0 11.671875 7.65625 
Q 5.515625 15.328125 5.515625 27.984375 
Q 5.515625 40.671875 11.671875 48.328125 
Q 17.828125 56 27.875 56 
Q 33.9375 56 38.28125 53.609375 
Q 42.625 51.21875 45.40625 46.390625 
L 45.40625 54.6875 
L 54.390625 54.6875 
z
" id="DejaVuSans-103"/>
      <path d="M 45.40625 46.390625 
L 45.40625 75.984375 
L 54.390625 75.984375 
L 54.390625 0 
L 45.40625 0 
L 45.40625 8.203125 
Q 42.578125 3.328125 38.25 0.953125 
Q 33.9375 -1.421875 27.875 -1.421875 
Q 17.96875 -1.421875 11.734375 6.484375 
Q 5.515625 14.40625 5.515625 27.296875 
Q 5.515625 40.1875 11.734375 48.09375 
Q 17.96875 56 27.875 56 
Q 33.9375 56 38.25 53.625 
Q 42.578125 51.265625 45.40625 46.390625 
z
M 14.796875 27.296875 
Q 14.796875 17.390625 18.875 11.75 
Q 22.953125 6.109375 30.078125 6.109375 
Q 37.203125 6.109375 41.296875 11.75 
Q 45.40625 17.390625 45.40625 27.296875 
Q 45.40625 37.203125 41.296875 42.84375 
Q 37.203125 48.484375 30.078125 48.484375 
Q 22.953125 48.484375 18.875 42.84375 
Q 14.796875 37.203125 14.796875 27.296875 
z
" id="DejaVuSans-100"/>
     </defs>
     <use xlink:href="#DejaVuSans-110"/>
     <use x="63.378906" xlink:href="#DejaVuSans-53"/>
     <use x="127.001953" xlink:href="#DejaVuSans-49"/>
     <use x="190.625" xlink:href="#DejaVuSans-32"/>
     <use x="222.412109" xlink:href="#DejaVuSans-45"/>
     <use x="258.496094" xlink:href="#DejaVuSans-32"/>
     <use x="290.283203" xlink:href="#DejaVuSans-103"/>
     <use x="353.759766" xlink:href="#DejaVuSans-110"/>
     <use x="417.138672" xlink:href="#DejaVuSans-100"/>
    </g>
   </g>
   <g id="text_17">
    <g id="patch_18">
     <path d="M 1563.353229 1833.08945 
L 1633.582917 1833.08945 
L 1633.582917 1815.411325 
L 1563.353229 1815.411325 
z
" style="fill:#ffffff;fill-opacity:0.35;stroke:#ffffff;stroke-linejoin:miter;stroke-opacity:0.35;"/>
    </g>
    <!-- n50 - source -->
    <g transform="translate(1567.353229 1827.009762)scale(0.1 -0.1)">
     <defs>
      <path d="M 44.28125 53.078125 
L 44.28125 44.578125 
Q 40.484375 46.53125 36.375 47.5 
Q 32.28125 48.484375 27.875 48.484375 
Q 21.1875 48.484375 17.84375 46.4375 
Q 14.5 44.390625 14.5 40.28125 
Q 14.5 37.15625 16.890625 35.375 
Q 19.28125 33.59375 26.515625 31.984375 
L 29.59375 31.296875 
Q 39.15625 29.25 43.1875 25.515625 
Q 47.21875 21.78125 47.21875 15.09375 
Q 47.21875 7.46875 41.1875 3.015625 
Q 35.15625 -1.421875 24.609375 -1.421875 
Q 20.21875 -1.421875 15.453125 -0.5625 
Q 10.6875 0.296875 5.421875 2 
L 5.421875 11.28125 
Q 10.40625 8.6875 15.234375 7.390625 
Q 20.0625 6.109375 24.8125 6.109375 
Q 31.15625 6.109375 34.5625 8.28125 
Q 37.984375 10.453125 37.984375 14.40625 
Q 37.984375 18.0625 35.515625 20.015625 
Q 33.0625 21.96875 24.703125 23.78125 
L 21.578125 24.515625 
Q 13.234375 26.265625 9.515625 29.90625 
Q 5.8125 33.546875 5.8125 39.890625 
Q 5.8125 47.609375 11.28125 51.796875 
Q 16.75 56 26.8125 56 
Q 31.78125 56 36.171875 55.265625 
Q 40.578125 54.546875 44.28125 53.078125 
z
" id="DejaVuSans-115"/>
      <path d="M 8.5 21.578125 
L 8.5 54.6875 
L 17.484375 54.6875 
L 17.484375 21.921875 
Q 17.484375 14.15625 20.5 10.265625 
Q 23.53125 6.390625 29.59375 6.390625 
Q 36.859375 6.390625 41.078125 11.03125 
Q 45.3125 15.671875 45.3125 23.6875 
L 45.3125 54.6875 
L 54.296875 54.6875 
L 54.296875 0 
L 45.3125 0 
L 45.3125 8.40625 
Q 42.046875 3.421875 37.71875 1 
Q 33.40625 -1.421875 27.6875 -1.421875 
Q 18.265625 -1.421875 13.375 4.4375 
Q 8.5 10.296875 8.5 21.578125 
z
M 31.109375 56 
z
" id="DejaVuSans-117"/>
      <path d="M 48.78125 52.59375 
L 48.78125 44.1875 
Q 44.96875 46.296875 41.140625 47.34375 
Q 37.3125 48.390625 33.40625 48.390625 
Q 24.65625 48.390625 19.8125 42.84375 
Q 14.984375 37.3125 14.984375 27.296875 
Q 14.984375 17.28125 19.8125 11.734375 
Q 24.65625 6.203125 33.40625 6.203125 
Q 37.3125 6.203125 41.140625 7.25 
Q 44.96875 8.296875 48.78125 10.40625 
L 48.78125 2.09375 
Q 45.015625 0.34375 40.984375 -0.53125 
Q 36.96875 -1.421875 32.421875 -1.421875 
Q 20.0625 -1.421875 12.78125 6.34375 
Q 5.515625 14.109375 5.515625 27.296875 
Q 5.515625 40.671875 12.859375 48.328125 
Q 20.21875 56 33.015625 56 
Q 37.15625 56 41.109375 55.140625 
Q 45.0625 54.296875 48.78125 52.59375 
z
" id="DejaVuSans-99"/>
     </defs>
     <use xlink:href="#DejaVuSans-110"/>
     <use x="63.378906" xlink:href="#DejaVuSans-53"/>
     <use x="127.001953" xlink:href="#DejaVuSans-48"/>
     <use x="190.625" xlink:href="#DejaVuSans-32"/>
     <use x="222.412109" xlink:href="#DejaVuSans-45"/>
     <use x="258.496094" xlink:href="#DejaVuSans-32"/>
     <use x="290.283203" xlink:href="#DejaVuSans-115"/>
     <use x="342.382812" xlink:href="#DejaVuSans-111"/>
     <use x="403.564453" xlink:href="#DejaVuSans-117"/>
     <use x="466.943359" xlink:href="#DejaVuSans-114"/>
     <use x="505.806641" xlink:href="#DejaVuSans-99"/>
     <use x="560.787109" xlink:href="#DejaVuSans-101"/>
    </g>
   </g>
   <g id="text_18">
    <g id="patch_19">
     <path d="M 1683.236781 1352.191793 
L 1745.966468 1352.191793 
L 1745.966468 1334.513668 
L 1683.236781 1334.513668 
z
" style="fill:#ffffff;fill-opacity:0.35;stroke:#ffffff;stroke-linejoin:miter;stroke-opacity:0.35;"/>
    </g>
    <!-- n49 - drain -->
    <g transform="translate(1687.236781 1346.112106)scale(0.1 -0.1)">
     <defs>
      <path d="M 10.984375 1.515625 
L 10.984375 10.5 
Q 14.703125 8.734375 18.5 7.8125 
Q 22.3125 6.890625 25.984375 6.890625 
Q 35.75 6.890625 40.890625 13.453125 
Q 46.046875 20.015625 46.78125 33.40625 
Q 43.953125 29.203125 39.59375 26.953125 
Q 35.25 24.703125 29.984375 24.703125 
Q 19.046875 24.703125 12.671875 31.3125 
Q 6.296875 37.9375 6.296875 49.421875 
Q 6.296875 60.640625 12.9375 67.421875 
Q 19.578125 74.21875 30.609375 74.21875 
Q 43.265625 74.21875 49.921875 64.515625 
Q 56.59375 54.828125 56.59375 36.375 
Q 56.59375 19.140625 48.40625 8.859375 
Q 40.234375 -1.421875 26.421875 -1.421875 
Q 22.703125 -1.421875 18.890625 -0.6875 
Q 15.09375 0.046875 10.984375 1.515625 
z
M 30.609375 32.421875 
Q 37.25 32.421875 41.125 36.953125 
Q 45.015625 41.5 45.015625 49.421875 
Q 45.015625 57.28125 41.125 61.84375 
Q 37.25 66.40625 30.609375 66.40625 
Q 23.96875 66.40625 20.09375 61.84375 
Q 16.21875 57.28125 16.21875 49.421875 
Q 16.21875 41.5 20.09375 36.953125 
Q 23.96875 32.421875 30.609375 32.421875 
z
" id="DejaVuSans-57"/>
      <path d="M 9.421875 54.6875 
L 18.40625 54.6875 
L 18.40625 0 
L 9.421875 0 
z
M 9.421875 75.984375 
L 18.40625 75.984375 
L 18.40625 64.59375 
L 9.421875 64.59375 
z
" id="DejaVuSans-105"/>
     </defs>
     <use xlink:href="#DejaVuSans-110"/>
     <use x="63.378906" xlink:href="#DejaVuSans-52"/>
     <use x="127.001953" xlink:href="#DejaVuSans-57"/>
     <use x="190.625" xlink:href="#DejaVuSans-32"/>
     <use x="222.412109" xlink:href="#DejaVuSans-45"/>
     <use x="258.496094" xlink:href="#DejaVuSans-32"/>
     <use x="290.283203" xlink:href="#DejaVuSans-100"/>
     <use x="353.759766" xlink:href="#DejaVuSans-114"/>
     <use x="394.873047" xlink:href="#DejaVuSans-97"/>
     <use x="456.152344" xlink:href="#DejaVuSans-105"/>
     <use x="483.935547" xlink:href="#DejaVuSans-110"/>
    </g>
   </g>
   <g id="text_19">
    <g id="patch_20">
     <path d="M 1780.570004 1553.483948 
L 1840.146566 1553.483948 
L 1840.146566 1535.805823 
L 1780.570004 1535.805823 
z
" style="fill:#ffffff;fill-opacity:0.35;stroke:#ffffff;stroke-linejoin:miter;stroke-opacity:0.35;"/>
    </g>
    <!-- n48 - gate -->
    <g transform="translate(1784.570004 1547.404261)scale(0.1 -0.1)">
     <defs>
      <path d="M 18.3125 70.21875 
L 18.3125 54.6875 
L 36.8125 54.6875 
L 36.8125 47.703125 
L 18.3125 47.703125 
L 18.3125 18.015625 
Q 18.3125 11.328125 20.140625 9.421875 
Q 21.96875 7.515625 27.59375 7.515625 
L 36.8125 7.515625 
L 36.8125 0 
L 27.59375 0 
Q 17.1875 0 13.234375 3.875 
Q 9.28125 7.765625 9.28125 18.015625 
L 9.28125 47.703125 
L 2.6875 47.703125 
L 2.6875 54.6875 
L 9.28125 54.6875 
L 9.28125 70.21875 
z
" id="DejaVuSans-116"/>
     </defs>
     <use xlink:href="#DejaVuSans-110"/>
     <use x="63.378906" xlink:href="#DejaVuSans-52"/>
     <use x="127.001953" xlink:href="#DejaVuSans-56"/>
     <use x="190.625" xlink:href="#DejaVuSans-32"/>
     <use x="222.412109" xlink:href="#DejaVuSans-45"/>
     <use x="258.496094" xlink:href="#DejaVuSans-32"/>
     <use x="290.283203" xlink:href="#DejaVuSans-103"/>
     <use x="353.759766" xlink:href="#DejaVuSans-97"/>
     <use x="415.039062" xlink:href="#DejaVuSans-116"/>
     <use x="454.248047" xlink:href="#DejaVuSans-101"/>
    </g>
   </g>
   <g id="text_20">
    <g id="patch_21">
     <path d="M 983.823805 1737.595063 
L 1054.053492 1737.595063 
L 1054.053492 1719.916938 
L 983.823805 1719.916938 
z
" style="fill:#ffffff;fill-opacity:0.35;stroke:#ffffff;stroke-linejoin:miter;stroke-opacity:0.35;"/>
    </g>
    <!-- n54 - source -->
    <g transform="translate(987.823805 1731.515375)scale(0.1 -0.1)">
     <use xlink:href="#DejaVuSans-110"/>
     <use x="63.378906" xlink:href="#DejaVuSans-53"/>
     <use x="127.001953" xlink:href="#DejaVuSans-52"/>
     <use x="190.625" xlink:href="#DejaVuSans-32"/>
     <use x="222.412109" xlink:href="#DejaVuSans-45"/>
     <use x="258.496094" xlink:href="#DejaVuSans-32"/>
     <use x="290.283203" xlink:href="#DejaVuSans-115"/>
     <use x="342.382812" xlink:href="#DejaVuSans-111"/>
     <use x="403.564453" xlink:href="#DejaVuSans-117"/>
     <use x="466.943359" xlink:href="#DejaVuSans-114"/>
     <use x="505.806641" xlink:href="#DejaVuSans-99"/>
     <use x="560.787109" xlink:href="#DejaVuSans-101"/>
    </g>
   </g>
   <g id="text_21">
    <g id="patch_22">
     <path d="M 1384.940058 1893.379972 
L 1447.669745 1893.379972 
L 1447.669745 1875.701847 
L 1384.940058 1875.701847 
z
" style="fill:#ffffff;fill-opacity:0.35;stroke:#ffffff;stroke-linejoin:miter;stroke-opacity:0.35;"/>
    </g>
    <!-- n53 - drain -->
    <g transform="translate(1388.940058 1887.300284)scale(0.1 -0.1)">
     <use xlink:href="#DejaVuSans-110"/>
     <use x="63.378906" xlink:href="#DejaVuSans-53"/>
     <use x="127.001953" xlink:href="#DejaVuSans-51"/>
     <use x="190.625" xlink:href="#DejaVuSans-32"/>
     <use x="222.412109" xlink:href="#DejaVuSans-45"/>
     <use x="258.496094" xlink:href="#DejaVuSans-32"/>
     <use x="290.283203" xlink:href="#DejaVuSans-100"/>
     <use x="353.759766" xlink:href="#DejaVuSans-114"/>
     <use x="394.873047" xlink:href="#DejaVuSans-97"/>
     <use x="456.152344" xlink:href="#DejaVuSans-105"/>
     <use x="483.935547" xlink:href="#DejaVuSans-110"/>
    </g>
   </g>
   <g id="text_22">
    <g id="patch_23">
     <path d="M 1152.780467 1685.381376 
L 1208.841404 1685.381376 
L 1208.841404 1667.703251 
L 1152.780467 1667.703251 
z
" style="fill:#ffffff;fill-opacity:0.35;stroke:#ffffff;stroke-linejoin:miter;stroke-opacity:0.35;"/>
    </g>
    <!-- n55 - gnd -->
    <g transform="translate(1156.780467 1679.301689)scale(0.1 -0.1)">
     <use xlink:href="#DejaVuSans-110"/>
     <use x="63.378906" xlink:href="#DejaVuSans-53"/>
     <use x="127.001953" xlink:href="#DejaVuSans-53"/>
     <use x="190.625" xlink:href="#DejaVuSans-32"/>
     <use x="222.412109" xlink:href="#DejaVuSans-45"/>
     <use x="258.496094" xlink:href="#DejaVuSans-32"/>
     <use x="290.283203" xlink:href="#DejaVuSans-103"/>
     <use x="353.759766" xlink:href="#DejaVuSans-110"/>
     <use x="417.138672" xlink:href="#DejaVuSans-100"/>
    </g>
   </g>
   <g id="text_23">
    <g id="patch_24">
     <path d="M 1354.337757 1468.837002 
L 1413.914319 1468.837002 
L 1413.914319 1451.158877 
L 1354.337757 1451.158877 
z
" style="fill:#ffffff;fill-opacity:0.35;stroke:#ffffff;stroke-linejoin:miter;stroke-opacity:0.35;"/>
    </g>
    <!-- n52 - gate -->
    <g transform="translate(1358.337757 1462.757315)scale(0.1 -0.1)">
     <use xlink:href="#DejaVuSans-110"/>
     <use x="63.378906" xlink:href="#DejaVuSans-53"/>
     <use x="127.001953" xlink:href="#DejaVuSans-50"/>
     <use x="190.625" xlink:href="#DejaVuSans-32"/>
     <use x="222.412109" xlink:href="#DejaVuSans-45"/>
     <use x="258.496094" xlink:href="#DejaVuSans-32"/>
     <use x="290.283203" xlink:href="#DejaVuSans-103"/>
     <use x="353.759766" xlink:href="#DejaVuSans-97"/>
     <use x="415.039062" xlink:href="#DejaVuSans-116"/>
     <use x="454.248047" xlink:href="#DejaVuSans-101"/>
    </g>
   </g>
   <g id="text_24">
    <g id="patch_25">
     <path d="M 1936.402789 1204.047281 
L 1978.638727 1204.047281 
L 1978.638727 1186.369156 
L 1936.402789 1186.369156 
z
" style="fill:#ffffff;fill-opacity:0.35;stroke:#ffffff;stroke-linejoin:miter;stroke-opacity:0.35;"/>
    </g>
    <!-- n62 - s -->
    <g transform="translate(1940.402789 1197.967594)scale(0.1 -0.1)">
     <use xlink:href="#DejaVuSans-110"/>
     <use x="63.378906" xlink:href="#DejaVuSans-54"/>
     <use x="127.001953" xlink:href="#DejaVuSans-50"/>
     <use x="190.625" xlink:href="#DejaVuSans-32"/>
     <use x="222.412109" xlink:href="#DejaVuSans-45"/>
     <use x="258.496094" xlink:href="#DejaVuSans-32"/>
     <use x="290.283203" xlink:href="#DejaVuSans-115"/>
    </g>
   </g>
   <g id="text_25">
    <g id="patch_26">
     <path d="M 1818.060437 1418.644707 
L 1861.215125 1418.644707 
L 1861.215125 1400.966582 
L 1818.060437 1400.966582 
z
" style="fill:#ffffff;fill-opacity:0.35;stroke:#ffffff;stroke-linejoin:miter;stroke-opacity:0.35;"/>
    </g>
    <!-- n56 - a -->
    <g transform="translate(1822.060437 1412.565019)scale(0.1 -0.1)">
     <use xlink:href="#DejaVuSans-110"/>
     <use x="63.378906" xlink:href="#DejaVuSans-53"/>
     <use x="127.001953" xlink:href="#DejaVuSans-54"/>
     <use x="190.625" xlink:href="#DejaVuSans-32"/>
     <use x="222.412109" xlink:href="#DejaVuSans-45"/>
     <use x="258.496094" xlink:href="#DejaVuSans-32"/>
     <use x="290.283203" xlink:href="#DejaVuSans-97"/>
    </g>
   </g>
   <g id="text_26">
    <g id="patch_27">
     <path d="M 616.384256 796.376354 
L 659.538943 796.376354 
L 659.538943 778.698229 
L 616.384256 778.698229 
z
" style="fill:#ffffff;fill-opacity:0.35;stroke:#ffffff;stroke-linejoin:miter;stroke-opacity:0.35;"/>
    </g>
    <!-- n43 - a -->
    <g transform="translate(620.384256 790.296666)scale(0.1 -0.1)">
     <use xlink:href="#DejaVuSans-110"/>
     <use x="63.378906" xlink:href="#DejaVuSans-52"/>
     <use x="127.001953" xlink:href="#DejaVuSans-51"/>
     <use x="190.625" xlink:href="#DejaVuSans-32"/>
     <use x="222.412109" xlink:href="#DejaVuSans-45"/>
     <use x="258.496094" xlink:href="#DejaVuSans-32"/>
     <use x="290.283203" xlink:href="#DejaVuSans-97"/>
    </g>
   </g>
   <g id="text_27">
    <g id="patch_28">
     <path d="M 465.219593 921.032687 
L 506.357093 921.032687 
L 506.357093 903.354562 
L 465.219593 903.354562 
z
" style="fill:#ffffff;fill-opacity:0.35;stroke:#ffffff;stroke-linejoin:miter;stroke-opacity:0.35;"/>
    </g>
    <!-- n61 - r -->
    <g transform="translate(469.219593 914.953)scale(0.1 -0.1)">
     <use xlink:href="#DejaVuSans-110"/>
     <use x="63.378906" xlink:href="#DejaVuSans-54"/>
     <use x="127.001953" xlink:href="#DejaVuSans-49"/>
     <use x="190.625" xlink:href="#DejaVuSans-32"/>
     <use x="222.412109" xlink:href="#DejaVuSans-45"/>
     <use x="258.496094" xlink:href="#DejaVuSans-32"/>
     <use x="290.283203" xlink:href="#DejaVuSans-114"/>
    </g>
   </g>
   <g id="text_28">
    <g id="patch_29">
     <path d="M 768.724009 593.500656 
L 828.300572 593.500656 
L 828.300572 575.822531 
L 768.724009 575.822531 
z
" style="fill:#ffffff;fill-opacity:0.35;stroke:#ffffff;stroke-linejoin:miter;stroke-opacity:0.35;"/>
    </g>
    <!-- n35 - gate -->
    <g transform="translate(772.724009 587.420968)scale(0.1 -0.1)">
     <use xlink:href="#DejaVuSans-110"/>
     <use x="63.378906" xlink:href="#DejaVuSans-51"/>
     <use x="127.001953" xlink:href="#DejaVuSans-53"/>
     <use x="190.625" xlink:href="#DejaVuSans-32"/>
     <use x="222.412109" xlink:href="#DejaVuSans-45"/>
     <use x="258.496094" xlink:href="#DejaVuSans-32"/>
     <use x="290.283203" xlink:href="#DejaVuSans-103"/>
     <use x="353.759766" xlink:href="#DejaVuSans-97"/>
     <use x="415.039062" xlink:href="#DejaVuSans-116"/>
     <use x="454.248047" xlink:href="#DejaVuSans-101"/>
    </g>
   </g>
   <g id="text_29">
    <g id="patch_30">
     <path d="M 1351.508096 590.351036 
L 1414.237784 590.351036 
L 1414.237784 572.672911 
L 1351.508096 572.672911 
z
" style="fill:#ffffff;fill-opacity:0.35;stroke:#ffffff;stroke-linejoin:miter;stroke-opacity:0.35;"/>
    </g>
    <!-- n36 - drain -->
    <g transform="translate(1355.508096 584.271348)scale(0.1 -0.1)">
     <use xlink:href="#DejaVuSans-110"/>
     <use x="63.378906" xlink:href="#DejaVuSans-51"/>
     <use x="127.001953" xlink:href="#DejaVuSans-54"/>
     <use x="190.625" xlink:href="#DejaVuSans-32"/>
     <use x="222.412109" xlink:href="#DejaVuSans-45"/>
     <use x="258.496094" xlink:href="#DejaVuSans-32"/>
     <use x="290.283203" xlink:href="#DejaVuSans-100"/>
     <use x="353.759766" xlink:href="#DejaVuSans-114"/>
     <use x="394.873047" xlink:href="#DejaVuSans-97"/>
     <use x="456.152344" xlink:href="#DejaVuSans-105"/>
     <use x="483.935547" xlink:href="#DejaVuSans-110"/>
    </g>
   </g>
   <g id="text_30">
    <g id="patch_31">
     <path d="M 1022.147939 451.338153 
L 1092.377627 451.338153 
L 1092.377627 433.660028 
L 1022.147939 433.660028 
z
" style="fill:#ffffff;fill-opacity:0.35;stroke:#ffffff;stroke-linejoin:miter;stroke-opacity:0.35;"/>
    </g>
    <!-- n37 - source -->
    <g transform="translate(1026.147939 445.258466)scale(0.1 -0.1)">
     <use xlink:href="#DejaVuSans-110"/>
     <use x="63.378906" xlink:href="#DejaVuSans-51"/>
     <use x="127.001953" xlink:href="#DejaVuSans-55"/>
     <use x="190.625" xlink:href="#DejaVuSans-32"/>
     <use x="222.412109" xlink:href="#DejaVuSans-45"/>
     <use x="258.496094" xlink:href="#DejaVuSans-32"/>
     <use x="290.283203" xlink:href="#DejaVuSans-115"/>
     <use x="342.382812" xlink:href="#DejaVuSans-111"/>
     <use x="403.564453" xlink:href="#DejaVuSans-117"/>
     <use x="466.943359" xlink:href="#DejaVuSans-114"/>
     <use x="505.806641" xlink:href="#DejaVuSans-99"/>
     <use x="560.787109" xlink:href="#DejaVuSans-101"/>
    </g>
   </g>
   <g id="text_31">
    <g id="patch_32">
     <path d="M 1087.107428 833.861469 
L 1143.168365 833.861469 
L 1143.168365 816.183344 
L 1087.107428 816.183344 
z
" style="fill:#ffffff;fill-opacity:0.35;stroke:#ffffff;stroke-linejoin:miter;stroke-opacity:0.35;"/>
    </g>
    <!-- n38 - gnd -->
    <g transform="translate(1091.107428 827.781782)scale(0.1 -0.1)">
     <use xlink:href="#DejaVuSans-110"/>
     <use x="63.378906" xlink:href="#DejaVuSans-51"/>
     <use x="127.001953" xlink:href="#DejaVuSans-56"/>
     <use x="190.625" xlink:href="#DejaVuSans-32"/>
     <use x="222.412109" xlink:href="#DejaVuSans-45"/>
     <use x="258.496094" xlink:href="#DejaVuSans-32"/>
     <use x="290.283203" xlink:href="#DejaVuSans-103"/>
     <use x="353.759766" xlink:href="#DejaVuSans-110"/>
     <use x="417.138672" xlink:href="#DejaVuSans-100"/>
    </g>
   </g>
   <g id="text_32">
    <g id="patch_33">
     <path d="M 1662.159265 1170.324536 
L 1716.101452 1170.324536 
L 1716.101452 1152.646411 
L 1662.159265 1152.646411 
z
" style="fill:#ffffff;fill-opacity:0.35;stroke:#ffffff;stroke-linejoin:miter;stroke-opacity:0.35;"/>
    </g>
    <!-- n59 - vcc -->
    <g transform="translate(1666.159265 1164.244849)scale(0.1 -0.1)">
     <defs>
      <path d="M 2.984375 54.6875 
L 12.5 54.6875 
L 29.59375 8.796875 
L 46.6875 54.6875 
L 56.203125 54.6875 
L 35.6875 0 
L 23.484375 0 
z
" id="DejaVuSans-118"/>
     </defs>
     <use xlink:href="#DejaVuSans-110"/>
     <use x="63.378906" xlink:href="#DejaVuSans-53"/>
     <use x="127.001953" xlink:href="#DejaVuSans-57"/>
     <use x="190.625" xlink:href="#DejaVuSans-32"/>
     <use x="222.412109" xlink:href="#DejaVuSans-45"/>
     <use x="258.496094" xlink:href="#DejaVuSans-32"/>
     <use x="290.283203" xlink:href="#DejaVuSans-118"/>
     <use x="349.462891" xlink:href="#DejaVuSans-99"/>
     <use x="404.443359" xlink:href="#DejaVuSans-99"/>
    </g>
   </g>
   <g id="text_33">
    <g id="patch_34">
     <path d="M 1498.447597 1250.722544 
L 1541.822597 1250.722544 
L 1541.822597 1233.044419 
L 1498.447597 1233.044419 
z
" style="fill:#ffffff;fill-opacity:0.35;stroke:#ffffff;stroke-linejoin:miter;stroke-opacity:0.35;"/>
    </g>
    <!-- n57 - b -->
    <g transform="translate(1502.447597 1244.642857)scale(0.1 -0.1)">
     <defs>
      <path d="M 48.6875 27.296875 
Q 48.6875 37.203125 44.609375 42.84375 
Q 40.53125 48.484375 33.40625 48.484375 
Q 26.265625 48.484375 22.1875 42.84375 
Q 18.109375 37.203125 18.109375 27.296875 
Q 18.109375 17.390625 22.1875 11.75 
Q 26.265625 6.109375 33.40625 6.109375 
Q 40.53125 6.109375 44.609375 11.75 
Q 48.6875 17.390625 48.6875 27.296875 
z
M 18.109375 46.390625 
Q 20.953125 51.265625 25.265625 53.625 
Q 29.59375 56 35.59375 56 
Q 45.5625 56 51.78125 48.09375 
Q 58.015625 40.1875 58.015625 27.296875 
Q 58.015625 14.40625 51.78125 6.484375 
Q 45.5625 -1.421875 35.59375 -1.421875 
Q 29.59375 -1.421875 25.265625 0.953125 
Q 20.953125 3.328125 18.109375 8.203125 
L 18.109375 0 
L 9.078125 0 
L 9.078125 75.984375 
L 18.109375 75.984375 
z
" id="DejaVuSans-98"/>
     </defs>
     <use xlink:href="#DejaVuSans-110"/>
     <use x="63.378906" xlink:href="#DejaVuSans-53"/>
     <use x="127.001953" xlink:href="#DejaVuSans-55"/>
     <use x="190.625" xlink:href="#DejaVuSans-32"/>
     <use x="222.412109" xlink:href="#DejaVuSans-45"/>
     <use x="258.496094" xlink:href="#DejaVuSans-32"/>
     <use x="290.283203" xlink:href="#DejaVuSans-98"/>
    </g>
   </g>
   <g id="text_34">
    <g id="patch_35">
     <path d="M 928.236903 1603.240976 
L 981.640028 1603.240976 
L 981.640028 1585.562851 
L 928.236903 1585.562851 
z
" style="fill:#ffffff;fill-opacity:0.35;stroke:#ffffff;stroke-linejoin:miter;stroke-opacity:0.35;"/>
    </g>
    <!-- n58 - out -->
    <g transform="translate(932.236903 1597.161288)scale(0.1 -0.1)">
     <use xlink:href="#DejaVuSans-110"/>
     <use x="63.378906" xlink:href="#DejaVuSans-53"/>
     <use x="127.001953" xlink:href="#DejaVuSans-56"/>
     <use x="190.625" xlink:href="#DejaVuSans-32"/>
     <use x="222.412109" xlink:href="#DejaVuSans-45"/>
     <use x="258.496094" xlink:href="#DejaVuSans-32"/>
     <use x="290.283203" xlink:href="#DejaVuSans-111"/>
     <use x="351.464844" xlink:href="#DejaVuSans-117"/>
     <use x="414.84375" xlink:href="#DejaVuSans-116"/>
    </g>
   </g>
   <g id="text_35">
    <g id="patch_36">
     <path d="M 1141.926854 1516.675636 
L 1197.987792 1516.675636 
L 1197.987792 1498.997511 
L 1141.926854 1498.997511 
z
" style="fill:#ffffff;fill-opacity:0.35;stroke:#ffffff;stroke-linejoin:miter;stroke-opacity:0.35;"/>
    </g>
    <!-- n60 - gnd -->
    <g transform="translate(1145.926854 1510.595949)scale(0.1 -0.1)">
     <use xlink:href="#DejaVuSans-110"/>
     <use x="63.378906" xlink:href="#DejaVuSans-54"/>
     <use x="127.001953" xlink:href="#DejaVuSans-48"/>
     <use x="190.625" xlink:href="#DejaVuSans-32"/>
     <use x="222.412109" xlink:href="#DejaVuSans-45"/>
     <use x="258.496094" xlink:href="#DejaVuSans-32"/>
     <use x="290.283203" xlink:href="#DejaVuSans-103"/>
     <use x="353.759766" xlink:href="#DejaVuSans-110"/>
     <use x="417.138672" xlink:href="#DejaVuSans-100"/>
    </g>
   </g>
   <g id="text_36">
    <g id="patch_37">
     <path d="M 791.466261 953.062511 
L 847.527198 953.062511 
L 847.527198 935.384386 
L 791.466261 935.384386 
z
" style="fill:#ffffff;fill-opacity:0.35;stroke:#ffffff;stroke-linejoin:miter;stroke-opacity:0.35;"/>
    </g>
    <!-- n42 - gnd -->
    <g transform="translate(795.466261 946.982824)scale(0.1 -0.1)">
     <use xlink:href="#DejaVuSans-110"/>
     <use x="63.378906" xlink:href="#DejaVuSans-52"/>
     <use x="127.001953" xlink:href="#DejaVuSans-50"/>
     <use x="190.625" xlink:href="#DejaVuSans-32"/>
     <use x="222.412109" xlink:href="#DejaVuSans-45"/>
     <use x="258.496094" xlink:href="#DejaVuSans-32"/>
     <use x="290.283203" xlink:href="#DejaVuSans-103"/>
     <use x="353.759766" xlink:href="#DejaVuSans-110"/>
     <use x="417.138672" xlink:href="#DejaVuSans-100"/>
    </g>
   </g>
   <g id="text_37">
    <g id="patch_38">
     <path d="M 783.581176 1372.891281 
L 839.642114 1372.891281 
L 839.642114 1355.213156 
L 783.581176 1355.213156 
z
" style="fill:#ffffff;fill-opacity:0.35;stroke:#ffffff;stroke-linejoin:miter;stroke-opacity:0.35;"/>
    </g>
    <!-- n64 - gnd -->
    <g transform="translate(787.581176 1366.811594)scale(0.1 -0.1)">
     <use xlink:href="#DejaVuSans-110"/>
     <use x="63.378906" xlink:href="#DejaVuSans-54"/>
     <use x="127.001953" xlink:href="#DejaVuSans-52"/>
     <use x="190.625" xlink:href="#DejaVuSans-32"/>
     <use x="222.412109" xlink:href="#DejaVuSans-45"/>
     <use x="258.496094" xlink:href="#DejaVuSans-32"/>
     <use x="290.283203" xlink:href="#DejaVuSans-103"/>
     <use x="353.759766" xlink:href="#DejaVuSans-110"/>
     <use x="417.138672" xlink:href="#DejaVuSans-100"/>
    </g>
   </g>
   <g id="text_38">
    <g id="patch_39">
     <path d="M 884.147354 1091.754689 
L 940.208292 1091.754689 
L 940.208292 1074.076564 
L 884.147354 1074.076564 
z
" style="fill:#ffffff;fill-opacity:0.35;stroke:#ffffff;stroke-linejoin:miter;stroke-opacity:0.35;"/>
    </g>
    <!-- n47 - gnd -->
    <g transform="translate(888.147354 1085.675001)scale(0.1 -0.1)">
     <use xlink:href="#DejaVuSans-110"/>
     <use x="63.378906" xlink:href="#DejaVuSans-52"/>
     <use x="127.001953" xlink:href="#DejaVuSans-55"/>
     <use x="190.625" xlink:href="#DejaVuSans-32"/>
     <use x="222.412109" xlink:href="#DejaVuSans-45"/>
     <use x="258.496094" xlink:href="#DejaVuSans-32"/>
     <use x="290.283203" xlink:href="#DejaVuSans-103"/>
     <use x="353.759766" xlink:href="#DejaVuSans-110"/>
     <use x="417.138672" xlink:href="#DejaVuSans-100"/>
    </g>
   </g>
   <g id="text_39">
    <g id="patch_40">
     <path d="M 860.062107 484.570207 
L 922.791794 484.570207 
L 922.791794 466.892082 
L 860.062107 466.892082 
z
" style="fill:#ffffff;fill-opacity:0.35;stroke:#ffffff;stroke-linejoin:miter;stroke-opacity:0.35;"/>
    </g>
    <!-- n40 - drain -->
    <g transform="translate(864.062107 478.490519)scale(0.1 -0.1)">
     <use xlink:href="#DejaVuSans-110"/>
     <use x="63.378906" xlink:href="#DejaVuSans-52"/>
     <use x="127.001953" xlink:href="#DejaVuSans-48"/>
     <use x="190.625" xlink:href="#DejaVuSans-32"/>
     <use x="222.412109" xlink:href="#DejaVuSans-45"/>
     <use x="258.496094" xlink:href="#DejaVuSans-32"/>
     <use x="290.283203" xlink:href="#DejaVuSans-100"/>
     <use x="353.759766" xlink:href="#DejaVuSans-114"/>
     <use x="394.873047" xlink:href="#DejaVuSans-97"/>
     <use x="456.152344" xlink:href="#DejaVuSans-105"/>
     <use x="483.935547" xlink:href="#DejaVuSans-110"/>
    </g>
   </g>
   <g id="text_40">
    <g id="patch_41">
     <path d="M 623.496844 1058.990211 
L 683.073407 1058.990211 
L 683.073407 1041.312086 
L 623.496844 1041.312086 
z
" style="fill:#ffffff;fill-opacity:0.35;stroke:#ffffff;stroke-linejoin:miter;stroke-opacity:0.35;"/>
    </g>
    <!-- n39 - gate -->
    <g transform="translate(627.496844 1052.910523)scale(0.1 -0.1)">
     <use xlink:href="#DejaVuSans-110"/>
     <use x="63.378906" xlink:href="#DejaVuSans-51"/>
     <use x="127.001953" xlink:href="#DejaVuSans-57"/>
     <use x="190.625" xlink:href="#DejaVuSans-32"/>
     <use x="222.412109" xlink:href="#DejaVuSans-45"/>
     <use x="258.496094" xlink:href="#DejaVuSans-32"/>
     <use x="290.283203" xlink:href="#DejaVuSans-103"/>
     <use x="353.759766" xlink:href="#DejaVuSans-97"/>
     <use x="415.039062" xlink:href="#DejaVuSans-116"/>
     <use x="454.248047" xlink:href="#DejaVuSans-101"/>
    </g>
   </g>
   <g id="text_41">
    <g id="patch_42">
     <path d="M 1612.167804 721.446241 
L 1655.542804 721.446241 
L 1655.542804 703.768116 
L 1612.167804 703.768116 
z
" style="fill:#ffffff;fill-opacity:0.35;stroke:#ffffff;stroke-linejoin:miter;stroke-opacity:0.35;"/>
    </g>
    <!-- n65 - q -->
    <g transform="translate(1616.167804 715.366554)scale(0.1 -0.1)">
     <defs>
      <path d="M 14.796875 27.296875 
Q 14.796875 17.390625 18.875 11.75 
Q 22.953125 6.109375 30.078125 6.109375 
Q 37.203125 6.109375 41.296875 11.75 
Q 45.40625 17.390625 45.40625 27.296875 
Q 45.40625 37.203125 41.296875 42.84375 
Q 37.203125 48.484375 30.078125 48.484375 
Q 22.953125 48.484375 18.875 42.84375 
Q 14.796875 37.203125 14.796875 27.296875 
z
M 45.40625 8.203125 
Q 42.578125 3.328125 38.25 0.953125 
Q 33.9375 -1.421875 27.875 -1.421875 
Q 17.96875 -1.421875 11.734375 6.484375 
Q 5.515625 14.40625 5.515625 27.296875 
Q 5.515625 40.1875 11.734375 48.09375 
Q 17.96875 56 27.875 56 
Q 33.9375 56 38.25 53.625 
Q 42.578125 51.265625 45.40625 46.390625 
L 45.40625 54.6875 
L 54.390625 54.6875 
L 54.390625 -20.796875 
L 45.40625 -20.796875 
z
" id="DejaVuSans-113"/>
     </defs>
     <use xlink:href="#DejaVuSans-110"/>
     <use x="63.378906" xlink:href="#DejaVuSans-54"/>
     <use x="127.001953" xlink:href="#DejaVuSans-53"/>
     <use x="190.625" xlink:href="#DejaVuSans-32"/>
     <use x="222.412109" xlink:href="#DejaVuSans-45"/>
     <use x="258.496094" xlink:href="#DejaVuSans-32"/>
     <use x="290.283203" xlink:href="#DejaVuSans-113"/>
    </g>
   </g>
   <g id="text_42">
    <g id="patch_43">
     <path d="M 1053.345882 700.519457 
L 1123.57557 700.519457 
L 1123.57557 682.841332 
L 1053.345882 682.841332 
z
" style="fill:#ffffff;fill-opacity:0.35;stroke:#ffffff;stroke-linejoin:miter;stroke-opacity:0.35;"/>
    </g>
    <!-- n41 - source -->
    <g transform="translate(1057.345882 694.439769)scale(0.1 -0.1)">
     <use xlink:href="#DejaVuSans-110"/>
     <use x="63.378906" xlink:href="#DejaVuSans-52"/>
     <use x="127.001953" xlink:href="#DejaVuSans-49"/>
     <use x="190.625" xlink:href="#DejaVuSans-32"/>
     <use x="222.412109" xlink:href="#DejaVuSans-45"/>
     <use x="258.496094" xlink:href="#DejaVuSans-32"/>
     <use x="290.283203" xlink:href="#DejaVuSans-115"/>
     <use x="342.382812" xlink:href="#DejaVuSans-111"/>
     <use x="403.564453" xlink:href="#DejaVuSans-117"/>
     <use x="466.943359" xlink:href="#DejaVuSans-114"/>
     <use x="505.806641" xlink:href="#DejaVuSans-99"/>
     <use x="560.787109" xlink:href="#DejaVuSans-101"/>
    </g>
   </g>
   <g id="text_43">
    <g id="patch_44">
     <path d="M 1410.168278 756.152288 
L 1464.110465 756.152288 
L 1464.110465 738.474163 
L 1410.168278 738.474163 
z
" style="fill:#ffffff;fill-opacity:0.35;stroke:#ffffff;stroke-linejoin:miter;stroke-opacity:0.35;"/>
    </g>
    <!-- n46 - vcc -->
    <g transform="translate(1414.168278 750.0726)scale(0.1 -0.1)">
     <use xlink:href="#DejaVuSans-110"/>
     <use x="63.378906" xlink:href="#DejaVuSans-52"/>
     <use x="127.001953" xlink:href="#DejaVuSans-54"/>
     <use x="190.625" xlink:href="#DejaVuSans-32"/>
     <use x="222.412109" xlink:href="#DejaVuSans-45"/>
     <use x="258.496094" xlink:href="#DejaVuSans-32"/>
     <use x="290.283203" xlink:href="#DejaVuSans-118"/>
     <use x="349.462891" xlink:href="#DejaVuSans-99"/>
     <use x="404.443359" xlink:href="#DejaVuSans-99"/>
    </g>
   </g>
   <g id="text_44">
    <g id="patch_45">
     <path d="M 1837.337054 932.332268 
L 1891.279241 932.332268 
L 1891.279241 914.654143 
L 1837.337054 914.654143 
z
" style="fill:#ffffff;fill-opacity:0.35;stroke:#ffffff;stroke-linejoin:miter;stroke-opacity:0.35;"/>
    </g>
    <!-- n63 - vcc -->
    <g transform="translate(1841.337054 926.25258)scale(0.1 -0.1)">
     <use xlink:href="#DejaVuSans-110"/>
     <use x="63.378906" xlink:href="#DejaVuSans-54"/>
     <use x="127.001953" xlink:href="#DejaVuSans-51"/>
     <use x="190.625" xlink:href="#DejaVuSans-32"/>
     <use x="222.412109" xlink:href="#DejaVuSans-45"/>
     <use x="258.496094" xlink:href="#DejaVuSans-32"/>
     <use x="290.283203" xlink:href="#DejaVuSans-118"/>
     <use x="349.462891" xlink:href="#DejaVuSans-99"/>
     <use x="404.443359" xlink:href="#DejaVuSans-99"/>
    </g>
   </g>
   <g id="text_45">
    <g id="patch_46">
     <path d="M 682.854079 1592.63897 
L 732.577517 1592.63897 
L 732.577517 1574.960845 
L 682.854079 1574.960845 
z
" style="fill:#ffffff;fill-opacity:0.35;stroke:#ffffff;stroke-linejoin:miter;stroke-opacity:0.35;"/>
    </g>
    <!-- n66 - qp -->
    <g transform="translate(686.854079 1586.559283)scale(0.1 -0.1)">
     <defs>
      <path d="M 18.109375 8.203125 
L 18.109375 -20.796875 
L 9.078125 -20.796875 
L 9.078125 54.6875 
L 18.109375 54.6875 
L 18.109375 46.390625 
Q 20.953125 51.265625 25.265625 53.625 
Q 29.59375 56 35.59375 56 
Q 45.5625 56 51.78125 48.09375 
Q 58.015625 40.1875 58.015625 27.296875 
Q 58.015625 14.40625 51.78125 6.484375 
Q 45.5625 -1.421875 35.59375 -1.421875 
Q 29.59375 -1.421875 25.265625 0.953125 
Q 20.953125 3.328125 18.109375 8.203125 
z
M 48.6875 27.296875 
Q 48.6875 37.203125 44.609375 42.84375 
Q 40.53125 48.484375 33.40625 48.484375 
Q 26.265625 48.484375 22.1875 42.84375 
Q 18.109375 37.203125 18.109375 27.296875 
Q 18.109375 17.390625 22.1875 11.75 
Q 26.265625 6.109375 33.40625 6.109375 
Q 40.53125 6.109375 44.609375 11.75 
Q 48.6875 17.390625 48.6875 27.296875 
z
" id="DejaVuSans-112"/>
     </defs>
     <use xlink:href="#DejaVuSans-110"/>
     <use x="63.378906" xlink:href="#DejaVuSans-54"/>
     <use x="127.001953" xlink:href="#DejaVuSans-54"/>
     <use x="190.625" xlink:href="#DejaVuSans-32"/>
     <use x="222.412109" xlink:href="#DejaVuSans-45"/>
     <use x="258.496094" xlink:href="#DejaVuSans-32"/>
     <use x="290.283203" xlink:href="#DejaVuSans-113"/>
     <use x="353.759766" xlink:href="#DejaVuSans-112"/>
    </g>
   </g>
   <g id="text_46">
    <g id="patch_47">
     <path d="M 652.193031 1206.059905 
L 695.568031 1206.059905 
L 695.568031 1188.38178 
L 652.193031 1188.38178 
z
" style="fill:#ffffff;fill-opacity:0.35;stroke:#ffffff;stroke-linejoin:miter;stroke-opacity:0.35;"/>
    </g>
    <!-- n44 - b -->
    <g transform="translate(656.193031 1199.980218)scale(0.1 -0.1)">
     <use xlink:href="#DejaVuSans-110"/>
     <use x="63.378906" xlink:href="#DejaVuSans-52"/>
     <use x="127.001953" xlink:href="#DejaVuSans-52"/>
     <use x="190.625" xlink:href="#DejaVuSans-32"/>
     <use x="222.412109" xlink:href="#DejaVuSans-45"/>
     <use x="258.496094" xlink:href="#DejaVuSans-32"/>
     <use x="290.283203" xlink:href="#DejaVuSans-98"/>
    </g>
   </g>
   <g id="text_47">
    <g id="patch_48">
     <path d="M 1255.225875 714.701079 
L 1308.629 714.701079 
L 1308.629 697.022954 
L 1255.225875 697.022954 
z
" style="fill:#ffffff;fill-opacity:0.35;stroke:#ffffff;stroke-linejoin:miter;stroke-opacity:0.35;"/>
    </g>
    <!-- n45 - out -->
    <g transform="translate(1259.225875 708.621392)scale(0.1 -0.1)">
     <use xlink:href="#DejaVuSans-110"/>
     <use x="63.378906" xlink:href="#DejaVuSans-52"/>
     <use x="127.001953" xlink:href="#DejaVuSans-53"/>
     <use x="190.625" xlink:href="#DejaVuSans-32"/>
     <use x="222.412109" xlink:href="#DejaVuSans-45"/>
     <use x="258.496094" xlink:href="#DejaVuSans-32"/>
     <use x="290.283203" xlink:href="#DejaVuSans-111"/>
     <use x="351.464844" xlink:href="#DejaVuSans-117"/>
     <use x="414.84375" xlink:href="#DejaVuSans-116"/>
    </g>
   </g>
  </g>
 </g>
 <defs>
  <clipPath id="pf62b971af2">
   <rect height="1774.08" width="1785.6" x="288" y="276.48"/>
  </clipPath>
 </defs>
</svg>
